<?xml version="1.0" standalone="no"?><!DOCTYPE svg PUBLIC "-//W3C//DTD SVG 1.1//EN" "http://www.w3.org/Graphics/SVG/1.1/DTD/svg11.dtd"><svg width="1400" height="1400" version="1.1" xmlns="http://www.w3.org/2000/svg" xmlns:xlink="http://www.w3.org/1999/xlink"><defs xmlns="http://www.w3.org/1999/xhtml"><style type="text/css"><![CDATA[
.node circle { fill: rgb(153, 153, 153); }
.node text { font-style: normal; font-variant-caps: normal; font-weight: normal; font-stretch: normal; font-size: 10px; line-height: normal; font-family: sans-serif; }
.node--internal circle { fill: rgb(85, 85, 85); }
.node--internal text { text-shadow: rgb(255, 255, 255) 0px 1px 0px, rgb(255, 255, 255) 0px -1px 0px, rgb(255, 255, 255) 1px 0px 0px, rgb(255, 255, 255) -1px 0px 0px; }
.link { fill: none; stroke: rgb(85, 85, 85); stroke-opacity: 0.4; stroke-width: 1.5px; }]]></style></defs><g transform="translate(740,790)"><path class="link" d="M0,0C-67.73722371596793,48.539808072316845,75.33244109362029,35.62959111919016,150.66488218724058,71.25918223838032"/><path class="link" d="M0,0C-67.73722371596793,48.539808072316845,-80.83593776621201,-20.248348325271913,-161.67187553242402,-40.496696650543825"/><path class="link" d="M0,0C-67.73722371596793,48.539808072316845,-9.52391374723723,-82.78731491828702,-19.04782749447446,-165.57462983657405"/><path class="link" d="M150.66488218724058,71.25918223838032C225.99732328086085,106.88877335757049,117.84918420649946,-220.48031608708874,157.13224560866593,-293.97375478278497"/><path class="link" d="M150.66488218724058,71.25918223838032C225.99732328086085,106.88877335757049,247.86121534345259,-32.63154805501297,330.4816204579368,-43.50873074001729"/><path class="link" d="M150.66488218724058,71.25918223838032C225.99732328086085,106.88877335757049,227.71595623029395,103.17675745109867,303.62127497372524,137.5690099347982"/><path class="link" d="M150.66488218724058,71.25918223838032C225.99732328086085,106.88877335757049,176.77669529663697,176.7766952966368,235.70226039551596,235.70226039551574"/><path class="link" d="M150.66488218724058,71.25918223838032C225.99732328086085,106.88877335757049,80.35986632579052,236.73253237377637,107.14648843438735,315.64337649836847"/><path class="link" d="M150.66488218724058,71.25918223838032C225.99732328086085,106.88877335757049,-8.179770705443955,249.8661468690914,-10.906360940591938,333.1548624921219"/><path class="link" d="M150.66488218724058,71.25918223838032C225.99732328086085,106.88877335757049,-95.67085809127222,230.9698831278218,-127.56114412169629,307.95984417042905"/><path class="link" d="M-161.67187553242402,-40.496696650543825C-242.50781329863605,-60.74504497581574,-187.95995186974432,164.83645377501725,-250.61326915965907,219.78193836668964"/><path class="link" d="M-161.67187553242402,-40.496696650543825C-242.50781329863605,-60.74504497581574,-245.1963201008076,-48.77258050403209,-326.9284268010768,-65.03010733870946"/><path class="link" d="M-161.67187553242402,-40.496696650543825C-242.50781329863605,-60.74504497581574,-88.06251198030847,-233.9764816893314,-117.41668264041128,-311.96864225244184"/><path class="link" d="M-19.04782749447446,-165.57462983657405C-28.571741241711692,-248.3619447548611,-40.72386834864724,-246.66083302121973,-54.29849113152965,-328.88111069495966"/><path class="link" d="M-19.04782749447446,-165.57462983657405C-28.571741241711692,-248.3619447548611,-16.350782307535905,-249.46473080965086,-21.80104307671454,-332.61964107953446"/><path class="link" d="M157.13224560866593,-293.97375478278497C196.4153070108324,-367.4671934784812,27.251303845892842,-415.77455134941806,32.70156461507141,-498.9294616193017"/><path class="link" d="M157.13224560866593,-293.97375478278497C196.4153070108324,-367.4671934784812,54.38591342502136,-413.102025572421,65.26309611002563,-495.7224306869052"/><path class="link" d="M157.13224560866593,-293.97375478278497C196.4153070108324,-367.4671934784812,81.28763417338679,-408.660533501346,97.54516100806416,-490.3926402016152"/><path class="link" d="M157.13224560866593,-293.97375478278497C196.4153070108324,-367.4671934784812,107.84126879271687,-402.4690942871118,129.40952255126027,-482.9629131445342"/><path class="link" d="M157.13224560866593,-293.97375478278497C196.4153070108324,-367.4671934784812,133.93311054298385,-394.5542206229607,160.7197326515806,-473.4650647475529"/><path class="link" d="M157.13224560866593,-293.97375478278497C196.4153070108324,-367.4671934784812,159.45143015212076,-384.9498052130361,191.34171618254493,-461.93976625564335"/><path class="link" d="M157.13224560866593,-293.97375478278497C196.4153070108324,-367.4671934784812,184.2869542579171,-373.6969756386202,221.14434510950053,-448.4363707663442"/><path class="link" d="M157.13224560866593,-293.97375478278497C196.4153070108324,-367.4671934784812,208.33333333333312,-360.8439182435162,249.99999999999977,-433.01270189221947"/><path class="link" d="M157.13224560866593,-293.97375478278497C196.4153070108324,-367.4671934784812,231.48759709150093,-346.4456717927271,277.7851165098011,-415.73480615127255"/><path class="link" d="M157.13224560866593,-293.97375478278497C196.4153070108324,-367.4671934784812,253.6505954203002,-330.56389178801464,304.3807145043603,-396.6766701456176"/><path class="link" d="M157.13224560866593,-293.97375478278497C196.4153070108324,-367.4671934784812,274.7274229583619,-313.266586449574,329.6729075500343,-375.9199037394888"/><path class="link" d="M157.13224560866593,-293.97375478278497C196.4153070108324,-367.4671934784812,294.6278254943948,-294.62782549439476,353.5533905932738,-353.5533905932737"/><path class="link" d="M157.13224560866593,-293.97375478278497C196.4153070108324,-367.4671934784812,313.2665864495738,-274.727422958362,375.91990373948863,-329.6729075500345"/><path class="link" d="M157.13224560866593,-293.97375478278497C196.4153070108324,-367.4671934784812,330.56389178801453,-253.6505954203004,396.6766701456175,-304.38071450436047"/><path class="link" d="M330.4816204579368,-43.50873074001729C413.1020255724209,-54.38591342502161,360.843918243516,-208.3333333333334,433.01270189221924,-250.0000000000001"/><path class="link" d="M330.4816204579368,-43.50873074001729C413.1020255724209,-54.38591342502161,373.6969756386201,-184.28695425791724,448.4363707663441,-221.1443451095007"/><path class="link" d="M330.4816204579368,-43.50873074001729C413.1020255724209,-54.38591342502161,384.9498052130361,-159.45143015212088,461.9397662556433,-191.3417161825451"/><path class="link" d="M330.4816204579368,-43.50873074001729C413.1020255724209,-54.38591342502161,394.5542206229606,-133.9331105429841,473.4650647475528,-160.71973265158093"/><path class="link" d="M330.4816204579368,-43.50873074001729C413.1020255724209,-54.38591342502161,402.4690942871117,-107.84126879271703,482.9629131445341,-129.40952255126047"/><path class="link" d="M330.4816204579368,-43.50873074001729C413.1020255724209,-54.38591342502161,408.6605335013459,-81.28763417338695,490.39264020161517,-97.54516100806434"/><path class="link" d="M330.4816204579368,-43.50873074001729C413.1020255724209,-54.38591342502161,413.1020255724209,-54.38591342502161,495.72243068690517,-65.26309611002594"/><path class="link" d="M330.4816204579368,-43.50873074001729C413.1020255724209,-54.38591342502161,415.77455134941806,-27.251303845893094,498.9294616193017,-32.70156461507172"/><path class="link" d="M330.4816204579368,-43.50873074001729C413.1020255724209,-54.38591342502161,416.66666666666663,-1.850371707708594e-13,500,-2.220446049250313e-13"/><path class="link" d="M330.4816204579368,-43.50873074001729C413.1020255724209,-54.38591342502161,415.77455134941806,27.251303845892817,498.9294616193017,32.70156461507138"/><path class="link" d="M330.4816204579368,-43.50873074001729C413.1020255724209,-54.38591342502161,413.1020255724209,54.38591342502143,495.72243068690517,65.26309611002571"/><path class="link" d="M330.4816204579368,-43.50873074001729C413.1020255724209,-54.38591342502161,408.660533501346,81.28763417338676,490.3926402016152,97.54516100806413"/><path class="link" d="M330.4816204579368,-43.50873074001729C413.1020255724209,-54.38591342502161,402.4690942871118,107.84126879271685,482.9629131445342,129.40952255126024"/><path class="link" d="M303.62127497372524,137.5690099347982C379.5265937171566,171.96126241849777,384.9498052130362,159.45143015212054,461.93976625564346,191.34171618254467"/><path class="link" d="M303.62127497372524,137.5690099347982C379.5265937171566,171.96126241849777,373.69697563862013,184.28695425791716,448.43637076634417,221.1443451095006"/><path class="link" d="M235.70226039551596,235.70226039551574C294.6278254943949,294.62782549439464,346.4456717927272,231.48759709150085,415.73480615127266,277.785116509801"/><path class="link" d="M235.70226039551596,235.70226039551574C294.6278254943949,294.62782549439464,330.5638917880147,253.65059542030016,396.6766701456177,304.38071450436024"/><path class="link" d="M235.70226039551596,235.70226039551574C294.6278254943949,294.62782549439464,313.266586449574,274.7274229583619,375.9199037394888,329.6729075500343"/><path class="link" d="M235.70226039551596,235.70226039551574C294.6278254943949,294.62782549439464,294.6278254943949,294.62782549439464,353.55339059327395,353.5533905932736"/><path class="link" d="M235.70226039551596,235.70226039551574C294.6278254943949,294.62782549439464,274.727422958362,313.2665864495738,329.6729075500345,375.91990373948863"/><path class="link" d="M235.70226039551596,235.70226039551574C294.6278254943949,294.62782549439464,253.65059542030048,330.5638917880144,304.3807145043606,396.6766701456174"/><path class="link" d="M235.70226039551596,235.70226039551574C294.6278254943949,294.62782549439464,231.48759709150102,346.44567179272707,277.78511650980124,415.7348061512725"/><path class="link" d="M107.14648843438735,315.64337649836847C133.9331105429842,394.5542206229606,184.28695425791733,373.69697563862,221.14434510950082,448.43637076634406"/><path class="link" d="M107.14648843438735,315.64337649836847C133.9331105429842,394.5542206229606,159.45143015212108,384.949805213036,191.3417161825453,461.9397662556432"/><path class="link" d="M107.14648843438735,315.64337649836847C133.9331105429842,394.5542206229606,133.93311054298402,394.5542206229606,160.71973265158084,473.4650647475528"/><path class="link" d="M107.14648843438735,315.64337649836847C133.9331105429842,394.5542206229606,107.84126879271724,402.46909428711166,129.4095225512607,482.96291314453407"/><path class="link" d="M107.14648843438735,315.64337649836847C133.9331105429842,394.5542206229606,81.28763417338706,408.6605335013459,97.54516100806448,490.39264020161517"/><path class="link" d="M-10.906360940591938,333.1548624921219C-13.632951175739922,416.4435781151523,27.25130384589312,415.77455134941806,32.701564615071746,498.9294616193017"/><path class="link" d="M-10.906360940591938,333.1548624921219C-13.632951175739922,416.4435781151523,3.955878165239553e-13,416.66666666666663,4.747053798287465e-13,500"/><path class="link" d="M-10.906360940591938,333.1548624921219C-13.632951175739922,416.4435781151523,-27.25130384589289,415.77455134941806,-32.70156461507147,498.9294616193017"/><path class="link" d="M-10.906360940591938,333.1548624921219C-13.632951175739922,416.4435781151523,-54.385913425021215,413.102025572421,-65.26309611002547,495.7224306869052"/><path class="link" d="M-127.56114412169629,307.95984417042905C-159.45143015212037,384.9498052130363,-107.84126879271683,402.46909428711183,-129.4095225512602,482.9629131445342"/><path class="link" d="M-127.56114412169629,307.95984417042905C-159.45143015212037,384.9498052130363,-133.9331105429838,394.5542206229607,-160.71973265158056,473.4650647475529"/><path class="link" d="M-127.56114412169629,307.95984417042905C-159.45143015212037,384.9498052130363,-159.4514301521207,384.9498052130361,-191.34171618254487,461.93976625564335"/><path class="link" d="M-127.56114412169629,307.95984417042905C-159.45143015212037,384.9498052130363,-184.28695425791713,373.69697563862013,-221.14434510950056,448.43637076634417"/><path class="link" d="M-127.56114412169629,307.95984417042905C-159.45143015212037,384.9498052130363,-208.33333333333306,360.8439182435162,-249.9999999999997,433.0127018922195"/><path class="link" d="M-250.61326915965907,219.78193836668964C-313.2665864495738,274.727422958362,-253.6505954203001,330.5638917880147,-304.3807145043602,396.6766701456177"/><path class="link" d="M-250.61326915965907,219.78193836668964C-313.2665864495738,274.727422958362,-274.72742295836184,313.266586449574,-329.67290755003427,375.91990373948886"/><path class="link" d="M-250.61326915965907,219.78193836668964C-313.2665864495738,274.727422958362,-294.62782549439476,294.6278254943948,-353.5533905932737,353.5533905932738"/><path class="link" d="M-250.61326915965907,219.78193836668964C-313.2665864495738,274.727422958362,-313.2665864495738,274.727422958362,-375.91990373948863,329.6729075500345"/><path class="link" d="M-250.61326915965907,219.78193836668964C-313.2665864495738,274.727422958362,-330.56389178801453,253.65059542030033,-396.6766701456175,304.3807145043604"/><path class="link" d="M-250.61326915965907,219.78193836668964C-313.2665864495738,274.727422958362,-346.4456717927272,231.48759709150087,-415.73480615127266,277.78511650980107"/><path class="link" d="M-250.61326915965907,219.78193836668964C-313.2665864495738,274.727422958362,-360.843918243516,208.33333333333346,-433.01270189221924,250.00000000000017"/><path class="link" d="M-326.9284268010768,-65.03010733870946C-408.660533501346,-81.2876341733868,-384.94980521303603,159.45143015212093,-461.93976625564324,191.34171618254513"/><path class="link" d="M-326.9284268010768,-65.03010733870946C-408.660533501346,-81.2876341733868,-394.5542206229606,133.93311054298405,-473.4650647475528,160.71973265158087"/><path class="link" d="M-326.9284268010768,-65.03010733870946C-408.660533501346,-81.2876341733868,-402.46909428711166,107.84126879271724,-482.96291314453407,129.4095225512607"/><path class="link" d="M-326.9284268010768,-65.03010733870946C-408.660533501346,-81.2876341733868,-408.660533501346,81.2876341733869,-490.3926402016152,97.54516100806428"/><path class="link" d="M-326.9284268010768,-65.03010733870946C-408.660533501346,-81.2876341733868,-413.1020255724209,54.38591342502147,-495.72243068690517,65.26309611002577"/><path class="link" d="M-326.9284268010768,-65.03010733870946C-408.660533501346,-81.2876341733868,-415.77455134941806,27.251303845893148,-498.9294616193017,32.70156461507178"/><path class="link" d="M-326.9284268010768,-65.03010733870946C-408.660533501346,-81.2876341733868,-416.66666666666663,5.102694996447305e-14,-500,6.123233995736766e-14"/><path class="link" d="M-326.9284268010768,-65.03010733870946C-408.660533501346,-81.2876341733868,-415.7745513494181,-27.251303845892675,-498.9294616193018,-32.70156461507121"/><path class="link" d="M-326.9284268010768,-65.03010733870946C-408.660533501346,-81.2876341733868,-413.102025572421,-54.38591342502138,-495.7224306869052,-65.26309611002566"/><path class="link" d="M-326.9284268010768,-65.03010733870946C-408.660533501346,-81.2876341733868,-408.660533501346,-81.2876341733868,-490.3926402016152,-97.54516100806418"/><path class="link" d="M-326.9284268010768,-65.03010733870946C-408.660533501346,-81.2876341733868,-402.46909428711183,-107.8412687927168,-482.9629131445342,-129.40952255126018"/><path class="link" d="M-326.9284268010768,-65.03010733870946C-408.660533501346,-81.2876341733868,-394.5542206229608,-133.9331105429836,-473.465064747553,-160.71973265158036"/><path class="link" d="M-326.9284268010768,-65.03010733870946C-408.660533501346,-81.2876341733868,-384.9498052130361,-159.45143015212085,-461.9397662556433,-191.34171618254504"/><path class="link" d="M-326.9284268010768,-65.03010733870946C-408.660533501346,-81.2876341733868,-373.69697563862013,-184.2869542579171,-448.43637076634417,-221.14434510950053"/><path class="link" d="M-326.9284268010768,-65.03010733870946C-408.660533501346,-81.2876341733868,-360.8439182435162,-208.33333333333306,-433.0127018922195,-249.9999999999997"/><path class="link" d="M-326.9284268010768,-65.03010733870946C-408.660533501346,-81.2876341733868,-346.44567179272724,-231.4875970915008,-415.7348061512727,-277.78511650980096"/><path class="link" d="M-326.9284268010768,-65.03010733870946C-408.660533501346,-81.2876341733868,-330.56389178801464,-253.65059542030025,-396.6766701456176,-304.38071450436036"/><path class="link" d="M-326.9284268010768,-65.03010733870946C-408.660533501346,-81.2876341733868,-313.266586449574,-274.72742295836184,-375.91990373948886,-329.67290755003427"/><path class="link" d="M-326.9284268010768,-65.03010733870946C-408.660533501346,-81.2876341733868,-294.6278254943951,-294.6278254943945,-353.5533905932741,-353.5533905932734"/><path class="link" d="M-117.41668264041128,-311.96864225244184C-146.7708533005141,-389.96080281555226,-253.65059542030033,-330.56389178801453,-304.3807145043604,-396.6766701456175"/><path class="link" d="M-117.41668264041128,-311.96864225244184C-146.7708533005141,-389.96080281555226,-231.48759709150087,-346.4456717927271,-277.78511650980107,-415.7348061512726"/><path class="link" d="M-117.41668264041128,-311.96864225244184C-146.7708533005141,-389.96080281555226,-208.33333333333383,-360.84391824351576,-250.0000000000006,-433.01270189221896"/><path class="link" d="M-117.41668264041128,-311.96864225244184C-146.7708533005141,-389.96080281555226,-184.28695425791753,-373.6969756386199,-221.14434510950107,-448.4363707663439"/><path class="link" d="M-117.41668264041128,-311.96864225244184C-146.7708533005141,-389.96080281555226,-159.45143015212096,-384.94980521303603,-191.34171618254516,-461.93976625564324"/><path class="link" d="M-117.41668264041128,-311.96864225244184C-146.7708533005141,-389.96080281555226,-133.93311054298442,-394.55422062296054,-160.71973265158132,-473.4650647475527"/><path class="link" d="M-117.41668264041128,-311.96864225244184C-146.7708533005141,-389.96080281555226,-107.84126879271727,-402.46909428711166,-129.40952255126072,-482.96291314453407"/><path class="link" d="M-117.41668264041128,-311.96864225244184C-146.7708533005141,-389.96080281555226,-81.2876341733873,-408.66053350134587,-97.54516100806478,-490.3926402016151"/><path class="link" d="M-117.41668264041128,-311.96864225244184C-146.7708533005141,-389.96080281555226,-54.385913425021876,-413.1020255724209,-65.26309611002625,-495.7224306869051"/><path class="link" d="M-117.41668264041128,-311.96864225244184C-146.7708533005141,-389.96080281555226,-27.251303845893172,-415.77455134941806,-32.70156461507181,-498.9294616193017"/><g class="node node--internal" transform="translate(0,0)"><circle r="3"/><text dy="0.31em" x="10" text-anchor="start" transform="rotate(324.375)">Fog Computing Research</text></g><g class="node node--internal" transform="translate(150.66488218724058,71.25918223838032)"><circle r="3"/><text dy="0.31em" x="-10" text-anchor="end" transform="rotate(25.31249999999999)">Conferences</text></g><g class="node node--internal" transform="translate(-161.67187553242402,-40.496696650543825)"><circle r="3"/><text dy="0.31em" x="10" text-anchor="start" transform="rotate(374.06249999999994)">Journals/Mag</text></g><g class="node node--internal" transform="translate(-19.04782749447446,-165.57462983657405)"><circle r="3"/><text dy="0.31em" x="10" text-anchor="start" transform="rotate(443.4375)">Developed by</text></g><g class="node node--internal" transform="translate(157.13224560866593,-293.97375478278497)"><circle r="3"/><text dy="0.31em" x="-10" text-anchor="end" transform="rotate(-61.87499999999999)">General</text></g><g class="node node--internal" transform="translate(330.4816204579368,-43.50873074001729)"><circle r="3"/><text dy="0.31em" x="-10" text-anchor="end" transform="rotate(-7.500000000000018)">Fog/Edge Computing</text></g><g class="node node--internal" transform="translate(303.62127497372524,137.5690099347982)"><circle r="3"/><text dy="0.31em" x="-10" text-anchor="end" transform="rotate(24.375)">Internet of Things</text></g><g class="node node--internal" transform="translate(235.70226039551596,235.70226039551574)"><circle r="3"/><text dy="0.31em" x="-10" text-anchor="end" transform="rotate(44.99999999999997)">Cloud Computing</text></g><g class="node node--internal" transform="translate(107.14648843438735,315.64337649836847)"><circle r="3"/><text dy="0.31em" x="-10" text-anchor="end" transform="rotate(71.24999999999997)">Mobile Computing</text></g><g class="node node--internal" transform="translate(-10.906360940591938,333.1548624921219)"><circle r="3"/><text dy="0.31em" x="10" text-anchor="start" transform="rotate(271.87499999999994)">Distributed Computing</text></g><g class="node node--internal" transform="translate(-127.56114412169629,307.95984417042905)"><circle r="3"/><text dy="0.31em" x="10" text-anchor="start" transform="rotate(292.49999999999994)">Systems</text></g><g class="node node--internal" transform="translate(-250.61326915965907,219.78193836668964)"><circle r="3"/><text dy="0.31em" x="10" text-anchor="start" transform="rotate(318.75)">Magazine</text></g><g class="node node--internal" transform="translate(-326.9284268010768,-65.03010733870946)"><circle r="3"/><text dy="0.31em" x="10" text-anchor="start" transform="rotate(371.25000000000006)">Journal (ACM &amp; IEEE)</text></g><g class="node node--internal" transform="translate(-117.41668264041128,-311.96864225244184)"><circle r="3"/><text dy="0.31em" x="10" text-anchor="start" transform="rotate(429.375)">Journal (Elsevier &amp; Springer)</text></g><g class="node node--leaf" transform="translate(-54.29849113152965,-328.88111069495966)"><circle r="3"/><text dy="0.31em" x="-10" text-anchor="end" transform="rotate(440.625)">ANRL</text></g><g class="node node--leaf" transform="translate(-21.80104307671454,-332.61964107953446)"><circle r="3"/><text dy="0.31em" x="-10" text-anchor="end" transform="rotate(446.24999999999994)">UT Dallas</text></g><g class="node node--leaf" transform="translate(32.70156461507141,-498.9294616193017)"><circle r="3"/><text dy="0.31em" x="10" text-anchor="start" transform="rotate(-86.25000000000003)">ACM SIGCOMM</text></g><g class="node node--leaf" transform="translate(65.26309611002563,-495.7224306869052)"><circle r="3"/><text dy="0.31em" x="10" text-anchor="start" transform="rotate(-82.50000000000003)">USENIX NSDI</text></g><g class="node node--leaf" transform="translate(97.54516100806416,-490.3926402016152)"><circle r="3"/><text dy="0.31em" x="10" text-anchor="start" transform="rotate(-78.75)">ACM CoNEXT</text></g><g class="node node--leaf" transform="translate(129.40952255126027,-482.9629131445342)"><circle r="3"/><text dy="0.31em" x="10" text-anchor="start" transform="rotate(-75.00000000000001)">IEEE INFOCOM</text></g><g class="node node--leaf" transform="translate(160.7197326515806,-473.4650647475529)"><circle r="3"/><text dy="0.31em" x="10" text-anchor="start" transform="rotate(-71.25000000000001)">ACM SIGMETRICS</text></g><g class="node node--leaf" transform="translate(191.34171618254493,-461.93976625564335)"><circle r="3"/><text dy="0.31em" x="10" text-anchor="start" transform="rotate(-67.5)">ACM HotNets</text></g><g class="node node--leaf" transform="translate(221.14434510950053,-448.4363707663442)"><circle r="3"/><text dy="0.31em" x="10" text-anchor="start" transform="rotate(-63.75000000000002)">USENIX ATC</text></g><g class="node node--leaf" transform="translate(249.99999999999977,-433.01270189221947)"><circle r="3"/><text dy="0.31em" x="10" text-anchor="start" transform="rotate(-60.00000000000003)">ACM IMC</text></g><g class="node node--leaf" transform="translate(277.7851165098011,-415.73480615127255)"><circle r="3"/><text dy="0.31em" x="10" text-anchor="start" transform="rotate(-56.25)">ACM/IEEE ANCS</text></g><g class="node node--leaf" transform="translate(304.3807145043603,-396.6766701456176)"><circle r="3"/><text dy="0.31em" x="10" text-anchor="start" transform="rotate(-52.500000000000014)">IEEE ICNP</text></g><g class="node node--leaf" transform="translate(329.6729075500343,-375.9199037394888)"><circle r="3"/><text dy="0.31em" x="10" text-anchor="start" transform="rotate(-48.75000000000002)">IEEE ICC</text></g><g class="node node--leaf" transform="translate(353.5533905932738,-353.5533905932737)"><circle r="3"/><text dy="0.31em" x="10" text-anchor="start" transform="rotate(-45)">IEEE GLOBECOM</text></g><g class="node node--leaf" transform="translate(375.91990373948863,-329.6729075500345)"><circle r="3"/><text dy="0.31em" x="10" text-anchor="start" transform="rotate(-41.250000000000014)">ACM/IRTF ANRW	</text></g><g class="node node--leaf" transform="translate(396.6766701456175,-304.38071450436047)"><circle r="3"/><text dy="0.31em" x="10" text-anchor="start" transform="rotate(-37.50000000000003)">IEEE/OSA OFC</text></g><g class="node node--leaf" transform="translate(433.01270189221924,-250.0000000000001)"><circle r="3"/><text dy="0.31em" x="10" text-anchor="start" transform="rotate(-30.000000000000014)">IEEE/ACM SEC</text></g><g class="node node--leaf" transform="translate(448.4363707663441,-221.1443451095007)"><circle r="3"/><text dy="0.31em" x="10" text-anchor="start" transform="rotate(-26.25000000000001)">USENIX HotEdge</text></g><g class="node node--leaf" transform="translate(461.9397662556433,-191.3417161825451)"><circle r="3"/><text dy="0.31em" x="10" text-anchor="start" transform="rotate(-22.500000000000025)">IEEE EDGE</text></g><g class="node node--leaf" transform="translate(473.4650647475528,-160.71973265158093)"><circle r="3"/><text dy="0.31em" x="10" text-anchor="start" transform="rotate(-18.750000000000018)">IEEE FMEC</text></g><g class="node node--leaf" transform="translate(482.9629131445341,-129.40952255126047)"><circle r="3"/><text dy="0.31em" x="10" text-anchor="start" transform="rotate(-15.000000000000007)">ACM MECOMM</text></g><g class="node node--leaf" transform="translate(490.39264020161517,-97.54516100806434)"><circle r="3"/><text dy="0.31em" x="10" text-anchor="start" transform="rotate(-11.250000000000025)">ACM EdgeSys</text></g><g class="node node--leaf" transform="translate(495.72243068690517,-65.26309611002594)"><circle r="3"/><text dy="0.31em" x="10" text-anchor="start" transform="rotate(-7.500000000000018)">Fog World Congress</text></g><g class="node node--leaf" transform="translate(498.9294616193017,-32.70156461507172)"><circle r="3"/><text dy="0.31em" x="10" text-anchor="start" transform="rotate(-3.7500000000000213)">IEEE ICFEC</text></g><g class="node node--leaf" transform="translate(500,-2.220446049250313e-13)"><circle r="3"/><text dy="0.31em" x="10" text-anchor="start" transform="rotate(-2.5444437451708134e-14)">IEEE ICFC</text></g><g class="node node--leaf" transform="translate(498.9294616193017,32.70156461507138)"><circle r="3"/><text dy="0.31em" x="10" text-anchor="start" transform="rotate(3.7499999999999827)">IEEE SmartEdge</text></g><g class="node node--leaf" transform="translate(495.72243068690517,65.26309611002571)"><circle r="3"/><text dy="0.31em" x="10" text-anchor="start" transform="rotate(7.499999999999991)">ACM/IFIP/USENIX MECC</text></g><g class="node node--leaf" transform="translate(490.3926402016152,97.54516100806413)"><circle r="3"/><text dy="0.31em" x="10" text-anchor="start" transform="rotate(11.25)">ACM TOPIC</text></g><g class="node node--leaf" transform="translate(482.9629131445342,129.40952255126024)"><circle r="3"/><text dy="0.31em" x="10" text-anchor="start" transform="rotate(14.999999999999982)">ACM CitiFog</text></g><g class="node node--leaf" transform="translate(461.93976625564346,191.34171618254467)"><circle r="3"/><text dy="0.31em" x="10" text-anchor="start" transform="rotate(22.499999999999975)">ACM/IEEE IoTDI</text></g><g class="node node--leaf" transform="translate(448.43637076634417,221.1443451095006)"><circle r="3"/><text dy="0.31em" x="10" text-anchor="start" transform="rotate(26.249999999999996)">IEEE WF-IoT</text></g><g class="node node--leaf" transform="translate(415.73480615127266,277.785116509801)"><circle r="3"/><text dy="0.31em" x="10" text-anchor="start" transform="rotate(33.749999999999986)">ACM SOCC</text></g><g class="node node--leaf" transform="translate(396.6766701456177,304.38071450436024)"><circle r="3"/><text dy="0.31em" x="10" text-anchor="start" transform="rotate(37.49999999999998)">USENIX HotCloud</text></g><g class="node node--leaf" transform="translate(375.9199037394888,329.6729075500343)"><circle r="3"/><text dy="0.31em" x="10" text-anchor="start" transform="rotate(41.24999999999998)">IEEE/ACM UCC</text></g><g class="node node--leaf" transform="translate(353.55339059327395,353.5533905932736)"><circle r="3"/><text dy="0.31em" x="10" text-anchor="start" transform="rotate(44.99999999999997)">IEEE IC2E</text></g><g class="node node--leaf" transform="translate(329.6729075500345,375.91990373948863)"><circle r="3"/><text dy="0.31em" x="10" text-anchor="start" transform="rotate(48.75)">IEEE Cloud</text></g><g class="node node--leaf" transform="translate(304.3807145043606,396.6766701456174)"><circle r="3"/><text dy="0.31em" x="10" text-anchor="start" transform="rotate(52.499999999999964)">IEEE CloudCom</text></g><g class="node node--leaf" transform="translate(277.78511650980124,415.7348061512725)"><circle r="3"/><text dy="0.31em" x="10" text-anchor="start" transform="rotate(56.24999999999999)">IEEE FiCloud</text></g><g class="node node--leaf" transform="translate(221.14434510950082,448.43637076634406)"><circle r="3"/><text dy="0.31em" x="10" text-anchor="start" transform="rotate(63.749999999999986)">ACM MobiHoc</text></g><g class="node node--leaf" transform="translate(191.3417161825453,461.9397662556432)"><circle r="3"/><text dy="0.31em" x="10" text-anchor="start" transform="rotate(67.49999999999996)">ACM MobiCom</text></g><g class="node node--leaf" transform="translate(160.71973265158084,473.4650647475528)"><circle r="3"/><text dy="0.31em" x="10" text-anchor="start" transform="rotate(71.25)">ACM MobiSys</text></g><g class="node node--leaf" transform="translate(129.4095225512607,482.96291314453407)"><circle r="3"/><text dy="0.31em" x="10" text-anchor="start" transform="rotate(74.99999999999996)">ACM HotMobile</text></g><g class="node node--leaf" transform="translate(97.54516100806448,490.39264020161517)"><circle r="3"/><text dy="0.31em" x="10" text-anchor="start" transform="rotate(78.74999999999996)">ACM MobiArch</text></g><g class="node node--leaf" transform="translate(32.701564615071746,498.9294616193017)"><circle r="3"/><text dy="0.31em" x="10" text-anchor="start" transform="rotate(86.24999999999999)">ACM PODC</text></g><g class="node node--leaf" transform="translate(4.747053798287465e-13,500)"><circle r="3"/><text dy="0.31em" x="10" text-anchor="start" transform="rotate(89.99999999999994)">IEEE ICDCS</text></g><g class="node node--leaf" transform="translate(-32.70156461507147,498.9294616193017)"><circle r="3"/><text dy="0.31em" x="-10" text-anchor="end" transform="rotate(273.75)">IEEE PerCom</text></g><g class="node node--leaf" transform="translate(-65.26309611002547,495.7224306869052)"><circle r="3"/><text dy="0.31em" x="-10" text-anchor="end" transform="rotate(277.49999999999994)">ACM DEBS</text></g><g class="node node--leaf" transform="translate(-129.4095225512602,482.9629131445342)"><circle r="3"/><text dy="0.31em" x="-10" text-anchor="end" transform="rotate(285)">ACM SOSP</text></g><g class="node node--leaf" transform="translate(-160.71973265158056,473.4650647475529)"><circle r="3"/><text dy="0.31em" x="-10" text-anchor="end" transform="rotate(288.75)">USENIX OSDI</text></g><g class="node node--leaf" transform="translate(-191.34171618254487,461.93976625564335)"><circle r="3"/><text dy="0.31em" x="-10" text-anchor="end" transform="rotate(292.50000000000006)">SysML</text></g><g class="node node--leaf" transform="translate(-221.14434510950056,448.43637076634417)"><circle r="3"/><text dy="0.31em" x="-10" text-anchor="end" transform="rotate(296.25)">ACM SenSys</text></g><g class="node node--leaf" transform="translate(-249.9999999999997,433.0127018922195)"><circle r="3"/><text dy="0.31em" x="-10" text-anchor="end" transform="rotate(299.99999999999994)">ACM EuroSys</text></g><g class="node node--leaf" transform="translate(-304.3807145043602,396.6766701456177)"><circle r="3"/><text dy="0.31em" x="-10" text-anchor="end" transform="rotate(307.5)">IEEE Computer</text></g><g class="node node--leaf" transform="translate(-329.67290755003427,375.91990373948886)"><circle r="3"/><text dy="0.31em" x="-10" text-anchor="end" transform="rotate(311.25)">IEEE Pervasive Computing</text></g><g class="node node--leaf" transform="translate(-353.5533905932737,353.5533905932738)"><circle r="3"/><text dy="0.31em" x="-10" text-anchor="end" transform="rotate(315)">IEEE Internet Computing</text></g><g class="node node--leaf" transform="translate(-375.91990373948863,329.6729075500345)"><circle r="3"/><text dy="0.31em" x="-10" text-anchor="end" transform="rotate(318.75)">IEEE Cloud Computing</text></g><g class="node node--leaf" transform="translate(-396.6766701456175,304.3807145043604)"><circle r="3"/><text dy="0.31em" x="-10" text-anchor="end" transform="rotate(322.5)">IEEE Wireless Communications</text></g><g class="node node--leaf" transform="translate(-415.73480615127266,277.78511650980107)"><circle r="3"/><text dy="0.31em" x="-10" text-anchor="end" transform="rotate(326.25)">IEEE Network</text></g><g class="node node--leaf" transform="translate(-433.01270189221924,250.00000000000017)"><circle r="3"/><text dy="0.31em" x="-10" text-anchor="end" transform="rotate(329.99999999999994)">IEEE Communication</text></g><g class="node node--leaf" transform="translate(-461.93976625564324,191.34171618254513)"><circle r="3"/><text dy="0.31em" x="-10" text-anchor="end" transform="rotate(337.49999999999994)">IEEE ACCESS</text></g><g class="node node--leaf" transform="translate(-473.4650647475528,160.71973265158087)"><circle r="3"/><text dy="0.31em" x="-10" text-anchor="end" transform="rotate(341.25)">IEEE TWC</text></g><g class="node node--leaf" transform="translate(-482.96291314453407,129.4095225512607)"><circle r="3"/><text dy="0.31em" x="-10" text-anchor="end" transform="rotate(344.99999999999994)">IEEE TMC</text></g><g class="node node--leaf" transform="translate(-490.3926402016152,97.54516100806428)"><circle r="3"/><text dy="0.31em" x="-10" text-anchor="end" transform="rotate(348.75)">ACM POMACS</text></g><g class="node node--leaf" transform="translate(-495.72243068690517,65.26309611002577)"><circle r="3"/><text dy="0.31em" x="-10" text-anchor="end" transform="rotate(352.5)">ACM TOMPECS</text></g><g class="node node--leaf" transform="translate(-498.9294616193017,32.70156461507178)"><circle r="3"/><text dy="0.31em" x="-10" text-anchor="end" transform="rotate(356.25)">IEEE TETC</text></g><g class="node node--leaf" transform="translate(-500,6.123233995736766e-14)"><circle r="3"/><text dy="0.31em" x="-10" text-anchor="end" transform="rotate(360)">IEEE TSC</text></g><g class="node node--leaf" transform="translate(-498.9294616193018,-32.70156461507121)"><circle r="3"/><text dy="0.31em" x="-10" text-anchor="end" transform="rotate(363.74999999999994)">ACM TOCS</text></g><g class="node node--leaf" transform="translate(-495.7224306869052,-65.26309611002566)"><circle r="3"/><text dy="0.31em" x="-10" text-anchor="end" transform="rotate(367.5)">ACM TIOT</text></g><g class="node node--leaf" transform="translate(-490.3926402016152,-97.54516100806418)"><circle r="3"/><text dy="0.31em" x="-10" text-anchor="end" transform="rotate(371.25000000000006)">ACM TOIT</text></g><g class="node node--leaf" transform="translate(-482.9629131445342,-129.40952255126018)"><circle r="3"/><text dy="0.31em" x="-10" text-anchor="end" transform="rotate(375)">IEEE TNSM</text></g><g class="node node--leaf" transform="translate(-473.465064747553,-160.71973265158036)"><circle r="3"/><text dy="0.31em" x="-10" text-anchor="end" transform="rotate(378.74999999999994)">ACM CCR</text></g><g class="node node--leaf" transform="translate(-461.9397662556433,-191.34171618254504)"><circle r="3"/><text dy="0.31em" x="-10" text-anchor="end" transform="rotate(382.50000000000006)">IEEE TCC</text></g><g class="node node--leaf" transform="translate(-448.43637076634417,-221.14434510950053)"><circle r="3"/><text dy="0.31em" x="-10" text-anchor="end" transform="rotate(386.25)">IEEE IoTJ</text></g><g class="node node--leaf" transform="translate(-433.0127018922195,-249.9999999999997)"><circle r="3"/><text dy="0.31em" x="-10" text-anchor="end" transform="rotate(390)">IEEE JSAC</text></g><g class="node node--leaf" transform="translate(-415.7348061512727,-277.78511650980096)"><circle r="3"/><text dy="0.31em" x="-10" text-anchor="end" transform="rotate(393.75)">IEEE/ACM TON</text></g><g class="node node--leaf" transform="translate(-396.6766701456176,-304.38071450436036)"><circle r="3"/><text dy="0.31em" x="-10" text-anchor="end" transform="rotate(397.5)">IEEE Comm Sur Tut</text></g><g class="node node--leaf" transform="translate(-375.91990373948886,-329.67290755003427)"><circle r="3"/><text dy="0.31em" x="-10" text-anchor="end" transform="rotate(401.25)">PIEEE</text></g><g class="node node--leaf" transform="translate(-353.5533905932741,-353.5533905932734)"><circle r="3"/><text dy="0.31em" x="-10" text-anchor="end" transform="rotate(404.99999999999994)">ACM CSUR</text></g><g class="node node--leaf" transform="translate(-304.3807145043604,-396.6766701456175)"><circle r="3"/><text dy="0.31em" x="-10" text-anchor="end" transform="rotate(412.49999999999994)">Elsevier Dig ComNet</text></g><g class="node node--leaf" transform="translate(-277.78511650980107,-415.7348061512726)"><circle r="3"/><text dy="0.31em" x="-10" text-anchor="end" transform="rotate(416.25)">Elsevier Adhoc Net</text></g><g class="node node--leaf" transform="translate(-250.0000000000006,-433.01270189221896)"><circle r="3"/><text dy="0.31em" x="-10" text-anchor="end" transform="rotate(419.99999999999994)">Elsevier PerMob Comp</text></g><g class="node node--leaf" transform="translate(-221.14434510950107,-448.4363707663439)"><circle r="3"/><text dy="0.31em" x="-10" text-anchor="end" transform="rotate(423.75)">Springer CCF TON</text></g><g class="node node--leaf" transform="translate(-191.34171618254516,-461.93976625564324)"><circle r="3"/><text dy="0.31em" x="-10" text-anchor="end" transform="rotate(427.49999999999994)">Springer JCIN</text></g><g class="node node--leaf" transform="translate(-160.71973265158132,-473.4650647475527)"><circle r="3"/><text dy="0.31em" x="-10" text-anchor="end" transform="rotate(431.25)">Elsevier Comp Net</text></g><g class="node node--leaf" transform="translate(-129.40952255126072,-482.96291314453407)"><circle r="3"/><text dy="0.31em" x="-10" text-anchor="end" transform="rotate(434.99999999999994)">Springer JISA</text></g><g class="node node--leaf" transform="translate(-97.54516100806478,-490.3926402016151)"><circle r="3"/><text dy="0.31em" x="-10" text-anchor="end" transform="rotate(438.74999999999994)">Elsevier Comp Comm</text></g><g class="node node--leaf" transform="translate(-65.26309611002625,-495.7224306869051)"><circle r="3"/><text dy="0.31em" x="-10" text-anchor="end" transform="rotate(442.49999999999994)">Elsevier JNCA</text></g><g class="node node--leaf" transform="translate(-32.70156461507181,-498.9294616193017)"><circle r="3"/><text dy="0.31em" x="-10" text-anchor="end" transform="rotate(446.24999999999994)">Elsevier FGCS</text></g></g></svg>