<svg id="Layer_1" data-name="Layer 1" xmlns="http://www.w3.org/2000/svg" viewBox="0 0 360 144"><defs><style>.cls-1{fill:#fff;}</style></defs><title>UTDmono_wordmark_2L_white</title><path class="cls-1" d="M23.59,104.82l-.4.15c-.18-.43-.5-.6-1.24-.6H19.37v8.5c0,.51.26.68.66.68V114H16.31v-.46a.59.59,0,0,0,.66-.68v-8.5h-2.5c-.79,0-1.08.15-1.27.6l-.43-.15.53-2.46a5,5,0,0,0,1,.08h7.87a5.76,5.76,0,0,0,.89-.08Z"/><path class="cls-1" d="M36,114H32.28v-.46c.4,0,.63-.2.63-.66v-4.05H28.28v4.05c0,.45.21.66.63.66V114H25.24v-.46c.45,0,.63-.2.63-.66v-9.38c0-.46-.23-.63-.64-.63v-.45h3.69v.45c-.4,0-.63.15-.63.63v3.39h4.63v-3.39c0-.48-.23-.63-.63-.63v-.45H36v.45c-.43,0-.63.15-.63.63v9.38c0,.46.23.66.63.66Z"/><path class="cls-1" d="M46.8,111.5l-.6,2.6a6.64,6.64,0,0,0-.94-.08H38v-.46c.41,0,.63-.23.63-.68v-9.3c0-.45-.23-.69-.63-.69v-.45H45.3a6,6,0,0,0,.89-.08l.53,2.48-.38.13a.94.94,0,0,0-1-.6H41.08v2.28h3.85c.43,0,.61-.25.61-.53H46v3h-.43c0-.35-.17-.56-.61-.56H41.08v3.47H45.3a1,1,0,0,0,1.09-.69Z"/><path class="cls-1" d="M63.6,102.88c-.38,0-.63.2-.63.68v7.56a2.79,2.79,0,0,0,.2,1.13,7.9,7.9,0,0,1-4.81,2,7,7,0,0,1-4.9-2,3.38,3.38,0,0,0,.18-1.12v-7.51c0-.55-.23-.76-.64-.76v-.45h3.69v.45c-.41,0-.65.2-.65.76v7c0,.94.83,1.59,2.37,1.59s2.28-.76,2.28-1.55v-7.08c0-.51-.23-.71-.63-.71v-.45H63.6Z"/><path class="cls-1" d="M76.31,102.88a.59.59,0,0,0-.64.61V114H73.82a2.64,2.64,0,0,0-.4-.78l-4.95-7h0v6.62a.59.59,0,0,0,.65.66V114H65.61v-.46c.41,0,.63-.18.63-.66v-9.38a.58.58,0,0,0-.63-.63v-.45h3a2.58,2.58,0,0,0,.41.79l4.42,6.15h0v-5.92c0-.35-.15-.58-.63-.58v-.45h3.47Z"/><path class="cls-1" d="M82,114H78.36v-.46c.38,0,.63-.18.63-.66v-9.34c0-.48-.23-.66-.63-.66v-.45H82v.45a.58.58,0,0,0-.63.66v9.34c0,.46.23.66.63.66Z"/><path class="cls-1" d="M95,102.88c-.31,0-.56.25-.75.76l-3.08,8.93a2.31,2.31,0,0,0-.17.68.27.27,0,0,0,.28.3V114H87.4v-.46a.28.28,0,0,0,.31-.28,4.27,4.27,0,0,0-.26-.94l-3-8.5c-.21-.59-.41-.94-.78-.94v-.45h3.71v.45c-.28,0-.45.17-.45.36a2,2,0,0,0,.1.5l2.5,7.69h0l2.28-7.58a2.23,2.23,0,0,0,.12-.59c0-.22-.12-.38-.43-.38v-.45H95Z"/><path class="cls-1" d="M105.38,111.5l-.59,2.6a6.62,6.62,0,0,0-.94-.08H96.6v-.46c.41,0,.63-.23.63-.68v-9.3c0-.45-.23-.69-.63-.69v-.45h7.28a6,6,0,0,0,.89-.08l.53,2.48-.38.13a.94.94,0,0,0-1-.6H99.66v2.28h3.85c.43,0,.61-.25.61-.53h.43v3h-.43c0-.35-.17-.56-.61-.56H99.66v3.47h4.22a1,1,0,0,0,1.09-.69Z"/><path class="cls-1" d="M116.84,114h-3.18a26.08,26.08,0,0,1-1.8-4.33l-.51,0c-.4,0-.81,0-1.21,0v3.21c0,.48.23.66.65.66V114h-3.64v-.46a.59.59,0,0,0,.63-.66v-9.38a.56.56,0,0,0-.63-.63v-.45c1.17,0,3.23-.13,4.1-.13,3.33,0,5.26.88,5.26,3.54a3.5,3.5,0,0,1-2.42,3.39,21.53,21.53,0,0,0,1.85,3.89,1,1,0,0,0,.89.43Zm-5.39-9.78c-.38,0-.88,0-1.31,0v3.44l1.44,0c1.75,0,2.53-.75,2.53-1.84S113.48,104.24,111.44,104.24Z"/><path class="cls-1" d="M122.49,114.29a23.84,23.84,0,0,1-2.7-.28,2.29,2.29,0,0,0-.89.21l-.5-3.37.55-.13c.3.75,1.13,1.62,3.28,1.64,1.84,0,2.38-.69,2.38-1.5,0-.61-.5-1.08-1.39-1.42l-1.87-.73a3.41,3.41,0,0,1-2.56-3.29c0-2.23,1.94-3.24,4.1-3.24a21.4,21.4,0,0,1,2.37.25,2,2,0,0,0,.79-.13l.4,2.91-.56.12a3.08,3.08,0,0,0-2.83-1.24c-1.46,0-1.82.63-1.82,1.17s.35.88,1.26,1.22l2,.76a3.56,3.56,0,0,1,2.61,3.47C127.09,113,125.38,114.29,122.49,114.29Z"/><path class="cls-1" d="M132.64,114H129v-.46c.38,0,.63-.18.63-.66v-9.34c0-.48-.23-.66-.63-.66v-.45h3.69v.45a.58.58,0,0,0-.63.66v9.34c0,.46.23.66.63.66Z"/><path class="cls-1" d="M145.09,104.82l-.4.15c-.18-.43-.5-.6-1.24-.6h-2.58v8.5c0,.51.26.68.66.68V114h-3.72v-.46a.59.59,0,0,0,.66-.68v-8.5H136c-.79,0-1.08.15-1.27.6l-.43-.15.53-2.46a5,5,0,0,0,1,.08h7.87a5.76,5.76,0,0,0,.89-.08Z"/><path class="cls-1" d="M157,102.88c-.38,0-.65.21-1,.76l-3.22,5.61v3.64c0,.48.23.66.63.66V114h-3.67v-.46c.41,0,.63-.2.63-.66v-3.64l-3.19-5.57c-.33-.58-.55-.79-1-.79v-.45h3.85v.45a.3.3,0,0,0-.33.3.85.85,0,0,0,.12.3l1.84,3.54h0l1.82-3.42a1.15,1.15,0,0,0,.15-.41c0-.15,0-.3-.31-.3v-.45H157Z"/><path class="cls-1" d="M168.92,114.29a6.06,6.06,0,1,1,5.89-6.07A5.67,5.67,0,0,1,168.92,114.29Zm0-10.11c-1.77,0-3.31,1.37-3.31,4s1.51,4.07,3.31,4.07,3.36-1.41,3.36-4.05S170.73,104.19,168.92,104.19Z"/><path class="cls-1" d="M185.47,104.8l-.38.13a1.07,1.07,0,0,0-1.12-.56h-4.12v2.43h3.85c.45,0,.61-.25.61-.53h.43v3h-.43c0-.31-.17-.56-.63-.56h-3.84v4.07c0,.53.26.74.66.74V114h-3.72v-.46c.38,0,.63-.25.63-.74v-9.23a.61.61,0,0,0-.63-.69v-.45h7.1a6.46,6.46,0,0,0,1.08-.08Z"/><path class="cls-1" d="M202.1,104.82l-.4.15c-.18-.43-.5-.6-1.24-.6h-2.58v8.5c0,.51.26.68.66.68V114h-3.72v-.46a.59.59,0,0,0,.66-.68v-8.5H193c-.79,0-1.08.15-1.27.6l-.43-.15.53-2.46a5,5,0,0,0,1,.08h7.87a5.76,5.76,0,0,0,.89-.08Z"/><path class="cls-1" d="M212.51,111.5l-.6,2.6A6.64,6.64,0,0,0,211,114h-7.24v-.46c.41,0,.63-.23.63-.68v-9.3c0-.45-.23-.69-.63-.69v-.45H211a6,6,0,0,0,.89-.08l.53,2.48-.38.13a.94.94,0,0,0-1-.6h-4.25v2.28h3.85c.43,0,.61-.25.61-.53h.43v3h-.43c0-.35-.17-.56-.61-.56h-3.85v3.47H211a1,1,0,0,0,1.09-.69Z"/><path class="cls-1" d="M224.3,114h-4v-.46c.28,0,.38-.12.38-.26a.76.76,0,0,0-.15-.36l-1.57-2.79h0l-1.52,2.81a.82.82,0,0,0-.13.33c0,.15.08.28.33.28V114h-3.69v-.46c.43,0,.7-.13,1-.7l2.78-4.65-2.78-4.52c-.38-.61-.58-.81-1-.81v-.45h4v.45c-.26,0-.35.1-.35.25a1.28,1.28,0,0,0,.18.41l1.64,2.83h0l1.55-2.89a1,1,0,0,0,.12-.35c0-.15-.1-.25-.33-.25v-.45h3.62v.45c-.43,0-.66.15-1,.76l-2.78,4.67,2.81,4.61a1,1,0,0,0,1,.63Z"/><path class="cls-1" d="M237.08,114H233.4v-.46c.33,0,.43-.15.43-.36a1.4,1.4,0,0,0-.08-.41l-.23-.68a12.54,12.54,0,0,1-2.23.2,14.66,14.66,0,0,1-2.22-.2l-.23.76a2,2,0,0,0,0,.38c0,.18.12.26.45.31V114h-3.46v-.46c.28,0,.53-.13.76-.79l3.11-9.06a1.87,1.87,0,0,0,.12-.46c0-.18-.07-.35-.28-.35v-.45h3.85v.45a.28.28,0,0,0-.31.28,2.31,2.31,0,0,0,.15.55l3.19,9.1c.2.54.45.74.73.74Zm-5.86-9h0l-1.54,5.18a8.87,8.87,0,0,0,1.65.17,8,8,0,0,0,1.59-.17Z"/><path class="cls-1" d="M242.6,114.29a23.84,23.84,0,0,1-2.7-.28,2.3,2.3,0,0,0-.89.21l-.5-3.37.55-.13c.3.75,1.13,1.62,3.28,1.64,1.84,0,2.38-.69,2.38-1.5,0-.61-.5-1.08-1.39-1.42l-1.87-.73a3.41,3.41,0,0,1-2.56-3.29c0-2.23,1.94-3.24,4.1-3.24a21.34,21.34,0,0,1,2.37.25,2,2,0,0,0,.79-.13l.4,2.91-.56.12a3.08,3.08,0,0,0-2.83-1.24c-1.46,0-1.82.63-1.82,1.17s.35.88,1.26,1.22l2,.76a3.56,3.56,0,0,1,2.61,3.47C247.2,113,245.5,114.29,242.6,114.29Z"/><path class="cls-1" d="M264.41,114h-3.69v-.46c.33,0,.43-.15.43-.36a1.4,1.4,0,0,0-.08-.41l-.23-.68a12.54,12.54,0,0,1-2.23.2,14.66,14.66,0,0,1-2.22-.2l-.23.76a2,2,0,0,0,0,.38c0,.18.12.26.45.31V114H253.1v-.46c.28,0,.53-.13.76-.79l3.11-9.06a1.87,1.87,0,0,0,.12-.46c0-.18-.07-.35-.28-.35v-.45h3.85v.45a.28.28,0,0,0-.31.28,2.31,2.31,0,0,0,.15.55l3.19,9.1c.2.54.45.74.73.74Zm-5.86-9h0L257,110.19a8.86,8.86,0,0,0,1.65.17,8,8,0,0,0,1.59-.17Z"/><path class="cls-1" d="M274.61,104.82l-.4.15c-.18-.43-.5-.6-1.24-.6H270.4v8.5c0,.51.26.68.66.68V114h-3.72v-.46a.59.59,0,0,0,.66-.68v-8.5h-2.5c-.79,0-1.08.15-1.27.6l-.43-.15.53-2.46a5,5,0,0,0,1,.08h7.87a5.76,5.76,0,0,0,.89-.08Z"/><path class="cls-1" d="M285,114.14c-1.49,0-3.31-.07-4.3-.13v-.46a.56.56,0,0,0,.63-.61v-9.39c0-.53-.23-.66-.63-.66v-.45c1.11,0,2.63-.12,4.43-.12,4.37,0,6.14,2.05,6.14,5.77C291.28,111.5,289.64,114.14,285,114.14Zm0-9.89c-.5,0-.93,0-1.24,0v7.89c.31,0,.79,0,1.24,0,2.48,0,3.82-1.62,3.82-4.14A3.48,3.48,0,0,0,285,104.25Z"/><path class="cls-1" d="M303.68,114H300v-.46c.33,0,.43-.15.43-.36a1.4,1.4,0,0,0-.08-.41l-.23-.68a12.54,12.54,0,0,1-2.23.2,14.66,14.66,0,0,1-2.22-.2l-.23.76a2,2,0,0,0,0,.38c0,.18.12.26.45.31V114h-3.46v-.46c.28,0,.53-.13.76-.79l3.11-9.06a1.87,1.87,0,0,0,.12-.46c0-.18-.07-.35-.28-.35v-.45h3.85v.45a.28.28,0,0,0-.31.28,2.31,2.31,0,0,0,.15.55l3.19,9.1c.2.54.45.74.73.74Zm-5.86-9h0l-1.54,5.18a8.86,8.86,0,0,0,1.65.17,8,8,0,0,0,1.59-.17Z"/><path class="cls-1" d="M314.08,111.53l-.61,2.56a8.11,8.11,0,0,0-1.08-.08h-7.1v-.46c.41,0,.63-.2.63-.68v-9.33a.58.58,0,0,0-.63-.66v-.45H309v.45a.64.64,0,0,0-.66.71v8.47h4.27a1,1,0,0,0,1.06-.64Z"/><path class="cls-1" d="M324.63,111.53l-.61,2.56a8.11,8.11,0,0,0-1.08-.08h-7.1v-.46c.41,0,.63-.2.63-.68v-9.33a.58.58,0,0,0-.63-.66v-.45h3.72v.45a.64.64,0,0,0-.66.71v8.47h4.27a1,1,0,0,0,1.06-.64Z"/><path class="cls-1" d="M337.11,114h-3.69v-.46c.33,0,.43-.15.43-.36a1.4,1.4,0,0,0-.08-.41l-.23-.68a12.54,12.54,0,0,1-2.23.2,14.66,14.66,0,0,1-2.22-.2l-.23.76a2,2,0,0,0,0,.38c0,.18.12.26.45.31V114H325.8v-.46c.28,0,.53-.13.76-.79l3.11-9.06a1.87,1.87,0,0,0,.12-.46c0-.18-.07-.35-.28-.35v-.45h3.85v.45a.28.28,0,0,0-.31.28,2.31,2.31,0,0,0,.15.55l3.19,9.1c.2.54.45.74.73.74Zm-5.86-9h0l-1.54,5.18a8.86,8.86,0,0,0,1.65.17,8,8,0,0,0,1.59-.17Z"/><path class="cls-1" d="M342.63,114.29a23.84,23.84,0,0,1-2.7-.28,2.29,2.29,0,0,0-.89.21l-.5-3.37.55-.13c.3.75,1.13,1.62,3.28,1.64,1.84,0,2.38-.69,2.38-1.5,0-.61-.5-1.08-1.39-1.42l-1.87-.73a3.41,3.41,0,0,1-2.56-3.29c0-2.23,1.94-3.24,4.1-3.24a21.4,21.4,0,0,1,2.37.25,2,2,0,0,0,.79-.13l.4,2.91-.56.12a3.08,3.08,0,0,0-2.83-1.24c-1.46,0-1.82.63-1.82,1.17s.35.88,1.26,1.22l2,.76a3.56,3.56,0,0,1,2.61,3.47C347.23,113,345.53,114.29,342.63,114.29Z"/><path class="cls-1" d="M205.2,37.35l-1.23.33c-.61-1.23-1.39-1.9-3.35-1.9H182.24V85.63c0,2,.89,2.73,2.12,2.73l.24,1H172.68l.24-1c1.17,0,2.18-.78,2.18-2.73V35.79H156.77c-1.9,0-3,.78-3.4,1.9l-1.23-.33,1.79-7.64a10.34,10.34,0,0,0,3,.28H201a9.58,9.58,0,0,0,2.46-.28Zm-6.6,44.89c-5.09,0-11.43-.18-13-.36V80.75a1.89,1.89,0,0,0,2-1.91V43.25a1.87,1.87,0,0,0-2-2V40.09c2-.18,8.49-.42,12.9-.42,9.44,0,14.53,5,14.53,20.12C213,75.25,208.78,82.24,198.61,82.24Zm1.29-36.42c-.86,0-4.45,0-4.81.06V76.09c.37.06,4,.06,4.45.06,3.92,0,5.76-4.6,5.76-16.36C205.29,48.74,203,45.82,199.89,45.82ZM171.8,41.33V40.14s-4.84,0-8.7,0a5.37,5.37,0,0,0-.84,3.38V73.28c0,2.39-1.72,3.52-3.74,3.52s-3.68-1-3.68-3.52V43.55a2,2,0,0,1,2-2.27V40.14h-8.22a4.83,4.83,0,0,0-1.22,3.4V74a9.22,9.22,0,0,1-.43,3.46,14.67,14.67,0,0,0,11.52,5.43,132.39,132.39,0,0,0,13.29-1V80.8a1.89,1.89,0,0,1-2-1.91V43.31A1.87,1.87,0,0,1,171.8,41.33Z"/></svg>