<?xml version="1.0" standalone="no"?><!DOCTYPE svg PUBLIC "-//W3C//DTD SVG 1.1//EN" "http://www.w3.org/Graphics/SVG/1.1/DTD/svg11.dtd"><svg height="1300" width="1300" version="1.1" xmlns="http://www.w3.org/2000/svg" xmlns:xlink="http://www.w3.org/1999/xlink"><defs xmlns="http://www.w3.org/1999/xhtml"><style type="text/css"><![CDATA[
.node circle { fill: rgb(153, 153, 153); }
.node text { font: 10px sans-serif; }
.node--internal circle { fill: rgb(85, 85, 85); }
.node--internal text { text-shadow: 0px 1px 0px rgb(255, 255, 255), 0px -1px 0px rgb(255, 255, 255), 1px 0px 0px rgb(255, 255, 255), -1px 0px 0px rgb(255, 255, 255); }
.link { fill: none; stroke: rgb(85, 85, 85); stroke-opacity: 0.4; stroke-width: 1.5px; }
.firebugResetStyles { z-index: 2147483646 ! important; top: 0px ! important; left: 0px ! important; display: block ! important; border: 0px none ! important; margin: 0px ! important; padding: 0px ! important; outline: 0px none ! important; min-width: 0px ! important; max-width: none ! important; min-height: 0px ! important; max-height: none ! important; position: fixed ! important; transform: rotate(0deg) ! important; transform-origin: 50% 50% 0px ! important; border-radius: 0px ! important; box-shadow: none ! important; background: none repeat scroll 0% 0% transparent ! important; pointer-events: none ! important; white-space: normal ! important; }
style.firebugResetStyles { display: none ! important; }
.firebugBlockBackgroundColor { background-color: transparent ! important; }
.firebugResetStyles::before, .firebugResetStyles::after { content: "" ! important; }
.firebugCanvas { display: none ! important; }
.firebugLayoutBox { width: auto ! important; position: static ! important; }
.firebugLayoutBoxOffset { opacity: 0.8 ! important; position: fixed ! important; }
.firebugLayoutLine { opacity: 0.4 ! important; background-color: rgb(0, 0, 0) ! important; }
.firebugLayoutLineLeft, .firebugLayoutLineRight { width: 1px ! important; height: 100% ! important; }
.firebugLayoutLineTop, .firebugLayoutLineBottom { width: 100% ! important; height: 1px ! important; }
.firebugLayoutLineTop { margin-top: -1px ! important; border-top: 1px solid rgb(153, 153, 153) ! important; }
.firebugLayoutLineRight { border-right: 1px solid rgb(153, 153, 153) ! important; }
.firebugLayoutLineBottom { border-bottom: 1px solid rgb(153, 153, 153) ! important; }
.firebugLayoutLineLeft { margin-left: -1px ! important; border-left: 1px solid rgb(153, 153, 153) ! important; }
.firebugLayoutBoxParent { border-width: 0px 1px 1px 0px ! important; border-style: none dashed dashed none ! important; border-color: -moz-use-text-color rgb(238, 0, 0) rgb(238, 0, 0) -moz-use-text-color ! important; position: fixed ! important; width: auto ! important; }
.firebugRuler { position: absolute ! important; }
.firebugRulerH { top: -15px ! important; left: 0px ! important; width: 100% ! important; height: 14px ! important; background: url("data:image/png,%89PNG%0D%0A%1A%0A%00%00%00%0DIHDR%00%00%13%88%00%00%00%0E%08%02%00%00%00L%25a%0A%00%00%00%04gAMA%00%00%D6%D8%D4OX2%00%00%00%19tEXtSoftware%00Adobe%20ImageReadyq%C9e%3C%00%00%04%F8IDATx%DA%EC%DD%D1n%E2%3A%00E%D1%80%F8%FF%EF%E2%AF2%95%D0D4%0E%C1%14%B0%8Fa-%E9%3E%CC%9C%87n%B9%81%A6W0%1C%A6i%9A%E7y%0As8%1CT%A9R%A5J%95*U%AAT%A9R%A5J%95*U%AAT%A9R%A5J%95*U%AAT%A9R%A5J%95*U%AAT%A9R%A5J%95*U%AAT%A9R%A5J%95*U%AAT%A9R%A5J%95*U%AATE9%FE%FCw%3E%9F%AF%2B%2F%BA%97%FDT%1D~K(%5C%9D%D5%EA%1B%5C%86%B5%A9%BDU%B5y%80%ED%AB*%03%FAV9%AB%E1%CEj%E7%82%EF%FB%18%BC%AEJ8%AB%FA\'%D2%BEU9%D7U%ECc0%E1%A2r%5DynwVi%CFW%7F%BB%17%7Dy%EACU%CD%0E%F0%FA%3BX%FEbV%FEM%9B%2B%AD%BE%AA%E5%95v%AB%AA%E3E5%DCu%15rV9%07%B5%7F%B5w%FCm%BA%BE%AA%FBY%3D%14%F0%EE%C7%60%0EU%AAT%A9R%A5J%95*U%AAT%A9R%A5J%95*U%AAT%A9R%A5J%95*U%AAT%A9R%A5J%95*U%AAT%A9R%A5JU%88%D3%F5%1F%AE%DF%3B%1B%F2%3E%DAUCNa%F92%D02%AC%7Dm%F9%3A%D4%F2%8B6%AE*%BF%5C%C2Ym~9g5%D0Y%95%17%7C%C8c%B0%7C%18%26%9CU%CD%13i%F7%AA%90%B3Z%7D%95%B4%C7%60%E6E%B5%BC%05%B4%FBY%95U%9E%DB%FD%1C%FC%E0%9F%83%7F%BE%17%7DkjMU%E3%03%AC%7CWj%DF%83%9An%BCG%AE%F1%95%96yQ%0Dq%5Dy%00%3Et%B5\'%FC6%5DS%95pV%95%01%81%FF\'%07%00%00%00%00%00%00%00%00%00%F8x%C7%F0%BE%9COp%5D%C9%7C%AD%E7%E6%EBV%FB%1E%E0(%07%E5%AC%C6%3A%ABi%9C%8F%C6%0E9%AB%C0\'%D2%8E%9F%F99%D0E%B5%99%14%F5%0D%CD%7F%24%C6%DEH%B8%E9rV%DFs%DB%D0%F7%00k%FE%1D%84%84%83J%B8%E3%BA%FB%EF%20%84%1C%D7%AD%B0%8E%D7U%C8Y%05%1E%D4t%EF%AD%95Q%BF8w%BF%E9%0A%BF%EB%03%00%00%00%00%00%00%00%00%00%B8vJ%8E%BB%F5%B1u%8Cx%80%E1o%5E%CA9%AB%CB%CB%8E%03%DF%1D%B7T%25%9C%D5(%EFJM8%AB%CC\'%D2%B2*%A4s%E7c6%FB%3E%FA%A2%1E%80~%0E%3E%DA%10x%5D%95Uig%15u%15%ED%7C%14%B6%87%A1%3B%FCo8%A8%D8o%D3%ADO%01%EDx%83%1A~%1B%9FpP%A3%DC%C6\'%9C%95gK%00%00%00%00%00%00%00%00%00%20%D9%C9%11%D0%C0%40%AF%3F%EE%EE%92%94%D6%16X%B5%BCMH%15%2F%BF%D4%A7%C87%F1%8E%F2%81%AE%AAvzr%DA2%ABV%17%7C%E63%83%E7I%DC%C6%0Bs%1B%EF6%1E%00%00%00%00%00%00%00%00%00%80cr%9CW%FF%7F%C6%01%0E%F1%CE%A5%84%B3%CA%BC%E0%CB%AA%84%CE%F9%BF)%EC%13%08WU%AE%AB%B1%AE%2BO%EC%8E%CBYe%FE%8CN%ABr%5Dy%60~%CFA%0D%F4%AE%D4%BE%C75%CA%EDVB%EA(%B7%F1%09g%E5%D9%12%00%00%00%00%00%00%00%00%00H%F6%EB%13S%E7y%5E%5E%FB%98%F0%22%D1%B2\'%A7%F0%92%B1%BC%24z3%AC%7Dm%60%D5%92%B4%7CEUO%5E%F0%AA*%3BU%B9%AE%3E%A0j%94%07%A0%C7%A0%AB%FD%B5%3F%A0%F7%03T%3Dy%D7%F7%D6%D4%C0%AAU%D2%E6%DFt%3F%A8%CC%AA%F2%86%B9%D7%F5%1F%18%E6%01%F8%CC%D5%9E%F0%F3z%88%AA%90%EF%20%00%00%00%00%00%00%00%00%00%C0%A6%D3%EA%CFi%AFb%2C%7BB%0A%2B%C3%1A%D7%06V%D5%07%A8r%5D%3D%D9%A6%CAu%F5%25%CF%A2%99%97zNX%60%95%AB%5DUZ%D5%FBR%03%AB%1C%D4k%9F%3F%BB%5C%FF%81a%AE%AB\'%7F%F3%EA%FE%F3z%94%AA%D8%DF%5B%01%00%00%00%00%00%00%00%00%00%8E%FB%F3%F2%B1%1B%8DWU%AAT%A9R%A5J%95*U%AAT%A9R%A5J%95*U%AAT%A9R%A5J%95*U%AAT%A9R%A5J%95*U%AAT%A9R%A5J%95*U%AAT%A9R%A5J%95*U%AAT%A9R%A5J%95*UiU%C7%BBe%E7%F3%B9%CB%AAJ%95*U%AAT%A9R%A5J%95*U%AAT%A9R%A5J%95*U%AAT%A9R%A5J%95*U%AAT%A9R%A5J%95*U%AAT%A9R%A5J%95*U%AAT%A9R%A5J%95*U%AAT%A9R%A5*%AAj%FD%C6%D4%5Eo%90%B5Z%ADV%AB%D5j%B5Z%ADV%AB%D5j%B5Z%ADV%AB%D5j%B5Z%ADV%AB%D5j%B5Z%ADV%AB%D5j%B5Z%ADV%AB%D5j%B5Z%ADV%AB%D5j%B5%86%AF%1B%9F%98%DA%EBm%BBV%AB%D5j%B5Z%ADV%AB%D5j%B5Z%ADV%AB%D5j%B5Z%ADV%AB%D5j%B5Z%ADV%AB%D5j%B5Z%ADV%AB%D5j%B5Z%ADV%AB%D5j%B5Z%AD%D6%E4%F58%01%00%00%00%00%00%00%00%00%00%00%00%00%00%40%85%7F%02%0C%008%C2%D0H%16j%8FX%00%00%00%00IEND%AEB%60%82") repeat-x scroll 0% 0% transparent ! important; border-top: 1px solid rgb(187, 187, 187) ! important; border-right: 1px dashed rgb(187, 187, 187) ! important; border-bottom: 1px solid rgb(0, 0, 0) ! important; }
.firebugRulerV { top: 0px ! important; left: -15px ! important; width: 14px ! important; height: 100% ! important; background: url("data:image/png,%89PNG%0D%0A%1A%0A%00%00%00%0DIHDR%00%00%00%0E%00%00%13%88%08%02%00%00%00%0E%F5%CB%10%00%00%00%04gAMA%00%00%D6%D8%D4OX2%00%00%00%19tEXtSoftware%00Adobe%20ImageReadyq%C9e%3C%00%00%06~IDATx%DA%EC%DD%D1v%A20%14%40Qt%F1%FF%FF%E4%97%D9%07%3BT%19%92%DC%40(%90%EEy%9A5%CB%B6%E8%F6%9Ac%A4%CC0%84%FF%DC%9E%CF%E7%E3%F1%88%DE4%F8%5D%C7%9F%2F%BA%DD%5E%7FI%7D%F18%DDn%BA%C5%FB%DF%97%BFk%F2%10%FF%FD%B4%F2M%A7%FB%FD%FD%B3%22%07p%8F%3F%AE%E3%F4S%8A%8F%40%EEq%9D%BE8D%F0%0EY%A1Uq%B7%EA%1F%81%88V%E8X%3F%B4%CEy%B7h%D1%A2E%EBohU%FC%D9%AF2fO%8BBeD%BE%F7X%0C%97%A4%D6b7%2Ck%A5%12%E3%9B%60v%B7r%C7%1AI%8C%BD%2B%23r%00c0%B2v%9B%AD%CA%26%0C%1Ek%05A%FD%93%D0%2B%A1u%8B%16-%95q%5Ce%DCSO%8E%E4M%23%8B%F7%C2%FE%40%BB%BD%8C%FC%8A%B5V%EBu%40%F9%3B%A72%FA%AE%8C%D4%01%CC%B5%DA%13%9CB%AB%E2I%18%24%B0n%A9%0CZ*Ce%9C%A22%8E%D8NJ%1E%EB%FF%8F%AE%CAP%19*%C3%BAEKe%AC%D1%AAX%8C*%DEH%8F%C5W%A1e%AD%D4%B7%5C%5B%19%C5%DB%0D%EF%9F%19%1D%7B%5E%86%BD%0C%95%A12%AC%5B*%83%96%CAP%19%F62T%86%CAP%19*%83%96%CA%B8Xe%BC%FE)T%19%A1%17xg%7F%DA%CBP%19*%C3%BA%A52T%86%CAP%19%F62T%86%CA%B0n%A9%0CZ%1DV%C6%3D%F3%FCH%DE%B4%B8~%7F%5CZc%F1%D6%1F%AF%84%F9%0F6%E6%EBVt9%0E~%BEr%AF%23%B0%97%A12T%86%CAP%19%B4T%86%CA%B8Re%D8%CBP%19*%C3%BA%A52huX%19%AE%CA%E5%BC%0C%7B%19*CeX%B7h%A9%0C%95%E1%BC%0C%7B%19*CeX%B7T%06%AD%CB%5E%95%2B%BF.%8F%C5%97%D5%E4%7B%EE%82%D6%FB%CF-%9C%FD%B9%CF%3By%7B%19%F62T%86%CA%B0n%D1R%19*%A3%D3%CA%B0%97%A12T%86uKe%D0%EA%B02*%3F1%99%5DB%2B%A4%B5%F8%3A%7C%BA%2B%8Co%7D%5C%EDe%A8%0C%95a%DDR%19%B4T%C66%82fA%B2%ED%DA%9FC%FC%17GZ%06%C9%E1%B3%E5%2C%1A%9FoiB%EB%96%CA%A0%D5qe4%7B%7D%FD%85%F7%5B%ED_%E0s%07%F0k%951%ECr%0D%B5C%D7-g%D1%A8%0C%EB%96%CA%A0%A52T%C6)*%C3%5E%86%CAP%19%D6-%95A%EB*%95q%F8%BB%E3%F9%AB%F6%E21%ACZ%B7%22%B7%9B%3F%02%85%CB%A2%5B%B7%BA%5E%B7%9C%97%E1%BC%0C%EB%16-%95%A12z%AC%0C%BFc%A22T%86uKe%D0%EA%B02V%DD%AD%8A%2B%8CWhe%5E%AF%CF%F5%3B%26%CE%CBh%5C%19%CE%CB%B0%F3%A4%095%A1%CAP%19*Ce%A8%0C%3BO*Ce%A8%0C%95%A12%3A%AD%8C%0A%82%7B%F0v%1F%2FD%A9%5B%9F%EE%EA%26%AF%03%CA%DF9%7B%19*Ce%A8%0C%95%A12T%86%CA%B8Ze%D8%CBP%19*Ce%A8%0C%95%D1ae%EC%F7%89I%E1%B4%D7M%D7P%8BjU%5C%BB%3E%F2%20%D8%CBP%19*Ce%A8%0C%95%A12T%C6%D5*%C3%5E%86%CAP%19*Ce%B4O%07%7B%F0W%7Bw%1C%7C%1A%8C%B3%3B%D1%EE%AA%5C%D6-%EBV%83%80%5E%D0%CA%10%5CU%2BD%E07YU%86%CAP%19*%E3%9A%95%91%D9%A0%C8%AD%5B%EDv%9E%82%FFKOee%E4%8FUe%A8%0C%95%A12T%C6%1F%A9%8C%C8%3D%5B%A5%15%FD%14%22r%E7B%9F%17l%F8%BF%ED%EAf%2B%7F%CF%ECe%D8%CBP%19*Ce%A8%0C%95%E1%93~%7B%19%F62T%86%CAP%19*Ce%A8%0C%E7%13%DA%CBP%19*Ce%A8%0CZf%8B%16-Z%B4h%D1R%19f%8B%16-Z%B4h%D1R%19%B4%CC%16-Z%B4h%D1R%19%B4%CC%16-Z%B4h%D1%A2%A52%CC%16-Z%B4h%D1%A2%A52h%99-Z%B4h%D1%A2%A52h%99-Z%B4h%D1%A2EKe%98-Z%B4h%D1%A2EKe%D02%5B%B4h%D1%A2EKe%D02%5B%B4h%D1%A2E%8B%96%CA0%5B%B4h%D1%A2E%8B%96%CA%A0e%B6h%D1%A2E%8B%96%CA%A0e%B6h%D1%A2E%8B%16-%95a%B6h%D1%A2E%8B%16-%95A%CBl%D1%A2E%8B%16-%95A%CBl%D1%A2E%8B%16-Z*%C3l%D1%A2E%8B%16-Z*%83%96%D9%A2E%8B%16-Z*%83%96%D9%A2E%8B%16-Z%B4T%86%D9%A2E%8B%16-Z%B4T%06-%B3E%8B%16-Z%B4T%06-%B3E%8B%16-Z%B4h%A9%0C%B3E%8B%16-Z%B4h%A9%0CZf%8B%16-Z%B4h%A9%0CZf%8B%16-Z%B4h%D1R%19f%8B%16-Z%B4h%D1R%19%B4%CC%16-Z%B4h%D1R%19%B4%CC%16-Z%B4h%D1%A2%A52%CC%16-Z%B4h%D1%A2%A52h%99-Z%B4h%D1%A2%A52h%99-Z%B4h%D1%A2EKe%98-Z%B4h%D1%A2EKe%D02%5B%B4h%D1%A2EKe%D02%5B%B4h%D1%A2E%8B%96%CA0%5B%B4h%D1%A2E%8B%96%CA%A0e%B6h%D1%A2E%8B%96%CA%A0e%B6h%D1%A2E%8B%16-%95a%B6h%D1%A2E%8B%16-%95A%CBl%D1%A2E%8B%16-%95A%CBl%D1%A2E%8B%16-Z*%C3l%D1%A2E%8B%16-Z*%83%96%D9%A2E%8B%16-Z*%83%96%D9%A2E%8B%16-Z%B4T%86%D9%A2E%8B%16-Z%B4T%06-%B3E%8B%16-Z%B4T%06-%B3E%8B%16-Z%B4h%A9%0C%B3E%8B%16-Z%B4h%A9%0CZf%8B%16-Z%B4h%A9%0CZf%8B%16-Z%B4h%D1R%19f%8B%16-Z%B4h%D1R%19%B4%CC%16-Z%B4h%D1R%19%B4%CC%16-Z%B4h%D1%A2%A52%CC%16-Z%B4h%D1%A2%A52h%99-Z%B4h%D1%A2%A52h%99-Z%B4h%D1%A2EKe%98-Z%B4h%D1%A2EKe%D02%5B%B4h%D1%A2EKe%D02%5B%B4h%D1%A2E%8B%96%CA0%5B%B4h%D1%A2E%8B%96%CA%A0e%B6h%D1%A2E%8B%96%CA%A0e%B6h%D1%A2E%8B%16-%95a%B6h%D1%A2E%8B%16-%95A%CBl%D1%A2E%8B%16-%95A%CBl%D1%A2E%8B%16-Z*%C3l%D1%A2E%8B%16-Z*%83%96%D9%A2E%8B%16-Z*%83%96%D9%A2E%8B%16-Z%B4T%86%D9%A2E%8B%16-Z%B4T%06-%B3E%8B%16-Z%B4%AE%A4%F5%25%C0%00%DE%BF%5C\'%0F%DA%B8q%00%00%00%00IEND%AEB%60%82") repeat-y scroll 0% 0% transparent ! important; border-left: 1px solid rgb(187, 187, 187) ! important; border-right: 1px solid rgb(0, 0, 0) ! important; border-bottom: 1px dashed rgb(187, 187, 187) ! important; }
.fbProxyElement { position: fixed ! important; pointer-events: auto ! important; }]]></style></defs><g transform="translate(690,740)"><path class="link" d="M0,0C-67.82072643918289,48.42306795016155,67.14709213841485,49.352937722081656,134.2941842768297,98.70587544416331"/><path class="link" d="M0,0C-67.82072643918289,48.42306795016155,-80.18900002577087,-22.675288737111206,-160.37800005154173,-45.35057747422241"/><path class="link" d="M0,0C-67.82072643918289,48.42306795016155,-24.876234250141316,-79.53375015662559,-49.75246850028263,-159.06750031325117"/><path class="link" d="M134.2941842768297,98.70587544416331C201.44127641524457,148.05881316624496,142.45201437756663,-205.44445380631123,189.93601917008883,-273.925938408415"/><path class="link" d="M134.2941842768297,98.70587544416331C201.44127641524457,148.05881316624496,245.36287331310444,47.92765798093472,327.1504977508059,63.90354397457963"/><path class="link" d="M134.2941842768297,98.70587544416331C201.44127641524457,148.05881316624496,94.07734298695888,231.62351680370045,125.43645731594518,308.83135573826723"/><path class="link" d="M134.2941842768297,98.70587544416331C201.44127641524457,148.05881316624496,-68.02586621133375,240.5670000773126,-90.701154948445,320.75600010308347"/><path class="link" d="M134.2941842768297,98.70587544416331C201.44127641524457,148.05881316624496,-153.55317817241675,197.28512734909853,-204.73757089655567,263.0468364654647"/><path class="link" d="M-160.37800005154173,-45.35057747422241C-240.56700007731263,-68.02586621133362,-238.60125046987682,74.62870275042373,-318.1350006265024,99.50493700056496"/><path class="link" d="M-160.37800005154173,-45.35057747422241C-240.56700007731263,-68.02586621133362,-164.18800601193374,-188.52665244422394,-218.91734134924496,-251.3688699256319"/><path class="link" d="M-49.75246850028263,-159.06750031325117C-74.62870275042395,-238.60125046987676,-94.07734298695901,-231.6235168037004,-125.43645731594533,-308.8313557382672"/><path class="link" d="M-49.75246850028263,-159.06750031325117C-74.62870275042395,-238.60125046987676,-54.67027280159422,-243.94909565685884,-72.89369706879229,-325.26546087581175"/><path class="link" d="M189.93601917008883,-273.925938408415C237.42002396261103,-342.4074230105187,45.83675874753315,-414.13778221581225,55.00411049703979,-496.96533865897476"/><path class="link" d="M189.93601917008883,-273.925938408415C237.42002396261103,-342.4074230105187,91.11712133599013,-406.5818260947648,109.34054560318816,-487.89819131371775"/><path class="link" d="M189.93601917008883,-273.925938408415C237.42002396261103,-342.4074230105187,135.29144550195147,-394.09051737526437,162.34973460234178,-472.90862085031733"/><path class="link" d="M189.93601917008883,-273.925938408415C237.42002396261103,-342.4074230105187,177.8235147901683,-376.81548362399053,213.38821774820198,-452.17858034878867"/><path class="link" d="M189.93601917008883,-273.925938408415C237.42002396261103,-342.4074230105187,218.19704749494932,-354.9664203493028,261.8364569939392,-425.95970441916336"/><path class="link" d="M189.93601917008883,-273.925938408415C237.42002396261103,-342.4074230105187,255.92196362069495,-328.8085455818306,307.10635634483396,-394.5702546981967"/><path class="link" d="M189.93601917008883,-273.925938408415C237.42002396261103,-342.4074230105187,290.54033378916483,-298.6593804868545,348.64840054699783,-358.39125658422546"/><path class="link" d="M189.93601917008883,-273.925938408415C237.42002396261103,-342.4074230105187,321.63193788180035,-264.88489508748665,385.95832545816046,-317.861874104984"/><path class="link" d="M189.93601917008883,-273.925938408415C237.42002396261103,-342.4074230105187,348.81936594272025,-227.89506588434443,418.58323913126435,-273.47407906121333"/><path class="link" d="M189.93601917008883,-273.925938408415C237.42002396261103,-342.4074230105187,371.7725994243309,-188.13889929620373,446.12711930919716,-225.76667915544448"/><path class="link" d="M327.1504977508059,63.90354397457963C408.93812218850735,79.87942996822453,403.916777474721,-102.28561964199956,484.7001329696652,-122.74274357039948"/><path class="link" d="M327.1504977508059,63.90354397457963C408.93812218850735,79.87942996822453,412.71753526562634,-57.23064909100322,495.26104231875166,-68.67677890920388"/><path class="link" d="M327.1504977508059,63.90354397457963C408.93812218850735,79.87942996822453,416.50846126039636,-11.480975986734073,499.8101535124757,-13.777171184080888"/><path class="link" d="M327.1504977508059,63.90354397457963C408.93812218850735,79.87942996822453,415.24353875277905,34.408060613471896,498.2922465033349,41.28967273616628"/><path class="link" d="M327.1504977508059,63.90354397457963C408.93812218850735,79.87942996822453,408.9381221885074,79.87942996822443,490.72574662620895,95.85531596186934"/><path class="link" d="M327.1504977508059,63.90354397457963C408.93812218850735,79.87942996822453,397.668750783128,124.38117125070606,477.2025009397537,149.25740550084728"/><path class="link" d="M327.1504977508059,63.90354397457963C408.93812218850735,79.87942996822453,381.57221943960724,167.37309360540402,457.8866633275287,200.84771232648484"/><path class="link" d="M327.1504977508059,63.90354397457963C408.93812218850735,79.87942996822453,360.843918243516,208.3333333333334,433.01270189221924,250.0000000000001"/><path class="link" d="M327.1504977508059,63.90354397457963C408.93812218850735,79.87942996822453,335.7354606920741,246.7646886104084,402.88255283048903,296.1176263324901"/><path class="link" d="M125.43645731594518,308.83135573826723C156.79557164493147,386.039194672834,273.6466766865561,314.21108740704005,328.3760120238673,377.05330488844805"/><path class="link" d="M125.43645731594518,308.83135573826723C156.79557164493147,386.039194672834,237.42002396261094,342.40742301051876,284.90402875513314,410.8889076126225"/><path class="link" d="M125.43645731594518,308.83135573826723C156.79557164493147,386.039194672834,198.31141376544733,366.44739633603706,237.9736965185368,439.7368756032445"/><path class="link" d="M125.43645731594518,308.83135573826723C156.79557164493147,386.039194672834,156.79557164493147,386.039194672834,188.15468597391776,463.2470336074009"/><path class="link" d="M125.43645731594518,308.83135573826723C156.79557164493147,386.039194672834,113.37644368555644,400.94500012885425,136.05173242266775,481.13400015462514"/><path class="link" d="M125.43645731594518,308.83135573826723C156.79557164493147,386.039194672834,68.58107928363916,410.98387641780096,82.29729514036698,493.18065170136117"/><path class="link" d="M125.43645731594518,308.83135573826723C156.79557164493147,386.039194672834,22.953233481610628,416.03396518054836,27.543880177932756,499.2407582166581"/><path class="link" d="M-90.701154948445,320.75600010308347C-113.37644368555624,400.9450001288543,-68.5810792836391,410.98387641780096,-82.29729514036693,493.1806517013612"/><path class="link" d="M-90.701154948445,320.75600010308347C-113.37644368555624,400.9450001288543,-113.37644368555624,400.9450001288543,-136.0517324226675,481.1340001546252"/><path class="link" d="M-90.701154948445,320.75600010308347C-113.37644368555624,400.9450001288543,-156.79557164493124,386.0391946728341,-188.1546859739175,463.24703360740097"/><path class="link" d="M-204.73757089655567,263.0468364654647C-255.92196362069458,328.80854558183086,-237.4200239626107,342.4074230105189,-284.90402875513286,410.88890761262275"/><path class="link" d="M-204.73757089655567,263.0468364654647C-255.92196362069458,328.80854558183086,-273.6466766865558,314.2110874070402,-328.376012023867,377.0533048884483"/><path class="link" d="M-318.1350006265024,99.50493700056496C-397.668750783128,124.3811712507062,-335.7354606920741,246.76468861040846,-402.882552830489,296.11762633249015"/><path class="link" d="M-318.1350006265024,99.50493700056496C-397.668750783128,124.3811712507062,-360.843918243516,208.33333333333346,-433.01270189221924,250.00000000000017"/><path class="link" d="M-318.1350006265024,99.50493700056496C-397.668750783128,124.3811712507062,-381.5722194396072,167.37309360540408,-457.88666332752865,200.8477123264849"/><path class="link" d="M-318.1350006265024,99.50493700056496C-397.668750783128,124.3811712507062,-397.668750783128,124.3811712507062,-477.20250093975363,149.25740550084745"/><path class="link" d="M-318.1350006265024,99.50493700056496C-397.668750783128,124.3811712507062,-408.9381221885074,79.87942996822449,-490.72574662620895,95.85531596186938"/><path class="link" d="M-318.1350006265024,99.50493700056496C-397.668750783128,124.3811712507062,-415.24353875277905,34.408060613471946,-498.2922465033349,41.289672736166345"/><path class="link" d="M-318.1350006265024,99.50493700056496C-397.668750783128,124.3811712507062,-416.50846126039636,-11.480975986734023,-499.8101535124757,-13.777171184080828"/><path class="link" d="M-218.91734134924496,-251.3688699256319C-273.6466766865562,-314.2110874070399,-403.916777474721,-102.28561964199952,-484.7001329696652,-122.74274357039943"/><path class="link" d="M-218.91734134924496,-251.3688699256319C-273.6466766865562,-314.2110874070399,-390.2130171654395,-146.0989813303142,-468.25562059852746,-175.31877759637703"/><path class="link" d="M-218.91734134924496,-251.3688699256319C-273.6466766865562,-314.2110874070399,-371.772599424331,-188.13889929620345,-446.1271193091972,-225.76667915544417"/><path class="link" d="M-218.91734134924496,-251.3688699256319C-273.6466766865562,-314.2110874070399,-348.8193659427203,-227.89506588434443,-418.5832391312644,-273.47407906121333"/><path class="link" d="M-218.91734134924496,-251.3688699256319C-273.6466766865562,-314.2110874070399,-321.63193788180064,-264.88489508748626,-385.9583254581608,-317.86187410498354"/><path class="link" d="M-218.91734134924496,-251.3688699256319C-273.6466766865562,-314.2110874070399,-290.54033378916483,-298.6593804868546,-348.6484005469978,-358.3912565842256"/><path class="link" d="M-218.91734134924496,-251.3688699256319C-273.6466766865562,-314.2110874070399,-255.92196362069498,-328.8085455818306,-307.106356344834,-394.5702546981967"/><path class="link" d="M-218.91734134924496,-251.3688699256319C-273.6466766865562,-314.2110874070399,-218.19704749494952,-354.96642034930267,-261.8364569939394,-425.95970441916324"/><path class="link" d="M-218.91734134924496,-251.3688699256319C-273.6466766865562,-314.2110874070399,-177.82351479016828,-376.8154836239906,-213.38821774820192,-452.1785803487887"/><path class="link" d="M-218.91734134924496,-251.3688699256319C-273.6466766865562,-314.2110874070399,-135.29144550195153,-394.09051737526437,-162.34973460234184,-472.90862085031733"/><path class="link" d="M-218.91734134924496,-251.3688699256319C-273.6466766865562,-314.2110874070399,-91.11712133599036,-406.5818260947647,-109.34054560318845,-487.8981913137177"/><path class="link" d="M-218.91734134924496,-251.3688699256319C-273.6466766865562,-314.2110874070399,-45.83675874753312,-414.13778221581225,-55.00411049703975,-496.96533865897476"/><g class="node node--internal" transform="translate(0,0)"><circle r="3"/><text dy="0.31em" x="10" text-anchor="start" transform="rotate(324.4736842105263)">Fog Computing Research</text></g><g class="node node--internal" transform="translate(134.2941842768297,98.70587544416331)"><circle r="3"/><text dy="0.31em" x="-10" text-anchor="end" transform="rotate(36.315789473684205)">Conferences</text></g><g class="node node--internal" transform="translate(-160.37800005154173,-45.35057747422241)"><circle r="3"/><text dy="0.31em" x="10" text-anchor="start" transform="rotate(375.7894736842105)">Journals/Mag</text></g><g class="node node--internal" transform="translate(-49.75246850028263,-159.06750031325117)"><circle r="3"/><text dy="0.31em" x="10" text-anchor="start" transform="rotate(432.6315789473683)">Developed by</text></g><g class="node node--internal" transform="translate(189.93601917008883,-273.925938408415)"><circle r="3"/><text dy="0.31em" x="-10" text-anchor="end" transform="rotate(-55.26315789473682)">General</text></g><g class="node node--internal" transform="translate(327.1504977508059,63.90354397457963)"><circle r="3"/><text dy="0.31em" x="-10" text-anchor="end" transform="rotate(11.052631578947397)">Fog/Edge Computing</text></g><g class="node node--internal" transform="translate(125.43645731594518,308.83135573826723)"><circle r="3"/><text dy="0.31em" x="-10" text-anchor="end" transform="rotate(67.89473684210526)">Cloud Computing</text></g><g class="node node--internal" transform="translate(-90.701154948445,320.75600010308347)"><circle r="3"/><text dy="0.31em" x="10" text-anchor="start" transform="rotate(285.7894736842105)">Mobile Computing</text></g><g class="node node--internal" transform="translate(-204.73757089655567,263.0468364654647)"><circle r="3"/><text dy="0.31em" x="10" text-anchor="start" transform="rotate(307.8947368421052)">Distributed Computing</text></g><g class="node node--internal" transform="translate(-318.1350006265024,99.50493700056496)"><circle r="3"/><text dy="0.31em" x="10" text-anchor="start" transform="rotate(342.63157894736844)">Magazine</text></g><g class="node node--internal" transform="translate(-218.91734134924496,-251.3688699256319)"><circle r="3"/><text dy="0.31em" x="10" text-anchor="start" transform="rotate(408.94736842105254)">Journal</text></g><g class="node node--leaf" transform="translate(-125.43645731594533,-308.8313557382672)"><circle r="3"/><text dy="0.31em" x="-10" text-anchor="end" transform="rotate(427.89473684210526)">ANRL</text></g><g class="node node--leaf" transform="translate(-72.89369706879229,-325.26546087581175)"><circle r="3"/><text dy="0.31em" x="-10" text-anchor="end" transform="rotate(437.3684210526315)">UT Dallas</text></g><g class="node node--leaf" transform="translate(55.00411049703979,-496.96533865897476)"><circle r="3"/><text dy="0.31em" x="10" text-anchor="start" transform="rotate(-83.68421052631577)">ACM SIGCOMM</text></g><g class="node node--leaf" transform="translate(109.34054560318816,-487.89819131371775)"><circle r="3"/><text dy="0.31em" x="10" text-anchor="start" transform="rotate(-77.36842105263156)">USENIX NSDI</text></g><g class="node node--leaf" transform="translate(162.34973460234178,-472.90862085031733)"><circle r="3"/><text dy="0.31em" x="10" text-anchor="start" transform="rotate(-71.05263157894737)">IEEE INFOCOM</text></g><g class="node node--leaf" transform="translate(213.38821774820198,-452.17858034878867)"><circle r="3"/><text dy="0.31em" x="10" text-anchor="start" transform="rotate(-64.73684210526314)">ACM SIGMETRICS</text></g><g class="node node--leaf" transform="translate(261.8364569939392,-425.95970441916336)"><circle r="3"/><text dy="0.31em" x="10" text-anchor="start" transform="rotate(-58.42105263157892)">ACM CoNEXT</text></g><g class="node node--leaf" transform="translate(307.10635634483396,-394.5702546981967)"><circle r="3"/><text dy="0.31em" x="10" text-anchor="start" transform="rotate(-52.10526315789473)">ACM HotNets</text></g><g class="node node--leaf" transform="translate(348.64840054699783,-358.39125658422546)"><circle r="3"/><text dy="0.31em" x="10" text-anchor="start" transform="rotate(-45.789473684210506)">USENIX ATC</text></g><g class="node node--leaf" transform="translate(385.95832545816046,-317.861874104984)"><circle r="3"/><text dy="0.31em" x="10" text-anchor="start" transform="rotate(-39.47368421052632)">IEEE ICC</text></g><g class="node node--leaf" transform="translate(418.58323913126435,-273.47407906121333)"><circle r="3"/><text dy="0.31em" x="10" text-anchor="start" transform="rotate(-33.157894736842096)">IEEE GLOBECOM</text></g><g class="node node--leaf" transform="translate(446.12711930919716,-225.76667915544448)"><circle r="3"/><text dy="0.31em" x="10" text-anchor="start" transform="rotate(-26.842105263157872)">IEEE ICNP</text></g><g class="node node--leaf" transform="translate(484.7001329696652,-122.74274357039948)"><circle r="3"/><text dy="0.31em" x="10" text-anchor="start" transform="rotate(-14.210526315789464)">IEEE/ACM SEC</text></g><g class="node node--leaf" transform="translate(495.26104231875166,-68.67677890920388)"><circle r="3"/><text dy="0.31em" x="10" text-anchor="start" transform="rotate(-7.894736842105239)">IEEE FMEC</text></g><g class="node node--leaf" transform="translate(499.8101535124757,-13.777171184080888)"><circle r="3"/><text dy="0.31em" x="10" text-anchor="start" transform="rotate(-1.5789473684210402)">IEEE EDGE</text></g><g class="node node--leaf" transform="translate(498.2922465033349,41.28967273616628)"><circle r="3"/><text dy="0.31em" x="10" text-anchor="start" transform="rotate(4.736842105263171)">USENIX HotEdge</text></g><g class="node node--leaf" transform="translate(490.72574662620895,95.85531596186934)"><circle r="3"/><text dy="0.31em" x="10" text-anchor="start" transform="rotate(11.052631578947382)">Fog World Congress</text></g><g class="node node--leaf" transform="translate(477.2025009397537,149.25740550084728)"><circle r="3"/><text dy="0.31em" x="10" text-anchor="start" transform="rotate(17.368421052631582)">ACM MECOMM</text></g><g class="node node--leaf" transform="translate(457.8866633275287,200.84771232648484)"><circle r="3"/><text dy="0.31em" x="10" text-anchor="start" transform="rotate(23.684210526315805)">IEEE ICFEC</text></g><g class="node node--leaf" transform="translate(433.01270189221924,250.0000000000001)"><circle r="3"/><text dy="0.31em" x="10" text-anchor="start" transform="rotate(30.000000000000014)">IEEE SmartEdge</text></g><g class="node node--leaf" transform="translate(402.88255283048903,296.1176263324901)"><circle r="3"/><text dy="0.31em" x="10" text-anchor="start" transform="rotate(36.315789473684234)">IEEE WF-IoT</text></g><g class="node node--leaf" transform="translate(328.3760120238673,377.05330488844805)"><circle r="3"/><text dy="0.31em" x="10" text-anchor="start" transform="rotate(48.94736842105262)">ACM SOCC</text></g><g class="node node--leaf" transform="translate(284.90402875513314,410.8889076126225)"><circle r="3"/><text dy="0.31em" x="10" text-anchor="start" transform="rotate(55.263157894736835)">USENIX HotCloud</text></g><g class="node node--leaf" transform="translate(237.9736965185368,439.7368756032445)"><circle r="3"/><text dy="0.31em" x="10" text-anchor="start" transform="rotate(61.57894736842105)">IEEE/ACM UCC</text></g><g class="node node--leaf" transform="translate(188.15468597391776,463.2470336074009)"><circle r="3"/><text dy="0.31em" x="10" text-anchor="start" transform="rotate(67.89473684210526)">IEEE CloudCom</text></g><g class="node node--leaf" transform="translate(136.05173242266775,481.13400015462514)"><circle r="3"/><text dy="0.31em" x="10" text-anchor="start" transform="rotate(74.21052631578945)">IEEE IC2E</text></g><g class="node node--leaf" transform="translate(82.29729514036698,493.18065170136117)"><circle r="3"/><text dy="0.31em" x="10" text-anchor="start" transform="rotate(80.52631578947368)">IEEE Cloud</text></g><g class="node node--leaf" transform="translate(27.543880177932756,499.2407582166581)"><circle r="3"/><text dy="0.31em" x="10" text-anchor="start" transform="rotate(86.84210526315789)">IEEE FiCloud</text></g><g class="node node--leaf" transform="translate(-82.29729514036693,493.1806517013612)"><circle r="3"/><text dy="0.31em" x="-10" text-anchor="end" transform="rotate(279.47368421052636)">ACM MobiHoc</text></g><g class="node node--leaf" transform="translate(-136.0517324226675,481.1340001546252)"><circle r="3"/><text dy="0.31em" x="-10" text-anchor="end" transform="rotate(285.7894736842105)">ACM MobiCom</text></g><g class="node node--leaf" transform="translate(-188.1546859739175,463.24703360740097)"><circle r="3"/><text dy="0.31em" x="-10" text-anchor="end" transform="rotate(292.10526315789474)">ACM MobiSys</text></g><g class="node node--leaf" transform="translate(-284.90402875513286,410.88890761262275)"><circle r="3"/><text dy="0.31em" x="-10" text-anchor="end" transform="rotate(304.7368421052631)">IEEE ICDCS</text></g><g class="node node--leaf" transform="translate(-328.376012023867,377.0533048884483)"><circle r="3"/><text dy="0.31em" x="-10" text-anchor="end" transform="rotate(311.05263157894734)">IARIA UBICOMM</text></g><g class="node node--leaf" transform="translate(-402.882552830489,296.11762633249015)"><circle r="3"/><text dy="0.31em" x="-10" text-anchor="end" transform="rotate(323.6842105263158)">IEEE Communication</text></g><g class="node node--leaf" transform="translate(-433.01270189221924,250.00000000000017)"><circle r="3"/><text dy="0.31em" x="-10" text-anchor="end" transform="rotate(329.99999999999994)">IEEE Network</text></g><g class="node node--leaf" transform="translate(-457.88666332752865,200.8477123264849)"><circle r="3"/><text dy="0.31em" x="-10" text-anchor="end" transform="rotate(336.31578947368416)">IEEE Wireless Communications</text></g><g class="node node--leaf" transform="translate(-477.20250093975363,149.25740550084745)"><circle r="3"/><text dy="0.31em" x="-10" text-anchor="end" transform="rotate(342.63157894736844)">IEEE Cloud Computing</text></g><g class="node node--leaf" transform="translate(-490.72574662620895,95.85531596186938)"><circle r="3"/><text dy="0.31em" x="-10" text-anchor="end" transform="rotate(348.9473684210526)">IEEE Internet Computing</text></g><g class="node node--leaf" transform="translate(-498.2922465033349,41.289672736166345)"><circle r="3"/><text dy="0.31em" x="-10" text-anchor="end" transform="rotate(355.2631578947368)">IEEE Pervasive Computing</text></g><g class="node node--leaf" transform="translate(-499.8101535124757,-13.777171184080828)"><circle r="3"/><text dy="0.31em" x="-10" text-anchor="end" transform="rotate(361.57894736842104)">IEEE Computer</text></g><g class="node node--leaf" transform="translate(-484.7001329696652,-122.74274357039943)"><circle r="3"/><text dy="0.31em" x="-10" text-anchor="end" transform="rotate(374.2105263157895)">ACM CSUR</text></g><g class="node node--leaf" transform="translate(-468.25562059852746,-175.31877759637703)"><circle r="3"/><text dy="0.31em" x="-10" text-anchor="end" transform="rotate(380.5263157894737)">IEEE Comm Sur Tut</text></g><g class="node node--leaf" transform="translate(-446.1271193091972,-225.76667915544417)"><circle r="3"/><text dy="0.31em" x="-10" text-anchor="end" transform="rotate(386.8421052631578)">IEEE IoTJ</text></g><g class="node node--leaf" transform="translate(-418.5832391312644,-273.47407906121333)"><circle r="3"/><text dy="0.31em" x="-10" text-anchor="end" transform="rotate(393.1578947368421)">IEEE/ACM TON</text></g><g class="node node--leaf" transform="translate(-385.9583254581608,-317.86187410498354)"><circle r="3"/><text dy="0.31em" x="-10" text-anchor="end" transform="rotate(399.4736842105263)">IEEE JSAC</text></g><g class="node node--leaf" transform="translate(-348.6484005469978,-358.3912565842256)"><circle r="3"/><text dy="0.31em" x="-10" text-anchor="end" transform="rotate(405.7894736842105)">IEEE TCC</text></g><g class="node node--leaf" transform="translate(-307.106356344834,-394.5702546981967)"><circle r="3"/><text dy="0.31em" x="-10" text-anchor="end" transform="rotate(412.10526315789474)">IEEE TNSM</text></g><g class="node node--leaf" transform="translate(-261.8364569939394,-425.95970441916324)"><circle r="3"/><text dy="0.31em" x="-10" text-anchor="end" transform="rotate(418.42105263157885)">IEEE TSC</text></g><g class="node node--leaf" transform="translate(-213.38821774820192,-452.1785803487887)"><circle r="3"/><text dy="0.31em" x="-10" text-anchor="end" transform="rotate(424.7368421052631)">IEEE TSC</text></g><g class="node node--leaf" transform="translate(-162.34973460234184,-472.90862085031733)"><circle r="3"/><text dy="0.31em" x="-10" text-anchor="end" transform="rotate(431.05263157894734)">IEEE TETC</text></g><g class="node node--leaf" transform="translate(-109.34054560318845,-487.8981913137177)"><circle r="3"/><text dy="0.31em" x="-10" text-anchor="end" transform="rotate(437.3684210526315)">IEEE TMC</text></g><g class="node node--leaf" transform="translate(-55.00411049703975,-496.96533865897476)"><circle r="3"/><text dy="0.31em" x="-10" text-anchor="end" transform="rotate(443.6842105263158)">IEEE TWC</text></g></g></svg>