<?xml version="1.0" standalone="no"?><!DOCTYPE svg PUBLIC "-//W3C//DTD SVG 1.1//EN" "http://www.w3.org/Graphics/SVG/1.1/DTD/svg11.dtd"><svg height="1400" width="1400" version="1.1" xmlns="http://www.w3.org/2000/svg" xmlns:xlink="http://www.w3.org/1999/xlink"><defs xmlns="http://www.w3.org/1999/xhtml"><style type="text/css"><![CDATA[
.node circle { fill: rgb(153, 153, 153); }
.node text { font: 10px sans-serif; }
.node--internal circle { fill: rgb(85, 85, 85); }
.node--internal text { text-shadow: 0px 1px 0px rgb(255, 255, 255), 0px -1px 0px rgb(255, 255, 255), 1px 0px 0px rgb(255, 255, 255), -1px 0px 0px rgb(255, 255, 255); }
.link { fill: none; stroke: rgb(85, 85, 85); stroke-opacity: 0.4; stroke-width: 1.5px; }
pre { outline: 2px dashed black; padding: 1em; background-image: url("http://upload.wikimedia.org/wikipedia/commons/8/84/Konqi_svg.svg"); background-repeat: no-repeat; background-size: cover; }
.firebugResetStyles { z-index: 2147483646 ! important; top: 0px ! important; left: 0px ! important; display: block ! important; border: 0px none ! important; margin: 0px ! important; padding: 0px ! important; outline: 0px none ! important; min-width: 0px ! important; max-width: none ! important; min-height: 0px ! important; max-height: none ! important; position: fixed ! important; transform: rotate(0deg) ! important; transform-origin: 50% 50% 0px ! important; border-radius: 0px ! important; box-shadow: none ! important; background: none repeat scroll 0% 0% transparent ! important; pointer-events: none ! important; white-space: normal ! important; }
style.firebugResetStyles { display: none ! important; }
.firebugBlockBackgroundColor { background-color: transparent ! important; }
.firebugResetStyles::before, .firebugResetStyles::after { content: "" ! important; }
.firebugCanvas { display: none ! important; }
.firebugLayoutBox { width: auto ! important; position: static ! important; }
.firebugLayoutBoxOffset { opacity: 0.8 ! important; position: fixed ! important; }
.firebugLayoutLine { opacity: 0.4 ! important; background-color: rgb(0, 0, 0) ! important; }
.firebugLayoutLineLeft, .firebugLayoutLineRight { width: 1px ! important; height: 100% ! important; }
.firebugLayoutLineTop, .firebugLayoutLineBottom { width: 100% ! important; height: 1px ! important; }
.firebugLayoutLineTop { margin-top: -1px ! important; border-top: 1px solid rgb(153, 153, 153) ! important; }
.firebugLayoutLineRight { border-right: 1px solid rgb(153, 153, 153) ! important; }
.firebugLayoutLineBottom { border-bottom: 1px solid rgb(153, 153, 153) ! important; }
.firebugLayoutLineLeft { margin-left: -1px ! important; border-left: 1px solid rgb(153, 153, 153) ! important; }
.firebugLayoutBoxParent { border-width: 0px 1px 1px 0px ! important; border-style: none dashed dashed none ! important; border-color: -moz-use-text-color rgb(238, 0, 0) rgb(238, 0, 0) -moz-use-text-color ! important; position: fixed ! important; width: auto ! important; }
.firebugRuler { position: absolute ! important; }
.firebugRulerH { top: -15px ! important; left: 0px ! important; width: 100% ! important; height: 14px ! important; background: url("data:image/png,%89PNG%0D%0A%1A%0A%00%00%00%0DIHDR%00%00%13%88%00%00%00%0E%08%02%00%00%00L%25a%0A%00%00%00%04gAMA%00%00%D6%D8%D4OX2%00%00%00%19tEXtSoftware%00Adobe%20ImageReadyq%C9e%3C%00%00%04%F8IDATx%DA%EC%DD%D1n%E2%3A%00E%D1%80%F8%FF%EF%E2%AF2%95%D0D4%0E%C1%14%B0%8Fa-%E9%3E%CC%9C%87n%B9%81%A6W0%1C%A6i%9A%E7y%0As8%1CT%A9R%A5J%95*U%AAT%A9R%A5J%95*U%AAT%A9R%A5J%95*U%AAT%A9R%A5J%95*U%AAT%A9R%A5J%95*U%AAT%A9R%A5J%95*U%AAT%A9R%A5J%95*U%AATE9%FE%FCw%3E%9F%AF%2B%2F%BA%97%FDT%1D~K(%5C%9D%D5%EA%1B%5C%86%B5%A9%BDU%B5y%80%ED%AB*%03%FAV9%AB%E1%CEj%E7%82%EF%FB%18%BC%AEJ8%AB%FA\'%D2%BEU9%D7U%ECc0%E1%A2r%5DynwVi%CFW%7F%BB%17%7Dy%EACU%CD%0E%F0%FA%3BX%FEbV%FEM%9B%2B%AD%BE%AA%E5%95v%AB%AA%E3E5%DCu%15rV9%07%B5%7F%B5w%FCm%BA%BE%AA%FBY%3D%14%F0%EE%C7%60%0EU%AAT%A9R%A5J%95*U%AAT%A9R%A5J%95*U%AAT%A9R%A5J%95*U%AAT%A9R%A5J%95*U%AAT%A9R%A5JU%88%D3%F5%1F%AE%DF%3B%1B%F2%3E%DAUCNa%F92%D02%AC%7Dm%F9%3A%D4%F2%8B6%AE*%BF%5C%C2Ym~9g5%D0Y%95%17%7C%C8c%B0%7C%18%26%9CU%CD%13i%F7%AA%90%B3Z%7D%95%B4%C7%60%E6E%B5%BC%05%B4%FBY%95U%9E%DB%FD%1C%FC%E0%9F%83%7F%BE%17%7DkjMU%E3%03%AC%7CWj%DF%83%9An%BCG%AE%F1%95%96yQ%0Dq%5Dy%00%3Et%B5\'%FC6%5DS%95pV%95%01%81%FF\'%07%00%00%00%00%00%00%00%00%00%F8x%C7%F0%BE%9COp%5D%C9%7C%AD%E7%E6%EBV%FB%1E%E0(%07%E5%AC%C6%3A%ABi%9C%8F%C6%0E9%AB%C0\'%D2%8E%9F%F99%D0E%B5%99%14%F5%0D%CD%7F%24%C6%DEH%B8%E9rV%DFs%DB%D0%F7%00k%FE%1D%84%84%83J%B8%E3%BA%FB%EF%20%84%1C%D7%AD%B0%8E%D7U%C8Y%05%1E%D4t%EF%AD%95Q%BF8w%BF%E9%0A%BF%EB%03%00%00%00%00%00%00%00%00%00%B8vJ%8E%BB%F5%B1u%8Cx%80%E1o%5E%CA9%AB%CB%CB%8E%03%DF%1D%B7T%25%9C%D5(%EFJM8%AB%CC\'%D2%B2*%A4s%E7c6%FB%3E%FA%A2%1E%80~%0E%3E%DA%10x%5D%95Uig%15u%15%ED%7C%14%B6%87%A1%3B%FCo8%A8%D8o%D3%ADO%01%EDx%83%1A~%1B%9FpP%A3%DC%C6\'%9C%95gK%00%00%00%00%00%00%00%00%00%20%D9%C9%11%D0%C0%40%AF%3F%EE%EE%92%94%D6%16X%B5%BCMH%15%2F%BF%D4%A7%C87%F1%8E%F2%81%AE%AAvzr%DA2%ABV%17%7C%E63%83%E7I%DC%C6%0Bs%1B%EF6%1E%00%00%00%00%00%00%00%00%00%80cr%9CW%FF%7F%C6%01%0E%F1%CE%A5%84%B3%CA%BC%E0%CB%AA%84%CE%F9%BF)%EC%13%08WU%AE%AB%B1%AE%2BO%EC%8E%CBYe%FE%8CN%ABr%5Dy%60~%CFA%0D%F4%AE%D4%BE%C75%CA%EDVB%EA(%B7%F1%09g%E5%D9%12%00%00%00%00%00%00%00%00%00H%F6%EB%13S%E7y%5E%5E%FB%98%F0%22%D1%B2\'%A7%F0%92%B1%BC%24z3%AC%7Dm%60%D5%92%B4%7CEUO%5E%F0%AA*%3BU%B9%AE%3E%A0j%94%07%A0%C7%A0%AB%FD%B5%3F%A0%F7%03T%3Dy%D7%F7%D6%D4%C0%AAU%D2%E6%DFt%3F%A8%CC%AA%F2%86%B9%D7%F5%1F%18%E6%01%F8%CC%D5%9E%F0%F3z%88%AA%90%EF%20%00%00%00%00%00%00%00%00%00%C0%A6%D3%EA%CFi%AFb%2C%7BB%0A%2B%C3%1A%D7%06V%D5%07%A8r%5D%3D%D9%A6%CAu%F5%25%CF%A2%99%97zNX%60%95%AB%5DUZ%D5%FBR%03%AB%1C%D4k%9F%3F%BB%5C%FF%81a%AE%AB\'%7F%F3%EA%FE%F3z%94%AA%D8%DF%5B%01%00%00%00%00%00%00%00%00%00%8E%FB%F3%F2%B1%1B%8DWU%AAT%A9R%A5J%95*U%AAT%A9R%A5J%95*U%AAT%A9R%A5J%95*U%AAT%A9R%A5J%95*U%AAT%A9R%A5J%95*U%AAT%A9R%A5J%95*U%AAT%A9R%A5J%95*UiU%C7%BBe%E7%F3%B9%CB%AAJ%95*U%AAT%A9R%A5J%95*U%AAT%A9R%A5J%95*U%AAT%A9R%A5J%95*U%AAT%A9R%A5J%95*U%AAT%A9R%A5J%95*U%AAT%A9R%A5J%95*U%AAT%A9R%A5*%AAj%FD%C6%D4%5Eo%90%B5Z%ADV%AB%D5j%B5Z%ADV%AB%D5j%B5Z%ADV%AB%D5j%B5Z%ADV%AB%D5j%B5Z%ADV%AB%D5j%B5Z%ADV%AB%D5j%B5Z%ADV%AB%D5j%B5%86%AF%1B%9F%98%DA%EBm%BBV%AB%D5j%B5Z%ADV%AB%D5j%B5Z%ADV%AB%D5j%B5Z%ADV%AB%D5j%B5Z%ADV%AB%D5j%B5Z%ADV%AB%D5j%B5Z%ADV%AB%D5j%B5Z%AD%D6%E4%F58%01%00%00%00%00%00%00%00%00%00%00%00%00%00%40%85%7F%02%0C%008%C2%D0H%16j%8FX%00%00%00%00IEND%AEB%60%82") repeat-x scroll 0% 0% transparent ! important; border-top: 1px solid rgb(187, 187, 187) ! important; border-right: 1px dashed rgb(187, 187, 187) ! important; border-bottom: 1px solid rgb(0, 0, 0) ! important; }
.firebugRulerV { top: 0px ! important; left: -15px ! important; width: 14px ! important; height: 100% ! important; background: url("data:image/png,%89PNG%0D%0A%1A%0A%00%00%00%0DIHDR%00%00%00%0E%00%00%13%88%08%02%00%00%00%0E%F5%CB%10%00%00%00%04gAMA%00%00%D6%D8%D4OX2%00%00%00%19tEXtSoftware%00Adobe%20ImageReadyq%C9e%3C%00%00%06~IDATx%DA%EC%DD%D1v%A20%14%40Qt%F1%FF%FF%E4%97%D9%07%3BT%19%92%DC%40(%90%EEy%9A5%CB%B6%E8%F6%9Ac%A4%CC0%84%FF%DC%9E%CF%E7%E3%F1%88%DE4%F8%5D%C7%9F%2F%BA%DD%5E%7FI%7D%F18%DDn%BA%C5%FB%DF%97%BFk%F2%10%FF%FD%B4%F2M%A7%FB%FD%FD%B3%22%07p%8F%3F%AE%E3%F4S%8A%8F%40%EEq%9D%BE8D%F0%0EY%A1Uq%B7%EA%1F%81%88V%E8X%3F%B4%CEy%B7h%D1%A2E%EBohU%FC%D9%AF2fO%8BBeD%BE%F7X%0C%97%A4%D6b7%2Ck%A5%12%E3%9B%60v%B7r%C7%1AI%8C%BD%2B%23r%00c0%B2v%9B%AD%CA%26%0C%1Ek%05A%FD%93%D0%2B%A1u%8B%16-%95q%5Ce%DCSO%8E%E4M%23%8B%F7%C2%FE%40%BB%BD%8C%FC%8A%B5V%EBu%40%F9%3B%A72%FA%AE%8C%D4%01%CC%B5%DA%13%9CB%AB%E2I%18%24%B0n%A9%0CZ*Ce%9C%A22%8E%D8NJ%1E%EB%FF%8F%AE%CAP%19*%C3%BAEKe%AC%D1%AAX%8C*%DEH%8F%C5W%A1e%AD%D4%B7%5C%5B%19%C5%DB%0D%EF%9F%19%1D%7B%5E%86%BD%0C%95%A12%AC%5B*%83%96%CAP%19%F62T%86%CAP%19*%83%96%CA%B8Xe%BC%FE)T%19%A1%17xg%7F%DA%CBP%19*%C3%BA%A52T%86%CAP%19%F62T%86%CA%B0n%A9%0CZ%1DV%C6%3D%F3%FCH%DE%B4%B8~%7F%5CZc%F1%D6%1F%AF%84%F9%0F6%E6%EBVt9%0E~%BEr%AF%23%B0%97%A12T%86%CAP%19%B4T%86%CA%B8Re%D8%CBP%19*%C3%BA%A52huX%19%AE%CA%E5%BC%0C%7B%19*CeX%B7h%A9%0C%95%E1%BC%0C%7B%19*CeX%B7T%06%AD%CB%5E%95%2B%BF.%8F%C5%97%D5%E4%7B%EE%82%D6%FB%CF-%9C%FD%B9%CF%3By%7B%19%F62T%86%CA%B0n%D1R%19*%A3%D3%CA%B0%97%A12T%86uKe%D0%EA%B02*%3F1%99%5DB%2B%A4%B5%F8%3A%7C%BA%2B%8Co%7D%5C%EDe%A8%0C%95a%DDR%19%B4T%C66%82fA%B2%ED%DA%9FC%FC%17GZ%06%C9%E1%B3%E5%2C%1A%9FoiB%EB%96%CA%A0%D5qe4%7B%7D%FD%85%F7%5B%ED_%E0s%07%F0k%951%ECr%0D%B5C%D7-g%D1%A8%0C%EB%96%CA%A0%A52T%C6)*%C3%5E%86%CAP%19%D6-%95A%EB*%95q%F8%BB%E3%F9%AB%F6%E21%ACZ%B7%22%B7%9B%3F%02%85%CB%A2%5B%B7%BA%5E%B7%9C%97%E1%BC%0C%EB%16-%95%A12z%AC%0C%BFc%A22T%86uKe%D0%EA%B02V%DD%AD%8A%2B%8CWhe%5E%AF%CF%F5%3B%26%CE%CBh%5C%19%CE%CB%B0%F3%A4%095%A1%CAP%19*Ce%A8%0C%3BO*Ce%A8%0C%95%A12%3A%AD%8C%0A%82%7B%F0v%1F%2FD%A9%5B%9F%EE%EA%26%AF%03%CA%DF9%7B%19*Ce%A8%0C%95%A12T%86%CA%B8Ze%D8%CBP%19*Ce%A8%0C%95%D1ae%EC%F7%89I%E1%B4%D7M%D7P%8BjU%5C%BB%3E%F2%20%D8%CBP%19*Ce%A8%0C%95%A12T%C6%D5*%C3%5E%86%CAP%19*Ce%B4O%07%7B%F0W%7Bw%1C%7C%1A%8C%B3%3B%D1%EE%AA%5C%D6-%EBV%83%80%5E%D0%CA%10%5CU%2BD%E07YU%86%CAP%19*%E3%9A%95%91%D9%A0%C8%AD%5B%EDv%9E%82%FFKOee%E4%8FUe%A8%0C%95%A12T%C6%1F%A9%8C%C8%3D%5B%A5%15%FD%14%22r%E7B%9F%17l%F8%BF%ED%EAf%2B%7F%CF%ECe%D8%CBP%19*Ce%A8%0C%95%E1%93~%7B%19%F62T%86%CAP%19*Ce%A8%0C%E7%13%DA%CBP%19*Ce%A8%0CZf%8B%16-Z%B4h%D1R%19f%8B%16-Z%B4h%D1R%19%B4%CC%16-Z%B4h%D1R%19%B4%CC%16-Z%B4h%D1%A2%A52%CC%16-Z%B4h%D1%A2%A52h%99-Z%B4h%D1%A2%A52h%99-Z%B4h%D1%A2EKe%98-Z%B4h%D1%A2EKe%D02%5B%B4h%D1%A2EKe%D02%5B%B4h%D1%A2E%8B%96%CA0%5B%B4h%D1%A2E%8B%96%CA%A0e%B6h%D1%A2E%8B%96%CA%A0e%B6h%D1%A2E%8B%16-%95a%B6h%D1%A2E%8B%16-%95A%CBl%D1%A2E%8B%16-%95A%CBl%D1%A2E%8B%16-Z*%C3l%D1%A2E%8B%16-Z*%83%96%D9%A2E%8B%16-Z*%83%96%D9%A2E%8B%16-Z%B4T%86%D9%A2E%8B%16-Z%B4T%06-%B3E%8B%16-Z%B4T%06-%B3E%8B%16-Z%B4h%A9%0C%B3E%8B%16-Z%B4h%A9%0CZf%8B%16-Z%B4h%A9%0CZf%8B%16-Z%B4h%D1R%19f%8B%16-Z%B4h%D1R%19%B4%CC%16-Z%B4h%D1R%19%B4%CC%16-Z%B4h%D1%A2%A52%CC%16-Z%B4h%D1%A2%A52h%99-Z%B4h%D1%A2%A52h%99-Z%B4h%D1%A2EKe%98-Z%B4h%D1%A2EKe%D02%5B%B4h%D1%A2EKe%D02%5B%B4h%D1%A2E%8B%96%CA0%5B%B4h%D1%A2E%8B%96%CA%A0e%B6h%D1%A2E%8B%96%CA%A0e%B6h%D1%A2E%8B%16-%95a%B6h%D1%A2E%8B%16-%95A%CBl%D1%A2E%8B%16-%95A%CBl%D1%A2E%8B%16-Z*%C3l%D1%A2E%8B%16-Z*%83%96%D9%A2E%8B%16-Z*%83%96%D9%A2E%8B%16-Z%B4T%86%D9%A2E%8B%16-Z%B4T%06-%B3E%8B%16-Z%B4T%06-%B3E%8B%16-Z%B4h%A9%0C%B3E%8B%16-Z%B4h%A9%0CZf%8B%16-Z%B4h%A9%0CZf%8B%16-Z%B4h%D1R%19f%8B%16-Z%B4h%D1R%19%B4%CC%16-Z%B4h%D1R%19%B4%CC%16-Z%B4h%D1%A2%A52%CC%16-Z%B4h%D1%A2%A52h%99-Z%B4h%D1%A2%A52h%99-Z%B4h%D1%A2EKe%98-Z%B4h%D1%A2EKe%D02%5B%B4h%D1%A2EKe%D02%5B%B4h%D1%A2E%8B%96%CA0%5B%B4h%D1%A2E%8B%96%CA%A0e%B6h%D1%A2E%8B%96%CA%A0e%B6h%D1%A2E%8B%16-%95a%B6h%D1%A2E%8B%16-%95A%CBl%D1%A2E%8B%16-%95A%CBl%D1%A2E%8B%16-Z*%C3l%D1%A2E%8B%16-Z*%83%96%D9%A2E%8B%16-Z*%83%96%D9%A2E%8B%16-Z%B4T%86%D9%A2E%8B%16-Z%B4T%06-%B3E%8B%16-Z%B4%AE%A4%F5%25%C0%00%DE%BF%5C\'%0F%DA%B8q%00%00%00%00IEND%AEB%60%82") repeat-y scroll 0% 0% transparent ! important; border-left: 1px solid rgb(187, 187, 187) ! important; border-right: 1px solid rgb(0, 0, 0) ! important; border-bottom: 1px dashed rgb(187, 187, 187) ! important; }
.fbProxyElement { position: fixed ! important; pointer-events: auto ! important; }]]></style></defs><g transform="translate(740,790)"><path class="link" d="M0,0C1.392485125775076,83.32169843215475,56.92366252316924,-60.86165532905576,113.84732504633848,-121.72331065811152"/><path class="link" d="M0,0C1.392485125775076,83.32169843215475,72.39975451231969,41.26402780873782,144.79950902463938,82.52805561747564"/><path class="link" d="M0,0C1.392485125775076,83.32169843215475,-51.64582408002044,65.39994877322171,-103.29164816004088,130.79989754644342"/><path class="link" d="M0,0C1.392485125775076,83.32169843215475,-58.92556509887897,-58.92556509887895,-117.85113019775794,-117.8511301977579"/><path class="link" d="M113.84732504633848,-121.72331065811152C170.77098756950772,-182.5849659871673,41.582338645782535,-246.51756349750715,55.44311819437671,-328.6900846633428"/><path class="link" d="M113.84732504633848,-121.72331065811152C170.77098756950772,-182.5849659871673,105.23369060708384,-226.77272843358514,140.31158747611178,-302.36363791144686"/><path class="link" d="M113.84732504633848,-121.72331065811152C170.77098756950772,-182.5849659871673,154.93747224006128,-196.1998463196652,206.58329632008167,-261.5997950928869"/><path class="link" d="M113.84732504633848,-121.72331065811152C170.77098756950772,-182.5849659871673,201.26751328189079,-148.29493618233872,268.3566843758544,-197.72658157645162"/><path class="link" d="M113.84732504633848,-121.72331065811152C170.77098756950772,-182.5849659871673,215.1003948150349,-127.40416064797927,286.80052642004654,-169.87221419730568"/><path class="link" d="M113.84732504633848,-121.72331065811152C170.77098756950772,-182.5849659871673,226.77272843358523,-105.23369060708363,302.363637911447,-140.3115874761115"/><path class="link" d="M113.84732504633848,-121.72331065811152C170.77098756950772,-182.5849659871673,236.16727290197974,-82.00621445989215,314.88969720263964,-109.34161927985619"/><path class="link" d="M113.84732504633848,-121.72331065811152C170.77098756950772,-182.5849659871673,243.1896659412593,-57.95503756688198,324.2528879216791,-77.2733834225093"/><path class="link" d="M144.79950902463938,82.52805561747564C217.19926353695905,123.79208342621348,249.86039093256366,-8.35374425191859,333.1471879100848,-11.138325669224786"/><path class="link" d="M144.79950902463938,82.52805561747564C217.19926353695905,123.79208342621348,249.4417196557883,16.698158436280504,332.58895954105105,22.264211248374007"/><path class="link" d="M144.79950902463938,82.52805561747564C217.19926353695905,123.79208342621348,246.51756349750713,41.582338645782635,328.6900846633428,55.44311819437684"/><path class="link" d="M144.79950902463938,82.52805561747564C217.19926353695905,123.79208342621348,241.11729376359412,66.04885046782164,321.48972501812545,88.06513395709551"/><path class="link" d="M144.79950902463938,82.52805561747564C217.19926353695905,123.79208342621348,233.29515276040058,89.85194320937835,311.0602036805341,119.80259094583779"/><path class="link" d="M144.79950902463938,82.52805561747564C217.19926353695905,123.79208342621348,223.12970896497023,112.7525298040256,297.50627861996026,150.33670640536747"/><path class="link" d="M144.79950902463938,82.52805561747564C217.19926353695905,123.79208342621348,210.7230678541992,134.52058829084325,280.9640904722656,179.360784387791"/><path class="link" d="M144.79950902463938,82.52805561747564C217.19926353695905,123.79208342621348,196.19984631966514,154.93747224006134,261.59979509288684,206.58329632008179"/><path class="link" d="M144.79950902463938,82.52805561747564C217.19926353695905,123.79208342621348,179.70592096948224,173.79810691866066,239.60789462597631,231.73080922488086"/><path class="link" d="M144.79950902463938,82.52805561747564C217.19926353695905,123.79208342621348,161.40696288970048,190.91304913683314,215.20928385293394,254.55073218244416"/><path class="link" d="M144.79950902463938,82.52805561747564C217.19926353695905,123.79208342621348,141.48677358264868,206.11039008544017,188.64903144353158,274.8138534472535"/><path class="link" d="M144.79950902463938,82.52805561747564C217.19926353695905,123.79208342621348,120.14543879667086,219.23748205166794,160.19391839556113,292.31664273555725"/><path class="link" d="M-103.29164816004088,130.79989754644342C-154.9374722400613,196.19984631966514,74.06889522140848,238.7756243017281,98.75852696187798,318.3674990689708"/><path class="link" d="M-103.29164816004088,130.79989754644342C-154.9374722400613,196.19984631966514,-97.59731879087373,230.1624716691072,-130.12975838783163,306.88329555880955"/><path class="link" d="M-103.29164816004088,130.79989754644342C-154.9374722400613,196.19984631966514,-210.72306785419926,134.5205882908432,-280.96409047226564,179.3607843877909"/><path class="link" d="M-103.29164816004088,130.79989754644342C-154.9374722400613,196.19984631966514,-246.51756349750715,41.58233864578249,-328.6900846633428,55.44311819437665"/><path class="link" d="M-103.29164816004088,130.79989754644342C-154.9374722400613,196.19984631966514,-249.4417196557883,-16.698158436280252,-332.58895954105105,-22.26421124837367"/><path class="link" d="M-117.85113019775794,-117.8511301977579C-176.77669529663692,-176.77669529663686,-226.7727284335852,-105.2336906070837,-302.3636379114469,-140.3115874761116"/><path class="link" d="M-117.85113019775794,-117.8511301977579C-176.77669529663692,-176.77669529663686,-105.23369060708376,-226.77272843358517,-140.31158747611167,-302.36363791144686"/><path class="link" d="M55.44311819437671,-328.6900846633428C69.30389774297089,-410.8626058291785,27.830264060467346,-415.73619942631376,33.39631687256082,-498.8834393115766"/><path class="link" d="M55.44311819437671,-328.6900846633428C69.30389774297089,-410.8626058291785,55.53623140574131,-412.948953397825,66.64347768688958,-495.53874407739"/><path class="link" d="M55.44311819437671,-328.6900846633428C69.30389774297089,-410.8626058291785,82.99416045993175,-408.31737709857777,99.59299255191812,-489.9808525182934"/><path class="link" d="M55.44311819437671,-328.6900846633428C69.30389774297089,-410.8626058291785,110.08141744636922,-401.8621562726569,132.09770093564308,-482.2345875271883"/><path class="link" d="M140.31158747611178,-302.36363791144686C175.38948434513972,-377.9545473893085,162.66219798478957,-383.6041194485119,195.19463758174751,-460.3249433382143"/><path class="link" d="M140.31158747611178,-302.36363791144686C175.38948434513972,-377.9545473893085,187.92088300670918,-371.88284827495045,225.50505960805103,-446.2594179299406"/><path class="link" d="M206.58329632008167,-261.5997950928869C258.2291204001021,-326.99974386610864,235.8112893044147,-343.51731680906676,282.97354716529765,-412.2207801708802"/><path class="link" d="M206.58329632008167,-261.5997950928869C258.2291204001021,-326.99974386610864,258.2291204001021,-326.99974386610864,309.87494448012256,-392.3996926393304"/><path class="link" d="M206.58329632008167,-261.5997950928869C258.2291204001021,-326.99974386610864,279.49363755800977,-309.02171068664893,335.39236506961174,-370.8260528239787"/><path class="link" d="M268.3566843758544,-197.72658157645162C335.44585546981796,-247.1582269705645,318.188415228055,-269.01160481616756,381.8260982736661,-322.8139257794011"/><path class="link" d="M268.3566843758544,-197.72658157645162C335.44585546981796,-247.1582269705645,335.44585546981796,-247.1582269705645,402.53502656378157,-296.58987236467743"/><path class="link" d="M268.3566843758544,-197.72658157645162C335.44585546981796,-247.1582269705645,351.20511309033213,-224.20098048473852,421.44613570839863,-269.0411765816863"/><path class="link" d="M98.75852696187798,318.3674990689708C123.44815870234746,397.9593738362135,235.8112893044146,343.51731680906676,282.97354716529753,412.2207801708802"/><path class="link" d="M98.75852696187798,318.3674990689708C123.44815870234746,397.9593738362135,212.34026774663218,358.50065802505804,254.80832129595865,430.20078963006966"/><path class="link" d="M98.75852696187798,318.3674990689708C123.44815870234746,397.9593738362135,187.920883006709,371.8828482749505,225.50505960805083,446.2594179299407"/><path class="link" d="M98.75852696187798,318.3674990689708C123.44815870234746,397.9593738362135,162.6621979847894,383.604119448512,195.1946375817473,460.32494333821444"/><path class="link" d="M98.75852696187798,318.3674990689708C123.44815870234746,397.9593738362135,136.67702409982036,393.6121215032995,164.01242891978444,472.33454580395943"/><path class="link" d="M98.75852696187798,318.3674990689708C123.44815870234746,397.9593738362135,110.08141744636903,401.86215627265693,132.09770093564285,482.23458752718835"/><path class="link" d="M98.75852696187798,318.3674990689708C123.44815870234746,397.9593738362135,82.99416045993156,408.3173770985778,99.59299255191789,489.98085251829343"/><path class="link" d="M98.75852696187798,318.3674990689708C123.44815870234746,397.9593738362135,55.53623140574105,412.948953397825,66.64347768688926,495.53874407739005"/><path class="link" d="M98.75852696187798,318.3674990689708C123.44815870234746,397.9593738362135,27.83026406046716,415.73619942631376,33.3963168725606,498.8834393115766"/><path class="link" d="M98.75852696187798,318.3674990689708C123.44815870234746,397.9593738362135,-1.5952369578862287e-13,416.66666666666663,-1.9142843494634747e-13,500"/><path class="link" d="M-130.12975838783163,306.88329555880955C-162.66219798478954,383.60411944851194,-55.53623140574117,412.948953397825,-66.64347768688941,495.53874407739005"/><path class="link" d="M-130.12975838783163,306.88329555880955C-162.66219798478954,383.60411944851194,-82.9941604599317,408.3173770985778,-99.59299255191806,489.98085251829343"/><path class="link" d="M-130.12975838783163,306.88329555880955C-162.66219798478954,383.60411944851194,-110.08141744636936,401.8621562726568,-132.09770093564325,482.23458752718824"/><path class="link" d="M-130.12975838783163,306.88329555880955C-162.66219798478954,383.60411944851194,-136.67702409982047,393.6121215032995,-164.01242891978458,472.3345458039594"/><path class="link" d="M-130.12975838783163,306.88329555880955C-162.66219798478954,383.60411944851194,-162.66219798478954,383.60411944851194,-195.19463758174746,460.3249433382144"/><path class="link" d="M-130.12975838783163,306.88329555880955C-162.66219798478954,383.60411944851194,-187.9208830067093,371.8828482749504,-225.50505960805117,446.2594179299405"/><path class="link" d="M-130.12975838783163,306.88329555880955C-162.66219798478954,383.60411944851194,-212.3402677466323,358.50065802505804,-254.80832129595876,430.20078963006966"/><path class="link" d="M-130.12975838783163,306.88329555880955C-162.66219798478954,383.60411944851194,-235.8112893044147,343.51731680906676,-282.97354716529765,412.2207801708802"/><path class="link" d="M-130.12975838783163,306.88329555880955C-162.66219798478954,383.60411944851194,-258.2291204001022,326.99974386610853,-309.8749444801226,392.3996926393303"/><path class="link" d="M-280.96409047226564,179.3607843877909C-351.2051130903321,224.2009804847386,-299.50986828247045,289.663511531101,-359.4118419389646,347.5962138373212"/><path class="link" d="M-280.96409047226564,179.3607843877909C-351.2051130903321,224.2009804847386,-318.18841522805496,269.0116048161677,-381.826098273666,322.81392577940125"/><path class="link" d="M-280.96409047226564,179.3607843877909C-351.2051130903321,224.2009804847386,-335.4458554698179,247.15822697056456,-402.5350265637815,296.5898723646775"/><path class="link" d="M-280.96409047226564,179.3607843877909C-351.2051130903321,224.2009804847386,-351.2051130903321,224.2009804847386,-421.4461357083985,269.0411765816864"/><path class="link" d="M-280.96409047226564,179.3607843877909C-351.2051130903321,224.2009804847386,-365.39580341944634,200.24239799445175,-438.47496410333565,240.29087759334212"/><path class="link" d="M-280.96409047226564,179.3607843877909C-351.2051130903321,224.2009804847386,-377.9545473893086,175.38948434513958,-453.54545686717034,210.4673812141675"/><path class="link" d="M-280.96409047226564,179.3607843877909C-351.2051130903321,224.2009804847386,-388.8252546006678,149.75323868229685,-466.5903055208014,179.70388641875624"/><path class="link" d="M-328.6900846633428,55.44311819437665C-410.8626058291785,69.30389774297082,-405.31610990209873,96.59172927813694,-486.37933188251856,115.91007513376434"/><path class="link" d="M-328.6900846633428,55.44311819437665C-410.8626058291785,69.30389774297082,-410.8626058291785,69.30389774297082,-493.0351269950143,83.16467729156498"/><path class="link" d="M-328.6900846633428,55.44311819437665C-410.8626058291785,69.30389774297082,-414.57408962021,41.7065381767078,-497.488907544252,50.04784581204937"/><path class="link" d="M-332.58895954105105,-22.26421124837367C-415.73619942631376,-27.830264060467083,-416.4339848876061,-13.92290708653093,-499.7207818651273,-16.707488503837116"/><path class="link" d="M-332.58895954105105,-22.26421124837367C-415.73619942631376,-27.830264060467083,-414.57408962021,-41.706538176707696,-497.488907544252,-50.04784581204924"/><path class="link" d="M-302.3636379114469,-140.3115874761116C-377.95454738930863,-175.3894843451395,-405.31610990209873,-96.59172927813685,-486.37933188251856,-115.91007513376424"/><path class="link" d="M-302.3636379114469,-140.3115874761116C-377.95454738930863,-175.3894843451395,-397.9593738362135,-123.4481587023474,-477.55124860345626,-148.13779044281688"/><path class="link" d="M-302.3636379114469,-140.3115874761116C-377.95454738930863,-175.3894843451395,-388.8252546006678,-149.75323868229674,-466.5903055208014,-179.70388641875613"/><path class="link" d="M-302.3636379114469,-140.3115874761116C-377.95454738930863,-175.3894843451395,-377.95454738930863,-175.3894843451395,-453.5454568671704,-210.4673812141674"/><path class="link" d="M-302.3636379114469,-140.3115874761116C-377.95454738930863,-175.3894843451395,-365.3958034194464,-200.24239799445166,-438.4749641033357,-240.29087759334203"/><path class="link" d="M-302.3636379114469,-140.3115874761116C-377.95454738930863,-175.3894843451395,-351.2051130903321,-224.20098048473858,-421.4461357083986,-269.04117658168633"/><path class="link" d="M-302.3636379114469,-140.3115874761116C-377.95454738930863,-175.3894843451395,-335.4458554698178,-247.15822697056478,-402.5350265637814,-296.5898723646778"/><path class="link" d="M-140.31158747611167,-302.36363791144686C-175.38948434513958,-377.9545473893086,-299.5098682824706,-289.66351153110077,-359.4118419389648,-347.596213837321"/><path class="link" d="M-140.31158747611167,-302.36363791144686C-175.38948434513958,-377.9545473893086,-279.49363755800977,-309.02171068664893,-335.39236506961174,-370.8260528239787"/><path class="link" d="M-140.31158747611167,-302.36363791144686C-175.38948434513958,-377.9545473893086,-258.2291204001022,-326.9997438661086,-309.8749444801226,-392.39969263933034"/><path class="link" d="M-140.31158747611167,-302.36363791144686C-175.38948434513958,-377.9545473893086,-235.81128930441466,-343.51731680906676,-282.9735471652976,-412.2207801708802"/><path class="link" d="M-140.31158747611167,-302.36363791144686C-175.38948434513958,-377.9545473893086,-212.3402677466321,-358.50065802505816,-254.80832129595854,-430.2007896300698"/><path class="link" d="M-140.31158747611167,-302.36363791144686C-175.38948434513958,-377.9545473893086,-187.92088300670937,-371.88284827495033,-225.50505960805128,-446.25941792994047"/><path class="link" d="M-140.31158747611167,-302.36363791144686C-175.38948434513958,-377.9545473893086,-162.6621979847896,-383.6041194485119,-195.19463758174754,-460.3249433382143"/><path class="link" d="M-140.31158747611167,-302.36363791144686C-175.38948434513958,-377.9545473893086,-136.67702409982073,-393.61212150329936,-164.0124289197849,-472.33454580395926"/><path class="link" d="M-140.31158747611167,-302.36363791144686C-175.38948434513958,-377.9545473893086,-110.08141744636927,-401.8621562726568,-132.09770093564313,-482.23458752718824"/><path class="link" d="M-140.31158747611167,-302.36363791144686C-175.38948434513958,-377.9545473893086,-82.99416045993162,-408.3173770985778,-99.59299255191796,-489.98085251829343"/><path class="link" d="M-140.31158747611167,-302.36363791144686C-175.38948434513958,-377.9545473893086,-55.53623140574092,-412.948953397825,-66.64347768688911,-495.53874407739005"/><path class="link" d="M-140.31158747611167,-302.36363791144686C-175.38948434513958,-377.9545473893086,-27.83026406046721,-415.73619942631376,-33.39631687256066,-498.8834393115766"/><g class="node node--internal" transform="translate(0,0)"><circle r="3"/><text dy="0.31em" x="-10" text-anchor="end" transform="rotate(89.04255319148936)">Fog Computing Research</text></g><g class="node node--internal" transform="translate(113.84732504633848,-121.72331065811152)"><circle r="3"/><text dy="0.31em" x="-10" text-anchor="end" transform="rotate(-46.91489361702127)">Taxonomy</text></g><g class="node node--internal" transform="translate(144.79950902463938,82.52805561747564)"><circle r="3"/><text dy="0.31em" x="-10" text-anchor="end" transform="rotate(29.680851063829806)">Features and Objectives</text></g><g class="node node--internal" transform="translate(-103.29164816004088,130.79989754644342)"><circle r="3"/><text dy="0.31em" x="10" text-anchor="start" transform="rotate(308.2978723404256)">Conferences</text></g><g class="node node--internal" transform="translate(-117.85113019775794,-117.8511301977579)"><circle r="3"/><text dy="0.31em" x="10" text-anchor="start" transform="rotate(404.99999999999994)">Journals/Mag</text></g><g class="node node--internal" transform="translate(55.44311819437671,-328.6900846633428)"><circle r="3"/><text dy="0.31em" x="-10" text-anchor="end" transform="rotate(-80.42553191489361)">Frameworks &amp; Programming Models</text></g><g class="node node--internal" transform="translate(140.31158747611178,-302.36363791144686)"><circle r="3"/><text dy="0.31em" x="-10" text-anchor="end" transform="rotate(-65.10638297872337)">Design &amp; Planning</text></g><g class="node node--internal" transform="translate(206.58329632008167,-261.5997950928869)"><circle r="3"/><text dy="0.31em" x="-10" text-anchor="end" transform="rotate(-51.70212765957446)">Resource Management &amp; Provisioning</text></g><g class="node node--internal" transform="translate(268.3566843758544,-197.72658157645162)"><circle r="3"/><text dy="0.31em" x="-10" text-anchor="end" transform="rotate(-36.382978723404236)">Operation</text></g><g class="node node--leaf" transform="translate(286.80052642004654,-169.87221419730568)"><circle r="3"/><text dy="0.31em" x="10" text-anchor="start" transform="rotate(-30.638297872340402)">Software, Tools, and Testbeds</text></g><g class="node node--leaf" transform="translate(302.363637911447,-140.3115874761115)"><circle r="3"/><text dy="0.31em" x="10" text-anchor="start" transform="rotate(-24.893617021276565)">Security &amp; Privacy</text></g><g class="node node--leaf" transform="translate(314.88969720263964,-109.34161927985619)"><circle r="3"/><text dy="0.31em" x="10" text-anchor="start" transform="rotate(-19.148936170212735)">Hardware and Protocol Stacks</text></g><g class="node node--leaf" transform="translate(324.2528879216791,-77.2733834225093)"><circle r="3"/><text dy="0.31em" x="10" text-anchor="start" transform="rotate(-13.404255319148918)">Surveys</text></g><g class="node node--leaf" transform="translate(333.1471879100848,-11.138325669224786)"><circle r="3"/><text dy="0.31em" x="10" text-anchor="start" transform="rotate(-1.9148936170212647)">QoS</text></g><g class="node node--leaf" transform="translate(332.58895954105105,22.264211248374007)"><circle r="3"/><text dy="0.31em" x="10" text-anchor="start" transform="rotate(3.8297872340425805)">Cost</text></g><g class="node node--leaf" transform="translate(328.6900846633428,55.44311819437684)"><circle r="3"/><text dy="0.31em" x="10" text-anchor="start" transform="rotate(9.574468085106412)">Energy</text></g><g class="node node--leaf" transform="translate(321.48972501812545,88.06513395709551)"><circle r="3"/><text dy="0.31em" x="10" text-anchor="start" transform="rotate(15.319148936170244)">Bandwidth</text></g><g class="node node--leaf" transform="translate(311.0602036805341,119.80259094583779)"><circle r="3"/><text dy="0.31em" x="10" text-anchor="start" transform="rotate(21.063829787234077)">Security</text></g><g class="node node--leaf" transform="translate(297.50627861996026,150.33670640536747)"><circle r="3"/><text dy="0.31em" x="10" text-anchor="start" transform="rotate(26.808510638297907)">Foundation</text></g><g class="node node--leaf" transform="translate(280.9640904722656,179.360784387791)"><circle r="3"/><text dy="0.31em" x="10" text-anchor="start" transform="rotate(32.55319148936173)">RAS</text></g><g class="node node--leaf" transform="translate(261.59979509288684,206.58329632008179)"><circle r="3"/><text dy="0.31em" x="10" text-anchor="start" transform="rotate(38.29787234042558)">Mobility</text></g><g class="node node--leaf" transform="translate(239.60789462597631,231.73080922488086)"><circle r="3"/><text dy="0.31em" x="10" text-anchor="start" transform="rotate(44.0425531914894)">Scalability</text></g><g class="node node--leaf" transform="translate(215.20928385293394,254.55073218244416)"><circle r="3"/><text dy="0.31em" x="10" text-anchor="start" transform="rotate(49.787234042553244)">Heterogeneity</text></g><g class="node node--leaf" transform="translate(188.64903144353158,274.8138534472535)"><circle r="3"/><text dy="0.31em" x="10" text-anchor="start" transform="rotate(55.531914893617056)">Management</text></g><g class="node node--leaf" transform="translate(160.19391839556113,292.31664273555725)"><circle r="3"/><text dy="0.31em" x="10" text-anchor="start" transform="rotate(61.276595744680876)">Programability</text></g><g class="node node--internal" transform="translate(98.75852696187798,318.3674990689708)"><circle r="3"/><text dy="0.31em" x="-10" text-anchor="end" transform="rotate(72.76595744680851)">General</text></g><g class="node node--internal" transform="translate(-130.12975838783163,306.88329555880955)"><circle r="3"/><text dy="0.31em" x="10" text-anchor="start" transform="rotate(292.97872340425533)">Fog/Edge Computing</text></g><g class="node node--internal" transform="translate(-280.96409047226564,179.3607843877909)"><circle r="3"/><text dy="0.31em" x="10" text-anchor="start" transform="rotate(327.44680851063833)">Cloud Computing</text></g><g class="node node--internal" transform="translate(-328.6900846633428,55.44311819437665)"><circle r="3"/><text dy="0.31em" x="10" text-anchor="start" transform="rotate(350.4255319148936)">Mobile Computing</text></g><g class="node node--internal" transform="translate(-332.58895954105105,-22.26421124837367)"><circle r="3"/><text dy="0.31em" x="10" text-anchor="start" transform="rotate(363.8297872340425)">Distributed Computing</text></g><g class="node node--internal" transform="translate(-302.3636379114469,-140.3115874761116)"><circle r="3"/><text dy="0.31em" x="10" text-anchor="start" transform="rotate(384.89361702127655)">Magazine</text></g><g class="node node--internal" transform="translate(-140.31158747611167,-302.36363791144686)"><circle r="3"/><text dy="0.31em" x="10" text-anchor="start" transform="rotate(425.10638297872345)">Journal</text></g><g class="node node--leaf" transform="translate(33.39631687256082,-498.8834393115766)"><circle r="3"/><text dy="0.31em" x="10" text-anchor="start" transform="rotate(-86.17021276595744)">Definition &amp; Standards</text></g><g class="node node--leaf" transform="translate(66.64347768688958,-495.53874407739)"><circle r="3"/><text dy="0.31em" x="10" text-anchor="start" transform="rotate(-82.34042553191487)">Architectures and Frameworks for Fog</text></g><g class="node node--leaf" transform="translate(99.59299255191812,-489.9808525182934)"><circle r="3"/><text dy="0.31em" x="10" text-anchor="start" transform="rotate(-78.51063829787233)">Concepts and Frameworks using Fog</text></g><g class="node node--leaf" transform="translate(132.09770093564308,-482.2345875271883)"><circle r="3"/><text dy="0.31em" x="10" text-anchor="start" transform="rotate(-74.68085106382979)">Programing Model/Platform</text></g><g class="node node--leaf" transform="translate(195.19463758174751,-460.3249433382143)"><circle r="3"/><text dy="0.31em" x="10" text-anchor="start" transform="rotate(-67.02127659574467)">Infrastructure Design</text></g><g class="node node--leaf" transform="translate(225.50505960805103,-446.2594179299406)"><circle r="3"/><text dy="0.31em" x="10" text-anchor="start" transform="rotate(-63.19148936170211)">Resource Analysis and Estimation</text></g><g class="node node--leaf" transform="translate(282.97354716529765,-412.2207801708802)"><circle r="3"/><text dy="0.31em" x="10" text-anchor="start" transform="rotate(-55.53191489361702)">Service Provisioning</text></g><g class="node node--leaf" transform="translate(309.87494448012256,-392.3996926393304)"><circle r="3"/><text dy="0.31em" x="10" text-anchor="start" transform="rotate(-51.70212765957446)">Placement</text></g><g class="node node--leaf" transform="translate(335.39236506961174,-370.8260528239787)"><circle r="3"/><text dy="0.31em" x="10" text-anchor="start" transform="rotate(-47.87234042553192)">Control and Monitoring</text></g><g class="node node--leaf" transform="translate(381.8260982736661,-322.8139257794011)"><circle r="3"/><text dy="0.31em" x="10" text-anchor="start" transform="rotate(-40.21276595744679)">Task Scheduling offloading and Load Balancing</text></g><g class="node node--leaf" transform="translate(402.53502656378157,-296.58987236467743)"><circle r="3"/><text dy="0.31em" x="10" text-anchor="start" transform="rotate(-36.382978723404236)">Resource Discovery &amp; Selection</text></g><g class="node node--leaf" transform="translate(421.44613570839863,-269.0411765816863)"><circle r="3"/><text dy="0.31em" x="10" text-anchor="start" transform="rotate(-32.55319148936169)">Algorithms &amp; Applications</text></g><g class="node node--leaf" transform="translate(282.97354716529753,412.2207801708802)"><circle r="3"/><text dy="0.31em" x="10" text-anchor="start" transform="rotate(55.531914893617035)">ACM SIGCOMM</text></g><g class="node node--leaf" transform="translate(254.80832129595865,430.20078963006966)"><circle r="3"/><text dy="0.31em" x="10" text-anchor="start" transform="rotate(59.36170212765958)">USENIX NSDI</text></g><g class="node node--leaf" transform="translate(225.50505960805083,446.2594179299407)"><circle r="3"/><text dy="0.31em" x="10" text-anchor="start" transform="rotate(63.19148936170214)">IEEE INFOCOM</text></g><g class="node node--leaf" transform="translate(195.1946375817473,460.32494333821444)"><circle r="3"/><text dy="0.31em" x="10" text-anchor="start" transform="rotate(67.0212765957447)">ACM SIGMETRICS</text></g><g class="node node--leaf" transform="translate(164.01242891978444,472.33454580395943)"><circle r="3"/><text dy="0.31em" x="10" text-anchor="start" transform="rotate(70.85106382978725)">ACM CoNEXT</text></g><g class="node node--leaf" transform="translate(132.09770093564285,482.23458752718835)"><circle r="3"/><text dy="0.31em" x="10" text-anchor="start" transform="rotate(74.6808510638298)">ACM HotNets</text></g><g class="node node--leaf" transform="translate(99.59299255191789,489.98085251829343)"><circle r="3"/><text dy="0.31em" x="10" text-anchor="start" transform="rotate(78.51063829787236)">USENIX ATC</text></g><g class="node node--leaf" transform="translate(66.64347768688926,495.53874407739005)"><circle r="3"/><text dy="0.31em" x="10" text-anchor="start" transform="rotate(82.34042553191492)">IEEE ICC</text></g><g class="node node--leaf" transform="translate(33.3963168725606,498.8834393115766)"><circle r="3"/><text dy="0.31em" x="10" text-anchor="start" transform="rotate(86.17021276595747)">IEEE GLOBECOM</text></g><g class="node node--leaf" transform="translate(-1.9142843494634747e-13,500)"><circle r="3"/><text dy="0.31em" x="-10" text-anchor="end" transform="rotate(270)">IEEE ICNP</text></g><g class="node node--leaf" transform="translate(-66.64347768688941,495.53874407739005)"><circle r="3"/><text dy="0.31em" x="-10" text-anchor="end" transform="rotate(277.6595744680851)">IEEE/ACM SEC</text></g><g class="node node--leaf" transform="translate(-99.59299255191806,489.98085251829343)"><circle r="3"/><text dy="0.31em" x="-10" text-anchor="end" transform="rotate(281.48936170212767)">IEEE FMEC</text></g><g class="node node--leaf" transform="translate(-132.09770093564325,482.23458752718824)"><circle r="3"/><text dy="0.31em" x="-10" text-anchor="end" transform="rotate(285.3191489361702)">IEEE EDGE</text></g><g class="node node--leaf" transform="translate(-164.01242891978458,472.3345458039594)"><circle r="3"/><text dy="0.31em" x="-10" text-anchor="end" transform="rotate(289.1489361702127)">USENIX HotEdge</text></g><g class="node node--leaf" transform="translate(-195.19463758174746,460.3249433382144)"><circle r="3"/><text dy="0.31em" x="-10" text-anchor="end" transform="rotate(292.97872340425533)">Fog World Congress</text></g><g class="node node--leaf" transform="translate(-225.50505960805117,446.2594179299405)"><circle r="3"/><text dy="0.31em" x="-10" text-anchor="end" transform="rotate(296.8085106382979)">ACM MECOMM</text></g><g class="node node--leaf" transform="translate(-254.80832129595876,430.20078963006966)"><circle r="3"/><text dy="0.31em" x="-10" text-anchor="end" transform="rotate(300.63829787234044)">IEEE ICFEC</text></g><g class="node node--leaf" transform="translate(-282.97354716529765,412.2207801708802)"><circle r="3"/><text dy="0.31em" x="-10" text-anchor="end" transform="rotate(304.46808510638294)">IEEE SmartEdge</text></g><g class="node node--leaf" transform="translate(-309.8749444801226,392.3996926393303)"><circle r="3"/><text dy="0.31em" x="-10" text-anchor="end" transform="rotate(308.2978723404256)">IEEE WF-IoT</text></g><g class="node node--leaf" transform="translate(-359.4118419389646,347.5962138373212)"><circle r="3"/><text dy="0.31em" x="-10" text-anchor="end" transform="rotate(315.95744680851067)">ACM SOCC</text></g><g class="node node--leaf" transform="translate(-381.826098273666,322.81392577940125)"><circle r="3"/><text dy="0.31em" x="-10" text-anchor="end" transform="rotate(319.7872340425532)">USENIX HotCloud</text></g><g class="node node--leaf" transform="translate(-402.5350265637815,296.5898723646775)"><circle r="3"/><text dy="0.31em" x="-10" text-anchor="end" transform="rotate(323.6170212765958)">IEEE/ACM UCC</text></g><g class="node node--leaf" transform="translate(-421.4461357083985,269.0411765816864)"><circle r="3"/><text dy="0.31em" x="-10" text-anchor="end" transform="rotate(327.44680851063833)">IEEE CloudCom</text></g><g class="node node--leaf" transform="translate(-438.47496410333565,240.29087759334212)"><circle r="3"/><text dy="0.31em" x="-10" text-anchor="end" transform="rotate(331.27659574468083)">IEEE IC2E</text></g><g class="node node--leaf" transform="translate(-453.54545686717034,210.4673812141675)"><circle r="3"/><text dy="0.31em" x="-10" text-anchor="end" transform="rotate(335.1063829787234)">IEEE Cloud</text></g><g class="node node--leaf" transform="translate(-466.5903055208014,179.70388641875624)"><circle r="3"/><text dy="0.31em" x="-10" text-anchor="end" transform="rotate(338.936170212766)">IEEE FiCloud</text></g><g class="node node--leaf" transform="translate(-486.37933188251856,115.91007513376434)"><circle r="3"/><text dy="0.31em" x="-10" text-anchor="end" transform="rotate(346.59574468085106)">ACM MobiHoc</text></g><g class="node node--leaf" transform="translate(-493.0351269950143,83.16467729156498)"><circle r="3"/><text dy="0.31em" x="-10" text-anchor="end" transform="rotate(350.4255319148936)">ACM MobiCom</text></g><g class="node node--leaf" transform="translate(-497.488907544252,50.04784581204937)"><circle r="3"/><text dy="0.31em" x="-10" text-anchor="end" transform="rotate(354.2553191489361)">ACM MobiSys</text></g><g class="node node--leaf" transform="translate(-499.7207818651273,-16.707488503837116)"><circle r="3"/><text dy="0.31em" x="-10" text-anchor="end" transform="rotate(361.9148936170213)">IEEE ICDCS</text></g><g class="node node--leaf" transform="translate(-497.488907544252,-50.04784581204924)"><circle r="3"/><text dy="0.31em" x="-10" text-anchor="end" transform="rotate(365.74468085106383)">IARIA UBICOMM</text></g><g class="node node--leaf" transform="translate(-486.37933188251856,-115.91007513376424)"><circle r="3"/><text dy="0.31em" x="-10" text-anchor="end" transform="rotate(373.40425531914894)">IEEE Communication</text></g><g class="node node--leaf" transform="translate(-477.55124860345626,-148.13779044281688)"><circle r="3"/><text dy="0.31em" x="-10" text-anchor="end" transform="rotate(377.2340425531915)">IEEE Network</text></g><g class="node node--leaf" transform="translate(-466.5903055208014,-179.70388641875613)"><circle r="3"/><text dy="0.31em" x="-10" text-anchor="end" transform="rotate(381.063829787234)">IEEE Wireless Communications</text></g><g class="node node--leaf" transform="translate(-453.5454568671704,-210.4673812141674)"><circle r="3"/><text dy="0.31em" x="-10" text-anchor="end" transform="rotate(384.89361702127655)">IEEE Cloud Computing</text></g><g class="node node--leaf" transform="translate(-438.4749641033357,-240.29087759334203)"><circle r="3"/><text dy="0.31em" x="-10" text-anchor="end" transform="rotate(388.7234042553192)">IEEE Internet Computing</text></g><g class="node node--leaf" transform="translate(-421.4461357083986,-269.04117658168633)"><circle r="3"/><text dy="0.31em" x="-10" text-anchor="end" transform="rotate(392.55319148936167)">IEEE Pervasive Computing</text></g><g class="node node--leaf" transform="translate(-402.5350265637814,-296.5898723646778)"><circle r="3"/><text dy="0.31em" x="-10" text-anchor="end" transform="rotate(396.3829787234043)">IEEE Computer</text></g><g class="node node--leaf" transform="translate(-359.4118419389648,-347.596213837321)"><circle r="3"/><text dy="0.31em" x="-10" text-anchor="end" transform="rotate(404.0425531914894)">ACM CSUR</text></g><g class="node node--leaf" transform="translate(-335.39236506961174,-370.8260528239787)"><circle r="3"/><text dy="0.31em" x="-10" text-anchor="end" transform="rotate(407.87234042553195)">IEEE Comm Sur Tut</text></g><g class="node node--leaf" transform="translate(-309.8749444801226,-392.39969263933034)"><circle r="3"/><text dy="0.31em" x="-10" text-anchor="end" transform="rotate(411.70212765957444)">IEEE IoTJ</text></g><g class="node node--leaf" transform="translate(-282.9735471652976,-412.2207801708802)"><circle r="3"/><text dy="0.31em" x="-10" text-anchor="end" transform="rotate(415.531914893617)">IEEE/ACM TON</text></g><g class="node node--leaf" transform="translate(-254.80832129595854,-430.2007896300698)"><circle r="3"/><text dy="0.31em" x="-10" text-anchor="end" transform="rotate(419.3617021276596)">IEEE JSAC</text></g><g class="node node--leaf" transform="translate(-225.50505960805128,-446.25941792994047)"><circle r="3"/><text dy="0.31em" x="-10" text-anchor="end" transform="rotate(423.1914893617021)">IEEE TCC</text></g><g class="node node--leaf" transform="translate(-195.19463758174754,-460.3249433382143)"><circle r="3"/><text dy="0.31em" x="-10" text-anchor="end" transform="rotate(427.02127659574467)">IEEE TNSM</text></g><g class="node node--leaf" transform="translate(-164.0124289197849,-472.33454580395926)"><circle r="3"/><text dy="0.31em" x="-10" text-anchor="end" transform="rotate(430.85106382978717)">IEEE TSC</text></g><g class="node node--leaf" transform="translate(-132.09770093564313,-482.23458752718824)"><circle r="3"/><text dy="0.31em" x="-10" text-anchor="end" transform="rotate(434.68085106382983)">IEEE TSC</text></g><g class="node node--leaf" transform="translate(-99.59299255191796,-489.98085251829343)"><circle r="3"/><text dy="0.31em" x="-10" text-anchor="end" transform="rotate(438.5106382978724)">IEEE TETC</text></g><g class="node node--leaf" transform="translate(-66.64347768688911,-495.53874407739005)"><circle r="3"/><text dy="0.31em" x="-10" text-anchor="end" transform="rotate(442.34042553191495)">IEEE TMC</text></g><g class="node node--leaf" transform="translate(-33.39631687256066,-498.8834393115766)"><circle r="3"/><text dy="0.31em" x="-10" text-anchor="end" transform="rotate(446.1702127659575)">IEEE TWC</text></g></g></svg>