<?xml version="1.0" standalone="no"?><!DOCTYPE svg PUBLIC "-//W3C//DTD SVG 1.1//EN" "http://www.w3.org/Graphics/SVG/1.1/DTD/svg11.dtd"><svg height="1330" width="1300" version="1.1" xmlns="http://www.w3.org/2000/svg" xmlns:xlink="http://www.w3.org/1999/xlink"><defs xmlns="http://www.w3.org/1999/xhtml"><style type="text/css"><![CDATA[
.node circle { fill: rgb(153, 153, 153); }
.node text { font: 10px sans-serif; }
.node--internal circle { fill: rgb(85, 85, 85); }
.node--internal text { text-shadow: 0px 1px 0px rgb(255, 255, 255), 0px -1px 0px rgb(255, 255, 255), 1px 0px 0px rgb(255, 255, 255), -1px 0px 0px rgb(255, 255, 255); }
.link { fill: none; stroke: rgb(85, 85, 85); stroke-opacity: 0.4; stroke-width: 1.5px; }
.firebugResetStyles { z-index: 2147483646 ! important; top: 0px ! important; left: 0px ! important; display: block ! important; border: 0px none ! important; margin: 0px ! important; padding: 0px ! important; outline: 0px none ! important; min-width: 0px ! important; max-width: none ! important; min-height: 0px ! important; max-height: none ! important; position: fixed ! important; transform: rotate(0deg) ! important; transform-origin: 50% 50% 0px ! important; border-radius: 0px ! important; box-shadow: none ! important; background: none repeat scroll 0% 0% transparent ! important; pointer-events: none ! important; white-space: normal ! important; }
style.firebugResetStyles { display: none ! important; }
.firebugBlockBackgroundColor { background-color: transparent ! important; }
.firebugResetStyles::before, .firebugResetStyles::after { content: "" ! important; }
.firebugCanvas { display: none ! important; }
.firebugLayoutBox { width: auto ! important; position: static ! important; }
.firebugLayoutBoxOffset { opacity: 0.8 ! important; position: fixed ! important; }
.firebugLayoutLine { opacity: 0.4 ! important; background-color: rgb(0, 0, 0) ! important; }
.firebugLayoutLineLeft, .firebugLayoutLineRight { width: 1px ! important; height: 100% ! important; }
.firebugLayoutLineTop, .firebugLayoutLineBottom { width: 100% ! important; height: 1px ! important; }
.firebugLayoutLineTop { margin-top: -1px ! important; border-top: 1px solid rgb(153, 153, 153) ! important; }
.firebugLayoutLineRight { border-right: 1px solid rgb(153, 153, 153) ! important; }
.firebugLayoutLineBottom { border-bottom: 1px solid rgb(153, 153, 153) ! important; }
.firebugLayoutLineLeft { margin-left: -1px ! important; border-left: 1px solid rgb(153, 153, 153) ! important; }
.firebugLayoutBoxParent { border-width: 0px 1px 1px 0px ! important; border-style: none dashed dashed none ! important; border-color: -moz-use-text-color rgb(238, 0, 0) rgb(238, 0, 0) -moz-use-text-color ! important; position: fixed ! important; width: auto ! important; }
.firebugRuler { position: absolute ! important; }
.firebugRulerH { top: -15px ! important; left: 0px ! important; width: 100% ! important; height: 14px ! important; background: url("data:image/png,%89PNG%0D%0A%1A%0A%00%00%00%0DIHDR%00%00%13%88%00%00%00%0E%08%02%00%00%00L%25a%0A%00%00%00%04gAMA%00%00%D6%D8%D4OX2%00%00%00%19tEXtSoftware%00Adobe%20ImageReadyq%C9e%3C%00%00%04%F8IDATx%DA%EC%DD%D1n%E2%3A%00E%D1%80%F8%FF%EF%E2%AF2%95%D0D4%0E%C1%14%B0%8Fa-%E9%3E%CC%9C%87n%B9%81%A6W0%1C%A6i%9A%E7y%0As8%1CT%A9R%A5J%95*U%AAT%A9R%A5J%95*U%AAT%A9R%A5J%95*U%AAT%A9R%A5J%95*U%AAT%A9R%A5J%95*U%AAT%A9R%A5J%95*U%AAT%A9R%A5J%95*U%AATE9%FE%FCw%3E%9F%AF%2B%2F%BA%97%FDT%1D~K(%5C%9D%D5%EA%1B%5C%86%B5%A9%BDU%B5y%80%ED%AB*%03%FAV9%AB%E1%CEj%E7%82%EF%FB%18%BC%AEJ8%AB%FA\'%D2%BEU9%D7U%ECc0%E1%A2r%5DynwVi%CFW%7F%BB%17%7Dy%EACU%CD%0E%F0%FA%3BX%FEbV%FEM%9B%2B%AD%BE%AA%E5%95v%AB%AA%E3E5%DCu%15rV9%07%B5%7F%B5w%FCm%BA%BE%AA%FBY%3D%14%F0%EE%C7%60%0EU%AAT%A9R%A5J%95*U%AAT%A9R%A5J%95*U%AAT%A9R%A5J%95*U%AAT%A9R%A5J%95*U%AAT%A9R%A5JU%88%D3%F5%1F%AE%DF%3B%1B%F2%3E%DAUCNa%F92%D02%AC%7Dm%F9%3A%D4%F2%8B6%AE*%BF%5C%C2Ym~9g5%D0Y%95%17%7C%C8c%B0%7C%18%26%9CU%CD%13i%F7%AA%90%B3Z%7D%95%B4%C7%60%E6E%B5%BC%05%B4%FBY%95U%9E%DB%FD%1C%FC%E0%9F%83%7F%BE%17%7DkjMU%E3%03%AC%7CWj%DF%83%9An%BCG%AE%F1%95%96yQ%0Dq%5Dy%00%3Et%B5\'%FC6%5DS%95pV%95%01%81%FF\'%07%00%00%00%00%00%00%00%00%00%F8x%C7%F0%BE%9COp%5D%C9%7C%AD%E7%E6%EBV%FB%1E%E0(%07%E5%AC%C6%3A%ABi%9C%8F%C6%0E9%AB%C0\'%D2%8E%9F%F99%D0E%B5%99%14%F5%0D%CD%7F%24%C6%DEH%B8%E9rV%DFs%DB%D0%F7%00k%FE%1D%84%84%83J%B8%E3%BA%FB%EF%20%84%1C%D7%AD%B0%8E%D7U%C8Y%05%1E%D4t%EF%AD%95Q%BF8w%BF%E9%0A%BF%EB%03%00%00%00%00%00%00%00%00%00%B8vJ%8E%BB%F5%B1u%8Cx%80%E1o%5E%CA9%AB%CB%CB%8E%03%DF%1D%B7T%25%9C%D5(%EFJM8%AB%CC\'%D2%B2*%A4s%E7c6%FB%3E%FA%A2%1E%80~%0E%3E%DA%10x%5D%95Uig%15u%15%ED%7C%14%B6%87%A1%3B%FCo8%A8%D8o%D3%ADO%01%EDx%83%1A~%1B%9FpP%A3%DC%C6\'%9C%95gK%00%00%00%00%00%00%00%00%00%20%D9%C9%11%D0%C0%40%AF%3F%EE%EE%92%94%D6%16X%B5%BCMH%15%2F%BF%D4%A7%C87%F1%8E%F2%81%AE%AAvzr%DA2%ABV%17%7C%E63%83%E7I%DC%C6%0Bs%1B%EF6%1E%00%00%00%00%00%00%00%00%00%80cr%9CW%FF%7F%C6%01%0E%F1%CE%A5%84%B3%CA%BC%E0%CB%AA%84%CE%F9%BF)%EC%13%08WU%AE%AB%B1%AE%2BO%EC%8E%CBYe%FE%8CN%ABr%5Dy%60~%CFA%0D%F4%AE%D4%BE%C75%CA%EDVB%EA(%B7%F1%09g%E5%D9%12%00%00%00%00%00%00%00%00%00H%F6%EB%13S%E7y%5E%5E%FB%98%F0%22%D1%B2\'%A7%F0%92%B1%BC%24z3%AC%7Dm%60%D5%92%B4%7CEUO%5E%F0%AA*%3BU%B9%AE%3E%A0j%94%07%A0%C7%A0%AB%FD%B5%3F%A0%F7%03T%3Dy%D7%F7%D6%D4%C0%AAU%D2%E6%DFt%3F%A8%CC%AA%F2%86%B9%D7%F5%1F%18%E6%01%F8%CC%D5%9E%F0%F3z%88%AA%90%EF%20%00%00%00%00%00%00%00%00%00%C0%A6%D3%EA%CFi%AFb%2C%7BB%0A%2B%C3%1A%D7%06V%D5%07%A8r%5D%3D%D9%A6%CAu%F5%25%CF%A2%99%97zNX%60%95%AB%5DUZ%D5%FBR%03%AB%1C%D4k%9F%3F%BB%5C%FF%81a%AE%AB\'%7F%F3%EA%FE%F3z%94%AA%D8%DF%5B%01%00%00%00%00%00%00%00%00%00%8E%FB%F3%F2%B1%1B%8DWU%AAT%A9R%A5J%95*U%AAT%A9R%A5J%95*U%AAT%A9R%A5J%95*U%AAT%A9R%A5J%95*U%AAT%A9R%A5J%95*U%AAT%A9R%A5J%95*U%AAT%A9R%A5J%95*UiU%C7%BBe%E7%F3%B9%CB%AAJ%95*U%AAT%A9R%A5J%95*U%AAT%A9R%A5J%95*U%AAT%A9R%A5J%95*U%AAT%A9R%A5J%95*U%AAT%A9R%A5J%95*U%AAT%A9R%A5J%95*U%AAT%A9R%A5*%AAj%FD%C6%D4%5Eo%90%B5Z%ADV%AB%D5j%B5Z%ADV%AB%D5j%B5Z%ADV%AB%D5j%B5Z%ADV%AB%D5j%B5Z%ADV%AB%D5j%B5Z%ADV%AB%D5j%B5Z%ADV%AB%D5j%B5%86%AF%1B%9F%98%DA%EBm%BBV%AB%D5j%B5Z%ADV%AB%D5j%B5Z%ADV%AB%D5j%B5Z%ADV%AB%D5j%B5Z%ADV%AB%D5j%B5Z%ADV%AB%D5j%B5Z%ADV%AB%D5j%B5Z%AD%D6%E4%F58%01%00%00%00%00%00%00%00%00%00%00%00%00%00%40%85%7F%02%0C%008%C2%D0H%16j%8FX%00%00%00%00IEND%AEB%60%82") repeat-x scroll 0% 0% transparent ! important; border-top: 1px solid rgb(187, 187, 187) ! important; border-right: 1px dashed rgb(187, 187, 187) ! important; border-bottom: 1px solid rgb(0, 0, 0) ! important; }
.firebugRulerV { top: 0px ! important; left: -15px ! important; width: 14px ! important; height: 100% ! important; background: url("data:image/png,%89PNG%0D%0A%1A%0A%00%00%00%0DIHDR%00%00%00%0E%00%00%13%88%08%02%00%00%00%0E%F5%CB%10%00%00%00%04gAMA%00%00%D6%D8%D4OX2%00%00%00%19tEXtSoftware%00Adobe%20ImageReadyq%C9e%3C%00%00%06~IDATx%DA%EC%DD%D1v%A20%14%40Qt%F1%FF%FF%E4%97%D9%07%3BT%19%92%DC%40(%90%EEy%9A5%CB%B6%E8%F6%9Ac%A4%CC0%84%FF%DC%9E%CF%E7%E3%F1%88%DE4%F8%5D%C7%9F%2F%BA%DD%5E%7FI%7D%F18%DDn%BA%C5%FB%DF%97%BFk%F2%10%FF%FD%B4%F2M%A7%FB%FD%FD%B3%22%07p%8F%3F%AE%E3%F4S%8A%8F%40%EEq%9D%BE8D%F0%0EY%A1Uq%B7%EA%1F%81%88V%E8X%3F%B4%CEy%B7h%D1%A2E%EBohU%FC%D9%AF2fO%8BBeD%BE%F7X%0C%97%A4%D6b7%2Ck%A5%12%E3%9B%60v%B7r%C7%1AI%8C%BD%2B%23r%00c0%B2v%9B%AD%CA%26%0C%1Ek%05A%FD%93%D0%2B%A1u%8B%16-%95q%5Ce%DCSO%8E%E4M%23%8B%F7%C2%FE%40%BB%BD%8C%FC%8A%B5V%EBu%40%F9%3B%A72%FA%AE%8C%D4%01%CC%B5%DA%13%9CB%AB%E2I%18%24%B0n%A9%0CZ*Ce%9C%A22%8E%D8NJ%1E%EB%FF%8F%AE%CAP%19*%C3%BAEKe%AC%D1%AAX%8C*%DEH%8F%C5W%A1e%AD%D4%B7%5C%5B%19%C5%DB%0D%EF%9F%19%1D%7B%5E%86%BD%0C%95%A12%AC%5B*%83%96%CAP%19%F62T%86%CAP%19*%83%96%CA%B8Xe%BC%FE)T%19%A1%17xg%7F%DA%CBP%19*%C3%BA%A52T%86%CAP%19%F62T%86%CA%B0n%A9%0CZ%1DV%C6%3D%F3%FCH%DE%B4%B8~%7F%5CZc%F1%D6%1F%AF%84%F9%0F6%E6%EBVt9%0E~%BEr%AF%23%B0%97%A12T%86%CAP%19%B4T%86%CA%B8Re%D8%CBP%19*%C3%BA%A52huX%19%AE%CA%E5%BC%0C%7B%19*CeX%B7h%A9%0C%95%E1%BC%0C%7B%19*CeX%B7T%06%AD%CB%5E%95%2B%BF.%8F%C5%97%D5%E4%7B%EE%82%D6%FB%CF-%9C%FD%B9%CF%3By%7B%19%F62T%86%CA%B0n%D1R%19*%A3%D3%CA%B0%97%A12T%86uKe%D0%EA%B02*%3F1%99%5DB%2B%A4%B5%F8%3A%7C%BA%2B%8Co%7D%5C%EDe%A8%0C%95a%DDR%19%B4T%C66%82fA%B2%ED%DA%9FC%FC%17GZ%06%C9%E1%B3%E5%2C%1A%9FoiB%EB%96%CA%A0%D5qe4%7B%7D%FD%85%F7%5B%ED_%E0s%07%F0k%951%ECr%0D%B5C%D7-g%D1%A8%0C%EB%96%CA%A0%A52T%C6)*%C3%5E%86%CAP%19%D6-%95A%EB*%95q%F8%BB%E3%F9%AB%F6%E21%ACZ%B7%22%B7%9B%3F%02%85%CB%A2%5B%B7%BA%5E%B7%9C%97%E1%BC%0C%EB%16-%95%A12z%AC%0C%BFc%A22T%86uKe%D0%EA%B02V%DD%AD%8A%2B%8CWhe%5E%AF%CF%F5%3B%26%CE%CBh%5C%19%CE%CB%B0%F3%A4%095%A1%CAP%19*Ce%A8%0C%3BO*Ce%A8%0C%95%A12%3A%AD%8C%0A%82%7B%F0v%1F%2FD%A9%5B%9F%EE%EA%26%AF%03%CA%DF9%7B%19*Ce%A8%0C%95%A12T%86%CA%B8Ze%D8%CBP%19*Ce%A8%0C%95%D1ae%EC%F7%89I%E1%B4%D7M%D7P%8BjU%5C%BB%3E%F2%20%D8%CBP%19*Ce%A8%0C%95%A12T%C6%D5*%C3%5E%86%CAP%19*Ce%B4O%07%7B%F0W%7Bw%1C%7C%1A%8C%B3%3B%D1%EE%AA%5C%D6-%EBV%83%80%5E%D0%CA%10%5CU%2BD%E07YU%86%CAP%19*%E3%9A%95%91%D9%A0%C8%AD%5B%EDv%9E%82%FFKOee%E4%8FUe%A8%0C%95%A12T%C6%1F%A9%8C%C8%3D%5B%A5%15%FD%14%22r%E7B%9F%17l%F8%BF%ED%EAf%2B%7F%CF%ECe%D8%CBP%19*Ce%A8%0C%95%E1%93~%7B%19%F62T%86%CAP%19*Ce%A8%0C%E7%13%DA%CBP%19*Ce%A8%0CZf%8B%16-Z%B4h%D1R%19f%8B%16-Z%B4h%D1R%19%B4%CC%16-Z%B4h%D1R%19%B4%CC%16-Z%B4h%D1%A2%A52%CC%16-Z%B4h%D1%A2%A52h%99-Z%B4h%D1%A2%A52h%99-Z%B4h%D1%A2EKe%98-Z%B4h%D1%A2EKe%D02%5B%B4h%D1%A2EKe%D02%5B%B4h%D1%A2E%8B%96%CA0%5B%B4h%D1%A2E%8B%96%CA%A0e%B6h%D1%A2E%8B%96%CA%A0e%B6h%D1%A2E%8B%16-%95a%B6h%D1%A2E%8B%16-%95A%CBl%D1%A2E%8B%16-%95A%CBl%D1%A2E%8B%16-Z*%C3l%D1%A2E%8B%16-Z*%83%96%D9%A2E%8B%16-Z*%83%96%D9%A2E%8B%16-Z%B4T%86%D9%A2E%8B%16-Z%B4T%06-%B3E%8B%16-Z%B4T%06-%B3E%8B%16-Z%B4h%A9%0C%B3E%8B%16-Z%B4h%A9%0CZf%8B%16-Z%B4h%A9%0CZf%8B%16-Z%B4h%D1R%19f%8B%16-Z%B4h%D1R%19%B4%CC%16-Z%B4h%D1R%19%B4%CC%16-Z%B4h%D1%A2%A52%CC%16-Z%B4h%D1%A2%A52h%99-Z%B4h%D1%A2%A52h%99-Z%B4h%D1%A2EKe%98-Z%B4h%D1%A2EKe%D02%5B%B4h%D1%A2EKe%D02%5B%B4h%D1%A2E%8B%96%CA0%5B%B4h%D1%A2E%8B%96%CA%A0e%B6h%D1%A2E%8B%96%CA%A0e%B6h%D1%A2E%8B%16-%95a%B6h%D1%A2E%8B%16-%95A%CBl%D1%A2E%8B%16-%95A%CBl%D1%A2E%8B%16-Z*%C3l%D1%A2E%8B%16-Z*%83%96%D9%A2E%8B%16-Z*%83%96%D9%A2E%8B%16-Z%B4T%86%D9%A2E%8B%16-Z%B4T%06-%B3E%8B%16-Z%B4T%06-%B3E%8B%16-Z%B4h%A9%0C%B3E%8B%16-Z%B4h%A9%0CZf%8B%16-Z%B4h%A9%0CZf%8B%16-Z%B4h%D1R%19f%8B%16-Z%B4h%D1R%19%B4%CC%16-Z%B4h%D1R%19%B4%CC%16-Z%B4h%D1%A2%A52%CC%16-Z%B4h%D1%A2%A52h%99-Z%B4h%D1%A2%A52h%99-Z%B4h%D1%A2EKe%98-Z%B4h%D1%A2EKe%D02%5B%B4h%D1%A2EKe%D02%5B%B4h%D1%A2E%8B%96%CA0%5B%B4h%D1%A2E%8B%96%CA%A0e%B6h%D1%A2E%8B%96%CA%A0e%B6h%D1%A2E%8B%16-%95a%B6h%D1%A2E%8B%16-%95A%CBl%D1%A2E%8B%16-%95A%CBl%D1%A2E%8B%16-Z*%C3l%D1%A2E%8B%16-Z*%83%96%D9%A2E%8B%16-Z*%83%96%D9%A2E%8B%16-Z%B4T%86%D9%A2E%8B%16-Z%B4T%06-%B3E%8B%16-Z%B4%AE%A4%F5%25%C0%00%DE%BF%5C\'%0F%DA%B8q%00%00%00%00IEND%AEB%60%82") repeat-y scroll 0% 0% transparent ! important; border-left: 1px solid rgb(187, 187, 187) ! important; border-right: 1px solid rgb(0, 0, 0) ! important; border-bottom: 1px dashed rgb(187, 187, 187) ! important; }
.fbProxyElement { position: fixed ! important; pointer-events: auto ! important; }]]></style></defs><g transform="translate(690,755)"><path class="link" d="M0,0C-24.46021442532789,79.66267855596763,76.25068624783434,33.619596832484056,152.50137249566868,67.23919366496811"/><path class="link" d="M0,0C-24.46021442532789,79.66267855596763,-81.97873699433356,-14.964328426572644,-163.95747398866712,-29.928656853145288"/><path class="link" d="M152.50137249566868,67.23919366496811C228.75205874350303,100.85879049745216,121.07078834690498,-218.7278313545374,161.4277177958733,-291.6371084727165"/><path class="link" d="M152.50137249566868,67.23919366496811C228.75205874350303,100.85879049745216,209.42146215749125,-136.53809427342418,279.22861620998833,-182.05079236456555"/><path class="link" d="M152.50137249566868,67.23919366496811C228.75205874350303,100.85879049745216,248.98198001637607,-22.538270278016224,331.97597335516804,-30.051027037354963"/><path class="link" d="M152.50137249566868,67.23919366496811C228.75205874350303,100.85879049745216,196.25935133566804,154.86209030393078,261.67913511422404,206.4827870719077"/><path class="link" d="M152.50137249566868,67.23919366496811C228.75205874350303,100.85879049745216,96.71242777020977,230.5356942314833,128.94990369361304,307.3809256419777"/><path class="link" d="M152.50137249566868,67.23919366496811C228.75205874350303,100.85879049745216,1.5308084989341916e-14,250,2.041077998578922e-14,333.3333333333333"/><path class="link" d="M152.50137249566868,67.23919366496811C228.75205874350303,100.85879049745216,-79.82538253399501,236.9132927957006,-106.43384337866001,315.8843903942675"/><path class="link" d="M-163.95747398866712,-29.928656853145288C-245.9362109830007,-44.892985279717934,-171.92486471335593,181.4988729807826,-229.23315295114125,241.99849730771012"/><path class="link" d="M-163.95747398866712,-29.928656853145288C-245.9362109830007,-44.892985279717934,-248.0059815686511,-31.51242780507231,-330.67464209153474,-42.01657040676308"/><path class="link" d="M-163.95747398866712,-29.928656853145288C-245.9362109830007,-44.892985279717934,-96.7124277702097,-230.53569423148332,-128.94990369361292,-307.38092564197774"/><path class="link" d="M161.4277177958733,-291.6371084727165C201.7846472448416,-364.5463855908956,30.06573158359013,-415.58051313247904,36.07887790030816,-498.6966157589749"/><path class="link" d="M161.4277177958733,-291.6371084727165C201.7846472448416,-364.5463855908956,59.97471436421645,-412.32771523151547,71.96965723705975,-494.7932582778186"/><path class="link" d="M161.4277177958733,-291.6371084727165C201.7846472448416,-364.5463855908956,89.57101675459342,-406.9252315458694,107.4852201055121,-488.31027785504335"/><path class="link" d="M161.4277177958733,-291.6371084727165C201.7846472448416,-364.5463855908956,118.70033733820841,-399.4012281239338,142.4404048058501,-479.2814737487206"/><path class="link" d="M161.4277177958733,-291.6371084727165C201.7846472448416,-364.5463855908956,147.21080932545948,-389.79493163566696,176.6529711905514,-467.7539179628004"/><path class="link" d="M161.4277177958733,-291.6371084727165C201.7846472448416,-364.5463855908956,174.95379231677697,-378.1564248628987,209.94455078013237,-453.78770983547844"/><path class="link" d="M161.4277177958733,-291.6371084727165C201.7846472448416,-364.5463855908956,201.7846472448416,-364.5463855908956,242.14157669380995,-437.4556627090748"/><path class="link" d="M161.4277177958733,-291.6371084727165C201.7846472448416,-364.5463855908956,227.56349045570707,-349.0357702624853,273.0761885468485,-418.8429243149824"/><path class="link" d="M161.4277177958733,-291.6371084727165C201.7846472448416,-364.5463855908956,252.15592299740217,-331.7054440440182,302.5871075968826,-398.0465328528218"/><path class="link" d="M161.4277177958733,-291.6371084727165C201.7846472448416,-364.5463855908956,275.4337313138335,-312.64575923183423,330.52047757660023,-375.1749110782011"/><path class="link" d="M161.4277177958733,-291.6371084727165C201.7846472448416,-364.5463855908956,297.2755556909001,-291.9560841972259,356.7306668290801,-350.3473010366711"/><path class="link" d="M161.4277177958733,-291.6371084727165C201.7846472448416,-364.5463855908956,317.56752296984865,-269.7442853257613,381.0810275638184,-323.69314239091364"/><path class="link" d="M161.4277177958733,-291.6371084727165C201.7846472448416,-364.5463855908956,336.2038402291961,-246.12616465189615,403.4446082750353,-295.3513975822754"/><path class="link" d="M331.97597335516804,-30.051027037354963C414.96996669396003,-37.563783796693706,368.13001851917625,-195.17018362491245,441.75602222301154,-234.20422034989497"/><path class="link" d="M331.97597335516804,-30.051027037354963C414.96996669396003,-37.563783796693706,381.25343123917173,-168.09798416242003,457.50411748700617,-201.71758099490407"/><path class="link" d="M331.97597335516804,-30.051027037354963C414.96996669396003,-37.563783796693706,392.3891651027117,-140.14939964590624,470.86699812325406,-168.1792795750875"/><path class="link" d="M331.97597335516804,-30.051027037354963C414.96996669396003,-37.563783796693706,401.47916354967623,-111.47014105384194,481.7749962596115,-133.76416926461036"/><path class="link" d="M331.97597335516804,-30.051027037354963C414.96996669396003,-37.563783796693706,408.47603553715845,-82.2097287609999,490.17124264459017,-98.65167451319988"/><path class="link" d="M331.97597335516804,-30.051027037354963C414.96996669396003,-37.563783796693706,413.34330261441846,-52.52071300845389,496.0119631373022,-63.02485561014468"/><path class="link" d="M331.97597335516804,-30.051027037354963C414.96996669396003,-37.563783796693706,416.0555891046349,-22.557878577257217,499.26670692556195,-27.069454292708663"/><path class="link" d="M331.97597335516804,-30.051027037354963C414.96996669396003,-37.563783796693706,416.59875440193383,7.522562187733675,499.9185052823206,9.02707462528041"/><path class="link" d="M331.97597335516804,-30.051027037354963C414.96996669396003,-37.563783796693706,414.96996669396003,37.56378379669389,497.96396003275214,45.07654055603267"/><path class="link" d="M331.97597335516804,-30.051027037354963C414.96996669396003,-37.563783796693706,411.17771772563583,67.40916523031875,493.4132612707631,80.8909982763825"/><path class="link" d="M331.97597335516804,-30.051027037354963C414.96996669396003,-37.563783796693706,405.2417785271346,96.90310648929619,486.29013423256157,116.28372778715544"/><path class="link" d="M331.97597335516804,-30.051027037354963C414.96996669396003,-37.563783796693706,397.19309633688437,125.89183982065555,476.6317156042613,151.07020778478667"/><path class="link" d="M261.67913511422404,206.4827870719077C327.09891889278003,258.10348383988463,374.93614748229436,181.75256923148646,449.9233769787533,218.1030830777838"/><path class="link" d="M261.67913511422404,206.4827870719077C327.09891889278003,258.10348383988463,360.8439182435161,208.33333333333326,433.01270189221935,249.99999999999991"/><path class="link" d="M261.67913511422404,206.4827870719077C327.09891889278003,258.10348383988463,344.87041589870427,233.82794390099278,413.84449907844515,280.59353268119133"/><path class="link" d="M261.67913511422404,206.4827870719077C327.09891889278003,258.10348383988463,327.09891889278003,258.10348383988463,392.5187026713361,309.72418060786157"/><path class="link" d="M261.67913511422404,206.4827870719077C327.09891889278003,258.10348383988463,307.62207958229106,281.03339172521413,369.14649549874935,337.240070070257"/><path class="link" d="M261.67913511422404,206.4827870719077C327.09891889278003,258.10348383988463,286.54144118892634,302.4981216346378,343.84972942671163,362.99774596156544"/><path class="link" d="M261.67913511422404,206.4827870719077C327.09891889278003,258.10348383988463,263.9669084001765,322.3857664053485,316.76029008021186,386.86291968641825"/><path class="link" d="M128.94990369361304,307.3809256419777C161.18737961701626,384.2261570524721,214.81410715709234,357.02382340316217,257.7769285885108,428.42858808379464"/><path class="link" d="M128.94990369361304,307.3809256419777C161.18737961701626,384.2261570524721,188.49209864892774,371.5936488397427,226.19051837871328,445.9123786076912"/><path class="link" d="M128.94990369361304,307.3809256419777C161.18737961701626,384.2261570524721,161.18737961701626,384.2261570524721,193.42485554041954,461.0713884629666"/><path class="link" d="M128.94990369361304,307.3809256419777C161.18737961701626,384.2261570524721,133.04230422332486,394.85548799283436,159.65076506798985,473.8265855914013"/><path class="link" d="M128.94990369361304,307.3809256419777C161.18737961701626,384.2261570524721,104.20360785877625,403.426225251068,125.0443294305315,484.11147030128166"/><path class="link" d="M2.041077998578922e-14,333.3333333333333C2.5513474982236524e-14,416.66666666666663,45.04959100997577,414.22414881431644,54.05950921197093,497.0689785771798"/><path class="link" d="M2.041077998578922e-14,333.3333333333333C2.5513474982236524e-14,416.66666666666663,15.042672179140144,416.3950397456987,18.051206614968173,499.67404769483846"/><path class="link" d="M2.041077998578922e-14,333.3333333333333C2.5513474982236524e-14,416.66666666666663,-15.04267217914009,416.3950397456987,-18.051206614968113,499.67404769483846"/><path class="link" d="M2.041077998578922e-14,333.3333333333333C2.5513474982236524e-14,416.66666666666663,-45.04959100997573,414.22414881431644,-54.05950921197088,497.0689785771798"/><path class="link" d="M-106.43384337866001,315.8843903942675C-133.042304223325,394.8554879928343,-104.2036078587762,403.426225251068,-125.04432943053145,484.11147030128166"/><path class="link" d="M-106.43384337866001,315.8843903942675C-133.042304223325,394.8554879928343,-133.042304223325,394.8554879928343,-159.65076506799002,473.8265855914012"/><path class="link" d="M-106.43384337866001,315.8843903942675C-133.042304223325,394.8554879928343,-161.1873796170164,384.22615705247205,-193.4248555404197,461.0713884629665"/><path class="link" d="M-229.23315295114125,241.99849730771012C-286.54144118892657,302.49812163463764,-214.81410715709256,357.023823403162,-257.7769285885111,428.42858808379447"/><path class="link" d="M-229.23315295114125,241.99849730771012C-286.54144118892657,302.49812163463764,-240.01617437718326,340.59264106620486,-288.01940925261994,408.7111692794458"/><path class="link" d="M-229.23315295114125,241.99849730771012C-286.54144118892657,302.49812163463764,-263.9669084001766,322.3857664053484,-316.7602900802119,386.86291968641814"/><path class="link" d="M-229.23315295114125,241.99849730771012C-286.54144118892657,302.49812163463764,-286.54144118892657,302.49812163463764,-343.84972942671186,362.9977459615652"/><path class="link" d="M-229.23315295114125,241.99849730771012C-286.54144118892657,302.49812163463764,-307.6220795822912,281.033391725214,-369.14649549874946,337.2400700702569"/><path class="link" d="M-229.23315295114125,241.99849730771012C-286.54144118892657,302.49812163463764,-327.09891889278015,258.1034838398845,-392.5187026713362,309.72418060786146"/><path class="link" d="M-229.23315295114125,241.99849730771012C-286.54144118892657,302.49812163463764,-344.87041589870455,233.82794390099235,-413.8444990784455,280.5935326811909"/><path class="link" d="M-330.67464209153474,-42.01657040676308C-413.34330261441846,-52.520713008453846,-374.9361474822944,181.75256923148632,-449.92337697875337,218.10308307778362"/><path class="link" d="M-330.67464209153474,-42.01657040676308C-413.34330261441846,-52.520713008453846,-387.0736332569965,154.22423139163064,-464.48835990839586,185.06907766995678"/><path class="link" d="M-330.67464209153474,-42.01657040676308C-413.34330261441846,-52.520713008453846,-397.1930963368845,125.89183982065505,-476.63171560426144,151.07020778478608"/><path class="link" d="M-330.67464209153474,-42.01657040676308C-413.34330261441846,-52.520713008453846,-405.24177852713467,96.90310648929588,-486.2901342325616,116.28372778715507"/><path class="link" d="M-330.67464209153474,-42.01657040676308C-413.34330261441846,-52.520713008453846,-411.1777177256359,67.40916523031824,-493.41326127076314,80.8909982763819"/><path class="link" d="M-330.67464209153474,-42.01657040676308C-413.34330261441846,-52.520713008453846,-414.96996669396003,37.56378379669357,-497.96396003275214,45.076540556032285"/><path class="link" d="M-330.67464209153474,-42.01657040676308C-413.34330261441846,-52.520713008453846,-416.59875440193383,7.522562187733355,-499.9185052823206,9.027074625280028"/><path class="link" d="M-330.67464209153474,-42.01657040676308C-413.34330261441846,-52.520713008453846,-416.05558910463486,-22.55787857725772,-499.2667069255619,-27.069454292709267"/><path class="link" d="M-330.67464209153474,-42.01657040676308C-413.34330261441846,-52.520713008453846,-413.3433026144184,-52.520713008454216,-496.01196313730213,-63.02485561014507"/><path class="link" d="M-330.67464209153474,-42.01657040676308C-413.34330261441846,-52.520713008453846,-408.47603553715834,-82.20972876100022,-490.17124264459005,-98.65167451320026"/><path class="link" d="M-330.67464209153474,-42.01657040676308C-413.34330261441846,-52.520713008453846,-401.47916354967606,-111.47014105384244,-481.7749962596113,-133.76416926461093"/><path class="link" d="M-330.67464209153474,-42.01657040676308C-413.34330261441846,-52.520713008453846,-392.38916510271156,-140.1493996459066,-470.8669981232539,-168.17927957508797"/><path class="link" d="M-330.67464209153474,-42.01657040676308C-413.34330261441846,-52.520713008453846,-381.25343123917156,-168.0979841624204,-457.50411748700594,-201.7175809949045"/><path class="link" d="M-330.67464209153474,-42.01657040676308C-413.34330261441846,-52.520713008453846,-368.13001851917613,-195.17018362491265,-441.7560222230114,-234.20422034989522"/><path class="link" d="M-330.67464209153474,-42.01657040676308C-413.34330261441846,-52.520713008453846,-353.087346340036,-221.2248561207862,-423.70481560804325,-265.46982734494344"/><path class="link" d="M-330.67464209153474,-42.01657040676308C-413.34330261441846,-52.520713008453846,-336.2038402291958,-246.12616465189652,-403.44460827503497,-295.35139758227587"/><path class="link" d="M-330.67464209153474,-42.01657040676308C-413.34330261441846,-52.520713008453846,-317.5675229698484,-269.7442853257616,-381.0810275638181,-323.693142390914"/><path class="link" d="M-128.94990369361292,-307.38092564197774C-161.18737961701615,-384.22615705247216,-275.43373131383345,-312.64575923183423,-330.5204775766002,-375.1749110782011"/><path class="link" d="M-128.94990369361292,-307.38092564197774C-161.18737961701615,-384.22615705247216,-252.15592299740197,-331.7054440440183,-302.5871075968824,-398.046532852822"/><path class="link" d="M-128.94990369361292,-307.38092564197774C-161.18737961701615,-384.22615705247216,-227.56349045570698,-349.03577026248536,-273.0761885468484,-418.84292431498244"/><path class="link" d="M-128.94990369361292,-307.38092564197774C-161.18737961701615,-384.22615705247216,-201.78464724484147,-364.5463855908956,-242.14157669380978,-437.45566270907483"/><path class="link" d="M-128.94990369361292,-307.38092564197774C-161.18737961701615,-384.22615705247216,-174.95379231677703,-378.1564248628987,-209.94455078013243,-453.78770983547844"/><path class="link" d="M-128.94990369361292,-307.38092564197774C-161.18737961701615,-384.22615705247216,-147.21080932545954,-389.79493163566696,-176.65297119055145,-467.7539179628004"/><path class="link" d="M-128.94990369361292,-307.38092564197774C-161.18737961701615,-384.22615705247216,-118.70033733820829,-399.40122812393383,-142.44040480584997,-479.28147374872066"/><path class="link" d="M-128.94990369361292,-307.38092564197774C-161.18737961701615,-384.22615705247216,-89.57101675459347,-406.9252315458694,-107.48522010551217,-488.31027785504335"/><path class="link" d="M-128.94990369361292,-307.38092564197774C-161.18737961701615,-384.22615705247216,-59.97471436421651,-412.32771523151547,-71.96965723705982,-494.7932582778186"/><path class="link" d="M-128.94990369361292,-307.38092564197774C-161.18737961701615,-384.22615705247216,-30.065731583589994,-415.58051313247904,-36.078877900307994,-498.6966157589749"/><g class="node node--internal" transform="translate(0,0)"><circle r="3"/><text dy="0.31em" x="10" text-anchor="start" transform="rotate(287.0689655172414)">Fog Computing Research</text></g><g class="node node--internal" transform="translate(152.50137249566868,67.23919366496811)"><circle r="3"/><text dy="0.31em" x="-10" text-anchor="end" transform="rotate(23.793103448275875)">Conferences</text></g><g class="node node--internal" transform="translate(-163.95747398866712,-29.928656853145288)"><circle r="3"/><text dy="0.31em" x="10" text-anchor="start" transform="rotate(370.34482758620686)">Journals/Mag</text></g><g class="node node--internal" transform="translate(161.4277177958733,-291.6371084727165)"><circle r="3"/><text dy="0.31em" x="-10" text-anchor="end" transform="rotate(-61.03448275862067)">General</text></g><g class="node node--leaf" transform="translate(279.22861620998833,-182.05079236456555)"><circle r="3"/><text dy="0.31em" x="10" text-anchor="start" transform="rotate(-33.10344827586205)">GeneralACM ANCS</text></g><g class="node node--internal" transform="translate(331.97597335516804,-30.051027037354963)"><circle r="3"/><text dy="0.31em" x="-10" text-anchor="end" transform="rotate(-5.172413793103429)">Fog/Edge Computing</text></g><g class="node node--internal" transform="translate(261.67913511422404,206.4827870719077)"><circle r="3"/><text dy="0.31em" x="-10" text-anchor="end" transform="rotate(38.27586206896553)">Cloud Computing</text></g><g class="node node--internal" transform="translate(128.94990369361304,307.3809256419777)"><circle r="3"/><text dy="0.31em" x="-10" text-anchor="end" transform="rotate(67.24137931034483)">Mobile Computing</text></g><g class="node node--internal" transform="translate(2.041077998578922e-14,333.3333333333333)"><circle r="3"/><text dy="0.31em" x="10" text-anchor="start" transform="rotate(270)">Distributed Computing</text></g><g class="node node--internal" transform="translate(-106.43384337866001,315.8843903942675)"><circle r="3"/><text dy="0.31em" x="10" text-anchor="start" transform="rotate(288.6206896551724)">Systems</text></g><g class="node node--internal" transform="translate(-229.23315295114125,241.99849730771012)"><circle r="3"/><text dy="0.31em" x="10" text-anchor="start" transform="rotate(313.448275862069)">Magazine</text></g><g class="node node--internal" transform="translate(-330.67464209153474,-42.01657040676308)"><circle r="3"/><text dy="0.31em" x="10" text-anchor="start" transform="rotate(367.2413793103448)">Journal (ACM &amp; IEEE)</text></g><g class="node node--internal" transform="translate(-128.94990369361292,-307.38092564197774)"><circle r="3"/><text dy="0.31em" x="10" text-anchor="start" transform="rotate(427.2413793103449)">Journal (Elsevier &amp; Springer)</text></g><g class="node node--leaf" transform="translate(36.07887790030816,-498.6966157589749)"><circle r="3"/><text dy="0.31em" x="10" text-anchor="start" transform="rotate(-85.86206896551724)">ACM SIGCOMM</text></g><g class="node node--leaf" transform="translate(71.96965723705975,-494.7932582778186)"><circle r="3"/><text dy="0.31em" x="10" text-anchor="start" transform="rotate(-81.72413793103446)">USENIX NSDI</text></g><g class="node node--leaf" transform="translate(107.4852201055121,-488.31027785504335)"><circle r="3"/><text dy="0.31em" x="10" text-anchor="start" transform="rotate(-77.58620689655172)">ACM CoNEXT</text></g><g class="node node--leaf" transform="translate(142.4404048058501,-479.2814737487206)"><circle r="3"/><text dy="0.31em" x="10" text-anchor="start" transform="rotate(-73.44827586206895)">IEEE INFOCOM</text></g><g class="node node--leaf" transform="translate(176.6529711905514,-467.7539179628004)"><circle r="3"/><text dy="0.31em" x="10" text-anchor="start" transform="rotate(-69.31034482758618)">ACM SIGMETRICS</text></g><g class="node node--leaf" transform="translate(209.94455078013237,-453.78770983547844)"><circle r="3"/><text dy="0.31em" x="10" text-anchor="start" transform="rotate(-65.17241379310344)">ACM HotNets</text></g><g class="node node--leaf" transform="translate(242.14157669380995,-437.4556627090748)"><circle r="3"/><text dy="0.31em" x="10" text-anchor="start" transform="rotate(-61.03448275862067)">USENIX ATC</text></g><g class="node node--leaf" transform="translate(273.0761885468485,-418.8429243149824)"><circle r="3"/><text dy="0.31em" x="10" text-anchor="start" transform="rotate(-56.89655172413793)">ACM IMC</text></g><g class="node node--leaf" transform="translate(302.5871075968826,-398.0465328528218)"><circle r="3"/><text dy="0.31em" x="10" text-anchor="start" transform="rotate(-52.75862068965517)">ACM/IEEE ANCS</text></g><g class="node node--leaf" transform="translate(330.52047757660023,-375.1749110782011)"><circle r="3"/><text dy="0.31em" x="10" text-anchor="start" transform="rotate(-48.6206896551724)">IEEE ICC</text></g><g class="node node--leaf" transform="translate(356.7306668290801,-350.3473010366711)"><circle r="3"/><text dy="0.31em" x="10" text-anchor="start" transform="rotate(-44.48275862068963)">IEEE GLOBECOM</text></g><g class="node node--leaf" transform="translate(381.0810275638184,-323.69314239091364)"><circle r="3"/><text dy="0.31em" x="10" text-anchor="start" transform="rotate(-40.34482758620687)">IEEE ICNP</text></g><g class="node node--leaf" transform="translate(403.4446082750353,-295.3513975822754)"><circle r="3"/><text dy="0.31em" x="10" text-anchor="start" transform="rotate(-36.20689655172412)">IEEE/OSA OFC</text></g><g class="node node--leaf" transform="translate(441.75602222301154,-234.20422034989497)"><circle r="3"/><text dy="0.31em" x="10" text-anchor="start" transform="rotate(-27.93103448275861)">IEEE/ACM SEC</text></g><g class="node node--leaf" transform="translate(457.50411748700617,-201.71758099490407)"><circle r="3"/><text dy="0.31em" x="10" text-anchor="start" transform="rotate(-23.793103448275836)">USENIX HotEdge</text></g><g class="node node--leaf" transform="translate(470.86699812325406,-168.1792795750875)"><circle r="3"/><text dy="0.31em" x="10" text-anchor="start" transform="rotate(-19.655172413793096)">IEEE EDGE</text></g><g class="node node--leaf" transform="translate(481.7749962596115,-133.76416926461036)"><circle r="3"/><text dy="0.31em" x="10" text-anchor="start" transform="rotate(-15.517241379310338)">IEEE FMEC</text></g><g class="node node--leaf" transform="translate(490.17124264459017,-98.65167451319988)"><circle r="3"/><text dy="0.31em" x="10" text-anchor="start" transform="rotate(-11.37931034482757)">ACM MECOMM</text></g><g class="node node--leaf" transform="translate(496.0119631373022,-63.02485561014468)"><circle r="3"/><text dy="0.31em" x="10" text-anchor="start" transform="rotate(-7.2413793103448265)">ACM EdgeSys</text></g><g class="node node--leaf" transform="translate(499.26670692556195,-27.069454292708663)"><circle r="3"/><text dy="0.31em" x="10" text-anchor="start" transform="rotate(-3.1034482758620574)">Fog World Congress</text></g><g class="node node--leaf" transform="translate(499.9185052823206,9.02707462528041)"><circle r="3"/><text dy="0.31em" x="10" text-anchor="start" transform="rotate(1.0344827586207113)">IEEE ICFEC</text></g><g class="node node--leaf" transform="translate(497.96396003275214,45.07654055603267)"><circle r="3"/><text dy="0.31em" x="10" text-anchor="start" transform="rotate(5.172413793103455)">IEEE SmartEdge</text></g><g class="node node--leaf" transform="translate(493.4132612707631,80.8909982763825)"><circle r="3"/><text dy="0.31em" x="10" text-anchor="start" transform="rotate(9.310344827586224)">IEEE WF-IoT</text></g><g class="node node--leaf" transform="translate(486.29013423256157,116.28372778715544)"><circle r="3"/><text dy="0.31em" x="10" text-anchor="start" transform="rotate(13.448275862068993)">ACM TOPIC</text></g><g class="node node--leaf" transform="translate(476.6317156042613,151.07020778478667)"><circle r="3"/><text dy="0.31em" x="10" text-anchor="start" transform="rotate(17.58620689655176)">ACM CitiFog</text></g><g class="node node--leaf" transform="translate(449.9233769787533,218.1030830777838)"><circle r="3"/><text dy="0.31em" x="10" text-anchor="start" transform="rotate(25.86206896551725)">ACM SOCC</text></g><g class="node node--leaf" transform="translate(433.01270189221935,249.99999999999991)"><circle r="3"/><text dy="0.31em" x="10" text-anchor="start" transform="rotate(29.999999999999993)">USENIX HotCloud</text></g><g class="node node--leaf" transform="translate(413.84449907844515,280.59353268119133)"><circle r="3"/><text dy="0.31em" x="10" text-anchor="start" transform="rotate(34.13793103448278)">IEEE/ACM UCC</text></g><g class="node node--leaf" transform="translate(392.5187026713361,309.72418060786157)"><circle r="3"/><text dy="0.31em" x="10" text-anchor="start" transform="rotate(38.27586206896553)">IEEE IC2E</text></g><g class="node node--leaf" transform="translate(369.14649549874935,337.240070070257)"><circle r="3"/><text dy="0.31em" x="10" text-anchor="start" transform="rotate(42.41379310344828)">IEEE Cloud</text></g><g class="node node--leaf" transform="translate(343.84972942671163,362.99774596156544)"><circle r="3"/><text dy="0.31em" x="10" text-anchor="start" transform="rotate(46.551724137931046)">IEEE CloudCom</text></g><g class="node node--leaf" transform="translate(316.76029008021186,386.86291968641825)"><circle r="3"/><text dy="0.31em" x="10" text-anchor="start" transform="rotate(50.689655172413815)">IEEE FiCloud</text></g><g class="node node--leaf" transform="translate(257.7769285885108,428.42858808379464)"><circle r="3"/><text dy="0.31em" x="10" text-anchor="start" transform="rotate(58.965517241379324)">ACM MobiHoc</text></g><g class="node node--leaf" transform="translate(226.19051837871328,445.9123786076912)"><circle r="3"/><text dy="0.31em" x="10" text-anchor="start" transform="rotate(63.10344827586209)">ACM MobiCom</text></g><g class="node node--leaf" transform="translate(193.42485554041954,461.0713884629666)"><circle r="3"/><text dy="0.31em" x="10" text-anchor="start" transform="rotate(67.24137931034483)">ACM MobiSys</text></g><g class="node node--leaf" transform="translate(159.65076506798985,473.8265855914013)"><circle r="3"/><text dy="0.31em" x="10" text-anchor="start" transform="rotate(71.3793103448276)">ACM HotMobile</text></g><g class="node node--leaf" transform="translate(125.0443294305315,484.11147030128166)"><circle r="3"/><text dy="0.31em" x="10" text-anchor="start" transform="rotate(75.51724137931035)">ACM MobiArch</text></g><g class="node node--leaf" transform="translate(54.05950921197093,497.0689785771798)"><circle r="3"/><text dy="0.31em" x="10" text-anchor="start" transform="rotate(83.79310344827587)">ACM PODC</text></g><g class="node node--leaf" transform="translate(18.051206614968173,499.67404769483846)"><circle r="3"/><text dy="0.31em" x="10" text-anchor="start" transform="rotate(87.93103448275863)">IEEE ICDCS</text></g><g class="node node--leaf" transform="translate(-18.051206614968113,499.67404769483846)"><circle r="3"/><text dy="0.31em" x="-10" text-anchor="end" transform="rotate(272.06896551724134)">IEEE PerCom</text></g><g class="node node--leaf" transform="translate(-54.05950921197088,497.0689785771798)"><circle r="3"/><text dy="0.31em" x="-10" text-anchor="end" transform="rotate(276.2068965517242)">ACM DEBS</text></g><g class="node node--leaf" transform="translate(-125.04432943053145,484.11147030128166)"><circle r="3"/><text dy="0.31em" x="-10" text-anchor="end" transform="rotate(284.48275862068965)">ACM SOSP</text></g><g class="node node--leaf" transform="translate(-159.65076506799002,473.8265855914012)"><circle r="3"/><text dy="0.31em" x="-10" text-anchor="end" transform="rotate(288.6206896551724)">ACM SenSys</text></g><g class="node node--leaf" transform="translate(-193.4248555404197,461.0713884629665)"><circle r="3"/><text dy="0.31em" x="-10" text-anchor="end" transform="rotate(292.7586206896552)">ACM EuroSys</text></g><g class="node node--leaf" transform="translate(-257.7769285885111,428.42858808379447)"><circle r="3"/><text dy="0.31em" x="-10" text-anchor="end" transform="rotate(301.03448275862075)">IEEE Computer</text></g><g class="node node--leaf" transform="translate(-288.01940925261994,408.7111692794458)"><circle r="3"/><text dy="0.31em" x="-10" text-anchor="end" transform="rotate(305.1724137931035)">IEEE Pervasive Computing</text></g><g class="node node--leaf" transform="translate(-316.7602900802119,386.86291968641814)"><circle r="3"/><text dy="0.31em" x="-10" text-anchor="end" transform="rotate(309.3103448275862)">IEEE Internet Computing</text></g><g class="node node--leaf" transform="translate(-343.84972942671186,362.9977459615652)"><circle r="3"/><text dy="0.31em" x="-10" text-anchor="end" transform="rotate(313.448275862069)">IEEE Cloud Computing</text></g><g class="node node--leaf" transform="translate(-369.14649549874946,337.2400700702569)"><circle r="3"/><text dy="0.31em" x="-10" text-anchor="end" transform="rotate(317.58620689655174)">IEEE Wireless Communications</text></g><g class="node node--leaf" transform="translate(-392.5187026713362,309.72418060786146)"><circle r="3"/><text dy="0.31em" x="-10" text-anchor="end" transform="rotate(321.7241379310345)">IEEE Network</text></g><g class="node node--leaf" transform="translate(-413.8444990784455,280.5935326811909)"><circle r="3"/><text dy="0.31em" x="-10" text-anchor="end" transform="rotate(325.8620689655173)">IEEE Communication</text></g><g class="node node--leaf" transform="translate(-449.92337697875337,218.10308307778362)"><circle r="3"/><text dy="0.31em" x="-10" text-anchor="end" transform="rotate(334.1379310344828)">IEEE ACCESS</text></g><g class="node node--leaf" transform="translate(-464.48835990839586,185.06907766995678)"><circle r="3"/><text dy="0.31em" x="-10" text-anchor="end" transform="rotate(338.2758620689656)">IEEE TWC</text></g><g class="node node--leaf" transform="translate(-476.63171560426144,151.07020778478608)"><circle r="3"/><text dy="0.31em" x="-10" text-anchor="end" transform="rotate(342.4137931034483)">IEEE TMC</text></g><g class="node node--leaf" transform="translate(-486.2901342325616,116.28372778715507)"><circle r="3"/><text dy="0.31em" x="-10" text-anchor="end" transform="rotate(346.55172413793105)">ACM POMACS</text></g><g class="node node--leaf" transform="translate(-493.41326127076314,80.8909982763819)"><circle r="3"/><text dy="0.31em" x="-10" text-anchor="end" transform="rotate(350.68965517241384)">ACM TOMPECS</text></g><g class="node node--leaf" transform="translate(-497.96396003275214,45.076540556032285)"><circle r="3"/><text dy="0.31em" x="-10" text-anchor="end" transform="rotate(354.82758620689657)">IEEE TETC</text></g><g class="node node--leaf" transform="translate(-499.9185052823206,9.027074625280028)"><circle r="3"/><text dy="0.31em" x="-10" text-anchor="end" transform="rotate(358.9655172413793)">IEEE TSC</text></g><g class="node node--leaf" transform="translate(-499.2667069255619,-27.069454292709267)"><circle r="3"/><text dy="0.31em" x="-10" text-anchor="end" transform="rotate(363.1034482758621)">ACM TOCS</text></g><g class="node node--leaf" transform="translate(-496.01196313730213,-63.02485561014507)"><circle r="3"/><text dy="0.31em" x="-10" text-anchor="end" transform="rotate(367.2413793103448)">ACM TOIT</text></g><g class="node node--leaf" transform="translate(-490.17124264459005,-98.65167451320026)"><circle r="3"/><text dy="0.31em" x="-10" text-anchor="end" transform="rotate(371.3793103448277)">IEEE TNSM</text></g><g class="node node--leaf" transform="translate(-481.7749962596113,-133.76416926461093)"><circle r="3"/><text dy="0.31em" x="-10" text-anchor="end" transform="rotate(375.5172413793104)">ACM CCR</text></g><g class="node node--leaf" transform="translate(-470.8669981232539,-168.17927957508797)"><circle r="3"/><text dy="0.31em" x="-10" text-anchor="end" transform="rotate(379.6551724137932)">IEEE TCC</text></g><g class="node node--leaf" transform="translate(-457.50411748700594,-201.7175809949045)"><circle r="3"/><text dy="0.31em" x="-10" text-anchor="end" transform="rotate(383.79310344827593)">IEEE JSAC</text></g><g class="node node--leaf" transform="translate(-441.7560222230114,-234.20422034989522)"><circle r="3"/><text dy="0.31em" x="-10" text-anchor="end" transform="rotate(387.93103448275866)">IEEE/ACM TON</text></g><g class="node node--leaf" transform="translate(-423.70481560804325,-265.46982734494344)"><circle r="3"/><text dy="0.31em" x="-10" text-anchor="end" transform="rotate(392.0689655172414)">IEEE IoTJ</text></g><g class="node node--leaf" transform="translate(-403.44460827503497,-295.35139758227587)"><circle r="3"/><text dy="0.31em" x="-10" text-anchor="end" transform="rotate(396.2068965517242)">IEEE Comm Sur Tut</text></g><g class="node node--leaf" transform="translate(-381.0810275638181,-323.693142390914)"><circle r="3"/><text dy="0.31em" x="-10" text-anchor="end" transform="rotate(400.3448275862069)">ACM CSUR</text></g><g class="node node--leaf" transform="translate(-330.5204775766002,-375.1749110782011)"><circle r="3"/><text dy="0.31em" x="-10" text-anchor="end" transform="rotate(408.6206896551724)">Elsevier Dig ComNet</text></g><g class="node node--leaf" transform="translate(-302.5871075968824,-398.046532852822)"><circle r="3"/><text dy="0.31em" x="-10" text-anchor="end" transform="rotate(412.7586206896552)">Elsevier Adhoc Net</text></g><g class="node node--leaf" transform="translate(-273.0761885468484,-418.84292431498244)"><circle r="3"/><text dy="0.31em" x="-10" text-anchor="end" transform="rotate(416.8965517241379)">Elsevier PerMob Comp</text></g><g class="node node--leaf" transform="translate(-242.14157669380978,-437.45566270907483)"><circle r="3"/><text dy="0.31em" x="-10" text-anchor="end" transform="rotate(421.0344827586207)">Springer CCF TON</text></g><g class="node node--leaf" transform="translate(-209.94455078013243,-453.78770983547844)"><circle r="3"/><text dy="0.31em" x="-10" text-anchor="end" transform="rotate(425.17241379310343)">Springer JCIN</text></g><g class="node node--leaf" transform="translate(-176.65297119055145,-467.7539179628004)"><circle r="3"/><text dy="0.31em" x="-10" text-anchor="end" transform="rotate(429.31034482758616)">Elsevier Comp Net</text></g><g class="node node--leaf" transform="translate(-142.44040480584997,-479.28147374872066)"><circle r="3"/><text dy="0.31em" x="-10" text-anchor="end" transform="rotate(433.448275862069)">Springer JISA</text></g><g class="node node--leaf" transform="translate(-107.48522010551217,-488.31027785504335)"><circle r="3"/><text dy="0.31em" x="-10" text-anchor="end" transform="rotate(437.58620689655174)">Elsevier Comp Comm</text></g><g class="node node--leaf" transform="translate(-71.96965723705982,-494.7932582778186)"><circle r="3"/><text dy="0.31em" x="-10" text-anchor="end" transform="rotate(441.7241379310345)">Elsevier JNCA</text></g><g class="node node--leaf" transform="translate(-36.078877900307994,-498.6966157589749)"><circle r="3"/><text dy="0.31em" x="-10" text-anchor="end" transform="rotate(445.86206896551727)">Elsevier FGCS</text></g></g></svg>