<?xml version="1.0" standalone="no"?><!DOCTYPE svg PUBLIC "-//W3C//DTD SVG 1.1//EN" "http://www.w3.org/Graphics/SVG/1.1/DTD/svg11.dtd"><svg height="1330" width="1300" version="1.1" xmlns="http://www.w3.org/2000/svg" xmlns:xlink="http://www.w3.org/1999/xlink"><defs xmlns="http://www.w3.org/1999/xhtml"><style type="text/css"><![CDATA[
.node circle { fill: rgb(153, 153, 153); }
.node text { font: 10px sans-serif; }
.node--internal circle { fill: rgb(85, 85, 85); }
.node--internal text { text-shadow: 0px 1px 0px rgb(255, 255, 255), 0px -1px 0px rgb(255, 255, 255), 1px 0px 0px rgb(255, 255, 255), -1px 0px 0px rgb(255, 255, 255); }
.link { fill: none; stroke: rgb(85, 85, 85); stroke-opacity: 0.4; stroke-width: 1.5px; }
.firebugResetStyles { z-index: 2147483646 ! important; top: 0px ! important; left: 0px ! important; display: block ! important; border: 0px none ! important; margin: 0px ! important; padding: 0px ! important; outline: 0px none ! important; min-width: 0px ! important; max-width: none ! important; min-height: 0px ! important; max-height: none ! important; position: fixed ! important; transform: rotate(0deg) ! important; transform-origin: 50% 50% 0px ! important; border-radius: 0px ! important; box-shadow: none ! important; background: none repeat scroll 0% 0% transparent ! important; pointer-events: none ! important; white-space: normal ! important; }
style.firebugResetStyles { display: none ! important; }
.firebugBlockBackgroundColor { background-color: transparent ! important; }
.firebugResetStyles::before, .firebugResetStyles::after { content: "" ! important; }
.firebugCanvas { display: none ! important; }
.firebugLayoutBox { width: auto ! important; position: static ! important; }
.firebugLayoutBoxOffset { opacity: 0.8 ! important; position: fixed ! important; }
.firebugLayoutLine { opacity: 0.4 ! important; background-color: rgb(0, 0, 0) ! important; }
.firebugLayoutLineLeft, .firebugLayoutLineRight { width: 1px ! important; height: 100% ! important; }
.firebugLayoutLineTop, .firebugLayoutLineBottom { width: 100% ! important; height: 1px ! important; }
.firebugLayoutLineTop { margin-top: -1px ! important; border-top: 1px solid rgb(153, 153, 153) ! important; }
.firebugLayoutLineRight { border-right: 1px solid rgb(153, 153, 153) ! important; }
.firebugLayoutLineBottom { border-bottom: 1px solid rgb(153, 153, 153) ! important; }
.firebugLayoutLineLeft { margin-left: -1px ! important; border-left: 1px solid rgb(153, 153, 153) ! important; }
.firebugLayoutBoxParent { border-width: 0px 1px 1px 0px ! important; border-style: none dashed dashed none ! important; border-color: -moz-use-text-color rgb(238, 0, 0) rgb(238, 0, 0) -moz-use-text-color ! important; position: fixed ! important; width: auto ! important; }
.firebugRuler { position: absolute ! important; }
.firebugRulerH { top: -15px ! important; left: 0px ! important; width: 100% ! important; height: 14px ! important; background: url("data:image/png,%89PNG%0D%0A%1A%0A%00%00%00%0DIHDR%00%00%13%88%00%00%00%0E%08%02%00%00%00L%25a%0A%00%00%00%04gAMA%00%00%D6%D8%D4OX2%00%00%00%19tEXtSoftware%00Adobe%20ImageReadyq%C9e%3C%00%00%04%F8IDATx%DA%EC%DD%D1n%E2%3A%00E%D1%80%F8%FF%EF%E2%AF2%95%D0D4%0E%C1%14%B0%8Fa-%E9%3E%CC%9C%87n%B9%81%A6W0%1C%A6i%9A%E7y%0As8%1CT%A9R%A5J%95*U%AAT%A9R%A5J%95*U%AAT%A9R%A5J%95*U%AAT%A9R%A5J%95*U%AAT%A9R%A5J%95*U%AAT%A9R%A5J%95*U%AAT%A9R%A5J%95*U%AATE9%FE%FCw%3E%9F%AF%2B%2F%BA%97%FDT%1D~K(%5C%9D%D5%EA%1B%5C%86%B5%A9%BDU%B5y%80%ED%AB*%03%FAV9%AB%E1%CEj%E7%82%EF%FB%18%BC%AEJ8%AB%FA\'%D2%BEU9%D7U%ECc0%E1%A2r%5DynwVi%CFW%7F%BB%17%7Dy%EACU%CD%0E%F0%FA%3BX%FEbV%FEM%9B%2B%AD%BE%AA%E5%95v%AB%AA%E3E5%DCu%15rV9%07%B5%7F%B5w%FCm%BA%BE%AA%FBY%3D%14%F0%EE%C7%60%0EU%AAT%A9R%A5J%95*U%AAT%A9R%A5J%95*U%AAT%A9R%A5J%95*U%AAT%A9R%A5J%95*U%AAT%A9R%A5JU%88%D3%F5%1F%AE%DF%3B%1B%F2%3E%DAUCNa%F92%D02%AC%7Dm%F9%3A%D4%F2%8B6%AE*%BF%5C%C2Ym~9g5%D0Y%95%17%7C%C8c%B0%7C%18%26%9CU%CD%13i%F7%AA%90%B3Z%7D%95%B4%C7%60%E6E%B5%BC%05%B4%FBY%95U%9E%DB%FD%1C%FC%E0%9F%83%7F%BE%17%7DkjMU%E3%03%AC%7CWj%DF%83%9An%BCG%AE%F1%95%96yQ%0Dq%5Dy%00%3Et%B5\'%FC6%5DS%95pV%95%01%81%FF\'%07%00%00%00%00%00%00%00%00%00%F8x%C7%F0%BE%9COp%5D%C9%7C%AD%E7%E6%EBV%FB%1E%E0(%07%E5%AC%C6%3A%ABi%9C%8F%C6%0E9%AB%C0\'%D2%8E%9F%F99%D0E%B5%99%14%F5%0D%CD%7F%24%C6%DEH%B8%E9rV%DFs%DB%D0%F7%00k%FE%1D%84%84%83J%B8%E3%BA%FB%EF%20%84%1C%D7%AD%B0%8E%D7U%C8Y%05%1E%D4t%EF%AD%95Q%BF8w%BF%E9%0A%BF%EB%03%00%00%00%00%00%00%00%00%00%B8vJ%8E%BB%F5%B1u%8Cx%80%E1o%5E%CA9%AB%CB%CB%8E%03%DF%1D%B7T%25%9C%D5(%EFJM8%AB%CC\'%D2%B2*%A4s%E7c6%FB%3E%FA%A2%1E%80~%0E%3E%DA%10x%5D%95Uig%15u%15%ED%7C%14%B6%87%A1%3B%FCo8%A8%D8o%D3%ADO%01%EDx%83%1A~%1B%9FpP%A3%DC%C6\'%9C%95gK%00%00%00%00%00%00%00%00%00%20%D9%C9%11%D0%C0%40%AF%3F%EE%EE%92%94%D6%16X%B5%BCMH%15%2F%BF%D4%A7%C87%F1%8E%F2%81%AE%AAvzr%DA2%ABV%17%7C%E63%83%E7I%DC%C6%0Bs%1B%EF6%1E%00%00%00%00%00%00%00%00%00%80cr%9CW%FF%7F%C6%01%0E%F1%CE%A5%84%B3%CA%BC%E0%CB%AA%84%CE%F9%BF)%EC%13%08WU%AE%AB%B1%AE%2BO%EC%8E%CBYe%FE%8CN%ABr%5Dy%60~%CFA%0D%F4%AE%D4%BE%C75%CA%EDVB%EA(%B7%F1%09g%E5%D9%12%00%00%00%00%00%00%00%00%00H%F6%EB%13S%E7y%5E%5E%FB%98%F0%22%D1%B2\'%A7%F0%92%B1%BC%24z3%AC%7Dm%60%D5%92%B4%7CEUO%5E%F0%AA*%3BU%B9%AE%3E%A0j%94%07%A0%C7%A0%AB%FD%B5%3F%A0%F7%03T%3Dy%D7%F7%D6%D4%C0%AAU%D2%E6%DFt%3F%A8%CC%AA%F2%86%B9%D7%F5%1F%18%E6%01%F8%CC%D5%9E%F0%F3z%88%AA%90%EF%20%00%00%00%00%00%00%00%00%00%C0%A6%D3%EA%CFi%AFb%2C%7BB%0A%2B%C3%1A%D7%06V%D5%07%A8r%5D%3D%D9%A6%CAu%F5%25%CF%A2%99%97zNX%60%95%AB%5DUZ%D5%FBR%03%AB%1C%D4k%9F%3F%BB%5C%FF%81a%AE%AB\'%7F%F3%EA%FE%F3z%94%AA%D8%DF%5B%01%00%00%00%00%00%00%00%00%00%8E%FB%F3%F2%B1%1B%8DWU%AAT%A9R%A5J%95*U%AAT%A9R%A5J%95*U%AAT%A9R%A5J%95*U%AAT%A9R%A5J%95*U%AAT%A9R%A5J%95*U%AAT%A9R%A5J%95*U%AAT%A9R%A5J%95*UiU%C7%BBe%E7%F3%B9%CB%AAJ%95*U%AAT%A9R%A5J%95*U%AAT%A9R%A5J%95*U%AAT%A9R%A5J%95*U%AAT%A9R%A5J%95*U%AAT%A9R%A5J%95*U%AAT%A9R%A5J%95*U%AAT%A9R%A5*%AAj%FD%C6%D4%5Eo%90%B5Z%ADV%AB%D5j%B5Z%ADV%AB%D5j%B5Z%ADV%AB%D5j%B5Z%ADV%AB%D5j%B5Z%ADV%AB%D5j%B5Z%ADV%AB%D5j%B5Z%ADV%AB%D5j%B5%86%AF%1B%9F%98%DA%EBm%BBV%AB%D5j%B5Z%ADV%AB%D5j%B5Z%ADV%AB%D5j%B5Z%ADV%AB%D5j%B5Z%ADV%AB%D5j%B5Z%ADV%AB%D5j%B5Z%ADV%AB%D5j%B5Z%AD%D6%E4%F58%01%00%00%00%00%00%00%00%00%00%00%00%00%00%40%85%7F%02%0C%008%C2%D0H%16j%8FX%00%00%00%00IEND%AEB%60%82") repeat-x scroll 0% 0% transparent ! important; border-top: 1px solid rgb(187, 187, 187) ! important; border-right: 1px dashed rgb(187, 187, 187) ! important; border-bottom: 1px solid rgb(0, 0, 0) ! important; }
.firebugRulerV { top: 0px ! important; left: -15px ! important; width: 14px ! important; height: 100% ! important; background: url("data:image/png,%89PNG%0D%0A%1A%0A%00%00%00%0DIHDR%00%00%00%0E%00%00%13%88%08%02%00%00%00%0E%F5%CB%10%00%00%00%04gAMA%00%00%D6%D8%D4OX2%00%00%00%19tEXtSoftware%00Adobe%20ImageReadyq%C9e%3C%00%00%06~IDATx%DA%EC%DD%D1v%A20%14%40Qt%F1%FF%FF%E4%97%D9%07%3BT%19%92%DC%40(%90%EEy%9A5%CB%B6%E8%F6%9Ac%A4%CC0%84%FF%DC%9E%CF%E7%E3%F1%88%DE4%F8%5D%C7%9F%2F%BA%DD%5E%7FI%7D%F18%DDn%BA%C5%FB%DF%97%BFk%F2%10%FF%FD%B4%F2M%A7%FB%FD%FD%B3%22%07p%8F%3F%AE%E3%F4S%8A%8F%40%EEq%9D%BE8D%F0%0EY%A1Uq%B7%EA%1F%81%88V%E8X%3F%B4%CEy%B7h%D1%A2E%EBohU%FC%D9%AF2fO%8BBeD%BE%F7X%0C%97%A4%D6b7%2Ck%A5%12%E3%9B%60v%B7r%C7%1AI%8C%BD%2B%23r%00c0%B2v%9B%AD%CA%26%0C%1Ek%05A%FD%93%D0%2B%A1u%8B%16-%95q%5Ce%DCSO%8E%E4M%23%8B%F7%C2%FE%40%BB%BD%8C%FC%8A%B5V%EBu%40%F9%3B%A72%FA%AE%8C%D4%01%CC%B5%DA%13%9CB%AB%E2I%18%24%B0n%A9%0CZ*Ce%9C%A22%8E%D8NJ%1E%EB%FF%8F%AE%CAP%19*%C3%BAEKe%AC%D1%AAX%8C*%DEH%8F%C5W%A1e%AD%D4%B7%5C%5B%19%C5%DB%0D%EF%9F%19%1D%7B%5E%86%BD%0C%95%A12%AC%5B*%83%96%CAP%19%F62T%86%CAP%19*%83%96%CA%B8Xe%BC%FE)T%19%A1%17xg%7F%DA%CBP%19*%C3%BA%A52T%86%CAP%19%F62T%86%CA%B0n%A9%0CZ%1DV%C6%3D%F3%FCH%DE%B4%B8~%7F%5CZc%F1%D6%1F%AF%84%F9%0F6%E6%EBVt9%0E~%BEr%AF%23%B0%97%A12T%86%CAP%19%B4T%86%CA%B8Re%D8%CBP%19*%C3%BA%A52huX%19%AE%CA%E5%BC%0C%7B%19*CeX%B7h%A9%0C%95%E1%BC%0C%7B%19*CeX%B7T%06%AD%CB%5E%95%2B%BF.%8F%C5%97%D5%E4%7B%EE%82%D6%FB%CF-%9C%FD%B9%CF%3By%7B%19%F62T%86%CA%B0n%D1R%19*%A3%D3%CA%B0%97%A12T%86uKe%D0%EA%B02*%3F1%99%5DB%2B%A4%B5%F8%3A%7C%BA%2B%8Co%7D%5C%EDe%A8%0C%95a%DDR%19%B4T%C66%82fA%B2%ED%DA%9FC%FC%17GZ%06%C9%E1%B3%E5%2C%1A%9FoiB%EB%96%CA%A0%D5qe4%7B%7D%FD%85%F7%5B%ED_%E0s%07%F0k%951%ECr%0D%B5C%D7-g%D1%A8%0C%EB%96%CA%A0%A52T%C6)*%C3%5E%86%CAP%19%D6-%95A%EB*%95q%F8%BB%E3%F9%AB%F6%E21%ACZ%B7%22%B7%9B%3F%02%85%CB%A2%5B%B7%BA%5E%B7%9C%97%E1%BC%0C%EB%16-%95%A12z%AC%0C%BFc%A22T%86uKe%D0%EA%B02V%DD%AD%8A%2B%8CWhe%5E%AF%CF%F5%3B%26%CE%CBh%5C%19%CE%CB%B0%F3%A4%095%A1%CAP%19*Ce%A8%0C%3BO*Ce%A8%0C%95%A12%3A%AD%8C%0A%82%7B%F0v%1F%2FD%A9%5B%9F%EE%EA%26%AF%03%CA%DF9%7B%19*Ce%A8%0C%95%A12T%86%CA%B8Ze%D8%CBP%19*Ce%A8%0C%95%D1ae%EC%F7%89I%E1%B4%D7M%D7P%8BjU%5C%BB%3E%F2%20%D8%CBP%19*Ce%A8%0C%95%A12T%C6%D5*%C3%5E%86%CAP%19*Ce%B4O%07%7B%F0W%7Bw%1C%7C%1A%8C%B3%3B%D1%EE%AA%5C%D6-%EBV%83%80%5E%D0%CA%10%5CU%2BD%E07YU%86%CAP%19*%E3%9A%95%91%D9%A0%C8%AD%5B%EDv%9E%82%FFKOee%E4%8FUe%A8%0C%95%A12T%C6%1F%A9%8C%C8%3D%5B%A5%15%FD%14%22r%E7B%9F%17l%F8%BF%ED%EAf%2B%7F%CF%ECe%D8%CBP%19*Ce%A8%0C%95%E1%93~%7B%19%F62T%86%CAP%19*Ce%A8%0C%E7%13%DA%CBP%19*Ce%A8%0CZf%8B%16-Z%B4h%D1R%19f%8B%16-Z%B4h%D1R%19%B4%CC%16-Z%B4h%D1R%19%B4%CC%16-Z%B4h%D1%A2%A52%CC%16-Z%B4h%D1%A2%A52h%99-Z%B4h%D1%A2%A52h%99-Z%B4h%D1%A2EKe%98-Z%B4h%D1%A2EKe%D02%5B%B4h%D1%A2EKe%D02%5B%B4h%D1%A2E%8B%96%CA0%5B%B4h%D1%A2E%8B%96%CA%A0e%B6h%D1%A2E%8B%96%CA%A0e%B6h%D1%A2E%8B%16-%95a%B6h%D1%A2E%8B%16-%95A%CBl%D1%A2E%8B%16-%95A%CBl%D1%A2E%8B%16-Z*%C3l%D1%A2E%8B%16-Z*%83%96%D9%A2E%8B%16-Z*%83%96%D9%A2E%8B%16-Z%B4T%86%D9%A2E%8B%16-Z%B4T%06-%B3E%8B%16-Z%B4T%06-%B3E%8B%16-Z%B4h%A9%0C%B3E%8B%16-Z%B4h%A9%0CZf%8B%16-Z%B4h%A9%0CZf%8B%16-Z%B4h%D1R%19f%8B%16-Z%B4h%D1R%19%B4%CC%16-Z%B4h%D1R%19%B4%CC%16-Z%B4h%D1%A2%A52%CC%16-Z%B4h%D1%A2%A52h%99-Z%B4h%D1%A2%A52h%99-Z%B4h%D1%A2EKe%98-Z%B4h%D1%A2EKe%D02%5B%B4h%D1%A2EKe%D02%5B%B4h%D1%A2E%8B%96%CA0%5B%B4h%D1%A2E%8B%96%CA%A0e%B6h%D1%A2E%8B%96%CA%A0e%B6h%D1%A2E%8B%16-%95a%B6h%D1%A2E%8B%16-%95A%CBl%D1%A2E%8B%16-%95A%CBl%D1%A2E%8B%16-Z*%C3l%D1%A2E%8B%16-Z*%83%96%D9%A2E%8B%16-Z*%83%96%D9%A2E%8B%16-Z%B4T%86%D9%A2E%8B%16-Z%B4T%06-%B3E%8B%16-Z%B4T%06-%B3E%8B%16-Z%B4h%A9%0C%B3E%8B%16-Z%B4h%A9%0CZf%8B%16-Z%B4h%A9%0CZf%8B%16-Z%B4h%D1R%19f%8B%16-Z%B4h%D1R%19%B4%CC%16-Z%B4h%D1R%19%B4%CC%16-Z%B4h%D1%A2%A52%CC%16-Z%B4h%D1%A2%A52h%99-Z%B4h%D1%A2%A52h%99-Z%B4h%D1%A2EKe%98-Z%B4h%D1%A2EKe%D02%5B%B4h%D1%A2EKe%D02%5B%B4h%D1%A2E%8B%96%CA0%5B%B4h%D1%A2E%8B%96%CA%A0e%B6h%D1%A2E%8B%96%CA%A0e%B6h%D1%A2E%8B%16-%95a%B6h%D1%A2E%8B%16-%95A%CBl%D1%A2E%8B%16-%95A%CBl%D1%A2E%8B%16-Z*%C3l%D1%A2E%8B%16-Z*%83%96%D9%A2E%8B%16-Z*%83%96%D9%A2E%8B%16-Z%B4T%86%D9%A2E%8B%16-Z%B4T%06-%B3E%8B%16-Z%B4%AE%A4%F5%25%C0%00%DE%BF%5C\'%0F%DA%B8q%00%00%00%00IEND%AEB%60%82") repeat-y scroll 0% 0% transparent ! important; border-left: 1px solid rgb(187, 187, 187) ! important; border-right: 1px solid rgb(0, 0, 0) ! important; border-bottom: 1px dashed rgb(187, 187, 187) ! important; }
.fbProxyElement { position: fixed ! important; pointer-events: auto ! important; }]]></style></defs><g transform="translate(690,755)"><path class="link" d="M0,0C-26.843370149874186,78.89155799856717,75.08073899186827,36.156978259796475,150.16147798373655,72.31395651959295"/><path class="link" d="M0,0C-26.843370149874186,78.89155799856717,-81.55196044132961,-17.138325257161316,-163.10392088265922,-34.27665051432263"/><path class="link" d="M150.16147798373655,72.31395651959295C225.24221697560483,108.47093477938944,123.75219639589528,-217.22199218125166,165.00292852786038,-289.6293229083355"/><path class="link" d="M150.16147798373655,72.31395651959295C225.24221697560483,108.47093477938944,248.1772185245135,-30.1341700638309,330.90295803268464,-40.1788934184412"/><path class="link" d="M150.16147798373655,72.31395651959295C225.24221697560483,108.47093477938944,230.55487821545262,96.6666857353546,307.40650428727014,128.8889143138061"/><path class="link" d="M150.16147798373655,72.31395651959295C225.24221697560483,108.47093477938944,178.29580765764922,175.2444149515372,237.72774354353228,233.6592199353829"/><path class="link" d="M150.16147798373655,72.31395651959295C225.24221697560483,108.47093477938944,76.43295683993851,238.02941647767844,101.91060911991802,317.37255530357123"/><path class="link" d="M150.16147798373655,72.31395651959295C225.24221697560483,108.47093477938944,-17.24778610108101,249.40431807531192,-22.997048134774683,332.53909076708254"/><path class="link" d="M150.16147798373655,72.31395651959295C225.24221697560483,108.47093477938944,-92.67275976126665,232.18906003132565,-123.56367968168885,309.58541337510087"/><path class="link" d="M-163.10392088265922,-34.27665051432263C-244.65588132398887,-51.414975771483945,-178.29580765764896,175.24441495153746,-237.72774354353194,233.65921993538328"/><path class="link" d="M-163.10392088265922,-34.27665051432263C-244.65588132398887,-51.414975771483945,-246.9892245821866,-38.682333697570265,-329.3189661095821,-51.576444930093686"/><path class="link" d="M-163.10392088265922,-34.27665051432263C-244.65588132398887,-51.414975771483945,-92.6727597612671,-232.1890600313255,-123.56367968168946,-309.58541337510064"/><path class="link" d="M165.00292852786038,-289.6293229083355C206.25366065982544,-362.0366536354194,28.746310168468675,-415.67386345885313,34.495572202162414,-498.80863615062384"/><path class="link" d="M165.00292852786038,-289.6293229083355C206.25366065982544,-362.0366536354194,57.35563107798655,-412.70018499481796,68.82675729358387,-495.2402219937816"/><path class="link" d="M165.00292852786038,-289.6293229083355C206.25366065982544,-362.0366536354194,85.69162628580673,-407.75980220664803,102.82995154296809,-489.3117626479777"/><path class="link" d="M165.00292852786038,-289.6293229083355C206.25366065982544,-362.0366536354194,113.61926187062234,-400.87625826816685,136.34311424474683,-481.0515099218003"/><path class="link" d="M165.00292852786038,-289.6293229083355C206.25366065982544,-362.0366536354194,141.005449930696,-392.08235640099014,169.2065399168352,-470.49882768118823"/><path class="link" d="M165.00292852786038,-289.6293229083355C206.25366065982544,-362.0366536354194,167.71968280831962,-381.42000355223604,201.2636193699836,-457.70400426268327"/><path class="link" d="M165.00292852786038,-289.6293229083355C206.25366065982544,-362.0366536354194,193.63465501823674,-368.9400106888375,232.3615860218841,-442.72801282660504"/><path class="link" d="M165.00292852786038,-289.6293229083355C206.25366065982544,-362.0366536354194,218.62686991625313,-354.7018506601464,262.3522438995038,-425.64222079217575"/><path class="link" d="M165.00292852786038,-289.6293229083355C206.25366065982544,-362.0366536354194,242.57722821698766,-338.7733747827219,291.0926738603852,-406.5280497392663"/><path class="link" d="M165.00292852786038,-289.6293229083355C206.25366065982544,-362.0366536354194,265.3715955562038,-321.2304894979082,318.4459146674445,-385.4765873974899"/><path class="link" d="M165.00292852786038,-289.6293229083355C206.25366065982544,-362.0366536354194,286.90134639303204,-302.1567946430735,344.2816156716385,-362.5881535716883"/><path class="link" d="M165.00292852786038,-289.6293229083355C206.25366065982544,-362.0366536354194,307.0638816601402,-281.6431850603143,368.4766579921683,-337.97182207237717"/><path class="link" d="M165.00292852786038,-289.6293229083355C206.25366065982544,-362.0366536354194,325.7631176950123,-259.78741744113904,390.9157412340148,-311.7449009293669"/><path class="link" d="M165.00292852786038,-289.6293229083355C206.25366065982544,-362.0366536354194,342.9099441223567,-236.69364447131508,411.49193294682806,-284.0323733655781"/><path class="link" d="M330.90295803268464,-40.1788934184412C413.6286975408558,-50.223616773051496,372.2273057439846,-187.23766706965063,446.6727668927815,-224.68520048358076"/><path class="link" d="M330.90295803268464,-40.1788934184412C413.6286975408558,-50.223616773051496,384.25813035908755,-161.1111428922579,461.1097564309051,-193.3333714707095"/><path class="link" d="M330.90295803268464,-40.1788934184412C413.6286975408558,-50.223616773051496,394.45778999283567,-134.2168507493713,473.3493479914029,-161.06022089924556"/><path class="link" d="M330.90295803268464,-40.1788934184412C413.6286975408558,-50.223616773051496,402.77767862217473,-106.68295419064474,483.33321434660974,-128.01954502877368"/><path class="link" d="M330.90295803268464,-40.1788934184412C413.6286975408558,-50.223616773051496,409.17814818892924,-78.64066477204868,491.0137778267151,-94.36879772645842"/><path class="link" d="M330.90295803268464,-40.1788934184412C413.6286975408558,-50.223616773051496,413.6286975408558,-50.223616773051496,496.354437049027,-60.2683401276618"/><path class="link" d="M330.90295803268464,-40.1788934184412C413.6286975408558,-50.223616773051496,416.10811778352337,-21.567230368420688,499.32974134022805,-25.880676442104825"/><path class="link" d="M330.90295803268464,-40.1788934184412C413.6286975408558,-50.223616773051496,416.6045933503539,7.19193371057827,499.9255120204247,8.630320452693924"/><path class="link" d="M330.90295803268464,-40.1788934184412C413.6286975408558,-50.223616773051496,415.11575830917764,35.91682495025784,498.1389099710132,43.10018994030941"/><path class="link" d="M330.90295803268464,-40.1788934184412C413.6286975408558,-50.223616773051496,411.6487076369777,64.47055616261706,493.9784491643733,77.36466739514047"/><path class="link" d="M330.90295803268464,-40.1788934184412C413.6286975408558,-50.223616773051496,406.2199634090931,92.71705581513089,487.46395609091184,111.26046697815708"/><path class="link" d="M307.40650428727014,128.8889143138061C384.25813035908766,161.11114289225765,389.5901011189229,147.75203626772287,467.5081213427075,177.30244352126746"/><path class="link" d="M307.40650428727014,128.8889143138061C384.25813035908766,161.11114289225765,378.4682319236476,174.27825032315187,454.16187830837714,209.13390038778226"/><path class="link" d="M237.72774354353228,233.6592199353829C297.15967942941535,292.07402491922863,350.8753687178384,224.7166810413326,421.0504424614061,269.66001724959915"/><path class="link" d="M237.72774354353228,233.6592199353829C297.15967942941535,292.07402491922863,334.53586726620114,248.38853561217704,401.44304071944134,298.06624273461244"/><path class="link" d="M237.72774354353228,233.6592199353829C297.15967942941535,292.07402491922863,316.6021500602414,270.8767056953098,379.9225800722897,325.05204683437177"/><path class="link" d="M237.72774354353228,233.6592199353829C297.15967942941535,292.07402491922863,297.15967942941535,292.07402491922863,356.59161531529844,350.4888299030744"/><path class="link" d="M237.72774354353228,233.6592199353829C297.15967942941535,292.07402491922863,276.30110760033153,311.8794784046252,331.5613291203979,374.25537408555033"/><path class="link" d="M237.72774354353228,233.6592199353829C297.15967942941535,292.07402491922863,254.12583516669736,330.19868414628735,304.95100220003684,396.23842097554484"/><path class="link" d="M237.72774354353228,233.6592199353829C297.15967942941535,292.07402491922863,230.73953740022247,346.9443427863357,276.887444880267,416.3332113436029"/><path class="link" d="M101.91060911991802,317.37255530357123C127.38826139989752,396.71569412946405,180.78489129898287,375.40369495934107,216.94186955877947,450.4844339512093"/><path class="link" d="M101.91060911991802,317.37255530357123C127.38826139989752,396.71569412946405,154.45459960211178,386.9817667188758,185.34551952253415,464.378120062651"/><path class="link" d="M101.91060911991802,317.37255530357123C127.38826139989752,396.71569412946405,127.38826139989752,396.71569412946405,152.86591367987702,476.0588329553569"/><path class="link" d="M101.91060911991802,317.37255530357123C127.38826139989752,396.71569412946405,99.7148601198162,404.5590905941882,119.65783214377946,485.4709087130259"/><path class="link" d="M101.91060911991802,317.37255530357123C127.38826139989752,396.71569412946405,71.56627212136546,410.4745787570306,85.87952654563856,492.5694945084368"/><path class="link" d="M-22.997048134774683,332.53909076708254C-28.74631016846835,415.67386345885313,14.381724570712127,416.4183918962793,17.258069484854552,499.7020702755352"/><path class="link" d="M-22.997048134774683,332.53909076708254C-28.74631016846835,415.67386345885313,-14.381724570711338,416.41839189627933,-17.258069484853607,499.7020702755353"/><path class="link" d="M-22.997048134774683,332.53909076708254C-28.74631016846835,415.67386345885313,-43.076638245153696,414.433968622997,-51.69196589418444,497.3207623475964"/><path class="link" d="M-22.997048134774683,332.53909076708254C-28.74631016846835,415.67386345885313,-71.5662721213645,410.4745787570308,-85.8795265456374,492.569494508437"/><path class="link" d="M-123.56367968168885,309.58541337510087C-154.45459960211105,386.9817667188761,-127.38826139989678,396.7156941294643,-152.86591367987614,476.05883295535716"/><path class="link" d="M-123.56367968168885,309.58541337510087C-154.45459960211105,386.9817667188761,-154.45459960211105,386.9817667188761,-185.3455195225333,464.3781200626513"/><path class="link" d="M-123.56367968168885,309.58541337510087C-154.45459960211105,386.9817667188761,-180.78489129898236,375.40369495934135,-216.94186955877885,450.48443395120967"/><path class="link" d="M-237.72774354353194,233.65921993538328C-297.1596794294149,292.0740249192291,-230.73953740022193,346.94434278633605,-276.88744488026634,416.3332113436033"/><path class="link" d="M-237.72774354353194,233.65921993538328C-297.1596794294149,292.0740249192291,-254.1258351666967,330.19868414628786,-304.95100220003604,396.23842097554547"/><path class="link" d="M-237.72774354353194,233.65921993538328C-297.1596794294149,292.0740249192291,-276.3011076003312,311.8794784046255,-331.5613291203975,374.25537408555067"/><path class="link" d="M-237.72774354353194,233.65921993538328C-297.1596794294149,292.0740249192291,-297.1596794294149,292.0740249192291,-356.59161531529793,350.48882990307493"/><path class="link" d="M-237.72774354353194,233.65921993538328C-297.1596794294149,292.0740249192291,-316.602150060241,270.87670569531025,-379.92258007228924,325.05204683437233"/><path class="link" d="M-237.72774354353194,233.65921993538328C-297.1596794294149,292.0740249192291,-334.53586726620085,248.3885356121774,-401.4430407194411,298.0662427346129"/><path class="link" d="M-237.72774354353194,233.65921993538328C-297.1596794294149,292.0740249192291,-350.8753687178381,224.71668104133312,-421.0504424614058,269.6600172495998"/><path class="link" d="M-329.3189661095821,-51.576444930093686C-411.64870763697763,-64.4705561626171,-378.46823192364724,174.27825032315258,-454.16187830837674,209.13390038778311"/><path class="link" d="M-329.3189661095821,-51.576444930093686C-411.64870763697763,-64.4705561626171,-389.59010111892275,147.75203626772324,-467.50812134270734,177.30244352126792"/><path class="link" d="M-329.3189661095821,-51.576444930093686C-411.64870763697763,-64.4705561626171,-398.8553960640064,120.52171647357027,-478.62647527680775,144.62605976828434"/><path class="link" d="M-329.3189661095821,-51.576444930093686C-411.64870763697763,-64.4705561626171,-406.21996340909305,92.71705581513139,-487.4639560909117,111.26046697815768"/><path class="link" d="M-329.3189661095821,-51.576444930093686C-411.64870763697763,-64.4705561626171,-411.6487076369776,64.47055616261756,-493.97844916437316,77.36466739514107"/><path class="link" d="M-329.3189661095821,-51.576444930093686C-411.64870763697763,-64.4705561626171,-415.11575830917764,35.91682495025844,-498.13890997101316,43.10018994031013"/><path class="link" d="M-329.3189661095821,-51.576444930093686C-411.64870763697763,-64.4705561626171,-416.60459335035387,7.191933710578875,-499.92551202042466,8.63032045269465"/><path class="link" d="M-329.3189661095821,-51.576444930093686C-411.64870763697763,-64.4705561626171,-416.10811778352337,-21.567230368420265,-499.3297413402281,-25.88067644210432"/><path class="link" d="M-329.3189661095821,-51.576444930093686C-411.64870763697763,-64.4705561626171,-413.62869754085585,-50.223616773050985,-496.35443704902707,-60.26834012766119"/><path class="link" d="M-329.3189661095821,-51.576444930093686C-411.64870763697763,-64.4705561626171,-409.1781481889293,-78.64066477204837,-491.0137778267152,-94.36879772645806"/><path class="link" d="M-329.3189661095821,-51.576444930093686C-411.64870763697763,-64.4705561626171,-402.7776786221748,-106.68295419064441,-483.3332143466098,-128.0195450287733"/><path class="link" d="M-329.3189661095821,-51.576444930093686C-411.64870763697763,-64.4705561626171,-394.45778999283584,-134.2168507493709,-473.349347991403,-161.0602208992451"/><path class="link" d="M-329.3189661095821,-51.576444930093686C-411.64870763697763,-64.4705561626171,-384.25813035908783,-161.11114289225736,-461.1097564309054,-193.33337147070884"/><path class="link" d="M-329.3189661095821,-51.576444930093686C-411.64870763697763,-64.4705561626171,-372.22730574398463,-187.2376670696504,-446.6727668927816,-224.6852004835805"/><path class="link" d="M-329.3189661095821,-51.576444930093686C-411.64870763697763,-64.4705561626171,-358.4226485056255,-212.47191849588953,-430.1071782067506,-254.96630219506744"/><path class="link" d="M-329.3189661095821,-51.576444930093686C-411.64870763697763,-64.4705561626171,-342.90994412235705,-236.69364447131454,-411.4919329468285,-284.0323733655775"/><path class="link" d="M-329.3189661095821,-51.576444930093686C-411.64870763697763,-64.4705561626171,-325.76311769501245,-259.78741744113887,-390.91574123401494,-311.7449009293667"/><path class="link" d="M-329.3189661095821,-51.576444930093686C-411.64870763697763,-64.4705561626171,-307.0638816601405,-281.64318506031395,-368.47665799216867,-337.9718220723768"/><path class="link" d="M-123.56367968168946,-309.58541337510064C-154.4545996021118,-386.9817667188758,-265.37159555620406,-321.2304894979079,-318.4459146674449,-385.47658739748954"/><path class="link" d="M-123.56367968168946,-309.58541337510064C-154.4545996021118,-386.9817667188758,-242.57722821698778,-338.7733747827219,-291.09267386038533,-406.52804973926624"/><path class="link" d="M-123.56367968168946,-309.58541337510064C-154.4545996021118,-386.9817667188758,-218.6268699162536,-354.70185066014614,-262.35224389950434,-425.6422207921754"/><path class="link" d="M-123.56367968168946,-309.58541337510064C-154.4545996021118,-386.9817667188758,-193.6346550182371,-368.9400106888373,-232.36158602188456,-442.7280128266048"/><path class="link" d="M-123.56367968168946,-309.58541337510064C-154.4545996021118,-386.9817667188758,-167.71968280832,-381.4200035522358,-201.263619369984,-457.70400426268304"/><path class="link" d="M-123.56367968168946,-309.58541337510064C-154.4545996021118,-386.9817667188758,-141.00544993069656,-392.08235640098997,-169.20653991683588,-470.498827681188"/><path class="link" d="M-123.56367968168946,-309.58541337510064C-154.4545996021118,-386.9817667188758,-113.61926187062257,-400.87625826816685,-136.34311424474708,-481.05150992180023"/><path class="link" d="M-123.56367968168946,-309.58541337510064C-154.4545996021118,-386.9817667188758,-85.69162628580743,-407.75980220664786,-102.82995154296893,-489.3117626479775"/><path class="link" d="M-123.56367968168946,-309.58541337510064C-154.4545996021118,-386.9817667188758,-57.355631077987255,-412.70018499481785,-68.82675729358472,-495.24022199378146"/><path class="link" d="M-123.56367968168946,-309.58541337510064C-154.4545996021118,-386.9817667188758,-28.746310168469183,-415.6738634588531,-34.495572202163025,-498.8086361506238"/><g class="node node--internal" transform="translate(0,0)"><circle r="3"/><text dy="0.31em" x="10" text-anchor="start" transform="rotate(288.79120879120876)">Fog Computing Research</text></g><g class="node node--internal" transform="translate(150.16147798373655,72.31395651959295)"><circle r="3"/><text dy="0.31em" x="-10" text-anchor="end" transform="rotate(25.714285714285687)">Conferences</text></g><g class="node node--internal" transform="translate(-163.10392088265922,-34.27665051432263)"><circle r="3"/><text dy="0.31em" x="10" text-anchor="start" transform="rotate(371.86813186813185)">Journals/Mag</text></g><g class="node node--internal" transform="translate(165.00292852786038,-289.6293229083355)"><circle r="3"/><text dy="0.31em" x="-10" text-anchor="end" transform="rotate(-60.32967032967035)">General</text></g><g class="node node--internal" transform="translate(330.90295803268464,-40.1788934184412)"><circle r="3"/><text dy="0.31em" x="-10" text-anchor="end" transform="rotate(-6.923076923076955)">Fog/Edge Computing</text></g><g class="node node--internal" transform="translate(307.40650428727014,128.8889143138061)"><circle r="3"/><text dy="0.31em" x="-10" text-anchor="end" transform="rotate(22.74725274725272)">Internet of Things</text></g><g class="node node--internal" transform="translate(237.72774354353228,233.6592199353829)"><circle r="3"/><text dy="0.31em" x="-10" text-anchor="end" transform="rotate(44.50549450549446)">Cloud Computing</text></g><g class="node node--internal" transform="translate(101.91060911991802,317.37255530357123)"><circle r="3"/><text dy="0.31em" x="-10" text-anchor="end" transform="rotate(72.19780219780213)">Mobile Computing</text></g><g class="node node--internal" transform="translate(-22.997048134774683,332.53909076708254)"><circle r="3"/><text dy="0.31em" x="10" text-anchor="start" transform="rotate(273.9560439560439)">Distributed Computing</text></g><g class="node node--internal" transform="translate(-123.56367968168885,309.58541337510087)"><circle r="3"/><text dy="0.31em" x="10" text-anchor="start" transform="rotate(291.7582417582417)">Systems</text></g><g class="node node--internal" transform="translate(-237.72774354353194,233.65921993538328)"><circle r="3"/><text dy="0.31em" x="10" text-anchor="start" transform="rotate(315.49450549450546)">Magazine</text></g><g class="node node--internal" transform="translate(-329.3189661095821,-51.576444930093686)"><circle r="3"/><text dy="0.31em" x="10" text-anchor="start" transform="rotate(368.9010989010989)">Journal (ACM &amp; IEEE)</text></g><g class="node node--internal" transform="translate(-123.56367968168946,-309.58541337510064)"><circle r="3"/><text dy="0.31em" x="10" text-anchor="start" transform="rotate(428.24175824175813)">Journal (Elsevier &amp; Springer)</text></g><g class="node node--leaf" transform="translate(34.495572202162414,-498.80863615062384)"><circle r="3"/><text dy="0.31em" x="10" text-anchor="start" transform="rotate(-86.04395604395606)">ACM SIGCOMM</text></g><g class="node node--leaf" transform="translate(68.82675729358387,-495.2402219937816)"><circle r="3"/><text dy="0.31em" x="10" text-anchor="start" transform="rotate(-82.08791208791212)">USENIX NSDI</text></g><g class="node node--leaf" transform="translate(102.82995154296809,-489.3117626479777)"><circle r="3"/><text dy="0.31em" x="10" text-anchor="start" transform="rotate(-78.13186813186816)">ACM CoNEXT</text></g><g class="node node--leaf" transform="translate(136.34311424474683,-481.0515099218003)"><circle r="3"/><text dy="0.31em" x="10" text-anchor="start" transform="rotate(-74.17582417582419)">IEEE INFOCOM</text></g><g class="node node--leaf" transform="translate(169.2065399168352,-470.49882768118823)"><circle r="3"/><text dy="0.31em" x="10" text-anchor="start" transform="rotate(-70.21978021978023)">ACM SIGMETRICS</text></g><g class="node node--leaf" transform="translate(201.2636193699836,-457.70400426268327)"><circle r="3"/><text dy="0.31em" x="10" text-anchor="start" transform="rotate(-66.26373626373629)">ACM HotNets</text></g><g class="node node--leaf" transform="translate(232.3615860218841,-442.72801282660504)"><circle r="3"/><text dy="0.31em" x="10" text-anchor="start" transform="rotate(-62.307692307692335)">USENIX ATC</text></g><g class="node node--leaf" transform="translate(262.3522438995038,-425.64222079217575)"><circle r="3"/><text dy="0.31em" x="10" text-anchor="start" transform="rotate(-58.351648351648386)">ACM IMC</text></g><g class="node node--leaf" transform="translate(291.0926738603852,-406.5280497392663)"><circle r="3"/><text dy="0.31em" x="10" text-anchor="start" transform="rotate(-54.395604395604416)">ACM/IEEE ANCS</text></g><g class="node node--leaf" transform="translate(318.4459146674445,-385.4765873974899)"><circle r="3"/><text dy="0.31em" x="10" text-anchor="start" transform="rotate(-50.43956043956046)">IEEE ICC</text></g><g class="node node--leaf" transform="translate(344.2816156716385,-362.5881535716883)"><circle r="3"/><text dy="0.31em" x="10" text-anchor="start" transform="rotate(-46.48351648351649)">IEEE GLOBECOM</text></g><g class="node node--leaf" transform="translate(368.4766579921683,-337.97182207237717)"><circle r="3"/><text dy="0.31em" x="10" text-anchor="start" transform="rotate(-42.52747252747253)">ACM/IRTF ANRW	</text></g><g class="node node--leaf" transform="translate(390.9157412340148,-311.7449009293669)"><circle r="3"/><text dy="0.31em" x="10" text-anchor="start" transform="rotate(-38.57142857142859)">IEEE ICNP</text></g><g class="node node--leaf" transform="translate(411.49193294682806,-284.0323733655781)"><circle r="3"/><text dy="0.31em" x="10" text-anchor="start" transform="rotate(-34.61538461538465)">IEEE/OSA OFC</text></g><g class="node node--leaf" transform="translate(446.6727668927815,-224.68520048358076)"><circle r="3"/><text dy="0.31em" x="10" text-anchor="start" transform="rotate(-26.703296703296715)">IEEE/ACM SEC</text></g><g class="node node--leaf" transform="translate(461.1097564309051,-193.3333714707095)"><circle r="3"/><text dy="0.31em" x="10" text-anchor="start" transform="rotate(-22.747252747252755)">USENIX HotEdge</text></g><g class="node node--leaf" transform="translate(473.3493479914029,-161.06022089924556)"><circle r="3"/><text dy="0.31em" x="10" text-anchor="start" transform="rotate(-18.791208791208824)">IEEE EDGE</text></g><g class="node node--leaf" transform="translate(483.33321434660974,-128.01954502877368)"><circle r="3"/><text dy="0.31em" x="10" text-anchor="start" transform="rotate(-14.83516483516485)">IEEE FMEC</text></g><g class="node node--leaf" transform="translate(491.0137778267151,-94.36879772645842)"><circle r="3"/><text dy="0.31em" x="10" text-anchor="start" transform="rotate(-10.879120879120888)">ACM MECOMM</text></g><g class="node node--leaf" transform="translate(496.354437049027,-60.2683401276618)"><circle r="3"/><text dy="0.31em" x="10" text-anchor="start" transform="rotate(-6.923076923076955)">ACM EdgeSys</text></g><g class="node node--leaf" transform="translate(499.32974134022805,-25.880676442104825)"><circle r="3"/><text dy="0.31em" x="10" text-anchor="start" transform="rotate(-2.9670329670329827)">Fog World Congress</text></g><g class="node node--leaf" transform="translate(499.9255120204247,8.630320452693924)"><circle r="3"/><text dy="0.31em" x="10" text-anchor="start" transform="rotate(0.9890109890109519)">IEEE ICFEC</text></g><g class="node node--leaf" transform="translate(498.1389099710132,43.10018994030941)"><circle r="3"/><text dy="0.31em" x="10" text-anchor="start" transform="rotate(4.9450549450549115)">IEEE SmartEdge</text></g><g class="node node--leaf" transform="translate(493.9784491643733,77.36466739514047)"><circle r="3"/><text dy="0.31em" x="10" text-anchor="start" transform="rotate(8.901098901098885)">ACM TOPIC</text></g><g class="node node--leaf" transform="translate(487.46395609091184,111.26046697815708)"><circle r="3"/><text dy="0.31em" x="10" text-anchor="start" transform="rotate(12.857142857142843)">ACM CitiFog</text></g><g class="node node--leaf" transform="translate(467.5081213427075,177.30244352126746)"><circle r="3"/><text dy="0.31em" x="10" text-anchor="start" transform="rotate(20.769230769230727)">ACM/IEEE IoTDI</text></g><g class="node node--leaf" transform="translate(454.16187830837714,209.13390038778226)"><circle r="3"/><text dy="0.31em" x="10" text-anchor="start" transform="rotate(24.725274725274687)">IEEE WF-IoT</text></g><g class="node node--leaf" transform="translate(421.0504424614061,269.66001724959915)"><circle r="3"/><text dy="0.31em" x="10" text-anchor="start" transform="rotate(32.63736263736258)">ACM SOCC</text></g><g class="node node--leaf" transform="translate(401.44304071944134,298.06624273461244)"><circle r="3"/><text dy="0.31em" x="10" text-anchor="start" transform="rotate(36.59340659340657)">USENIX HotCloud</text></g><g class="node node--leaf" transform="translate(379.9225800722897,325.05204683437177)"><circle r="3"/><text dy="0.31em" x="10" text-anchor="start" transform="rotate(40.5494505494505)">IEEE/ACM UCC</text></g><g class="node node--leaf" transform="translate(356.59161531529844,350.4888299030744)"><circle r="3"/><text dy="0.31em" x="10" text-anchor="start" transform="rotate(44.50549450549446)">IEEE IC2E</text></g><g class="node node--leaf" transform="translate(331.5613291203979,374.25537408555033)"><circle r="3"/><text dy="0.31em" x="10" text-anchor="start" transform="rotate(48.461538461538424)">IEEE Cloud</text></g><g class="node node--leaf" transform="translate(304.95100220003684,396.23842097554484)"><circle r="3"/><text dy="0.31em" x="10" text-anchor="start" transform="rotate(52.41758241758235)">IEEE CloudCom</text></g><g class="node node--leaf" transform="translate(276.887444880267,416.3332113436029)"><circle r="3"/><text dy="0.31em" x="10" text-anchor="start" transform="rotate(56.37362637362631)">IEEE FiCloud</text></g><g class="node node--leaf" transform="translate(216.94186955877947,450.4844339512093)"><circle r="3"/><text dy="0.31em" x="10" text-anchor="start" transform="rotate(64.28571428571423)">ACM MobiHoc</text></g><g class="node node--leaf" transform="translate(185.34551952253415,464.378120062651)"><circle r="3"/><text dy="0.31em" x="10" text-anchor="start" transform="rotate(68.24175824175819)">ACM MobiCom</text></g><g class="node node--leaf" transform="translate(152.86591367987702,476.0588329553569)"><circle r="3"/><text dy="0.31em" x="10" text-anchor="start" transform="rotate(72.19780219780213)">ACM MobiSys</text></g><g class="node node--leaf" transform="translate(119.65783214377946,485.4709087130259)"><circle r="3"/><text dy="0.31em" x="10" text-anchor="start" transform="rotate(76.15384615384609)">ACM HotMobile</text></g><g class="node node--leaf" transform="translate(85.87952654563856,492.5694945084368)"><circle r="3"/><text dy="0.31em" x="10" text-anchor="start" transform="rotate(80.10989010989005)">ACM MobiArch</text></g><g class="node node--leaf" transform="translate(17.258069484854552,499.7020702755352)"><circle r="3"/><text dy="0.31em" x="10" text-anchor="start" transform="rotate(88.02197802197797)">ACM PODC</text></g><g class="node node--leaf" transform="translate(-17.258069484853607,499.7020702755353)"><circle r="3"/><text dy="0.31em" x="-10" text-anchor="end" transform="rotate(271.97802197802196)">IEEE ICDCS</text></g><g class="node node--leaf" transform="translate(-51.69196589418444,497.3207623475964)"><circle r="3"/><text dy="0.31em" x="-10" text-anchor="end" transform="rotate(275.93406593406587)">IEEE PerCom</text></g><g class="node node--leaf" transform="translate(-85.8795265456374,492.569494508437)"><circle r="3"/><text dy="0.31em" x="-10" text-anchor="end" transform="rotate(279.89010989010984)">ACM DEBS</text></g><g class="node node--leaf" transform="translate(-152.86591367987614,476.05883295535716)"><circle r="3"/><text dy="0.31em" x="-10" text-anchor="end" transform="rotate(287.8021978021978)">ACM SOSP</text></g><g class="node node--leaf" transform="translate(-185.3455195225333,464.3781200626513)"><circle r="3"/><text dy="0.31em" x="-10" text-anchor="end" transform="rotate(291.7582417582417)">ACM SenSys</text></g><g class="node node--leaf" transform="translate(-216.94186955877885,450.48443395120967)"><circle r="3"/><text dy="0.31em" x="-10" text-anchor="end" transform="rotate(295.7142857142857)">ACM EuroSys</text></g><g class="node node--leaf" transform="translate(-276.88744488026634,416.3332113436033)"><circle r="3"/><text dy="0.31em" x="-10" text-anchor="end" transform="rotate(303.6263736263736)">IEEE Computer</text></g><g class="node node--leaf" transform="translate(-304.95100220003604,396.23842097554547)"><circle r="3"/><text dy="0.31em" x="-10" text-anchor="end" transform="rotate(307.5824175824175)">IEEE Pervasive Computing</text></g><g class="node node--leaf" transform="translate(-331.5613291203975,374.25537408555067)"><circle r="3"/><text dy="0.31em" x="-10" text-anchor="end" transform="rotate(311.53846153846155)">IEEE Internet Computing</text></g><g class="node node--leaf" transform="translate(-356.59161531529793,350.48882990307493)"><circle r="3"/><text dy="0.31em" x="-10" text-anchor="end" transform="rotate(315.49450549450546)">IEEE Cloud Computing</text></g><g class="node node--leaf" transform="translate(-379.92258007228924,325.05204683437233)"><circle r="3"/><text dy="0.31em" x="-10" text-anchor="end" transform="rotate(319.45054945054943)">IEEE Wireless Communications</text></g><g class="node node--leaf" transform="translate(-401.4430407194411,298.0662427346129)"><circle r="3"/><text dy="0.31em" x="-10" text-anchor="end" transform="rotate(323.4065934065934)">IEEE Network</text></g><g class="node node--leaf" transform="translate(-421.0504424614058,269.6600172495998)"><circle r="3"/><text dy="0.31em" x="-10" text-anchor="end" transform="rotate(327.3626373626373)">IEEE Communication</text></g><g class="node node--leaf" transform="translate(-454.16187830837674,209.13390038778311)"><circle r="3"/><text dy="0.31em" x="-10" text-anchor="end" transform="rotate(335.27472527472526)">IEEE ACCESS</text></g><g class="node node--leaf" transform="translate(-467.50812134270734,177.30244352126792)"><circle r="3"/><text dy="0.31em" x="-10" text-anchor="end" transform="rotate(339.2307692307692)">IEEE TWC</text></g><g class="node node--leaf" transform="translate(-478.62647527680775,144.62605976828434)"><circle r="3"/><text dy="0.31em" x="-10" text-anchor="end" transform="rotate(343.18681318681314)">IEEE TMC</text></g><g class="node node--leaf" transform="translate(-487.4639560909117,111.26046697815768)"><circle r="3"/><text dy="0.31em" x="-10" text-anchor="end" transform="rotate(347.14285714285705)">ACM POMACS</text></g><g class="node node--leaf" transform="translate(-493.97844916437316,77.36466739514107)"><circle r="3"/><text dy="0.31em" x="-10" text-anchor="end" transform="rotate(351.098901098901)">ACM TOMPECS</text></g><g class="node node--leaf" transform="translate(-498.13890997101316,43.10018994031013)"><circle r="3"/><text dy="0.31em" x="-10" text-anchor="end" transform="rotate(355.054945054945)">IEEE TETC</text></g><g class="node node--leaf" transform="translate(-499.92551202042466,8.63032045269465)"><circle r="3"/><text dy="0.31em" x="-10" text-anchor="end" transform="rotate(359.010989010989)">IEEE TSC</text></g><g class="node node--leaf" transform="translate(-499.3297413402281,-25.88067644210432)"><circle r="3"/><text dy="0.31em" x="-10" text-anchor="end" transform="rotate(362.96703296703294)">ACM TOCS</text></g><g class="node node--leaf" transform="translate(-496.35443704902707,-60.26834012766119)"><circle r="3"/><text dy="0.31em" x="-10" text-anchor="end" transform="rotate(366.9230769230769)">ACM TIOT</text></g><g class="node node--leaf" transform="translate(-491.0137778267152,-94.36879772645806)"><circle r="3"/><text dy="0.31em" x="-10" text-anchor="end" transform="rotate(370.8791208791209)">ACM TOIT</text></g><g class="node node--leaf" transform="translate(-483.3332143466098,-128.0195450287733)"><circle r="3"/><text dy="0.31em" x="-10" text-anchor="end" transform="rotate(374.8351648351648)">IEEE TNSM</text></g><g class="node node--leaf" transform="translate(-473.349347991403,-161.0602208992451)"><circle r="3"/><text dy="0.31em" x="-10" text-anchor="end" transform="rotate(378.79120879120876)">ACM CCR</text></g><g class="node node--leaf" transform="translate(-461.1097564309054,-193.33337147070884)"><circle r="3"/><text dy="0.31em" x="-10" text-anchor="end" transform="rotate(382.74725274725273)">IEEE TCC</text></g><g class="node node--leaf" transform="translate(-446.6727668927816,-224.6852004835805)"><circle r="3"/><text dy="0.31em" x="-10" text-anchor="end" transform="rotate(386.7032967032967)">IEEE JSAC</text></g><g class="node node--leaf" transform="translate(-430.1071782067506,-254.96630219506744)"><circle r="3"/><text dy="0.31em" x="-10" text-anchor="end" transform="rotate(390.6593406593406)">IEEE/ACM TON</text></g><g class="node node--leaf" transform="translate(-411.4919329468285,-284.0323733655775)"><circle r="3"/><text dy="0.31em" x="-10" text-anchor="end" transform="rotate(394.6153846153845)">IEEE IoTJ</text></g><g class="node node--leaf" transform="translate(-390.91574123401494,-311.7449009293667)"><circle r="3"/><text dy="0.31em" x="-10" text-anchor="end" transform="rotate(398.57142857142856)">IEEE Comm Sur Tut</text></g><g class="node node--leaf" transform="translate(-368.47665799216867,-337.9718220723768)"><circle r="3"/><text dy="0.31em" x="-10" text-anchor="end" transform="rotate(402.52747252747247)">ACM CSUR</text></g><g class="node node--leaf" transform="translate(-318.4459146674449,-385.47658739748954)"><circle r="3"/><text dy="0.31em" x="-10" text-anchor="end" transform="rotate(410.4395604395604)">Elsevier Dig ComNet</text></g><g class="node node--leaf" transform="translate(-291.09267386038533,-406.52804973926624)"><circle r="3"/><text dy="0.31em" x="-10" text-anchor="end" transform="rotate(414.39560439560444)">Elsevier Adhoc Net</text></g><g class="node node--leaf" transform="translate(-262.35224389950434,-425.6422207921754)"><circle r="3"/><text dy="0.31em" x="-10" text-anchor="end" transform="rotate(418.35164835164835)">Elsevier PerMob Comp</text></g><g class="node node--leaf" transform="translate(-232.36158602188456,-442.7280128266048)"><circle r="3"/><text dy="0.31em" x="-10" text-anchor="end" transform="rotate(422.30769230769226)">Springer CCF TON</text></g><g class="node node--leaf" transform="translate(-201.263619369984,-457.70400426268304)"><circle r="3"/><text dy="0.31em" x="-10" text-anchor="end" transform="rotate(426.26373626373623)">Springer JCIN</text></g><g class="node node--leaf" transform="translate(-169.20653991683588,-470.498827681188)"><circle r="3"/><text dy="0.31em" x="-10" text-anchor="end" transform="rotate(430.21978021978015)">Elsevier Comp Net</text></g><g class="node node--leaf" transform="translate(-136.34311424474708,-481.05150992180023)"><circle r="3"/><text dy="0.31em" x="-10" text-anchor="end" transform="rotate(434.1758241758242)">Springer JISA</text></g><g class="node node--leaf" transform="translate(-102.82995154296893,-489.3117626479775)"><circle r="3"/><text dy="0.31em" x="-10" text-anchor="end" transform="rotate(438.1318681318681)">Elsevier Comp Comm</text></g><g class="node node--leaf" transform="translate(-68.82675729358472,-495.24022199378146)"><circle r="3"/><text dy="0.31em" x="-10" text-anchor="end" transform="rotate(442.087912087912)">Elsevier JNCA</text></g><g class="node node--leaf" transform="translate(-34.495572202163025,-498.8086361506238)"><circle r="3"/><text dy="0.31em" x="-10" text-anchor="end" transform="rotate(446.043956043956)">Elsevier FGCS</text></g></g></svg>