<?xml version="1.0" standalone="no"?><!DOCTYPE svg PUBLIC "-//W3C//DTD SVG 1.1//EN" "http://www.w3.org/Graphics/SVG/1.1/DTD/svg11.dtd"><svg width="1320" height="1350" version="1.1" xmlns="http://www.w3.org/2000/svg" xmlns:xlink="http://www.w3.org/1999/xlink"><defs xmlns="http://www.w3.org/1999/xhtml"><style type="text/css"><![CDATA[
.node circle { fill: rgb(153, 153, 153); }
.node text { font: normal normal normal normal 10px sans-serif; }
.node--internal circle { fill: rgb(85, 85, 85); }
.node--internal text { text-shadow: rgb(255, 255, 255) 0px 1px 0px, rgb(255, 255, 255) 0px -1px 0px, rgb(255, 255, 255) 1px 0px 0px, rgb(255, 255, 255) -1px 0px 0px; }
.link { fill: none; stroke: rgb(85, 85, 85); stroke-opacity: 0.4; stroke-width: 1.5px; }]]></style></defs><g transform="translate(700,765)"><path class="link" d="M0,0C-28.94210440373503,78.1460110122567,74.18653756736263,37.95789889088614,148.37307513472527,75.91579778177228"/><path class="link" d="M0,0C-28.94210440373503,78.1460110122567,-81.01436881316589,-19.52220505600682,-162.02873762633178,-39.04441011201364"/><path class="link" d="M148.37307513472527,75.91579778177228C222.55961270208795,113.87369667265843,121.32549063277017,-218.58665403614557,161.76732084369354,-291.44887204819406"/><path class="link" d="M148.37307513472527,75.91579778177228C222.55961270208795,113.87369667265843,249.10902453260826,-21.087766510761288,332.1453660434776,-28.117022014348382"/><path class="link" d="M148.37307513472527,75.91579778177228C222.55961270208795,113.87369667265843,220.60459984455477,117.6163701506889,294.1394664594063,156.82182686758517"/><path class="link" d="M148.37307513472527,75.91579778177228C222.55961270208795,113.87369667265843,162.84312068055561,189.68953067319765,217.1241609074075,252.9193742309302"/><path class="link" d="M148.37307513472527,75.91579778177228C222.55961270208795,113.87369667265843,58.56661516802072,243.04310643949762,78.08882022402761,324.0574752526635"/><path class="link" d="M148.37307513472527,75.91579778177228C222.55961270208795,113.87369667265843,-33.67786555646508,247.72121703955975,-44.90382074195343,330.2949560527463"/><path class="link" d="M148.37307513472527,75.91579778177228C222.55961270208795,113.87369667265843,-106.29197075891001,226.27862681258037,-141.72262767854667,301.7048357501071"/><path class="link" d="M-162.02873762633178,-39.04441011201364C-243.04310643949768,-58.56661516802046,-186.91213821195223,166.02365069180973,-249.21618428260297,221.36486758907964"/><path class="link" d="M-162.02873762633178,-39.04441011201364C-243.04310643949768,-58.56661516802046,-245.69751273521453,-46.1815140042971,-327.59668364695267,-61.57535200572946"/><path class="link" d="M-162.02873762633178,-39.04441011201364C-243.04310643949768,-58.56661516802046,-90.7734650016187,-232.93814211416708,-121.03128666882493,-310.58418948555607"/><path class="link" d="M161.76732084369354,-291.44887204819406C202.2091510546169,-364.3110900602426,28.129061190985436,-415.7160894500294,33.754873429182524,-498.85930734003534"/><path class="link" d="M161.76732084369354,-291.44887204819406C202.2091510546169,-364.3110900602426,56.129775927441926,-412.86869506593285,67.35573111293031,-495.4424340791195"/><path class="link" d="M161.76732084369354,-291.44887204819406C202.2091510546169,-364.3110900602426,83.87438337027503,-408.13747552187266,100.64926004433005,-489.76497062624725"/><path class="link" d="M161.76732084369354,-291.44887204819406C202.2091510546169,-364.3110900602426,111.23629123922973,-401.54401828747535,133.4835494870757,-481.85282194497046"/><path class="link" d="M161.76732084369354,-291.44887204819406C202.2091510546169,-364.3110900602426,138.09065342443148,-393.1184077958251,165.7087841093178,-471.7420893549901"/><path class="link" d="M161.76732084369354,-291.44887204819406C202.2091510546169,-364.3110900602426,164.3149396305493,-382.8990881750961,197.1779275566592,-459.47890581011535"/><path class="link" d="M161.76732084369354,-291.44887204819406C202.2091510546169,-364.3110900602426,189.7894944544307,-370.9326878368132,227.74739334531685,-445.1192254041759"/><path class="link" d="M161.76732084369354,-291.44887204819406C202.2091510546169,-364.3110900602426,214.39808334526188,-357.2738067211046,257.2777000143143,-428.7285680653256"/><path class="link" d="M161.76732084369354,-291.44887204819406C202.2091510546169,-364.3110900602426,238.02842295616335,-341.98476716969844,285.63410754739607,-410.3817206036382"/><path class="link" d="M161.76732084369354,-291.44887204819406C202.2091510546169,-364.3110900602426,260.5726934673486,-325.13532956337156,312.6872321608183,-390.1623954760459"/><path class="link" d="M161.76732084369354,-291.44887204819406C202.2091510546169,-364.3110900602426,281.92803054323224,-306.8023740213322,338.3136366518787,-368.1628488255987"/><path class="link" d="M161.76732084369354,-291.44887204819406C202.2091510546169,-364.3110900602426,301.9969946788,-287.06954961486935,362.39639361456,-344.48345953784326"/><path class="link" d="M161.76732084369354,-291.44887204819406C202.2091510546169,-364.3110900602426,320.6880157937217,-266.02689269582646,384.8256189524661,-319.2322712349918"/><path class="link" d="M161.76732084369354,-291.44887204819406C202.2091510546169,-364.3110900602426,337.91581104562533,-243.77041608137833,405.4989732547504,-292.524499297654"/><path class="link" d="M332.1453660434776,-28.117022014348382C415.18170755434704,-35.14627751793548,367.67433307425785,-196.02728358448155,441.2091996891095,-235.2327403013779"/><path class="link" d="M332.1453660434776,-28.117022014348382C415.18170755434704,-35.14627751793548,380.0692785403889,-170.7584686652448,456.0831342484667,-204.9101623982938"/><path class="link" d="M332.1453660434776,-28.117022014348382C415.18170755434704,-35.14627751793548,390.73005506128345,-144.71052201867528,468.87606607354013,-173.65262642241032"/><path class="link" d="M332.1453660434776,-28.117022014348382C415.18170755434704,-35.14627751793548,399.6080199588341,-118.0022944509601,479.529623950601,-141.60275334115212"/><path class="link" d="M332.1453660434776,-28.117022014348382C415.18170755434704,-35.14627751793548,406.6626651154647,-90.75564947868817,487.9951981385576,-108.90677937442582"/><path class="link" d="M332.1453660434776,-28.117022014348382C415.18170755434704,-35.14627751793548,411.8618018033797,-63.09490729357378,494.2341621640557,-75.71388875228854"/><path class="link" d="M332.1453660434776,-28.117022014348382C415.18170755434704,-35.14627751793548,415.18170755434704,-35.14627751793548,498.2180490652165,-42.175533021522575"/><path class="link" d="M332.1453660434776,-28.117022014348382C415.18170755434704,-35.14627751793548,416.6072343998791,-7.037283339138202,499.9286812798549,-8.444740006965844"/><path class="link" d="M332.1453660434776,-28.117022014348382C415.18170755434704,-35.14627751793548,416.13187798793865,21.10382034946344,499.3582535855264,25.324584419356132"/><path class="link" d="M332.1453660434776,-28.117022014348382C415.18170755434704,-35.14627751793548,413.7578072608057,49.1486321461857,496.5093687129669,58.978358575422845"/><path class="link" d="M332.1453660434776,-28.117022014348382C415.18170755434704,-35.14627751793548,409.4958545586908,76.96919000716214,491.395025470429,92.36302800859457"/><path class="link" d="M332.1453660434776,-28.117022014348382C415.18170755434704,-35.14627751793548,403.3654661942517,104.43855510780018,484.03855943310214,125.32626612936023"/><path class="link" d="M332.1453660434776,-28.117022014348382C415.18170755434704,-35.14627751793548,395.3946137235288,131.43139103552295,474.4735364682346,157.71766924262755"/><path class="link" d="M294.1394664594063,156.82182686758517C367.6743330742579,196.02728358448147,374.0852248211424,183.49756314901418,448.9022697853709,220.19707577881704"/><path class="link" d="M294.1394664594063,156.82182686758517C367.6743330742579,196.02728358448147,360.8439182435161,208.33333333333326,433.01270189221935,249.99999999999991"/><path class="link" d="M217.1241609074075,252.9193742309302C271.40520113425936,316.1492177886627,329.4898903907078,255.04415939485938,395.3878684688494,306.0529912738313"/><path class="link" d="M217.1241609074075,252.9193742309302C271.40520113425936,316.1492177886627,311.5202303532538,276.7060844863495,373.82427642390456,332.0473013836194"/><path class="link" d="M217.1241609074075,252.9193742309302C271.40520113425936,316.1492177886627,292.12917495502205,297.105463179675,350.55500994602653,356.52655581561"/><path class="link" d="M217.1241609074075,252.9193742309302C271.40520113425936,316.1492177886627,271.40520113425936,316.1492177886627,325.68624136111123,379.3790613463953"/><path class="link" d="M217.1241609074075,252.9193742309302C271.40520113425936,316.1492177886627,249.44286763025633,333.75045602891015,299.3314411563076,400.5005472346922"/><path class="link" d="M217.1241609074075,252.9193742309302C271.40520113425936,316.1492177886627,226.342383533508,349.8288674873494,271.61086024020966,419.7946409848193"/><path class="link" d="M217.1241609074075,252.9193742309302C271.40520113425936,316.1492177886627,202.20915105461725,364.3110900602424,242.6509812655407,437.1733080722909"/><path class="link" d="M78.08882022402761,324.0574752526635C97.61102528003453,405.07184406582934,151.28910833603126,388.23023685694506,181.54693000323755,465.8762842283341"/><path class="link" d="M78.08882022402761,324.0574752526635C97.61102528003453,405.07184406582934,124.73463457223265,397.5580235000203,149.6815614866792,477.06962820002434"/><path class="link" d="M78.08882022402761,324.0574752526635C97.61102528003453,405.07184406582934,97.61102528003453,405.07184406582934,117.13323033604144,486.08621287899524"/><path class="link" d="M78.08882022402761,324.0574752526635C97.61102528003453,405.07184406582934,70.04203926756199,410.7374147145015,84.0504471210744,492.88489765740184"/><path class="link" d="M78.08882022402761,324.0574752526635C97.61102528003453,405.07184406582934,42.15346749476379,414.5288847466229,50.58416099371655,497.4346616959475"/><path class="link" d="M-44.90382074195343,330.2949560527463C-56.12977592744179,412.86869506593285,-14.072559118111457,416.4289545540492,-16.88707094173375,499.71474546485905"/><path class="link" d="M-44.90382074195343,330.2949560527463C-56.12977592744179,412.86869506593285,-42.15346749476319,414.52888474662296,-50.584160993715834,497.43466169594757"/><path class="link" d="M-44.90382074195343,330.2949560527463C-56.12977592744179,412.86869506593285,-70.04203926756158,410.73741471450154,-84.0504471210739,492.8848976574019"/><path class="link" d="M-44.90382074195343,330.2949560527463C-56.12977592744179,412.86869506593285,-97.61102528003394,405.07184406582945,-117.13323033604074,486.0862128789954"/><path class="link" d="M-141.72262767854667,301.7048357501071C-177.15328459818335,377.1310446876339,-151.2891083360309,388.2302368569452,-181.54693000323707,465.8762842283343"/><path class="link" d="M-141.72262767854667,301.7048357501071C-177.15328459818335,377.1310446876339,-177.15328459818335,377.1310446876339,-212.58394151782002,452.55725362516074"/><path class="link" d="M-141.72262767854667,301.7048357501071C-177.15328459818335,377.1310446876339,-202.20915105461702,364.3110900602426,-242.65098126554045,437.1733080722911"/><path class="link" d="M-249.21618428260297,221.36486758907964C-311.5202303532537,276.70608448634954,-249.44286763025627,333.7504560289102,-299.33144115630756,400.5005472346923"/><path class="link" d="M-249.21618428260297,221.36486758907964C-311.5202303532537,276.70608448634954,-271.40520113425913,316.1492177886629,-325.686241361111,379.37906134639553"/><path class="link" d="M-249.21618428260297,221.36486758907964C-311.5202303532537,276.70608448634954,-292.129174955022,297.105463179675,-350.5550099460265,356.52655581561004"/><path class="link" d="M-249.21618428260297,221.36486758907964C-311.5202303532537,276.70608448634954,-311.5202303532537,276.70608448634954,-373.82427642390445,332.04730138361947"/><path class="link" d="M-249.21618428260297,221.36486758907964C-311.5202303532537,276.70608448634954,-329.4898903907077,255.04415939485943,-395.3878684688493,306.05299127383137"/><path class="link" d="M-249.21618428260297,221.36486758907964C-311.5202303532537,276.70608448634954,-345.956163630157,232.2185263010149,-415.14739635618844,278.6622315612179"/><path class="link" d="M-249.21618428260297,221.36486758907964C-311.5202303532537,276.70608448634954,-360.8439182435162,208.33333333333312,-433.01270189221947,249.99999999999977"/><path class="link" d="M-327.59668364695267,-61.57535200572946C-409.49585455869084,-76.96919000716183,-385.6196663181499,157.82453567107305,-462.7435995817799,189.38944280528767"/><path class="link" d="M-327.59668364695267,-61.57535200572946C-409.49585455869084,-76.96919000716183,-395.3946137235288,131.43139103552292,-474.4735364682346,157.7176692426275"/><path class="link" d="M-327.59668364695267,-61.57535200572946C-409.49585455869084,-76.96919000716183,-403.3654661942517,104.43855510780014,-484.03855943310214,125.32626612936018"/><path class="link" d="M-327.59668364695267,-61.57535200572946C-409.49585455869084,-76.96919000716183,-409.49585455869084,76.96919000716191,-491.39502547042906,92.36302800859431"/><path class="link" d="M-327.59668364695267,-61.57535200572946C-409.49585455869084,-76.96919000716183,-413.7578072608057,49.14863214618566,-496.5093687129669,58.9783585754228"/><path class="link" d="M-327.59668364695267,-61.57535200572946C-409.49585455869084,-76.96919000716183,-416.1318779879386,21.103820349463586,-499.35825358552637,25.324584419356302"/><path class="link" d="M-327.59668364695267,-61.57535200572946C-409.49585455869084,-76.96919000716183,-416.6072343998791,-7.037283339138244,-499.9286812798549,-8.444740006965894"/><path class="link" d="M-327.59668364695267,-61.57535200572946C-409.49585455869084,-76.96919000716183,-415.18170755434704,-35.146277517935516,-498.2180490652165,-42.175533021522625"/><path class="link" d="M-327.59668364695267,-61.57535200572946C-409.49585455869084,-76.96919000716183,-411.8618018033797,-63.09490729357364,-494.2341621640557,-75.71388875228838"/><path class="link" d="M-327.59668364695267,-61.57535200572946C-409.49585455869084,-76.96919000716183,-406.6626651154646,-90.75564947868841,-487.99519813855756,-108.9067793744261"/><path class="link" d="M-327.59668364695267,-61.57535200572946C-409.49585455869084,-76.96919000716183,-399.6080199588341,-118.00229445096015,-479.529623950601,-141.60275334115218"/><path class="link" d="M-327.59668364695267,-61.57535200572946C-409.49585455869084,-76.96919000716183,-390.73005506128345,-144.71052201867514,-468.8760660735402,-173.65262642241018"/><path class="link" d="M-327.59668364695267,-61.57535200572946C-409.49585455869084,-76.96919000716183,-380.0692785403888,-170.75846866524503,-456.0831342484666,-204.91016239829403"/><path class="link" d="M-327.59668364695267,-61.57535200572946C-409.49585455869084,-76.96919000716183,-367.67433307425785,-196.0272835844816,-441.2091996891095,-235.23274030137796"/><path class="link" d="M-327.59668364695267,-61.57535200572946C-409.49585455869084,-76.96919000716183,-353.6017739561462,-220.40167096956768,-424.3221287473755,-264.48200516348123"/><path class="link" d="M-327.59668364695267,-61.57535200572946C-409.49585455869084,-76.96919000716183,-337.91581104562556,-243.77041608137804,-405.4989732547507,-292.5244992976537"/><path class="link" d="M-327.59668364695267,-61.57535200572946C-409.49585455869084,-76.96919000716183,-320.6880157937219,-266.02689269582623,-384.8256189524663,-319.2322712349915"/><path class="link" d="M-327.59668364695267,-61.57535200572946C-409.49585455869084,-76.96919000716183,-301.9969946788,-287.06954961486935,-362.39639361456,-344.48345953784326"/><path class="link" d="M-121.03128666882493,-310.58418948555607C-151.28910833603115,-388.2302368569451,-260.5726934673486,-325.13532956337156,-312.6872321608183,-390.1623954760459"/><path class="link" d="M-121.03128666882493,-310.58418948555607C-151.28910833603115,-388.2302368569451,-238.0284229561635,-341.98476716969844,-285.6341075473962,-410.38172060363814"/><path class="link" d="M-121.03128666882493,-310.58418948555607C-151.28910833603115,-388.2302368569451,-214.39808334526182,-357.2738067211047,-257.27770001431423,-428.72856806532565"/><path class="link" d="M-121.03128666882493,-310.58418948555607C-151.28910833603115,-388.2302368569451,-189.78949445443075,-370.93268783681316,-227.7473933453169,-445.11922540417584"/><path class="link" d="M-121.03128666882493,-310.58418948555607C-151.28910833603115,-388.2302368569451,-164.31493963054942,-382.89908817509604,-197.17792755665934,-459.4789058101153"/><path class="link" d="M-121.03128666882493,-310.58418948555607C-151.28910833603115,-388.2302368569451,-138.09065342443137,-393.11840779582514,-165.70878410931766,-471.7420893549902"/><path class="link" d="M-121.03128666882493,-310.58418948555607C-151.28910833603115,-388.2302368569451,-111.23629123922979,-401.54401828747535,-133.48354948707575,-481.85282194497046"/><path class="link" d="M-121.03128666882493,-310.58418948555607C-151.28910833603115,-388.2302368569451,-83.87438337027508,-408.13747552187266,-100.64926004433012,-489.76497062624725"/><path class="link" d="M-121.03128666882493,-310.58418948555607C-151.28910833603115,-388.2302368569451,-56.12977592744189,-412.86869506593285,-67.35573111293027,-495.4424340791195"/><path class="link" d="M-121.03128666882493,-310.58418948555607C-151.28910833603115,-388.2302368569451,-28.12906119098549,-415.7160894500294,-33.75487342918259,-498.85930734003534"/><g class="node node--internal" transform="translate(0,0)"><circle r="3"/><text dy="0.31em" x="10" text-anchor="start" transform="rotate(290.3225806451613)">Fog Computing Research</text></g><g class="node node--internal" transform="translate(148.37307513472527,75.91579778177228)"><circle r="3"/><text dy="0.31em" x="-10" text-anchor="end" transform="rotate(27.096774193548363)">Conferences</text></g><g class="node node--internal" transform="translate(-162.02873762633178,-39.04441011201364)"><circle r="3"/><text dy="0.31em" x="10" text-anchor="start" transform="rotate(373.54838709677415)">Journals/Mag</text></g><g class="node node--internal" transform="translate(161.76732084369354,-291.44887204819406)"><circle r="3"/><text dy="0.31em" x="-10" text-anchor="end" transform="rotate(-60.9677419354839)">General</text></g><g class="node node--internal" transform="translate(332.1453660434776,-28.117022014348382)"><circle r="3"/><text dy="0.31em" x="-10" text-anchor="end" transform="rotate(-4.838709677419371)">Fog/Edge Computing</text></g><g class="node node--internal" transform="translate(294.1394664594063,156.82182686758517)"><circle r="3"/><text dy="0.31em" x="-10" text-anchor="end" transform="rotate(28.06451612903226)">Internet of Things</text></g><g class="node node--internal" transform="translate(217.1241609074075,252.9193742309302)"><circle r="3"/><text dy="0.31em" x="-10" text-anchor="end" transform="rotate(49.3548387096774)">Cloud Computing</text></g><g class="node node--internal" transform="translate(78.08882022402761,324.0574752526635)"><circle r="3"/><text dy="0.31em" x="-10" text-anchor="end" transform="rotate(76.45161290322577)">Mobile Computing</text></g><g class="node node--internal" transform="translate(-44.90382074195343,330.2949560527463)"><circle r="3"/><text dy="0.31em" x="10" text-anchor="start" transform="rotate(277.7419354838709)">Distributed Computing</text></g><g class="node node--internal" transform="translate(-141.72262767854667,301.7048357501071)"><circle r="3"/><text dy="0.31em" x="10" text-anchor="start" transform="rotate(295.1612903225806)">Systems</text></g><g class="node node--internal" transform="translate(-249.21618428260297,221.36486758907964)"><circle r="3"/><text dy="0.31em" x="10" text-anchor="start" transform="rotate(318.38709677419354)">Magazine</text></g><g class="node node--internal" transform="translate(-327.59668364695267,-61.57535200572946)"><circle r="3"/><text dy="0.31em" x="10" text-anchor="start" transform="rotate(370.6451612903225)">Journal (ACM &amp; IEEE)</text></g><g class="node node--internal" transform="translate(-121.03128666882493,-310.58418948555607)"><circle r="3"/><text dy="0.31em" x="10" text-anchor="start" transform="rotate(428.7096774193548)">Journal (Elsevier &amp; Springer)</text></g><g class="node node--leaf" transform="translate(33.754873429182524,-498.85930734003534)"><circle r="3"/><text dy="0.31em" x="10" text-anchor="start" transform="rotate(-86.12903225806453)">ACM SIGCOMM</text></g><g class="node node--leaf" transform="translate(67.35573111293031,-495.4424340791195)"><circle r="3"/><text dy="0.31em" x="10" text-anchor="start" transform="rotate(-82.25806451612905)">USENIX NSDI</text></g><g class="node node--leaf" transform="translate(100.64926004433005,-489.76497062624725)"><circle r="3"/><text dy="0.31em" x="10" text-anchor="start" transform="rotate(-78.38709677419355)">ACM CoNEXT</text></g><g class="node node--leaf" transform="translate(133.4835494870757,-481.85282194497046)"><circle r="3"/><text dy="0.31em" x="10" text-anchor="start" transform="rotate(-74.51612903225808)">IEEE INFOCOM</text></g><g class="node node--leaf" transform="translate(165.7087841093178,-471.7420893549901)"><circle r="3"/><text dy="0.31em" x="10" text-anchor="start" transform="rotate(-70.64516129032259)">ACM SIGMETRICS</text></g><g class="node node--leaf" transform="translate(197.1779275566592,-459.47890581011535)"><circle r="3"/><text dy="0.31em" x="10" text-anchor="start" transform="rotate(-66.77419354838712)">ACM HotNets</text></g><g class="node node--leaf" transform="translate(227.74739334531685,-445.1192254041759)"><circle r="3"/><text dy="0.31em" x="10" text-anchor="start" transform="rotate(-62.90322580645164)">USENIX ATC</text></g><g class="node node--leaf" transform="translate(257.2777000143143,-428.7285680653256)"><circle r="3"/><text dy="0.31em" x="10" text-anchor="start" transform="rotate(-59.03225806451616)">ACM IMC</text></g><g class="node node--leaf" transform="translate(285.63410754739607,-410.3817206036382)"><circle r="3"/><text dy="0.31em" x="10" text-anchor="start" transform="rotate(-55.16129032258066)">ACM/IEEE ANCS</text></g><g class="node node--leaf" transform="translate(312.6872321608183,-390.1623954760459)"><circle r="3"/><text dy="0.31em" x="10" text-anchor="start" transform="rotate(-51.290322580645174)">IEEE ICC</text></g><g class="node node--leaf" transform="translate(338.3136366518787,-368.1628488255987)"><circle r="3"/><text dy="0.31em" x="10" text-anchor="start" transform="rotate(-47.41935483870968)">IEEE GLOBECOM</text></g><g class="node node--leaf" transform="translate(362.39639361456,-344.48345953784326)"><circle r="3"/><text dy="0.31em" x="10" text-anchor="start" transform="rotate(-43.5483870967742)">ACM/IRTF ANRW </text></g><g class="node node--leaf" transform="translate(384.8256189524661,-319.2322712349918)"><circle r="3"/><text dy="0.31em" x="10" text-anchor="start" transform="rotate(-39.677419354838726)">IEEE ICNP</text></g><g class="node node--leaf" transform="translate(405.4989732547504,-292.524499297654)"><circle r="3"/><text dy="0.31em" x="10" text-anchor="start" transform="rotate(-35.80645161290325)">IEEE/OSA OFC</text></g><g class="node node--leaf" transform="translate(441.2091996891095,-235.2327403013779)"><circle r="3"/><text dy="0.31em" x="10" text-anchor="start" transform="rotate(-28.06451612903227)">IEEE/ACM SEC</text></g><g class="node node--leaf" transform="translate(456.0831342484667,-204.9101623982938)"><circle r="3"/><text dy="0.31em" x="10" text-anchor="start" transform="rotate(-24.19354838709678)">USENIX HotEdge</text></g><g class="node node--leaf" transform="translate(468.87606607354013,-173.65262642241032)"><circle r="3"/><text dy="0.31em" x="10" text-anchor="start" transform="rotate(-20.322580645161313)">IEEE EDGE</text></g><g class="node node--leaf" transform="translate(479.529623950601,-141.60275334115212)"><circle r="3"/><text dy="0.31em" x="10" text-anchor="start" transform="rotate(-16.45161290322582)">IEEE FMEC</text></g><g class="node node--leaf" transform="translate(487.9951981385576,-108.90677937442582)"><circle r="3"/><text dy="0.31em" x="10" text-anchor="start" transform="rotate(-12.58064516129033)">ACM MECOMM</text></g><g class="node node--leaf" transform="translate(494.2341621640557,-75.71388875228854)"><circle r="3"/><text dy="0.31em" x="10" text-anchor="start" transform="rotate(-8.709677419354863)">ACM EdgeSys</text></g><g class="node node--leaf" transform="translate(498.2180490652165,-42.175533021522575)"><circle r="3"/><text dy="0.31em" x="10" text-anchor="start" transform="rotate(-4.838709677419371)">Fog World Congress</text></g><g class="node node--leaf" transform="translate(499.9286812798549,-8.444740006965844)"><circle r="3"/><text dy="0.31em" x="10" text-anchor="start" transform="rotate(-0.9677419354839047)">IEEE ICFEC</text></g><g class="node node--leaf" transform="translate(499.3582535855264,25.324584419356132)"><circle r="3"/><text dy="0.31em" x="10" text-anchor="start" transform="rotate(2.9032258064515872)">IEEE ICFC</text></g><g class="node node--leaf" transform="translate(496.5093687129669,58.978358575422845)"><circle r="3"/><text dy="0.31em" x="10" text-anchor="start" transform="rotate(6.774193548387078)">IEEE SmartEdge</text></g><g class="node node--leaf" transform="translate(491.395025470429,92.36302800859457)"><circle r="3"/><text dy="0.31em" x="10" text-anchor="start" transform="rotate(10.645161290322571)">ACM/IFIP/USENIX MECC</text></g><g class="node node--leaf" transform="translate(484.03855943310214,125.32626612936023)"><circle r="3"/><text dy="0.31em" x="10" text-anchor="start" transform="rotate(14.516129032258062)">ACM TOPIC</text></g><g class="node node--leaf" transform="translate(474.4735364682346,157.71766924262755)"><circle r="3"/><text dy="0.31em" x="10" text-anchor="start" transform="rotate(18.38709677419353)">ACM CitiFog</text></g><g class="node node--leaf" transform="translate(448.9022697853709,220.19707577881704)"><circle r="3"/><text dy="0.31em" x="10" text-anchor="start" transform="rotate(26.1290322580645)">ACM/IEEE IoTDI</text></g><g class="node node--leaf" transform="translate(433.01270189221935,249.99999999999991)"><circle r="3"/><text dy="0.31em" x="10" text-anchor="start" transform="rotate(29.999999999999993)">IEEE WF-IoT</text></g><g class="node node--leaf" transform="translate(395.3878684688494,306.0529912738313)"><circle r="3"/><text dy="0.31em" x="10" text-anchor="start" transform="rotate(37.74193548387095)">ACM SOCC</text></g><g class="node node--leaf" transform="translate(373.82427642390456,332.0473013836194)"><circle r="3"/><text dy="0.31em" x="10" text-anchor="start" transform="rotate(41.61290322580644)">USENIX HotCloud</text></g><g class="node node--leaf" transform="translate(350.55500994602653,356.52655581561)"><circle r="3"/><text dy="0.31em" x="10" text-anchor="start" transform="rotate(45.48387096774191)">IEEE/ACM UCC</text></g><g class="node node--leaf" transform="translate(325.68624136111123,379.3790613463953)"><circle r="3"/><text dy="0.31em" x="10" text-anchor="start" transform="rotate(49.3548387096774)">IEEE IC2E</text></g><g class="node node--leaf" transform="translate(299.3314411563076,400.5005472346922)"><circle r="3"/><text dy="0.31em" x="10" text-anchor="start" transform="rotate(53.2258064516129)">IEEE Cloud</text></g><g class="node node--leaf" transform="translate(271.61086024020966,419.7946409848193)"><circle r="3"/><text dy="0.31em" x="10" text-anchor="start" transform="rotate(57.09677419354836)">IEEE CloudCom</text></g><g class="node node--leaf" transform="translate(242.6509812655407,437.1733080722909)"><circle r="3"/><text dy="0.31em" x="10" text-anchor="start" transform="rotate(60.96774193548384)">IEEE FiCloud</text></g><g class="node node--leaf" transform="translate(181.54693000323755,465.8762842283341)"><circle r="3"/><text dy="0.31em" x="10" text-anchor="start" transform="rotate(68.7096774193548)">ACM MobiHoc</text></g><g class="node node--leaf" transform="translate(149.6815614866792,477.06962820002434)"><circle r="3"/><text dy="0.31em" x="10" text-anchor="start" transform="rotate(72.5806451612903)">ACM MobiCom</text></g><g class="node node--leaf" transform="translate(117.13323033604144,486.08621287899524)"><circle r="3"/><text dy="0.31em" x="10" text-anchor="start" transform="rotate(76.45161290322577)">ACM MobiSys</text></g><g class="node node--leaf" transform="translate(84.0504471210744,492.88489765740184)"><circle r="3"/><text dy="0.31em" x="10" text-anchor="start" transform="rotate(80.32258064516125)">ACM HotMobile</text></g><g class="node node--leaf" transform="translate(50.58416099371655,497.4346616959475)"><circle r="3"/><text dy="0.31em" x="10" text-anchor="start" transform="rotate(84.19354838709671)">ACM MobiArch</text></g><g class="node node--leaf" transform="translate(-16.88707094173375,499.71474546485905)"><circle r="3"/><text dy="0.31em" x="-10" text-anchor="end" transform="rotate(271.93548387096774)">ACM PODC</text></g><g class="node node--leaf" transform="translate(-50.584160993715834,497.43466169594757)"><circle r="3"/><text dy="0.31em" x="-10" text-anchor="end" transform="rotate(275.8064516129032)">IEEE ICDCS</text></g><g class="node node--leaf" transform="translate(-84.0504471210739,492.8848976574019)"><circle r="3"/><text dy="0.31em" x="-10" text-anchor="end" transform="rotate(279.67741935483866)">IEEE PerCom</text></g><g class="node node--leaf" transform="translate(-117.13323033604074,486.0862128789954)"><circle r="3"/><text dy="0.31em" x="-10" text-anchor="end" transform="rotate(283.5483870967741)">ACM DEBS</text></g><g class="node node--leaf" transform="translate(-181.54693000323707,465.8762842283343)"><circle r="3"/><text dy="0.31em" x="-10" text-anchor="end" transform="rotate(291.2903225806452)">ACM SOSP</text></g><g class="node node--leaf" transform="translate(-212.58394151782002,452.55725362516074)"><circle r="3"/><text dy="0.31em" x="-10" text-anchor="end" transform="rotate(295.1612903225806)">ACM SenSys</text></g><g class="node node--leaf" transform="translate(-242.65098126554045,437.1733080722911)"><circle r="3"/><text dy="0.31em" x="-10" text-anchor="end" transform="rotate(299.0322580645161)">ACM EuroSys</text></g><g class="node node--leaf" transform="translate(-299.33144115630756,400.5005472346923)"><circle r="3"/><text dy="0.31em" x="-10" text-anchor="end" transform="rotate(306.77419354838713)">IEEE Computer</text></g><g class="node node--leaf" transform="translate(-325.686241361111,379.37906134639553)"><circle r="3"/><text dy="0.31em" x="-10" text-anchor="end" transform="rotate(310.64516129032256)">IEEE Pervasive Computing</text></g><g class="node node--leaf" transform="translate(-350.5550099460265,356.52655581561004)"><circle r="3"/><text dy="0.31em" x="-10" text-anchor="end" transform="rotate(314.51612903225805)">IEEE Internet Computing</text></g><g class="node node--leaf" transform="translate(-373.82427642390445,332.04730138361947)"><circle r="3"/><text dy="0.31em" x="-10" text-anchor="end" transform="rotate(318.38709677419354)">IEEE Cloud Computing</text></g><g class="node node--leaf" transform="translate(-395.3878684688493,306.05299127383137)"><circle r="3"/><text dy="0.31em" x="-10" text-anchor="end" transform="rotate(322.258064516129)">IEEE Wireless Communications</text></g><g class="node node--leaf" transform="translate(-415.14739635618844,278.6622315612179)"><circle r="3"/><text dy="0.31em" x="-10" text-anchor="end" transform="rotate(326.12903225806457)">IEEE Network</text></g><g class="node node--leaf" transform="translate(-433.01270189221947,249.99999999999977)"><circle r="3"/><text dy="0.31em" x="-10" text-anchor="end" transform="rotate(330.00000000000006)">IEEE Communication</text></g><g class="node node--leaf" transform="translate(-462.7435995817799,189.38944280528767)"><circle r="3"/><text dy="0.31em" x="-10" text-anchor="end" transform="rotate(337.741935483871)">IEEE ACCESS</text></g><g class="node node--leaf" transform="translate(-474.4735364682346,157.7176692426275)"><circle r="3"/><text dy="0.31em" x="-10" text-anchor="end" transform="rotate(341.61290322580646)">IEEE TWC</text></g><g class="node node--leaf" transform="translate(-484.03855943310214,125.32626612936018)"><circle r="3"/><text dy="0.31em" x="-10" text-anchor="end" transform="rotate(345.48387096774195)">IEEE TMC</text></g><g class="node node--leaf" transform="translate(-491.39502547042906,92.36302800859431)"><circle r="3"/><text dy="0.31em" x="-10" text-anchor="end" transform="rotate(349.3548387096775)">ACM POMACS</text></g><g class="node node--leaf" transform="translate(-496.5093687129669,58.9783585754228)"><circle r="3"/><text dy="0.31em" x="-10" text-anchor="end" transform="rotate(353.225806451613)">ACM TOMPECS</text></g><g class="node node--leaf" transform="translate(-499.35825358552637,25.324584419356302)"><circle r="3"/><text dy="0.31em" x="-10" text-anchor="end" transform="rotate(357.09677419354836)">IEEE TETC</text></g><g class="node node--leaf" transform="translate(-499.9286812798549,-8.444740006965894)"><circle r="3"/><text dy="0.31em" x="-10" text-anchor="end" transform="rotate(360.9677419354839)">IEEE TSC</text></g><g class="node node--leaf" transform="translate(-498.2180490652165,-42.175533021522625)"><circle r="3"/><text dy="0.31em" x="-10" text-anchor="end" transform="rotate(364.8387096774194)">ACM TOCS</text></g><g class="node node--leaf" transform="translate(-494.2341621640557,-75.71388875228838)"><circle r="3"/><text dy="0.31em" x="-10" text-anchor="end" transform="rotate(368.7096774193549)">ACM TIOT</text></g><g class="node node--leaf" transform="translate(-487.99519813855756,-108.9067793744261)"><circle r="3"/><text dy="0.31em" x="-10" text-anchor="end" transform="rotate(372.58064516129036)">ACM TOIT</text></g><g class="node node--leaf" transform="translate(-479.529623950601,-141.60275334115218)"><circle r="3"/><text dy="0.31em" x="-10" text-anchor="end" transform="rotate(376.4516129032258)">IEEE TNSM</text></g><g class="node node--leaf" transform="translate(-468.8760660735402,-173.65262642241018)"><circle r="3"/><text dy="0.31em" x="-10" text-anchor="end" transform="rotate(380.3225806451613)">ACM CCR</text></g><g class="node node--leaf" transform="translate(-456.0831342484666,-204.91016239829403)"><circle r="3"/><text dy="0.31em" x="-10" text-anchor="end" transform="rotate(384.1935483870968)">IEEE TCC</text></g><g class="node node--leaf" transform="translate(-441.2091996891095,-235.23274030137796)"><circle r="3"/><text dy="0.31em" x="-10" text-anchor="end" transform="rotate(388.0645161290323)">IEEE JSAC</text></g><g class="node node--leaf" transform="translate(-424.3221287473755,-264.48200516348123)"><circle r="3"/><text dy="0.31em" x="-10" text-anchor="end" transform="rotate(391.93548387096774)">IEEE/ACM TON</text></g><g class="node node--leaf" transform="translate(-405.4989732547507,-292.5244992976537)"><circle r="3"/><text dy="0.31em" x="-10" text-anchor="end" transform="rotate(395.8064516129032)">IEEE IoTJ</text></g><g class="node node--leaf" transform="translate(-384.8256189524663,-319.2322712349915)"><circle r="3"/><text dy="0.31em" x="-10" text-anchor="end" transform="rotate(399.67741935483866)">IEEE Comm Sur Tut</text></g><g class="node node--leaf" transform="translate(-362.39639361456,-344.48345953784326)"><circle r="3"/><text dy="0.31em" x="-10" text-anchor="end" transform="rotate(403.5483870967742)">ACM CSUR</text></g><g class="node node--leaf" transform="translate(-312.6872321608183,-390.1623954760459)"><circle r="3"/><text dy="0.31em" x="-10" text-anchor="end" transform="rotate(411.2903225806452)">Elsevier Dig ComNet</text></g><g class="node node--leaf" transform="translate(-285.6341075473962,-410.38172060363814)"><circle r="3"/><text dy="0.31em" x="-10" text-anchor="end" transform="rotate(415.16129032258067)">Elsevier Adhoc Net</text></g><g class="node node--leaf" transform="translate(-257.27770001431423,-428.72856806532565)"><circle r="3"/><text dy="0.31em" x="-10" text-anchor="end" transform="rotate(419.0322580645162)">Elsevier PerMob Comp</text></g><g class="node node--leaf" transform="translate(-227.7473933453169,-445.11922540417584)"><circle r="3"/><text dy="0.31em" x="-10" text-anchor="end" transform="rotate(422.90322580645164)">Springer CCF TON</text></g><g class="node node--leaf" transform="translate(-197.17792755665934,-459.4789058101153)"><circle r="3"/><text dy="0.31em" x="-10" text-anchor="end" transform="rotate(426.7741935483871)">Springer JCIN</text></g><g class="node node--leaf" transform="translate(-165.70878410931766,-471.7420893549902)"><circle r="3"/><text dy="0.31em" x="-10" text-anchor="end" transform="rotate(430.6451612903226)">Elsevier Comp Net</text></g><g class="node node--leaf" transform="translate(-133.48354948707575,-481.85282194497046)"><circle r="3"/><text dy="0.31em" x="-10" text-anchor="end" transform="rotate(434.5161290322581)">Springer JISA</text></g><g class="node node--leaf" transform="translate(-100.64926004433012,-489.76497062624725)"><circle r="3"/><text dy="0.31em" x="-10" text-anchor="end" transform="rotate(438.3870967741936)">Elsevier Comp Comm</text></g><g class="node node--leaf" transform="translate(-67.35573111293027,-495.4424340791195)"><circle r="3"/><text dy="0.31em" x="-10" text-anchor="end" transform="rotate(442.258064516129)">Elsevier JNCA</text></g><g class="node node--leaf" transform="translate(-33.75487342918259,-498.85930734003534)"><circle r="3"/><text dy="0.31em" x="-10" text-anchor="end" transform="rotate(446.1290322580645)">Elsevier FGCS</text></g></g></svg>