<?xml version="1.0" standalone="no"?><!DOCTYPE svg PUBLIC "-//W3C//DTD SVG 1.1//EN" "http://www.w3.org/Graphics/SVG/1.1/DTD/svg11.dtd"><svg height="1330" width="1300" version="1.1" xmlns="http://www.w3.org/2000/svg" xmlns:xlink="http://www.w3.org/1999/xlink"><defs xmlns="http://www.w3.org/1999/xhtml"><style type="text/css"><![CDATA[
.node circle { fill: rgb(153, 153, 153); }
.node text { font: 10px sans-serif; }
.node--internal circle { fill: rgb(85, 85, 85); }
.node--internal text { text-shadow: 0px 1px 0px rgb(255, 255, 255), 0px -1px 0px rgb(255, 255, 255), 1px 0px 0px rgb(255, 255, 255), -1px 0px 0px rgb(255, 255, 255); }
.link { fill: none; stroke: rgb(85, 85, 85); stroke-opacity: 0.4; stroke-width: 1.5px; }]]></style></defs><g transform="translate(690,755)"><path class="link" d="M0,0C-66.7936501476048,49.830239256939336,76.25068624783434,33.61959683248404,152.50137249566868,67.23919366496808"/><path class="link" d="M0,0C-66.7936501476048,49.830239256939336,-81.97873699433356,-14.964328426572644,-163.95747398866712,-29.928656853145288"/><path class="link" d="M0,0C-66.7936501476048,49.830239256939336,-10.50414260169072,-82.6686605228837,-21.00828520338144,-165.3373210457674"/><path class="link" d="M152.50137249566868,67.23919366496808C228.75205874350303,100.85879049745212,121.07078834690488,-218.72783135453741,161.42771779587315,-291.63710847271653"/><path class="link" d="M152.50137249566868,67.23919366496808C228.75205874350303,100.85879049745212,209.4214621574912,-136.53809427342424,279.2286162099882,-182.05079236456564"/><path class="link" d="M152.50137249566868,67.23919366496808C228.75205874350303,100.85879049745212,248.98198001637607,-22.53827027801628,331.97597335516804,-30.051027037355038"/><path class="link" d="M152.50137249566868,67.23919366496808C228.75205874350303,100.85879049745212,196.25935133566804,154.86209030393078,261.67913511422404,206.4827870719077"/><path class="link" d="M152.50137249566868,67.23919366496808C228.75205874350303,100.85879049745212,96.71242777020977,230.5356942314833,128.94990369361304,307.3809256419777"/><path class="link" d="M152.50137249566868,67.23919366496808C228.75205874350303,100.85879049745212,1.5308084989341916e-14,250,2.041077998578922e-14,333.3333333333333"/><path class="link" d="M152.50137249566868,67.23919366496808C228.75205874350303,100.85879049745212,-79.82538253399501,236.9132927957006,-106.43384337866001,315.8843903942675"/><path class="link" d="M-163.95747398866712,-29.928656853145288C-245.9362109830007,-44.892985279717934,-171.92486471335584,181.4988729807827,-229.23315295114114,241.99849730771024"/><path class="link" d="M-163.95747398866712,-29.928656853145288C-245.9362109830007,-44.892985279717934,-248.0059815686511,-31.51242780507231,-330.67464209153474,-42.01657040676308"/><path class="link" d="M-163.95747398866712,-29.928656853145288C-245.9362109830007,-44.892985279717934,-96.7124277702097,-230.53569423148332,-128.94990369361292,-307.38092564197774"/><path class="link" d="M-21.00828520338144,-165.3373210457674C-31.512427805072164,-248.00598156865112,-44.89298527971779,-245.93621098300073,-59.85731370629039,-327.9149479773343"/><path class="link" d="M-21.00828520338144,-165.3373210457674C-31.512427805072164,-248.00598156865112,-18.039438950153997,-249.34830787948744,-24.052585266871997,-332.46441050598327"/><path class="link" d="M161.42771779587315,-291.63710847271653C201.78464724484144,-364.5463855908956,30.065731583589944,-415.58051313247904,36.07887790030794,-498.6966157589749"/><path class="link" d="M161.42771779587315,-291.63710847271653C201.78464724484144,-364.5463855908956,59.9747143642161,-412.3277152315155,71.96965723705932,-494.79325827781867"/><path class="link" d="M161.42771779587315,-291.63710847271653C201.78464724484144,-364.5463855908956,89.57101675459342,-406.9252315458694,107.4852201055121,-488.31027785504335"/><path class="link" d="M161.42771779587315,-291.63710847271653C201.78464724484144,-364.5463855908956,118.70033733820824,-399.40122812393383,142.4404048058499,-479.28147374872066"/><path class="link" d="M161.42771779587315,-291.63710847271653C201.78464724484144,-364.5463855908956,147.21080932545914,-389.7949316356671,176.65297119055097,-467.7539179628006"/><path class="link" d="M161.42771779587315,-291.63710847271653C201.78464724484144,-364.5463855908956,174.95379231677697,-378.1564248628987,209.94455078013237,-453.78770983547844"/><path class="link" d="M161.42771779587315,-291.63710847271653C201.78464724484144,-364.5463855908956,201.78464724484144,-364.5463855908956,242.14157669380975,-437.45566270907483"/><path class="link" d="M161.42771779587315,-291.63710847271653C201.78464724484144,-364.5463855908956,227.56349045570698,-349.03577026248536,273.0761885468484,-418.8429243149825"/><path class="link" d="M161.42771779587315,-291.63710847271653C201.78464724484144,-364.5463855908956,252.15592299740212,-331.7054440440182,302.58710759688256,-398.0465328528219"/><path class="link" d="M161.42771779587315,-291.63710847271653C201.78464724484144,-364.5463855908956,275.43373131383345,-312.6457592318343,330.5204775766002,-375.17491107820115"/><path class="link" d="M161.42771779587315,-291.63710847271653C201.78464724484144,-364.5463855908956,297.27555569090003,-291.956084197226,356.73066682908006,-350.34730103667124"/><path class="link" d="M161.42771779587315,-291.63710847271653C201.78464724484144,-364.5463855908956,317.5675229698486,-269.74428532576144,381.08102756381834,-323.69314239091375"/><path class="link" d="M161.42771779587315,-291.63710847271653C201.78464724484144,-364.5463855908956,336.203840229196,-246.1261646518963,403.4446082750352,-295.3513975822756"/><path class="link" d="M331.97597335516804,-30.051027037355038C414.96996669396003,-37.5637837966938,368.1300185191762,-195.1701836249125,441.7560222230115,-234.20422034989505"/><path class="link" d="M331.97597335516804,-30.051027037355038C414.96996669396003,-37.5637837966938,381.25343123917173,-168.0979841624201,457.5041174870061,-201.71758099490413"/><path class="link" d="M331.97597335516804,-30.051027037355038C414.96996669396003,-37.5637837966938,392.3891651027117,-140.14939964590633,470.86699812325406,-168.1792795750876"/><path class="link" d="M331.97597335516804,-30.051027037355038C414.96996669396003,-37.5637837966938,401.47916354967623,-111.47014105384194,481.7749962596115,-133.76416926461036"/><path class="link" d="M331.97597335516804,-30.051027037355038C414.96996669396003,-37.5637837966938,408.4760355371584,-82.20972876099998,490.1712426445901,-98.65167451319999"/><path class="link" d="M331.97597335516804,-30.051027037355038C414.96996669396003,-37.5637837966938,413.34330261441846,-52.52071300845389,496.0119631373022,-63.02485561014468"/><path class="link" d="M331.97597335516804,-30.051027037355038C414.96996669396003,-37.5637837966938,416.05558910463486,-22.55787857725731,499.2667069255619,-27.069454292708773"/><path class="link" d="M331.97597335516804,-30.051027037355038C414.96996669396003,-37.5637837966938,416.59875440193383,7.522562187733582,499.9185052823206,9.0270746252803"/><path class="link" d="M331.97597335516804,-30.051027037355038C414.96996669396003,-37.5637837966938,414.96996669396003,37.5637837966938,497.96396003275214,45.07654055603256"/><path class="link" d="M331.97597335516804,-30.051027037355038C414.96996669396003,-37.5637837966938,411.17771772563583,67.40916523031865,493.4132612707631,80.89099827638239"/><path class="link" d="M331.97597335516804,-30.051027037355038C414.96996669396003,-37.5637837966938,405.2417785271346,96.9031064892961,486.29013423256157,116.28372778715533"/><path class="link" d="M331.97597335516804,-30.051027037355038C414.96996669396003,-37.5637837966938,397.1930963368844,125.89183982065526,476.6317156042614,151.07020778478633"/><path class="link" d="M261.67913511422404,206.4827870719077C327.09891889278003,258.10348383988463,374.93614748229436,181.75256923148646,449.9233769787533,218.1030830777838"/><path class="link" d="M261.67913511422404,206.4827870719077C327.09891889278003,258.10348383988463,360.843918243516,208.3333333333334,433.01270189221924,250.0000000000001"/><path class="link" d="M261.67913511422404,206.4827870719077C327.09891889278003,258.10348383988463,344.8704158987044,233.82794390099264,413.84449907844527,280.5935326811912"/><path class="link" d="M261.67913511422404,206.4827870719077C327.09891889278003,258.10348383988463,327.09891889278003,258.10348383988463,392.5187026713361,309.72418060786157"/><path class="link" d="M261.67913511422404,206.4827870719077C327.09891889278003,258.10348383988463,307.622079582291,281.03339172521424,369.14649549874923,337.24007007025716"/><path class="link" d="M261.67913511422404,206.4827870719077C327.09891889278003,258.10348383988463,286.54144118892634,302.4981216346378,343.84972942671163,362.99774596156544"/><path class="link" d="M261.67913511422404,206.4827870719077C327.09891889278003,258.10348383988463,263.9669084001765,322.3857664053485,316.76029008021186,386.86291968641825"/><path class="link" d="M128.94990369361304,307.3809256419777C161.18737961701626,384.2261570524721,214.81410715709234,357.02382340316217,257.7769285885108,428.42858808379464"/><path class="link" d="M128.94990369361304,307.3809256419777C161.18737961701626,384.2261570524721,188.49209864892788,371.59364883974257,226.19051837871348,445.9123786076911"/><path class="link" d="M128.94990369361304,307.3809256419777C161.18737961701626,384.2261570524721,161.18737961701626,384.2261570524721,193.42485554041954,461.0713884629666"/><path class="link" d="M128.94990369361304,307.3809256419777C161.18737961701626,384.2261570524721,133.04230422332506,394.8554879928343,159.65076506799008,473.82658559140117"/><path class="link" d="M128.94990369361304,307.3809256419777C161.18737961701626,384.2261570524721,104.20360785877625,403.426225251068,125.0443294305315,484.11147030128166"/><path class="link" d="M2.041077998578922e-14,333.3333333333333C2.5513474982236524e-14,416.66666666666663,45.04959100997577,414.22414881431644,54.05950921197093,497.0689785771798"/><path class="link" d="M2.041077998578922e-14,333.3333333333333C2.5513474982236524e-14,416.66666666666663,15.042672179140329,416.3950397456987,18.051206614968397,499.67404769483846"/><path class="link" d="M2.041077998578922e-14,333.3333333333333C2.5513474982236524e-14,416.66666666666663,-15.042672179140277,416.3950397456987,-18.051206614968333,499.67404769483846"/><path class="link" d="M2.041077998578922e-14,333.3333333333333C2.5513474982236524e-14,416.66666666666663,-45.04959100997573,414.22414881431644,-54.05950921197088,497.0689785771798"/><path class="link" d="M-106.43384337866001,315.8843903942675C-133.042304223325,394.8554879928343,-104.2036078587762,403.426225251068,-125.04432943053145,484.11147030128166"/><path class="link" d="M-106.43384337866001,315.8843903942675C-133.042304223325,394.8554879928343,-133.042304223325,394.8554879928343,-159.65076506799002,473.8265855914012"/><path class="link" d="M-106.43384337866001,315.8843903942675C-133.042304223325,394.8554879928343,-161.18737961701623,384.2261570524721,-193.4248555404195,461.0713884629666"/><path class="link" d="M-229.23315295114114,241.99849730771024C-286.5414411889264,302.49812163463776,-214.81410715709242,357.0238234031621,-257.77692858851094,428.4285880837946"/><path class="link" d="M-229.23315295114114,241.99849730771024C-286.5414411889264,302.49812163463776,-240.01617437718312,340.5926410662049,-288.01940925261977,408.7111692794459"/><path class="link" d="M-229.23315295114114,241.99849730771024C-286.5414411889264,302.49812163463776,-263.9669084001767,322.3857664053483,-316.7602900802121,386.862919686418"/><path class="link" d="M-229.23315295114114,241.99849730771024C-286.5414411889264,302.49812163463776,-286.5414411889264,302.49812163463776,-343.8497294267117,362.9977459615654"/><path class="link" d="M-229.23315295114114,241.99849730771024C-286.5414411889264,302.49812163463776,-307.62207958229106,281.0333917252142,-369.14649549874935,337.24007007025705"/><path class="link" d="M-229.23315295114114,241.99849730771024C-286.5414411889264,302.49812163463776,-327.0989188927804,258.1034838398842,-392.5187026713365,309.72418060786106"/><path class="link" d="M-229.23315295114114,241.99849730771024C-286.5414411889264,302.49812163463776,-344.87041589870455,233.82794390099235,-413.8444990784455,280.5935326811909"/><path class="link" d="M-330.67464209153474,-42.01657040676308C-413.34330261441846,-52.520713008453846,-374.9361474822944,181.75256923148632,-449.92337697875337,218.10308307778362"/><path class="link" d="M-330.67464209153474,-42.01657040676308C-413.34330261441846,-52.520713008453846,-387.0736332569965,154.22423139163064,-464.48835990839586,185.06907766995678"/><path class="link" d="M-330.67464209153474,-42.01657040676308C-413.34330261441846,-52.520713008453846,-397.1930963368845,125.89183982065505,-476.63171560426144,151.07020778478608"/><path class="link" d="M-330.67464209153474,-42.01657040676308C-413.34330261441846,-52.520713008453846,-405.24177852713467,96.90310648929588,-486.2901342325616,116.28372778715507"/><path class="link" d="M-330.67464209153474,-42.01657040676308C-413.34330261441846,-52.520713008453846,-411.17771772563583,67.4091652303186,-493.4132612707631,80.89099827638233"/><path class="link" d="M-330.67464209153474,-42.01657040676308C-413.34330261441846,-52.520713008453846,-414.96996669396003,37.56378379669357,-497.96396003275214,45.076540556032285"/><path class="link" d="M-330.67464209153474,-42.01657040676308C-413.34330261441846,-52.520713008453846,-416.59875440193383,7.522562187733355,-499.9185052823206,9.027074625280028"/><path class="link" d="M-330.67464209153474,-42.01657040676308C-413.34330261441846,-52.520713008453846,-416.05558910463486,-22.55787857725735,-499.2667069255619,-27.069454292708823"/><path class="link" d="M-330.67464209153474,-42.01657040676308C-413.34330261441846,-52.520713008453846,-413.34330261441846,-52.520713008453846,-496.0119631373022,-63.02485561014462"/><path class="link" d="M-330.67464209153474,-42.01657040676308C-413.34330261441846,-52.520713008453846,-408.47603553715834,-82.20972876100022,-490.17124264459005,-98.65167451320026"/><path class="link" d="M-330.67464209153474,-42.01657040676308C-413.34330261441846,-52.520713008453846,-401.4791635496762,-111.47014105384208,-481.77499625961144,-133.76416926461053"/><path class="link" d="M-330.67464209153474,-42.01657040676308C-413.34330261441846,-52.520713008453846,-392.3891651027117,-140.14939964590627,-470.86699812325406,-168.17927957508755"/><path class="link" d="M-330.67464209153474,-42.01657040676308C-413.34330261441846,-52.520713008453846,-381.25343123917156,-168.0979841624204,-457.50411748700594,-201.7175809949045"/><path class="link" d="M-330.67464209153474,-42.01657040676308C-413.34330261441846,-52.520713008453846,-368.13001851917613,-195.17018362491265,-441.7560222230114,-234.20422034989522"/><path class="link" d="M-330.67464209153474,-42.01657040676308C-413.34330261441846,-52.520713008453846,-353.087346340036,-221.2248561207862,-423.70481560804325,-265.46982734494344"/><path class="link" d="M-330.67464209153474,-42.01657040676308C-413.34330261441846,-52.520713008453846,-336.2038402291958,-246.12616465189652,-403.44460827503497,-295.35139758227587"/><path class="link" d="M-330.67464209153474,-42.01657040676308C-413.34330261441846,-52.520713008453846,-317.56752296984865,-269.7442853257613,-381.0810275638184,-323.69314239091364"/><path class="link" d="M-128.94990369361292,-307.38092564197774C-161.18737961701615,-384.22615705247216,-275.43373131383345,-312.64575923183423,-330.5204775766002,-375.1749110782011"/><path class="link" d="M-128.94990369361292,-307.38092564197774C-161.18737961701615,-384.22615705247216,-252.1559229974023,-331.7054440440181,-302.5871075968828,-398.04653285282177"/><path class="link" d="M-128.94990369361292,-307.38092564197774C-161.18737961701615,-384.22615705247216,-227.56349045570698,-349.03577026248536,-273.0761885468484,-418.84292431498244"/><path class="link" d="M-128.94990369361292,-307.38092564197774C-161.18737961701615,-384.22615705247216,-201.78464724484147,-364.5463855908956,-242.14157669380978,-437.45566270907483"/><path class="link" d="M-128.94990369361292,-307.38092564197774C-161.18737961701615,-384.22615705247216,-174.95379231677703,-378.1564248628987,-209.94455078013243,-453.78770983547844"/><path class="link" d="M-128.94990369361292,-307.38092564197774C-161.18737961701615,-384.22615705247216,-147.2108093254592,-389.79493163566707,-176.65297119055103,-467.75391796280053"/><path class="link" d="M-128.94990369361292,-307.38092564197774C-161.18737961701615,-384.22615705247216,-118.70033733820829,-399.40122812393383,-142.44040480584997,-479.28147374872066"/><path class="link" d="M-128.94990369361292,-307.38092564197774C-161.18737961701615,-384.22615705247216,-89.57101675459347,-406.9252315458694,-107.48522010551217,-488.31027785504335"/><path class="link" d="M-128.94990369361292,-307.38092564197774C-161.18737961701615,-384.22615705247216,-59.974714364216155,-412.3277152315155,-71.9696572370594,-494.79325827781867"/><path class="link" d="M-128.94990369361292,-307.38092564197774C-161.18737961701615,-384.22615705247216,-30.065731583589994,-415.58051313247904,-36.078877900307994,-498.6966157589749"/><g class="node node--internal" transform="translate(0,0)"><circle r="3"/><text dy="0.31em" x="10" text-anchor="start" transform="rotate(323.2758620689656)">Fog Computing Research</text></g><g class="node node--internal" transform="translate(152.50137249566868,67.23919366496808)"><circle r="3"/><text dy="0.31em" x="-10" text-anchor="end" transform="rotate(23.793103448275865)">Conferences</text></g><g class="node node--internal" transform="translate(-163.95747398866712,-29.928656853145288)"><circle r="3"/><text dy="0.31em" x="10" text-anchor="start" transform="rotate(370.34482758620686)">Journals/Mag</text></g><g class="node node--internal" transform="translate(-21.00828520338144,-165.3373210457674)"><circle r="3"/><text dy="0.31em" x="10" text-anchor="start" transform="rotate(442.75862068965523)">Developed by</text></g><g class="node node--internal" transform="translate(161.42771779587315,-291.63710847271653)"><circle r="3"/><text dy="0.31em" x="-10" text-anchor="end" transform="rotate(-61.0344827586207)">General</text></g><g class="node node--leaf" transform="translate(279.2286162099882,-182.05079236456564)"><circle r="3"/><text dy="0.31em" x="10" text-anchor="start" transform="rotate(-33.10344827586207)">GeneralACM ANCS</text></g><g class="node node--internal" transform="translate(331.97597335516804,-30.051027037355038)"><circle r="3"/><text dy="0.31em" x="-10" text-anchor="end" transform="rotate(-5.172413793103442)">Fog/Edge Computing</text></g><g class="node node--internal" transform="translate(261.67913511422404,206.4827870719077)"><circle r="3"/><text dy="0.31em" x="-10" text-anchor="end" transform="rotate(38.27586206896553)">Cloud Computing</text></g><g class="node node--internal" transform="translate(128.94990369361304,307.3809256419777)"><circle r="3"/><text dy="0.31em" x="-10" text-anchor="end" transform="rotate(67.24137931034483)">Mobile Computing</text></g><g class="node node--internal" transform="translate(2.041077998578922e-14,333.3333333333333)"><circle r="3"/><text dy="0.31em" x="10" text-anchor="start" transform="rotate(270)">Distributed Computing</text></g><g class="node node--internal" transform="translate(-106.43384337866001,315.8843903942675)"><circle r="3"/><text dy="0.31em" x="10" text-anchor="start" transform="rotate(288.6206896551724)">Systems</text></g><g class="node node--internal" transform="translate(-229.23315295114114,241.99849730771024)"><circle r="3"/><text dy="0.31em" x="10" text-anchor="start" transform="rotate(313.44827586206895)">Magazine</text></g><g class="node node--internal" transform="translate(-330.67464209153474,-42.01657040676308)"><circle r="3"/><text dy="0.31em" x="10" text-anchor="start" transform="rotate(367.2413793103448)">Journal (ACM &amp; IEEE)</text></g><g class="node node--internal" transform="translate(-128.94990369361292,-307.38092564197774)"><circle r="3"/><text dy="0.31em" x="10" text-anchor="start" transform="rotate(427.2413793103449)">Journal (Elsevier &amp; Springer)</text></g><g class="node node--leaf" transform="translate(-59.85731370629039,-327.9149479773343)"><circle r="3"/><text dy="0.31em" x="-10" text-anchor="end" transform="rotate(439.65517241379314)">ANRL</text></g><g class="node node--leaf" transform="translate(-24.052585266871997,-332.46441050598327)"><circle r="3"/><text dy="0.31em" x="-10" text-anchor="end" transform="rotate(445.86206896551727)">UT Dallas</text></g><g class="node node--leaf" transform="translate(36.07887790030794,-498.6966157589749)"><circle r="3"/><text dy="0.31em" x="10" text-anchor="start" transform="rotate(-85.86206896551725)">ACM SIGCOMM</text></g><g class="node node--leaf" transform="translate(71.96965723705932,-494.79325827781867)"><circle r="3"/><text dy="0.31em" x="10" text-anchor="start" transform="rotate(-81.72413793103452)">USENIX NSDI</text></g><g class="node node--leaf" transform="translate(107.4852201055121,-488.31027785504335)"><circle r="3"/><text dy="0.31em" x="10" text-anchor="start" transform="rotate(-77.58620689655172)">ACM CoNEXT</text></g><g class="node node--leaf" transform="translate(142.4404048058499,-479.28147374872066)"><circle r="3"/><text dy="0.31em" x="10" text-anchor="start" transform="rotate(-73.44827586206897)">IEEE INFOCOM</text></g><g class="node node--leaf" transform="translate(176.65297119055097,-467.7539179628006)"><circle r="3"/><text dy="0.31em" x="10" text-anchor="start" transform="rotate(-69.31034482758623)">ACM SIGMETRICS</text></g><g class="node node--leaf" transform="translate(209.94455078013237,-453.78770983547844)"><circle r="3"/><text dy="0.31em" x="10" text-anchor="start" transform="rotate(-65.17241379310344)">ACM HotNets</text></g><g class="node node--leaf" transform="translate(242.14157669380975,-437.45566270907483)"><circle r="3"/><text dy="0.31em" x="10" text-anchor="start" transform="rotate(-61.0344827586207)">USENIX ATC</text></g><g class="node node--leaf" transform="translate(273.0761885468484,-418.8429243149825)"><circle r="3"/><text dy="0.31em" x="10" text-anchor="start" transform="rotate(-56.89655172413794)">ACM IMC</text></g><g class="node node--leaf" transform="translate(302.58710759688256,-398.0465328528219)"><circle r="3"/><text dy="0.31em" x="10" text-anchor="start" transform="rotate(-52.75862068965518)">ACM/IEEE ANCS</text></g><g class="node node--leaf" transform="translate(330.5204775766002,-375.17491107820115)"><circle r="3"/><text dy="0.31em" x="10" text-anchor="start" transform="rotate(-48.62068965517241)">IEEE ICC</text></g><g class="node node--leaf" transform="translate(356.73066682908006,-350.34730103667124)"><circle r="3"/><text dy="0.31em" x="10" text-anchor="start" transform="rotate(-44.48275862068965)">IEEE GLOBECOM</text></g><g class="node node--leaf" transform="translate(381.08102756381834,-323.69314239091375)"><circle r="3"/><text dy="0.31em" x="10" text-anchor="start" transform="rotate(-40.34482758620688)">IEEE ICNP</text></g><g class="node node--leaf" transform="translate(403.4446082750352,-295.3513975822756)"><circle r="3"/><text dy="0.31em" x="10" text-anchor="start" transform="rotate(-36.206896551724135)">IEEE/OSA OFC</text></g><g class="node node--leaf" transform="translate(441.7560222230115,-234.20422034989505)"><circle r="3"/><text dy="0.31em" x="10" text-anchor="start" transform="rotate(-27.93103448275862)">IEEE/ACM SEC</text></g><g class="node node--leaf" transform="translate(457.5041174870061,-201.71758099490413)"><circle r="3"/><text dy="0.31em" x="10" text-anchor="start" transform="rotate(-23.79310344827585)">USENIX HotEdge</text></g><g class="node node--leaf" transform="translate(470.86699812325406,-168.1792795750876)"><circle r="3"/><text dy="0.31em" x="10" text-anchor="start" transform="rotate(-19.65517241379311)">IEEE EDGE</text></g><g class="node node--leaf" transform="translate(481.7749962596115,-133.76416926461036)"><circle r="3"/><text dy="0.31em" x="10" text-anchor="start" transform="rotate(-15.517241379310338)">IEEE FMEC</text></g><g class="node node--leaf" transform="translate(490.1712426445901,-98.65167451319999)"><circle r="3"/><text dy="0.31em" x="10" text-anchor="start" transform="rotate(-11.379310344827584)">ACM MECOMM</text></g><g class="node node--leaf" transform="translate(496.0119631373022,-63.02485561014468)"><circle r="3"/><text dy="0.31em" x="10" text-anchor="start" transform="rotate(-7.2413793103448265)">ACM EdgeSys</text></g><g class="node node--leaf" transform="translate(499.2667069255619,-27.069454292708773)"><circle r="3"/><text dy="0.31em" x="10" text-anchor="start" transform="rotate(-3.1034482758620707)">Fog World Congress</text></g><g class="node node--leaf" transform="translate(499.9185052823206,9.0270746252803)"><circle r="3"/><text dy="0.31em" x="10" text-anchor="start" transform="rotate(1.0344827586206986)">IEEE ICFEC</text></g><g class="node node--leaf" transform="translate(497.96396003275214,45.07654055603256)"><circle r="3"/><text dy="0.31em" x="10" text-anchor="start" transform="rotate(5.172413793103442)">IEEE SmartEdge</text></g><g class="node node--leaf" transform="translate(493.4132612707631,80.89099827638239)"><circle r="3"/><text dy="0.31em" x="10" text-anchor="start" transform="rotate(9.31034482758621)">IEEE WF-IoT</text></g><g class="node node--leaf" transform="translate(486.29013423256157,116.28372778715533)"><circle r="3"/><text dy="0.31em" x="10" text-anchor="start" transform="rotate(13.448275862068979)">ACM TOPIC</text></g><g class="node node--leaf" transform="translate(476.6317156042614,151.07020778478633)"><circle r="3"/><text dy="0.31em" x="10" text-anchor="start" transform="rotate(17.586206896551722)">ACM CitiFog</text></g><g class="node node--leaf" transform="translate(449.9233769787533,218.1030830777838)"><circle r="3"/><text dy="0.31em" x="10" text-anchor="start" transform="rotate(25.86206896551725)">ACM SOCC</text></g><g class="node node--leaf" transform="translate(433.01270189221924,250.0000000000001)"><circle r="3"/><text dy="0.31em" x="10" text-anchor="start" transform="rotate(30.000000000000014)">USENIX HotCloud</text></g><g class="node node--leaf" transform="translate(413.84449907844527,280.5935326811912)"><circle r="3"/><text dy="0.31em" x="10" text-anchor="start" transform="rotate(34.13793103448276)">IEEE/ACM UCC</text></g><g class="node node--leaf" transform="translate(392.5187026713361,309.72418060786157)"><circle r="3"/><text dy="0.31em" x="10" text-anchor="start" transform="rotate(38.27586206896553)">IEEE IC2E</text></g><g class="node node--leaf" transform="translate(369.14649549874923,337.24007007025716)"><circle r="3"/><text dy="0.31em" x="10" text-anchor="start" transform="rotate(42.41379310344829)">IEEE Cloud</text></g><g class="node node--leaf" transform="translate(343.84972942671163,362.99774596156544)"><circle r="3"/><text dy="0.31em" x="10" text-anchor="start" transform="rotate(46.551724137931046)">IEEE CloudCom</text></g><g class="node node--leaf" transform="translate(316.76029008021186,386.86291968641825)"><circle r="3"/><text dy="0.31em" x="10" text-anchor="start" transform="rotate(50.689655172413815)">IEEE FiCloud</text></g><g class="node node--leaf" transform="translate(257.7769285885108,428.42858808379464)"><circle r="3"/><text dy="0.31em" x="10" text-anchor="start" transform="rotate(58.965517241379324)">ACM MobiHoc</text></g><g class="node node--leaf" transform="translate(226.19051837871348,445.9123786076911)"><circle r="3"/><text dy="0.31em" x="10" text-anchor="start" transform="rotate(63.103448275862064)">ACM MobiCom</text></g><g class="node node--leaf" transform="translate(193.42485554041954,461.0713884629666)"><circle r="3"/><text dy="0.31em" x="10" text-anchor="start" transform="rotate(67.24137931034483)">ACM MobiSys</text></g><g class="node node--leaf" transform="translate(159.65076506799008,473.82658559140117)"><circle r="3"/><text dy="0.31em" x="10" text-anchor="start" transform="rotate(71.37931034482759)">ACM HotMobile</text></g><g class="node node--leaf" transform="translate(125.0443294305315,484.11147030128166)"><circle r="3"/><text dy="0.31em" x="10" text-anchor="start" transform="rotate(75.51724137931035)">ACM MobiArch</text></g><g class="node node--leaf" transform="translate(54.05950921197093,497.0689785771798)"><circle r="3"/><text dy="0.31em" x="10" text-anchor="start" transform="rotate(83.79310344827587)">ACM PODC</text></g><g class="node node--leaf" transform="translate(18.051206614968397,499.67404769483846)"><circle r="3"/><text dy="0.31em" x="10" text-anchor="start" transform="rotate(87.9310344827586)">IEEE ICDCS</text></g><g class="node node--leaf" transform="translate(-18.051206614968333,499.67404769483846)"><circle r="3"/><text dy="0.31em" x="-10" text-anchor="end" transform="rotate(272.06896551724145)">IEEE PerCom</text></g><g class="node node--leaf" transform="translate(-54.05950921197088,497.0689785771798)"><circle r="3"/><text dy="0.31em" x="-10" text-anchor="end" transform="rotate(276.2068965517242)">ACM DEBS</text></g><g class="node node--leaf" transform="translate(-125.04432943053145,484.11147030128166)"><circle r="3"/><text dy="0.31em" x="-10" text-anchor="end" transform="rotate(284.48275862068965)">ACM SOSP</text></g><g class="node node--leaf" transform="translate(-159.65076506799002,473.8265855914012)"><circle r="3"/><text dy="0.31em" x="-10" text-anchor="end" transform="rotate(288.6206896551724)">ACM SenSys</text></g><g class="node node--leaf" transform="translate(-193.4248555404195,461.0713884629666)"><circle r="3"/><text dy="0.31em" x="-10" text-anchor="end" transform="rotate(292.7586206896551)">ACM EuroSys</text></g><g class="node node--leaf" transform="translate(-257.77692858851094,428.4285880837946)"><circle r="3"/><text dy="0.31em" x="-10" text-anchor="end" transform="rotate(301.03448275862075)">IEEE Computer</text></g><g class="node node--leaf" transform="translate(-288.01940925261977,408.7111692794459)"><circle r="3"/><text dy="0.31em" x="-10" text-anchor="end" transform="rotate(305.1724137931035)">IEEE Pervasive Computing</text></g><g class="node node--leaf" transform="translate(-316.7602900802121,386.862919686418)"><circle r="3"/><text dy="0.31em" x="-10" text-anchor="end" transform="rotate(309.3103448275862)">IEEE Internet Computing</text></g><g class="node node--leaf" transform="translate(-343.8497294267117,362.9977459615654)"><circle r="3"/><text dy="0.31em" x="-10" text-anchor="end" transform="rotate(313.44827586206895)">IEEE Cloud Computing</text></g><g class="node node--leaf" transform="translate(-369.14649549874935,337.24007007025705)"><circle r="3"/><text dy="0.31em" x="-10" text-anchor="end" transform="rotate(317.5862068965517)">IEEE Wireless Communications</text></g><g class="node node--leaf" transform="translate(-392.5187026713365,309.72418060786106)"><circle r="3"/><text dy="0.31em" x="-10" text-anchor="end" transform="rotate(321.72413793103453)">IEEE Network</text></g><g class="node node--leaf" transform="translate(-413.8444990784455,280.5935326811909)"><circle r="3"/><text dy="0.31em" x="-10" text-anchor="end" transform="rotate(325.8620689655173)">IEEE Communication</text></g><g class="node node--leaf" transform="translate(-449.92337697875337,218.10308307778362)"><circle r="3"/><text dy="0.31em" x="-10" text-anchor="end" transform="rotate(334.1379310344828)">IEEE ACCESS</text></g><g class="node node--leaf" transform="translate(-464.48835990839586,185.06907766995678)"><circle r="3"/><text dy="0.31em" x="-10" text-anchor="end" transform="rotate(338.2758620689656)">IEEE TWC</text></g><g class="node node--leaf" transform="translate(-476.63171560426144,151.07020778478608)"><circle r="3"/><text dy="0.31em" x="-10" text-anchor="end" transform="rotate(342.4137931034483)">IEEE TMC</text></g><g class="node node--leaf" transform="translate(-486.2901342325616,116.28372778715507)"><circle r="3"/><text dy="0.31em" x="-10" text-anchor="end" transform="rotate(346.55172413793105)">ACM POMACS</text></g><g class="node node--leaf" transform="translate(-493.4132612707631,80.89099827638233)"><circle r="3"/><text dy="0.31em" x="-10" text-anchor="end" transform="rotate(350.6896551724138)">ACM TOMPECS</text></g><g class="node node--leaf" transform="translate(-497.96396003275214,45.076540556032285)"><circle r="3"/><text dy="0.31em" x="-10" text-anchor="end" transform="rotate(354.82758620689657)">IEEE TETC</text></g><g class="node node--leaf" transform="translate(-499.9185052823206,9.027074625280028)"><circle r="3"/><text dy="0.31em" x="-10" text-anchor="end" transform="rotate(358.9655172413793)">IEEE TSC</text></g><g class="node node--leaf" transform="translate(-499.2667069255619,-27.069454292708823)"><circle r="3"/><text dy="0.31em" x="-10" text-anchor="end" transform="rotate(363.1034482758621)">ACM TOCS</text></g><g class="node node--leaf" transform="translate(-496.0119631373022,-63.02485561014462)"><circle r="3"/><text dy="0.31em" x="-10" text-anchor="end" transform="rotate(367.2413793103448)">ACM TOIT</text></g><g class="node node--leaf" transform="translate(-490.17124264459005,-98.65167451320026)"><circle r="3"/><text dy="0.31em" x="-10" text-anchor="end" transform="rotate(371.3793103448277)">IEEE TNSM</text></g><g class="node node--leaf" transform="translate(-481.77499625961144,-133.76416926461053)"><circle r="3"/><text dy="0.31em" x="-10" text-anchor="end" transform="rotate(375.5172413793104)">ACM CCR</text></g><g class="node node--leaf" transform="translate(-470.86699812325406,-168.17927957508755)"><circle r="3"/><text dy="0.31em" x="-10" text-anchor="end" transform="rotate(379.65517241379314)">IEEE TCC</text></g><g class="node node--leaf" transform="translate(-457.50411748700594,-201.7175809949045)"><circle r="3"/><text dy="0.31em" x="-10" text-anchor="end" transform="rotate(383.79310344827593)">IEEE JSAC</text></g><g class="node node--leaf" transform="translate(-441.7560222230114,-234.20422034989522)"><circle r="3"/><text dy="0.31em" x="-10" text-anchor="end" transform="rotate(387.93103448275866)">IEEE/ACM TON</text></g><g class="node node--leaf" transform="translate(-423.70481560804325,-265.46982734494344)"><circle r="3"/><text dy="0.31em" x="-10" text-anchor="end" transform="rotate(392.0689655172414)">IEEE IoTJ</text></g><g class="node node--leaf" transform="translate(-403.44460827503497,-295.35139758227587)"><circle r="3"/><text dy="0.31em" x="-10" text-anchor="end" transform="rotate(396.2068965517242)">IEEE Comm Sur Tut</text></g><g class="node node--leaf" transform="translate(-381.0810275638184,-323.69314239091364)"><circle r="3"/><text dy="0.31em" x="-10" text-anchor="end" transform="rotate(400.34482758620686)">ACM CSUR</text></g><g class="node node--leaf" transform="translate(-330.5204775766002,-375.1749110782011)"><circle r="3"/><text dy="0.31em" x="-10" text-anchor="end" transform="rotate(408.6206896551724)">Elsevier Dig ComNet</text></g><g class="node node--leaf" transform="translate(-302.5871075968828,-398.04653285282177)"><circle r="3"/><text dy="0.31em" x="-10" text-anchor="end" transform="rotate(412.7586206896552)">Elsevier Adhoc Net</text></g><g class="node node--leaf" transform="translate(-273.0761885468484,-418.84292431498244)"><circle r="3"/><text dy="0.31em" x="-10" text-anchor="end" transform="rotate(416.8965517241379)">Elsevier PerMob Comp</text></g><g class="node node--leaf" transform="translate(-242.14157669380978,-437.45566270907483)"><circle r="3"/><text dy="0.31em" x="-10" text-anchor="end" transform="rotate(421.0344827586207)">Springer CCF TON</text></g><g class="node node--leaf" transform="translate(-209.94455078013243,-453.78770983547844)"><circle r="3"/><text dy="0.31em" x="-10" text-anchor="end" transform="rotate(425.17241379310343)">Springer JCIN</text></g><g class="node node--leaf" transform="translate(-176.65297119055103,-467.75391796280053)"><circle r="3"/><text dy="0.31em" x="-10" text-anchor="end" transform="rotate(429.3103448275863)">Elsevier Comp Net</text></g><g class="node node--leaf" transform="translate(-142.44040480584997,-479.28147374872066)"><circle r="3"/><text dy="0.31em" x="-10" text-anchor="end" transform="rotate(433.448275862069)">Springer JISA</text></g><g class="node node--leaf" transform="translate(-107.48522010551217,-488.31027785504335)"><circle r="3"/><text dy="0.31em" x="-10" text-anchor="end" transform="rotate(437.58620689655174)">Elsevier Comp Comm</text></g><g class="node node--leaf" transform="translate(-71.9696572370594,-494.79325827781867)"><circle r="3"/><text dy="0.31em" x="-10" text-anchor="end" transform="rotate(441.72413793103453)">Elsevier JNCA</text></g><g class="node node--leaf" transform="translate(-36.078877900307994,-498.6966157589749)"><circle r="3"/><text dy="0.31em" x="-10" text-anchor="end" transform="rotate(445.86206896551727)">Elsevier FGCS</text></g></g></svg>