<?xml version="1.0" standalone="no"?><!DOCTYPE svg PUBLIC "-//W3C//DTD SVG 1.1//EN" "http://www.w3.org/Graphics/SVG/1.1/DTD/svg11.dtd"><svg height="1330" width="1300" version="1.1" xmlns="http://www.w3.org/2000/svg" xmlns:xlink="http://www.w3.org/1999/xlink"><defs xmlns="http://www.w3.org/1999/xhtml"><style type="text/css"><![CDATA[
.node circle { fill: rgb(153, 153, 153); }
.node text { font: 10px sans-serif; }
.node--internal circle { fill: rgb(85, 85, 85); }
.node--internal text { text-shadow: 0px 1px 0px rgb(255, 255, 255), 0px -1px 0px rgb(255, 255, 255), 1px 0px 0px rgb(255, 255, 255), -1px 0px 0px rgb(255, 255, 255); }
.link { fill: none; stroke: rgb(85, 85, 85); stroke-opacity: 0.4; stroke-width: 1.5px; }
.firebugResetStyles { z-index: 2147483646 ! important; top: 0px ! important; left: 0px ! important; display: block ! important; border: 0px none ! important; margin: 0px ! important; padding: 0px ! important; outline: 0px none ! important; min-width: 0px ! important; max-width: none ! important; min-height: 0px ! important; max-height: none ! important; position: fixed ! important; transform: rotate(0deg) ! important; transform-origin: 50% 50% 0px ! important; border-radius: 0px ! important; box-shadow: none ! important; background: none repeat scroll 0% 0% transparent ! important; pointer-events: none ! important; white-space: normal ! important; }
style.firebugResetStyles { display: none ! important; }
.firebugBlockBackgroundColor { background-color: transparent ! important; }
.firebugResetStyles::before, .firebugResetStyles::after { content: "" ! important; }
.firebugCanvas { display: none ! important; }
.firebugLayoutBox { width: auto ! important; position: static ! important; }
.firebugLayoutBoxOffset { opacity: 0.8 ! important; position: fixed ! important; }
.firebugLayoutLine { opacity: 0.4 ! important; background-color: rgb(0, 0, 0) ! important; }
.firebugLayoutLineLeft, .firebugLayoutLineRight { width: 1px ! important; height: 100% ! important; }
.firebugLayoutLineTop, .firebugLayoutLineBottom { width: 100% ! important; height: 1px ! important; }
.firebugLayoutLineTop { margin-top: -1px ! important; border-top: 1px solid rgb(153, 153, 153) ! important; }
.firebugLayoutLineRight { border-right: 1px solid rgb(153, 153, 153) ! important; }
.firebugLayoutLineBottom { border-bottom: 1px solid rgb(153, 153, 153) ! important; }
.firebugLayoutLineLeft { margin-left: -1px ! important; border-left: 1px solid rgb(153, 153, 153) ! important; }
.firebugLayoutBoxParent { border-width: 0px 1px 1px 0px ! important; border-style: none dashed dashed none ! important; border-color: -moz-use-text-color rgb(238, 0, 0) rgb(238, 0, 0) -moz-use-text-color ! important; position: fixed ! important; width: auto ! important; }
.firebugRuler { position: absolute ! important; }
.firebugRulerH { top: -15px ! important; left: 0px ! important; width: 100% ! important; height: 14px ! important; background: url("data:image/png,%89PNG%0D%0A%1A%0A%00%00%00%0DIHDR%00%00%13%88%00%00%00%0E%08%02%00%00%00L%25a%0A%00%00%00%04gAMA%00%00%D6%D8%D4OX2%00%00%00%19tEXtSoftware%00Adobe%20ImageReadyq%C9e%3C%00%00%04%F8IDATx%DA%EC%DD%D1n%E2%3A%00E%D1%80%F8%FF%EF%E2%AF2%95%D0D4%0E%C1%14%B0%8Fa-%E9%3E%CC%9C%87n%B9%81%A6W0%1C%A6i%9A%E7y%0As8%1CT%A9R%A5J%95*U%AAT%A9R%A5J%95*U%AAT%A9R%A5J%95*U%AAT%A9R%A5J%95*U%AAT%A9R%A5J%95*U%AAT%A9R%A5J%95*U%AAT%A9R%A5J%95*U%AATE9%FE%FCw%3E%9F%AF%2B%2F%BA%97%FDT%1D~K(%5C%9D%D5%EA%1B%5C%86%B5%A9%BDU%B5y%80%ED%AB*%03%FAV9%AB%E1%CEj%E7%82%EF%FB%18%BC%AEJ8%AB%FA\'%D2%BEU9%D7U%ECc0%E1%A2r%5DynwVi%CFW%7F%BB%17%7Dy%EACU%CD%0E%F0%FA%3BX%FEbV%FEM%9B%2B%AD%BE%AA%E5%95v%AB%AA%E3E5%DCu%15rV9%07%B5%7F%B5w%FCm%BA%BE%AA%FBY%3D%14%F0%EE%C7%60%0EU%AAT%A9R%A5J%95*U%AAT%A9R%A5J%95*U%AAT%A9R%A5J%95*U%AAT%A9R%A5J%95*U%AAT%A9R%A5JU%88%D3%F5%1F%AE%DF%3B%1B%F2%3E%DAUCNa%F92%D02%AC%7Dm%F9%3A%D4%F2%8B6%AE*%BF%5C%C2Ym~9g5%D0Y%95%17%7C%C8c%B0%7C%18%26%9CU%CD%13i%F7%AA%90%B3Z%7D%95%B4%C7%60%E6E%B5%BC%05%B4%FBY%95U%9E%DB%FD%1C%FC%E0%9F%83%7F%BE%17%7DkjMU%E3%03%AC%7CWj%DF%83%9An%BCG%AE%F1%95%96yQ%0Dq%5Dy%00%3Et%B5\'%FC6%5DS%95pV%95%01%81%FF\'%07%00%00%00%00%00%00%00%00%00%F8x%C7%F0%BE%9COp%5D%C9%7C%AD%E7%E6%EBV%FB%1E%E0(%07%E5%AC%C6%3A%ABi%9C%8F%C6%0E9%AB%C0\'%D2%8E%9F%F99%D0E%B5%99%14%F5%0D%CD%7F%24%C6%DEH%B8%E9rV%DFs%DB%D0%F7%00k%FE%1D%84%84%83J%B8%E3%BA%FB%EF%20%84%1C%D7%AD%B0%8E%D7U%C8Y%05%1E%D4t%EF%AD%95Q%BF8w%BF%E9%0A%BF%EB%03%00%00%00%00%00%00%00%00%00%B8vJ%8E%BB%F5%B1u%8Cx%80%E1o%5E%CA9%AB%CB%CB%8E%03%DF%1D%B7T%25%9C%D5(%EFJM8%AB%CC\'%D2%B2*%A4s%E7c6%FB%3E%FA%A2%1E%80~%0E%3E%DA%10x%5D%95Uig%15u%15%ED%7C%14%B6%87%A1%3B%FCo8%A8%D8o%D3%ADO%01%EDx%83%1A~%1B%9FpP%A3%DC%C6\'%9C%95gK%00%00%00%00%00%00%00%00%00%20%D9%C9%11%D0%C0%40%AF%3F%EE%EE%92%94%D6%16X%B5%BCMH%15%2F%BF%D4%A7%C87%F1%8E%F2%81%AE%AAvzr%DA2%ABV%17%7C%E63%83%E7I%DC%C6%0Bs%1B%EF6%1E%00%00%00%00%00%00%00%00%00%80cr%9CW%FF%7F%C6%01%0E%F1%CE%A5%84%B3%CA%BC%E0%CB%AA%84%CE%F9%BF)%EC%13%08WU%AE%AB%B1%AE%2BO%EC%8E%CBYe%FE%8CN%ABr%5Dy%60~%CFA%0D%F4%AE%D4%BE%C75%CA%EDVB%EA(%B7%F1%09g%E5%D9%12%00%00%00%00%00%00%00%00%00H%F6%EB%13S%E7y%5E%5E%FB%98%F0%22%D1%B2\'%A7%F0%92%B1%BC%24z3%AC%7Dm%60%D5%92%B4%7CEUO%5E%F0%AA*%3BU%B9%AE%3E%A0j%94%07%A0%C7%A0%AB%FD%B5%3F%A0%F7%03T%3Dy%D7%F7%D6%D4%C0%AAU%D2%E6%DFt%3F%A8%CC%AA%F2%86%B9%D7%F5%1F%18%E6%01%F8%CC%D5%9E%F0%F3z%88%AA%90%EF%20%00%00%00%00%00%00%00%00%00%C0%A6%D3%EA%CFi%AFb%2C%7BB%0A%2B%C3%1A%D7%06V%D5%07%A8r%5D%3D%D9%A6%CAu%F5%25%CF%A2%99%97zNX%60%95%AB%5DUZ%D5%FBR%03%AB%1C%D4k%9F%3F%BB%5C%FF%81a%AE%AB\'%7F%F3%EA%FE%F3z%94%AA%D8%DF%5B%01%00%00%00%00%00%00%00%00%00%8E%FB%F3%F2%B1%1B%8DWU%AAT%A9R%A5J%95*U%AAT%A9R%A5J%95*U%AAT%A9R%A5J%95*U%AAT%A9R%A5J%95*U%AAT%A9R%A5J%95*U%AAT%A9R%A5J%95*U%AAT%A9R%A5J%95*UiU%C7%BBe%E7%F3%B9%CB%AAJ%95*U%AAT%A9R%A5J%95*U%AAT%A9R%A5J%95*U%AAT%A9R%A5J%95*U%AAT%A9R%A5J%95*U%AAT%A9R%A5J%95*U%AAT%A9R%A5J%95*U%AAT%A9R%A5*%AAj%FD%C6%D4%5Eo%90%B5Z%ADV%AB%D5j%B5Z%ADV%AB%D5j%B5Z%ADV%AB%D5j%B5Z%ADV%AB%D5j%B5Z%ADV%AB%D5j%B5Z%ADV%AB%D5j%B5Z%ADV%AB%D5j%B5%86%AF%1B%9F%98%DA%EBm%BBV%AB%D5j%B5Z%ADV%AB%D5j%B5Z%ADV%AB%D5j%B5Z%ADV%AB%D5j%B5Z%ADV%AB%D5j%B5Z%ADV%AB%D5j%B5Z%ADV%AB%D5j%B5Z%AD%D6%E4%F58%01%00%00%00%00%00%00%00%00%00%00%00%00%00%40%85%7F%02%0C%008%C2%D0H%16j%8FX%00%00%00%00IEND%AEB%60%82") repeat-x scroll 0% 0% transparent ! important; border-top: 1px solid rgb(187, 187, 187) ! important; border-right: 1px dashed rgb(187, 187, 187) ! important; border-bottom: 1px solid rgb(0, 0, 0) ! important; }
.firebugRulerV { top: 0px ! important; left: -15px ! important; width: 14px ! important; height: 100% ! important; background: url("data:image/png,%89PNG%0D%0A%1A%0A%00%00%00%0DIHDR%00%00%00%0E%00%00%13%88%08%02%00%00%00%0E%F5%CB%10%00%00%00%04gAMA%00%00%D6%D8%D4OX2%00%00%00%19tEXtSoftware%00Adobe%20ImageReadyq%C9e%3C%00%00%06~IDATx%DA%EC%DD%D1v%A20%14%40Qt%F1%FF%FF%E4%97%D9%07%3BT%19%92%DC%40(%90%EEy%9A5%CB%B6%E8%F6%9Ac%A4%CC0%84%FF%DC%9E%CF%E7%E3%F1%88%DE4%F8%5D%C7%9F%2F%BA%DD%5E%7FI%7D%F18%DDn%BA%C5%FB%DF%97%BFk%F2%10%FF%FD%B4%F2M%A7%FB%FD%FD%B3%22%07p%8F%3F%AE%E3%F4S%8A%8F%40%EEq%9D%BE8D%F0%0EY%A1Uq%B7%EA%1F%81%88V%E8X%3F%B4%CEy%B7h%D1%A2E%EBohU%FC%D9%AF2fO%8BBeD%BE%F7X%0C%97%A4%D6b7%2Ck%A5%12%E3%9B%60v%B7r%C7%1AI%8C%BD%2B%23r%00c0%B2v%9B%AD%CA%26%0C%1Ek%05A%FD%93%D0%2B%A1u%8B%16-%95q%5Ce%DCSO%8E%E4M%23%8B%F7%C2%FE%40%BB%BD%8C%FC%8A%B5V%EBu%40%F9%3B%A72%FA%AE%8C%D4%01%CC%B5%DA%13%9CB%AB%E2I%18%24%B0n%A9%0CZ*Ce%9C%A22%8E%D8NJ%1E%EB%FF%8F%AE%CAP%19*%C3%BAEKe%AC%D1%AAX%8C*%DEH%8F%C5W%A1e%AD%D4%B7%5C%5B%19%C5%DB%0D%EF%9F%19%1D%7B%5E%86%BD%0C%95%A12%AC%5B*%83%96%CAP%19%F62T%86%CAP%19*%83%96%CA%B8Xe%BC%FE)T%19%A1%17xg%7F%DA%CBP%19*%C3%BA%A52T%86%CAP%19%F62T%86%CA%B0n%A9%0CZ%1DV%C6%3D%F3%FCH%DE%B4%B8~%7F%5CZc%F1%D6%1F%AF%84%F9%0F6%E6%EBVt9%0E~%BEr%AF%23%B0%97%A12T%86%CAP%19%B4T%86%CA%B8Re%D8%CBP%19*%C3%BA%A52huX%19%AE%CA%E5%BC%0C%7B%19*CeX%B7h%A9%0C%95%E1%BC%0C%7B%19*CeX%B7T%06%AD%CB%5E%95%2B%BF.%8F%C5%97%D5%E4%7B%EE%82%D6%FB%CF-%9C%FD%B9%CF%3By%7B%19%F62T%86%CA%B0n%D1R%19*%A3%D3%CA%B0%97%A12T%86uKe%D0%EA%B02*%3F1%99%5DB%2B%A4%B5%F8%3A%7C%BA%2B%8Co%7D%5C%EDe%A8%0C%95a%DDR%19%B4T%C66%82fA%B2%ED%DA%9FC%FC%17GZ%06%C9%E1%B3%E5%2C%1A%9FoiB%EB%96%CA%A0%D5qe4%7B%7D%FD%85%F7%5B%ED_%E0s%07%F0k%951%ECr%0D%B5C%D7-g%D1%A8%0C%EB%96%CA%A0%A52T%C6)*%C3%5E%86%CAP%19%D6-%95A%EB*%95q%F8%BB%E3%F9%AB%F6%E21%ACZ%B7%22%B7%9B%3F%02%85%CB%A2%5B%B7%BA%5E%B7%9C%97%E1%BC%0C%EB%16-%95%A12z%AC%0C%BFc%A22T%86uKe%D0%EA%B02V%DD%AD%8A%2B%8CWhe%5E%AF%CF%F5%3B%26%CE%CBh%5C%19%CE%CB%B0%F3%A4%095%A1%CAP%19*Ce%A8%0C%3BO*Ce%A8%0C%95%A12%3A%AD%8C%0A%82%7B%F0v%1F%2FD%A9%5B%9F%EE%EA%26%AF%03%CA%DF9%7B%19*Ce%A8%0C%95%A12T%86%CA%B8Ze%D8%CBP%19*Ce%A8%0C%95%D1ae%EC%F7%89I%E1%B4%D7M%D7P%8BjU%5C%BB%3E%F2%20%D8%CBP%19*Ce%A8%0C%95%A12T%C6%D5*%C3%5E%86%CAP%19*Ce%B4O%07%7B%F0W%7Bw%1C%7C%1A%8C%B3%3B%D1%EE%AA%5C%D6-%EBV%83%80%5E%D0%CA%10%5CU%2BD%E07YU%86%CAP%19*%E3%9A%95%91%D9%A0%C8%AD%5B%EDv%9E%82%FFKOee%E4%8FUe%A8%0C%95%A12T%C6%1F%A9%8C%C8%3D%5B%A5%15%FD%14%22r%E7B%9F%17l%F8%BF%ED%EAf%2B%7F%CF%ECe%D8%CBP%19*Ce%A8%0C%95%E1%93~%7B%19%F62T%86%CAP%19*Ce%A8%0C%E7%13%DA%CBP%19*Ce%A8%0CZf%8B%16-Z%B4h%D1R%19f%8B%16-Z%B4h%D1R%19%B4%CC%16-Z%B4h%D1R%19%B4%CC%16-Z%B4h%D1%A2%A52%CC%16-Z%B4h%D1%A2%A52h%99-Z%B4h%D1%A2%A52h%99-Z%B4h%D1%A2EKe%98-Z%B4h%D1%A2EKe%D02%5B%B4h%D1%A2EKe%D02%5B%B4h%D1%A2E%8B%96%CA0%5B%B4h%D1%A2E%8B%96%CA%A0e%B6h%D1%A2E%8B%96%CA%A0e%B6h%D1%A2E%8B%16-%95a%B6h%D1%A2E%8B%16-%95A%CBl%D1%A2E%8B%16-%95A%CBl%D1%A2E%8B%16-Z*%C3l%D1%A2E%8B%16-Z*%83%96%D9%A2E%8B%16-Z*%83%96%D9%A2E%8B%16-Z%B4T%86%D9%A2E%8B%16-Z%B4T%06-%B3E%8B%16-Z%B4T%06-%B3E%8B%16-Z%B4h%A9%0C%B3E%8B%16-Z%B4h%A9%0CZf%8B%16-Z%B4h%A9%0CZf%8B%16-Z%B4h%D1R%19f%8B%16-Z%B4h%D1R%19%B4%CC%16-Z%B4h%D1R%19%B4%CC%16-Z%B4h%D1%A2%A52%CC%16-Z%B4h%D1%A2%A52h%99-Z%B4h%D1%A2%A52h%99-Z%B4h%D1%A2EKe%98-Z%B4h%D1%A2EKe%D02%5B%B4h%D1%A2EKe%D02%5B%B4h%D1%A2E%8B%96%CA0%5B%B4h%D1%A2E%8B%96%CA%A0e%B6h%D1%A2E%8B%96%CA%A0e%B6h%D1%A2E%8B%16-%95a%B6h%D1%A2E%8B%16-%95A%CBl%D1%A2E%8B%16-%95A%CBl%D1%A2E%8B%16-Z*%C3l%D1%A2E%8B%16-Z*%83%96%D9%A2E%8B%16-Z*%83%96%D9%A2E%8B%16-Z%B4T%86%D9%A2E%8B%16-Z%B4T%06-%B3E%8B%16-Z%B4T%06-%B3E%8B%16-Z%B4h%A9%0C%B3E%8B%16-Z%B4h%A9%0CZf%8B%16-Z%B4h%A9%0CZf%8B%16-Z%B4h%D1R%19f%8B%16-Z%B4h%D1R%19%B4%CC%16-Z%B4h%D1R%19%B4%CC%16-Z%B4h%D1%A2%A52%CC%16-Z%B4h%D1%A2%A52h%99-Z%B4h%D1%A2%A52h%99-Z%B4h%D1%A2EKe%98-Z%B4h%D1%A2EKe%D02%5B%B4h%D1%A2EKe%D02%5B%B4h%D1%A2E%8B%96%CA0%5B%B4h%D1%A2E%8B%96%CA%A0e%B6h%D1%A2E%8B%96%CA%A0e%B6h%D1%A2E%8B%16-%95a%B6h%D1%A2E%8B%16-%95A%CBl%D1%A2E%8B%16-%95A%CBl%D1%A2E%8B%16-Z*%C3l%D1%A2E%8B%16-Z*%83%96%D9%A2E%8B%16-Z*%83%96%D9%A2E%8B%16-Z%B4T%86%D9%A2E%8B%16-Z%B4T%06-%B3E%8B%16-Z%B4%AE%A4%F5%25%C0%00%DE%BF%5C\'%0F%DA%B8q%00%00%00%00IEND%AEB%60%82") repeat-y scroll 0% 0% transparent ! important; border-left: 1px solid rgb(187, 187, 187) ! important; border-right: 1px solid rgb(0, 0, 0) ! important; border-bottom: 1px dashed rgb(187, 187, 187) ! important; }
.fbProxyElement { position: fixed ! important; pointer-events: auto ! important; }]]></style></defs><g transform="translate(690,755)"><path class="link" d="M0,0C-25.05881662535606,79.47641256235225,76.12878813688341,33.89472025631664,152.25757627376683,67.78944051263328"/><path class="link" d="M0,0C-25.05881662535606,79.47641256235225,-81.80226528730533,-15.900749614712025,-163.60453057461066,-31.80149922942405"/><path class="link" d="M152.25757627376683,67.78944051263328C228.38636441065026,101.68416076894992,117.36789069647266,-220.73689821473175,156.49052092863022,-294.31586428630897"/><path class="link" d="M152.25757627376683,67.78944051263328C228.38636441065026,101.68416076894992,202.25424859373686,-146.9463130731183,269.6723314583158,-195.92841743082437"/><path class="link" d="M152.25757627376683,67.78944051263328C228.38636441065026,101.68416076894992,246.201938253052,-43.41204441673265,328.2692510040693,-57.88272588897686"/><path class="link" d="M152.25757627376683,67.78944051263328C228.38636441065026,101.68416076894992,234.9231551964771,85.50503583141713,313.2308735953028,114.00671444188951"/><path class="link" d="M152.25757627376683,67.78944051263328C228.38636441065026,101.68416076894992,185.7862063693486,167.2826515897145,247.71494182579815,223.04353545295265"/><path class="link" d="M152.25757627376683,67.78944051263328C228.38636441065026,101.68416076894992,85.50503583141742,234.923155196477,114.00671444188988,313.2308735953027"/><path class="link" d="M152.25757627376683,67.78944051263328C228.38636441065026,101.68416076894992,-8.724874175625017,249.84770675477395,-11.633165567500022,333.1302756730319"/><path class="link" d="M152.25757627376683,67.78944051263328C228.38636441065026,101.68416076894992,-85.50503583141698,234.92315519647715,-114.00671444188929,313.23087359530285"/><path class="link" d="M-163.60453057461066,-31.80149922942405C-245.406795861916,-47.70224884413608,-173.66459261474918,179.83495008466295,-231.55279015299888,239.77993344621723"/><path class="link" d="M-163.60453057461066,-31.80149922942405C-245.406795861916,-47.70224884413608,-247.56701718539261,-34.79327524001616,-330.08935624719015,-46.391033653354874"/><path class="link" d="M-163.60453057461066,-31.80149922942405C-245.406795861916,-47.70224884413608,-93.65164835397827,-231.79596364169674,-124.86886447197102,-309.06128485559566"/><path class="link" d="M156.49052092863022,-294.31586428630897C195.61315116078774,-367.89483035788624,29.065197393385418,-415.6516876082601,34.87823687206251,-498.78202512991214"/><path class="link" d="M156.49052092863022,-294.31586428630897C195.61315116078774,-367.89483035788624,57.98879206669385,-412.61169530898763,69.58655048003263,-495.1340343707852"/><path class="link" d="M156.49052092863022,-294.31586428630897C195.61315116078774,-367.89483035788624,86.62987117406625,-407.56150030575236,103.95584540887951,-489.07380036690284"/><path class="link" d="M156.49052092863022,-294.31586428630897C195.61315116078774,-367.89483035788624,114.84889825708288,-400.5257066409662,137.81867790849947,-480.63084796915945"/><path class="link" d="M156.49052092863022,-294.31586428630897C195.61315116078774,-367.89483035788624,142.5083930523619,-391.53859199412847,171.0100716628343,-469.8463103929542"/><path class="link" d="M156.49052092863022,-294.31586428630897C195.61315116078774,-367.89483035788624,169.4736012815833,-380.64394068441703,203.3683215379,-456.77272882130046"/><path class="link" d="M156.49052092863022,-294.31586428630897C195.61315116078774,-367.89483035788624,195.61315116078774,-367.89483035788624,234.7357813929453,-441.4737964294635"/><path class="link" d="M156.49052092863022,-294.31586428630897C195.61315116078774,-367.89483035788624,220.7996934305019,-353.35337339851094,264.9596321166023,-424.0240480782131"/><path class="link" d="M156.49052092863022,-294.31586428630897C195.61315116078774,-367.89483035788624,244.9105217885303,-337.09041432289484,293.8926261462364,-404.50849718747384"/><path class="link" d="M156.49052092863022,-294.31586428630897C195.61315116078774,-367.89483035788624,267.82817070272466,-319.1851846329075,321.3938048432696,-383.0222215594891"/><path class="link" d="M156.49052092863022,-294.31586428630897C195.61315116078774,-367.89483035788624,289.44098769124884,-299.7249168077713,347.32918522949865,-359.6699001693256"/><path class="link" d="M156.49052092863022,-294.31586428630897C195.61315116078774,-367.89483035788624,309.64367728224755,-278.8044193161909,371.5724127386971,-334.5653031794291"/><path class="link" d="M156.49052092863022,-294.31586428630897C195.61315116078774,-367.89483035788624,328.3378140028007,-256.52561471902436,394.0053768033609,-307.8307376628293"/><path class="link" d="M328.2692510040693,-57.88272588897686C410.3365637550866,-72.35340736122107,360.84391824351604,-208.33333333333331,433.0127018922193,-250"/><path class="link" d="M328.2692510040693,-57.88272588897686C410.3365637550866,-72.35340736122107,374.4975192913196,-182.6546444954489,449.3970231495835,-219.1855733945387"/><path class="link" d="M328.2692510040693,-57.88272588897686C410.3365637550866,-72.35340736122107,386.32660606949474,-156.08608058996336,463.5919272833937,-187.30329670795606"/><path class="link" d="M328.2692510040693,-57.88272588897686C410.3365637550866,-72.35340736122107,396.27354845631396,-128.75708098956142,475.52825814757676,-154.5084971874737"/><path class="link" d="M328.2692510040693,-57.88272588897686C410.3365637550866,-72.35340736122107,404.2898859483318,-100.80078983319483,485.14786313799823,-120.9609477998338"/><path class="link" d="M328.2692510040693,-57.88272588897686C410.3365637550866,-72.35340736122107,410.3365637550866,-72.35340736122107,492.403876506104,-86.8240888334653"/><path class="link" d="M328.2692510040693,-57.88272588897686C410.3365637550866,-72.35340736122107,414.38412307011384,-43.55352636152233,497.2609476841366,-52.2642316338268"/><path class="link" d="M328.2692510040693,-57.88272588897686C410.3365637550866,-72.35340736122107,416.41284459128985,-14.541456959375516,499.6954135095479,-17.44974835125062"/><path class="link" d="M328.2692510040693,-57.88272588897686C410.3365637550866,-72.35340736122107,416.41284459128985,14.54145695937533,499.6954135095479,17.4497483512504"/><path class="link" d="M328.2692510040693,-57.88272588897686C410.3365637550866,-72.35340736122107,414.38412307011384,43.55352636152224,497.2609476841366,52.2642316338267"/><path class="link" d="M328.2692510040693,-57.88272588897686C410.3365637550866,-72.35340736122107,410.3365637550866,72.35340736122097,492.403876506104,86.82408883346518"/><path class="link" d="M313.2308735953028,114.00671444188951C391.53859199412847,142.50839305236187,396.273548456314,128.75708098956125,475.5282581475769,154.5084971874735"/><path class="link" d="M313.2308735953028,114.00671444188951C391.53859199412847,142.50839305236187,386.32660606949474,156.0860805899632,463.5919272833938,187.30329670795584"/><path class="link" d="M247.71494182579815,223.04353545295265C309.64367728224767,278.80441931619083,360.8439182435162,208.3333333333331,433.01270189221947,249.99999999999972"/><path class="link" d="M247.71494182579815,223.04353545295265C309.64367728224767,278.80441931619083,345.4323218979341,232.99704311281096,414.518786277521,279.5964517353732"/><path class="link" d="M247.71494182579815,223.04353545295265C309.64367728224767,278.80441931619083,328.3378140028009,256.52561471902413,394.0053768033611,307.830737662829"/><path class="link" d="M247.71494182579815,223.04353545295265C309.64367728224767,278.80441931619083,309.64367728224767,278.80441931619083,371.5724127386972,334.565303179429"/><path class="link" d="M247.71494182579815,223.04353545295265C309.64367728224767,278.80441931619083,289.44098769124895,299.7249168077712,347.32918522949876,359.6699001693255"/><path class="link" d="M247.71494182579815,223.04353545295265C309.64367728224767,278.80441931619083,267.8281707027249,319.18518463290735,321.3938048432699,383.02222155948886"/><path class="link" d="M247.71494182579815,223.04353545295265C309.64367728224767,278.80441931619083,244.91052178853064,337.0904143228946,293.8926261462368,404.50849718747355"/><path class="link" d="M114.00671444188988,313.2308735953027C142.50839305236235,391.53859199412835,195.61315116078808,367.894830357886,234.7357813929457,441.4737964294633"/><path class="link" d="M114.00671444188988,313.2308735953027C142.50839305236235,391.53859199412835,169.47360128158363,380.6439406844169,203.36832153790039,456.77272882130035"/><path class="link" d="M114.00671444188988,313.2308735953027C142.50839305236235,391.53859199412835,142.50839305236235,391.53859199412835,171.01007166283483,469.846310392954"/><path class="link" d="M114.00671444188988,313.2308735953027C142.50839305236235,391.53859199412835,114.84889825708335,400.52570664096606,137.81867790850004,480.63084796915933"/><path class="link" d="M114.00671444188988,313.2308735953027C142.50839305236235,391.53859199412835,86.62987117406671,407.56150030575225,103.95584540888007,489.07380036690273"/><path class="link" d="M-11.633165567500022,333.1302756730319C-14.541456959375026,416.41284459128985,29.065197393385787,415.65168760826003,34.87823687206295,498.7820251299121"/><path class="link" d="M-11.633165567500022,333.1302756730319C-14.541456959375026,416.41284459128985,2.1055064575309595e-13,416.66666666666663,2.5266077490371515e-13,500"/><path class="link" d="M-11.633165567500022,333.1302756730319C-14.541456959375026,416.41284459128985,-29.065197393385187,415.6516876082601,-34.878236872062224,498.78202512991214"/><path class="link" d="M-11.633165567500022,333.1302756730319C-14.541456959375026,416.41284459128985,-57.98879206669361,412.61169530898763,-69.58655048003234,495.13403437078523"/><path class="link" d="M-114.00671444188929,313.23087359530285C-142.5083930523616,391.5385919941286,-114.84889825708258,400.52570664096623,-137.8186779084991,480.63084796915956"/><path class="link" d="M-114.00671444188929,313.23087359530285C-142.5083930523616,391.5385919941286,-142.5083930523616,391.5385919941286,-171.01007166283395,469.8463103929543"/><path class="link" d="M-114.00671444188929,313.23087359530285C-142.5083930523616,391.5385919941286,-169.47360128158311,380.64394068441715,-203.36832153789973,456.7727288213006"/><path class="link" d="M-231.55279015299888,239.77993344621723C-289.4409876912486,299.72491680777154,-220.7996934305018,353.35337339851094,-264.95963211660217,424.0240480782131"/><path class="link" d="M-231.55279015299888,239.77993344621723C-289.4409876912486,299.72491680777154,-244.91052178853008,337.09041432289496,-293.8926261462361,404.508497187474"/><path class="link" d="M-231.55279015299888,239.77993344621723C-289.4409876912486,299.72491680777154,-267.82817070272455,319.18518463290764,-321.39380484326944,383.0222215594892"/><path class="link" d="M-231.55279015299888,239.77993344621723C-289.4409876912486,299.72491680777154,-289.4409876912486,299.72491680777154,-347.32918522949836,359.6699001693259"/><path class="link" d="M-231.55279015299888,239.77993344621723C-289.4409876912486,299.72491680777154,-309.64367728224727,278.80441931619123,-371.57241273869676,334.5653031794295"/><path class="link" d="M-231.55279015299888,239.77993344621723C-289.4409876912486,299.72491680777154,-328.3378140028006,256.5256147190245,-394.0053768033608,307.8307376628294"/><path class="link" d="M-231.55279015299888,239.77993344621723C-289.4409876912486,299.72491680777154,-345.4323218979339,232.99704311281133,-414.5187862775207,279.5964517353736"/><path class="link" d="M-330.08935624719015,-46.391033653354874C-412.61169530898763,-57.98879206669359,-374.49751929131935,182.65464449544933,-449.3970231495832,219.18557339453923"/><path class="link" d="M-330.08935624719015,-46.391033653354874C-412.61169530898763,-57.98879206669359,-386.3266060694945,156.08608058996376,-463.5919272833935,187.30329670795655"/><path class="link" d="M-330.08935624719015,-46.391033653354874C-412.61169530898763,-57.98879206669359,-396.27354845631385,128.75708098956179,-475.52825814757665,154.50849718747418"/><path class="link" d="M-330.08935624719015,-46.391033653354874C-412.61169530898763,-57.98879206669359,-404.28988594833174,100.80078983319524,-485.1478631379981,120.9609477998343"/><path class="link" d="M-330.08935624719015,-46.391033653354874C-412.61169530898763,-57.98879206669359,-410.3365637550866,72.3534073612213,-492.4038765061039,86.82408883346557"/><path class="link" d="M-330.08935624719015,-46.391033653354874C-412.61169530898763,-57.98879206669359,-414.38412307011384,43.55352636152257,-497.2609476841366,52.26423163382709"/><path class="link" d="M-330.08935624719015,-46.391033653354874C-412.61169530898763,-57.98879206669359,-416.4128445912898,14.54145695937603,-499.69541350954785,17.449748351251237"/><path class="link" d="M-330.08935624719015,-46.391033653354874C-412.61169530898763,-57.98879206669359,-416.41284459128985,-14.541456959375186,-499.6954135095479,-17.449748351250225"/><path class="link" d="M-330.08935624719015,-46.391033653354874C-412.61169530898763,-57.98879206669359,-414.3841230701139,-43.55352636152173,-497.26094768413674,-52.264231633826085"/><path class="link" d="M-330.08935624719015,-46.391033653354874C-412.61169530898763,-57.98879206669359,-410.33656375508673,-72.35340736122048,-492.4038765061041,-86.82408883346459"/><path class="link" d="M-330.08935624719015,-46.391033653354874C-412.61169530898763,-57.98879206669359,-404.2898859483319,-100.80078983319443,-485.14786313799834,-120.96094779983332"/><path class="link" d="M-330.08935624719015,-46.391033653354874C-412.61169530898763,-57.98879206669359,-396.2735484563141,-128.75708098956102,-475.52825814757693,-154.50849718747324"/><path class="link" d="M-330.08935624719015,-46.391033653354874C-412.61169530898763,-57.98879206669359,-386.32660606949486,-156.086080589963,-463.5919272833939,-187.30329670795558"/><path class="link" d="M-330.08935624719015,-46.391033653354874C-412.61169530898763,-57.98879206669359,-374.4975192913197,-182.6546444954486,-449.3970231495837,-219.18557339453835"/><path class="link" d="M-330.08935624719015,-46.391033653354874C-412.61169530898763,-57.98879206669359,-360.8439182435162,-208.33333333333306,-433.0127018922195,-249.9999999999997"/><path class="link" d="M-330.08935624719015,-46.391033653354874C-412.61169530898763,-57.98879206669359,-345.43232189793434,-232.99704311281064,-414.51878627752126,-279.5964517353728"/><path class="link" d="M-330.08935624719015,-46.391033653354874C-412.61169530898763,-57.98879206669359,-328.3378140028009,-256.5256147190241,-394.0053768033611,-307.83073766282894"/><path class="link" d="M-330.08935624719015,-46.391033653354874C-412.61169530898763,-57.98879206669359,-309.64367728224795,-278.8044193161905,-371.57241273869755,-334.5653031794286"/><path class="link" d="M-124.86886447197102,-309.06128485559566C-156.08608058996376,-386.3266060694945,-267.82817070272506,-319.1851846329072,-321.3938048432701,-383.0222215594886"/><path class="link" d="M-124.86886447197102,-309.06128485559566C-156.08608058996376,-386.3266060694945,-244.9105217885305,-337.0904143228947,-293.89262614623664,-404.50849718747367"/><path class="link" d="M-124.86886447197102,-309.06128485559566C-156.08608058996376,-386.3266060694945,-220.7996934305027,-353.35337339851037,-264.9596321166033,-424.0240480782125"/><path class="link" d="M-124.86886447197102,-309.06128485559566C-156.08608058996376,-386.3266060694945,-195.6131511607881,-367.894830357886,-234.73578139294577,-441.4737964294633"/><path class="link" d="M-124.86886447197102,-309.06128485559566C-156.08608058996376,-386.3266060694945,-169.47360128158368,-380.6439406844169,-203.36832153790044,-456.77272882130035"/><path class="link" d="M-124.86886447197102,-309.06128485559566C-156.08608058996376,-386.3266060694945,-142.50839305236255,-391.53859199412824,-171.0100716628351,-469.8463103929539"/><path class="link" d="M-124.86886447197102,-309.06128485559566C-156.08608058996376,-386.3266060694945,-114.8488982570832,-400.52570664096606,-137.81867790849986,-480.63084796915933"/><path class="link" d="M-124.86886447197102,-309.06128485559566C-156.08608058996376,-386.3266060694945,-86.62987117406693,-407.5615003057522,-103.95584540888034,-489.0738003669027"/><path class="link" d="M-124.86886447197102,-309.06128485559566C-156.08608058996376,-386.3266060694945,-57.98879206669446,-412.6116953089875,-69.58655048003335,-495.13403437078506"/><path class="link" d="M-124.86886447197102,-309.06128485559566C-156.08608058996376,-386.3266060694945,-29.065197393386025,-415.65168760826003,-34.87823687206323,-498.7820251299121"/><g class="node node--internal" transform="translate(0,0)"><circle r="3"/><text dy="0.31em" x="10" text-anchor="start" transform="rotate(287.5)">Fog Computing Research</text></g><g class="node node--internal" transform="translate(152.25757627376683,67.78944051263328)"><circle r="3"/><text dy="0.31em" x="-10" text-anchor="end" transform="rotate(23.999999999999968)">Conferences</text></g><g class="node node--internal" transform="translate(-163.60453057461066,-31.80149922942405)"><circle r="3"/><text dy="0.31em" x="10" text-anchor="start" transform="rotate(371)">Journals/Mag</text></g><g class="node node--internal" transform="translate(156.49052092863022,-294.31586428630897)"><circle r="3"/><text dy="0.31em" x="-10" text-anchor="end" transform="rotate(-62.00000000000001)">General</text></g><g class="node node--leaf" transform="translate(269.6723314583158,-195.92841743082437)"><circle r="3"/><text dy="0.31em" x="10" text-anchor="start" transform="rotate(-36)">GeneralACM ANCS</text></g><g class="node node--internal" transform="translate(328.2692510040693,-57.88272588897686)"><circle r="3"/><text dy="0.31em" x="-10" text-anchor="end" transform="rotate(-10.000000000000014)">Fog/Edge Computing</text></g><g class="node node--internal" transform="translate(313.2308735953028,114.00671444188951)"><circle r="3"/><text dy="0.31em" x="-10" text-anchor="end" transform="rotate(19.99999999999999)">Internet of Things</text></g><g class="node node--internal" transform="translate(247.71494182579815,223.04353545295265)"><circle r="3"/><text dy="0.31em" x="-10" text-anchor="end" transform="rotate(41.999999999999986)">Cloud Computing</text></g><g class="node node--internal" transform="translate(114.00671444188988,313.2308735953027)"><circle r="3"/><text dy="0.31em" x="-10" text-anchor="end" transform="rotate(69.99999999999994)">Mobile Computing</text></g><g class="node node--internal" transform="translate(-11.633165567500022,333.1302756730319)"><circle r="3"/><text dy="0.31em" x="10" text-anchor="start" transform="rotate(272)">Distributed Computing</text></g><g class="node node--internal" transform="translate(-114.00671444188929,313.23087359530285)"><circle r="3"/><text dy="0.31em" x="10" text-anchor="start" transform="rotate(290)">Systems</text></g><g class="node node--internal" transform="translate(-231.55279015299888,239.77993344621723)"><circle r="3"/><text dy="0.31em" x="10" text-anchor="start" transform="rotate(313.99999999999994)">Magazine</text></g><g class="node node--internal" transform="translate(-330.08935624719015,-46.391033653354874)"><circle r="3"/><text dy="0.31em" x="10" text-anchor="start" transform="rotate(368)">Journal (ACM &amp; IEEE)</text></g><g class="node node--internal" transform="translate(-124.86886447197102,-309.06128485559566)"><circle r="3"/><text dy="0.31em" x="10" text-anchor="start" transform="rotate(427.99999999999994)">Journal (Elsevier &amp; Springer)</text></g><g class="node node--leaf" transform="translate(34.87823687206251,-498.78202512991214)"><circle r="3"/><text dy="0.31em" x="10" text-anchor="start" transform="rotate(-86.00000000000001)">ACM SIGCOMM</text></g><g class="node node--leaf" transform="translate(69.58655048003263,-495.1340343707852)"><circle r="3"/><text dy="0.31em" x="10" text-anchor="start" transform="rotate(-82.00000000000001)">USENIX NSDI</text></g><g class="node node--leaf" transform="translate(103.95584540887951,-489.07380036690284)"><circle r="3"/><text dy="0.31em" x="10" text-anchor="start" transform="rotate(-78.00000000000003)">ACM CoNEXT</text></g><g class="node node--leaf" transform="translate(137.81867790849947,-480.63084796915945)"><circle r="3"/><text dy="0.31em" x="10" text-anchor="start" transform="rotate(-74.00000000000001)">IEEE INFOCOM</text></g><g class="node node--leaf" transform="translate(171.0100716628343,-469.8463103929542)"><circle r="3"/><text dy="0.31em" x="10" text-anchor="start" transform="rotate(-70)">ACM SIGMETRICS</text></g><g class="node node--leaf" transform="translate(203.3683215379,-456.77272882130046)"><circle r="3"/><text dy="0.31em" x="10" text-anchor="start" transform="rotate(-66.00000000000001)">ACM HotNets</text></g><g class="node node--leaf" transform="translate(234.7357813929453,-441.4737964294635)"><circle r="3"/><text dy="0.31em" x="10" text-anchor="start" transform="rotate(-62.00000000000001)">USENIX ATC</text></g><g class="node node--leaf" transform="translate(264.9596321166023,-424.0240480782131)"><circle r="3"/><text dy="0.31em" x="10" text-anchor="start" transform="rotate(-58.00000000000003)">ACM IMC</text></g><g class="node node--leaf" transform="translate(293.8926261462364,-404.50849718747384)"><circle r="3"/><text dy="0.31em" x="10" text-anchor="start" transform="rotate(-54.00000000000003)">ACM/IEEE ANCS</text></g><g class="node node--leaf" transform="translate(321.3938048432696,-383.0222215594891)"><circle r="3"/><text dy="0.31em" x="10" text-anchor="start" transform="rotate(-50.000000000000014)">IEEE ICC</text></g><g class="node node--leaf" transform="translate(347.32918522949865,-359.6699001693256)"><circle r="3"/><text dy="0.31em" x="10" text-anchor="start" transform="rotate(-46.00000000000001)">IEEE GLOBECOM</text></g><g class="node node--leaf" transform="translate(371.5724127386971,-334.5653031794291)"><circle r="3"/><text dy="0.31em" x="10" text-anchor="start" transform="rotate(-42)">IEEE ICNP</text></g><g class="node node--leaf" transform="translate(394.0053768033609,-307.8307376628293)"><circle r="3"/><text dy="0.31em" x="10" text-anchor="start" transform="rotate(-38.000000000000014)">IEEE/OSA OFC</text></g><g class="node node--leaf" transform="translate(433.0127018922193,-250)"><circle r="3"/><text dy="0.31em" x="10" text-anchor="start" transform="rotate(-30.000000000000004)">IEEE/ACM SEC</text></g><g class="node node--leaf" transform="translate(449.3970231495835,-219.1855733945387)"><circle r="3"/><text dy="0.31em" x="10" text-anchor="start" transform="rotate(-25.999999999999996)">USENIX HotEdge</text></g><g class="node node--leaf" transform="translate(463.5919272833937,-187.30329670795606)"><circle r="3"/><text dy="0.31em" x="10" text-anchor="start" transform="rotate(-22.000000000000007)">IEEE EDGE</text></g><g class="node node--leaf" transform="translate(475.52825814757676,-154.5084971874737)"><circle r="3"/><text dy="0.31em" x="10" text-anchor="start" transform="rotate(-18)">IEEE FMEC</text></g><g class="node node--leaf" transform="translate(485.14786313799823,-120.9609477998338)"><circle r="3"/><text dy="0.31em" x="10" text-anchor="start" transform="rotate(-13.999999999999993)">ACM MECOMM</text></g><g class="node node--leaf" transform="translate(492.403876506104,-86.8240888334653)"><circle r="3"/><text dy="0.31em" x="10" text-anchor="start" transform="rotate(-10.000000000000014)">ACM EdgeSys</text></g><g class="node node--leaf" transform="translate(497.2609476841366,-52.2642316338268)"><circle r="3"/><text dy="0.31em" x="10" text-anchor="start" transform="rotate(-6.000000000000009)">Fog World Congress</text></g><g class="node node--leaf" transform="translate(499.6954135095479,-17.44974835125062)"><circle r="3"/><text dy="0.31em" x="10" text-anchor="start" transform="rotate(-2.0000000000000155)">IEEE ICFEC</text></g><g class="node node--leaf" transform="translate(499.6954135095479,17.4497483512504)"><circle r="3"/><text dy="0.31em" x="10" text-anchor="start" transform="rotate(1.99999999999999)">IEEE SmartEdge</text></g><g class="node node--leaf" transform="translate(497.2609476841366,52.2642316338267)"><circle r="3"/><text dy="0.31em" x="10" text-anchor="start" transform="rotate(5.999999999999996)">ACM TOPIC</text></g><g class="node node--leaf" transform="translate(492.403876506104,86.82408883346518)"><circle r="3"/><text dy="0.31em" x="10" text-anchor="start" transform="rotate(10.000000000000002)">ACM CitiFog</text></g><g class="node node--leaf" transform="translate(475.5282581475769,154.5084971874735)"><circle r="3"/><text dy="0.31em" x="10" text-anchor="start" transform="rotate(17.999999999999975)">ACM/IEEE IoTDI</text></g><g class="node node--leaf" transform="translate(463.5919272833938,187.30329670795584)"><circle r="3"/><text dy="0.31em" x="10" text-anchor="start" transform="rotate(21.99999999999998)">IEEE WF-IoT</text></g><g class="node node--leaf" transform="translate(433.01270189221947,249.99999999999972)"><circle r="3"/><text dy="0.31em" x="10" text-anchor="start" transform="rotate(29.999999999999964)">ACM SOCC</text></g><g class="node node--leaf" transform="translate(414.518786277521,279.5964517353732)"><circle r="3"/><text dy="0.31em" x="10" text-anchor="start" transform="rotate(33.99999999999997)">USENIX HotCloud</text></g><g class="node node--leaf" transform="translate(394.0053768033611,307.830737662829)"><circle r="3"/><text dy="0.31em" x="10" text-anchor="start" transform="rotate(37.99999999999998)">IEEE/ACM UCC</text></g><g class="node node--leaf" transform="translate(371.5724127386972,334.565303179429)"><circle r="3"/><text dy="0.31em" x="10" text-anchor="start" transform="rotate(41.999999999999986)">IEEE IC2E</text></g><g class="node node--leaf" transform="translate(347.32918522949876,359.6699001693255)"><circle r="3"/><text dy="0.31em" x="10" text-anchor="start" transform="rotate(45.999999999999986)">IEEE Cloud</text></g><g class="node node--leaf" transform="translate(321.3938048432699,383.02222155948886)"><circle r="3"/><text dy="0.31em" x="10" text-anchor="start" transform="rotate(49.999999999999964)">IEEE CloudCom</text></g><g class="node node--leaf" transform="translate(293.8926261462368,404.50849718747355)"><circle r="3"/><text dy="0.31em" x="10" text-anchor="start" transform="rotate(53.99999999999997)">IEEE FiCloud</text></g><g class="node node--leaf" transform="translate(234.7357813929457,441.4737964294633)"><circle r="3"/><text dy="0.31em" x="10" text-anchor="start" transform="rotate(61.999999999999964)">ACM MobiHoc</text></g><g class="node node--leaf" transform="translate(203.36832153790039,456.77272882130035)"><circle r="3"/><text dy="0.31em" x="10" text-anchor="start" transform="rotate(65.99999999999997)">ACM MobiCom</text></g><g class="node node--leaf" transform="translate(171.01007166283483,469.846310392954)"><circle r="3"/><text dy="0.31em" x="10" text-anchor="start" transform="rotate(69.99999999999994)">ACM MobiSys</text></g><g class="node node--leaf" transform="translate(137.81867790850004,480.63084796915933)"><circle r="3"/><text dy="0.31em" x="10" text-anchor="start" transform="rotate(73.99999999999994)">ACM HotMobile</text></g><g class="node node--leaf" transform="translate(103.95584540888007,489.07380036690273)"><circle r="3"/><text dy="0.31em" x="10" text-anchor="start" transform="rotate(77.99999999999996)">ACM MobiArch</text></g><g class="node node--leaf" transform="translate(34.87823687206295,498.7820251299121)"><circle r="3"/><text dy="0.31em" x="10" text-anchor="start" transform="rotate(85.99999999999996)">ACM PODC</text></g><g class="node node--leaf" transform="translate(2.5266077490371515e-13,500)"><circle r="3"/><text dy="0.31em" x="10" text-anchor="start" transform="rotate(89.99999999999997)">IEEE ICDCS</text></g><g class="node node--leaf" transform="translate(-34.878236872062224,498.78202512991214)"><circle r="3"/><text dy="0.31em" x="-10" text-anchor="end" transform="rotate(273.99999999999994)">IEEE PerCom</text></g><g class="node node--leaf" transform="translate(-69.58655048003234,495.13403437078523)"><circle r="3"/><text dy="0.31em" x="-10" text-anchor="end" transform="rotate(277.99999999999994)">ACM DEBS</text></g><g class="node node--leaf" transform="translate(-137.8186779084991,480.63084796915956)"><circle r="3"/><text dy="0.31em" x="-10" text-anchor="end" transform="rotate(285.99999999999994)">ACM SOSP</text></g><g class="node node--leaf" transform="translate(-171.01007166283395,469.8463103929543)"><circle r="3"/><text dy="0.31em" x="-10" text-anchor="end" transform="rotate(290)">ACM SenSys</text></g><g class="node node--leaf" transform="translate(-203.36832153789973,456.7727288213006)"><circle r="3"/><text dy="0.31em" x="-10" text-anchor="end" transform="rotate(293.99999999999994)">ACM EuroSys</text></g><g class="node node--leaf" transform="translate(-264.95963211660217,424.0240480782131)"><circle r="3"/><text dy="0.31em" x="-10" text-anchor="end" transform="rotate(301.99999999999994)">IEEE Computer</text></g><g class="node node--leaf" transform="translate(-293.8926261462361,404.508497187474)"><circle r="3"/><text dy="0.31em" x="-10" text-anchor="end" transform="rotate(305.99999999999994)">IEEE Pervasive Computing</text></g><g class="node node--leaf" transform="translate(-321.39380484326944,383.0222215594892)"><circle r="3"/><text dy="0.31em" x="-10" text-anchor="end" transform="rotate(309.99999999999994)">IEEE Internet Computing</text></g><g class="node node--leaf" transform="translate(-347.32918522949836,359.6699001693259)"><circle r="3"/><text dy="0.31em" x="-10" text-anchor="end" transform="rotate(313.99999999999994)">IEEE Cloud Computing</text></g><g class="node node--leaf" transform="translate(-371.57241273869676,334.5653031794295)"><circle r="3"/><text dy="0.31em" x="-10" text-anchor="end" transform="rotate(317.99999999999994)">IEEE Wireless Communications</text></g><g class="node node--leaf" transform="translate(-394.0053768033608,307.8307376628294)"><circle r="3"/><text dy="0.31em" x="-10" text-anchor="end" transform="rotate(321.99999999999994)">IEEE Network</text></g><g class="node node--leaf" transform="translate(-414.5187862775207,279.5964517353736)"><circle r="3"/><text dy="0.31em" x="-10" text-anchor="end" transform="rotate(326)">IEEE Communication</text></g><g class="node node--leaf" transform="translate(-449.3970231495832,219.18557339453923)"><circle r="3"/><text dy="0.31em" x="-10" text-anchor="end" transform="rotate(333.99999999999994)">IEEE ACCESS</text></g><g class="node node--leaf" transform="translate(-463.5919272833935,187.30329670795655)"><circle r="3"/><text dy="0.31em" x="-10" text-anchor="end" transform="rotate(337.99999999999994)">IEEE TWC</text></g><g class="node node--leaf" transform="translate(-475.52825814757665,154.50849718747418)"><circle r="3"/><text dy="0.31em" x="-10" text-anchor="end" transform="rotate(341.99999999999994)">IEEE TMC</text></g><g class="node node--leaf" transform="translate(-485.1478631379981,120.9609477998343)"><circle r="3"/><text dy="0.31em" x="-10" text-anchor="end" transform="rotate(346)">ACM POMACS</text></g><g class="node node--leaf" transform="translate(-492.4038765061039,86.82408883346557)"><circle r="3"/><text dy="0.31em" x="-10" text-anchor="end" transform="rotate(349.99999999999994)">ACM TOMPECS</text></g><g class="node node--leaf" transform="translate(-497.2609476841366,52.26423163382709)"><circle r="3"/><text dy="0.31em" x="-10" text-anchor="end" transform="rotate(353.99999999999994)">IEEE TETC</text></g><g class="node node--leaf" transform="translate(-499.69541350954785,17.449748351251237)"><circle r="3"/><text dy="0.31em" x="-10" text-anchor="end" transform="rotate(357.99999999999994)">IEEE TSC</text></g><g class="node node--leaf" transform="translate(-499.6954135095479,-17.449748351250225)"><circle r="3"/><text dy="0.31em" x="-10" text-anchor="end" transform="rotate(362)">ACM TOCS</text></g><g class="node node--leaf" transform="translate(-497.26094768413674,-52.264231633826085)"><circle r="3"/><text dy="0.31em" x="-10" text-anchor="end" transform="rotate(365.99999999999994)">ACM TIOT</text></g><g class="node node--leaf" transform="translate(-492.4038765061041,-86.82408883346459)"><circle r="3"/><text dy="0.31em" x="-10" text-anchor="end" transform="rotate(369.9999999999999)">ACM TOIT</text></g><g class="node node--leaf" transform="translate(-485.14786313799834,-120.96094779983332)"><circle r="3"/><text dy="0.31em" x="-10" text-anchor="end" transform="rotate(373.99999999999994)">IEEE TNSM</text></g><g class="node node--leaf" transform="translate(-475.52825814757693,-154.50849718747324)"><circle r="3"/><text dy="0.31em" x="-10" text-anchor="end" transform="rotate(377.99999999999994)">ACM CCR</text></g><g class="node node--leaf" transform="translate(-463.5919272833939,-187.30329670795558)"><circle r="3"/><text dy="0.31em" x="-10" text-anchor="end" transform="rotate(381.99999999999994)">IEEE TCC</text></g><g class="node node--leaf" transform="translate(-449.3970231495837,-219.18557339453835)"><circle r="3"/><text dy="0.31em" x="-10" text-anchor="end" transform="rotate(386)">IEEE JSAC</text></g><g class="node node--leaf" transform="translate(-433.0127018922195,-249.9999999999997)"><circle r="3"/><text dy="0.31em" x="-10" text-anchor="end" transform="rotate(390)">IEEE/ACM TON</text></g><g class="node node--leaf" transform="translate(-414.51878627752126,-279.5964517353728)"><circle r="3"/><text dy="0.31em" x="-10" text-anchor="end" transform="rotate(393.9999999999999)">IEEE IoTJ</text></g><g class="node node--leaf" transform="translate(-394.0053768033611,-307.83073766282894)"><circle r="3"/><text dy="0.31em" x="-10" text-anchor="end" transform="rotate(397.99999999999994)">IEEE Comm Sur Tut</text></g><g class="node node--leaf" transform="translate(-371.57241273869755,-334.5653031794286)"><circle r="3"/><text dy="0.31em" x="-10" text-anchor="end" transform="rotate(401.99999999999994)">ACM CSUR</text></g><g class="node node--leaf" transform="translate(-321.3938048432701,-383.0222215594886)"><circle r="3"/><text dy="0.31em" x="-10" text-anchor="end" transform="rotate(409.9999999999999)">Elsevier Dig ComNet</text></g><g class="node node--leaf" transform="translate(-293.89262614623664,-404.50849718747367)"><circle r="3"/><text dy="0.31em" x="-10" text-anchor="end" transform="rotate(413.99999999999994)">Elsevier Adhoc Net</text></g><g class="node node--leaf" transform="translate(-264.9596321166033,-424.0240480782125)"><circle r="3"/><text dy="0.31em" x="-10" text-anchor="end" transform="rotate(417.9999999999999)">Elsevier PerMob Comp</text></g><g class="node node--leaf" transform="translate(-234.73578139294577,-441.4737964294633)"><circle r="3"/><text dy="0.31em" x="-10" text-anchor="end" transform="rotate(421.99999999999994)">Springer CCF TON</text></g><g class="node node--leaf" transform="translate(-203.36832153790044,-456.77272882130035)"><circle r="3"/><text dy="0.31em" x="-10" text-anchor="end" transform="rotate(425.99999999999994)">Springer JCIN</text></g><g class="node node--leaf" transform="translate(-171.0100716628351,-469.8463103929539)"><circle r="3"/><text dy="0.31em" x="-10" text-anchor="end" transform="rotate(429.99999999999994)">Elsevier Comp Net</text></g><g class="node node--leaf" transform="translate(-137.81867790849986,-480.63084796915933)"><circle r="3"/><text dy="0.31em" x="-10" text-anchor="end" transform="rotate(434)">Springer JISA</text></g><g class="node node--leaf" transform="translate(-103.95584540888034,-489.0738003669027)"><circle r="3"/><text dy="0.31em" x="-10" text-anchor="end" transform="rotate(437.99999999999994)">Elsevier Comp Comm</text></g><g class="node node--leaf" transform="translate(-69.58655048003335,-495.13403437078506)"><circle r="3"/><text dy="0.31em" x="-10" text-anchor="end" transform="rotate(441.99999999999994)">Elsevier JNCA</text></g><g class="node node--leaf" transform="translate(-34.87823687206323,-498.7820251299121)"><circle r="3"/><text dy="0.31em" x="-10" text-anchor="end" transform="rotate(445.99999999999994)">Elsevier FGCS</text></g></g></svg>